<svg xmlns="http://www.w3.org/2000/svg" version="1.1" xlink="http://www.w3.org/1999/xlink" xmlns:svgjs="http://svgjs.com/svgjs" width="300" height="118.62933179962985"><defs id="SvgjsDefs1332"/><g id="SvgjsG1333" transform="scale(0.6493366236120499)" opacity="1"><g id="SvgjsG1334" class="y6T4sy15L" transform="translate(175.59217497070478, 0) scale(0.39818774724610273)" light-content="false" fill="#494949"><path d="M78.5 28.4s.8-.5.6-.4c-1.4.8-2.3 1.3-2.8 1.6.9-.5 1.3-.8 2.2-1.2zm7.2-3.8c-.1 0 1.8-.8 1.3-.6-.6.3-.7.3-1.3.6-.9.4-5.3 2.6-4.7 2.4 1.8-1 3.2-1.7 4.7-2.4zM54.1 232.2c-1-1-1.5-1.5-2.1-1.9.6.5 2.8 2.5 2.1 1.9zm20.5 15.3c.2.1.4.2.5.3-.2-.1-.4-.2-.5-.3zm189-89.6c0-.5.5-3.7.5-4.2-.1.4-.1 1-.1 1 0 .5-.6 4.3-.4 3.2zm-213 70.9c.1.1.1.1 0 0zm0 0l-.8-.8c-.9-.9-2.1-2.2-2.7-2.8-1.3-1.3-2.5-2.7-3.3-3.7 1.6 2 4.6 5.1 6.2 6.7l.6.6zm4 3.7c.2.2.3.3.6.5-.3-.2-.4-.3-.6-.5zM13.4 131.6c-.1 1-.2 4.3-.2 5.3 0-.6 0-1.5.1-2.4 0-1 .1-2.1.1-2.9zm224 86.3c-.1.2.5-.6 1.1-1.4 0 0-.5.7-1.1 1.4zm-214-29.7c-.2-.3.7 1.7.8 1.9.1 0-.4-1-.8-1.9zm14.4 25.3c-.8-1.2-1.3-1.8-.5-.6-1.2-1.7-1.4-2-2.2-3.2 1.6 2.3.4.6.7 1.2.9 1.3.3.4.7.9l1.4 2c.1.1 0 0 .2.3.2.4-.7-.9-.9-1.1.6.9 1.4 2 1.7 2.3-.9-1.2-.1-.2 0 0-.3-.7-1.3-1.9-1.1-1.8z"/><path d="M29.8 201.1c0-.1.2.3.2.3-.3-.6-.8-1.4-1.1-2-.3-.6-.6-1.1-.6-1.1.6 1.1.8 1.3 1.4 2.4-.4-.8.6 1 .6.9-.1-.2-.5-.9-.7-1.2-.5-.8-.9-1.6-1.4-2.4-.4-.8-.8-1.5-1.1-2.2-.7-1.3-1.2-2.4-1.7-3.2-.4-.8-.2-.4-.6-1.3-.5-1.1-1.1-2.3-1.6-3.5.3.6.5 1.1.5 1.3.5 1 .9 2 1.4 3.2.5 1.1 1.1 2.3 1.7 3.5.3.6.3.4.8 1.6-.2-.3-.3-.5-.7-1.3-.2-.5-.5-1.1-.5-.9.6 1.1 1.1 2.2 1.6 3.2.9 1 1.4 1.9 1.8 2.7zm-3.2-6.2c-.1-.3-.4-.9-.4-.9-.5-.9-1.6-3.4-.6-1.3.4 1 1.2 2.4 1 2.2zm11.2 18.9c.2.2.3.4-.5-.9.1.3-.2 0 .5.9zm-8.9-13.9c.2.4.4.7.5.9.1.1.5.8.6.9-.6-1-.8-1.3-1.1-1.8zm3.8 6.3c.4.6.1.1 0 0 .7 1.1 1.8 2.9 2.4 3.5-.3-.5-.7-1-.6-.9-1.1-1.8-1.4-2.1-2.3-3.6-.1-.1 0 0-.2-.3-.2-.2.4.7.5.9.1.2-.3-.4-.2-.3.1.2.9 1.4.7 1.2-.6-1-.9-1.5-1.7-2.7.1.2.6.8.3.3-.5-.6-1.7-3-1.1-1.8.1.1.8 1.5.7 1.2-.4-.6-1.3-2.2-1.6-2.8.5.8 1.2 2.1 2 3.4.8 1.3 1.6 2.5 2.2 3.5-.5-.7 0-.1.2.3.8 1.2 1.1 1.7 2 2.9-.1-.2-.7-1.1-1.4-2.1-.7-.8-1.5-2-1.9-2.7z"/><path d="M28.6 199.3c.7 1.3.7 1.2 1.1 1.8 0 0-.1-.1-.2-.3.6 1 1.1 1.9 1.5 2.6.4.7.8 1.2 1.1 1.6.3.5.7 1 .6.9-.2-.3-1-1.6-1.2-2 0-.1-.1-.1-.1-.1s0 .1.1.1c.1.2.4.7.3.5-.6-.9-.7-1.1-1.1-1.8.8 1.5.2.5.3.6l.3.6c-.2-.3-.4-.7-.6-1.1-.2-.4-.4-.7-.4-.7s.3.5.4.6c-.5-1-.4-.7-.7-1.2-.3-.5 0 0 .1 0-.7-1.2-1.6-2.8-1.8-3.1.3.8.4 1 .3 1zm-4.1-8.6c-.2-.4-.2-.5-.4-1 0-.1-.1-.1-.2-.3-.3-.6-.6-1.3-.7-1.6.1.3.2.4.1.3.4.9.8 1.8 1 2.3.1.2-.1-.1.2.3.1.3.2.6.4 1-.5-1.1 0-.2-.1-.3.3.6.7 1.6.6 1.3-.5-1.1-.8-1.7-.9-2zm-1.9-3.9c-.2-.5-.4-1-.3-1 .2.4.3.8.3.7-.5-1.4-1-2.6-1.1-2.6.5 1.3.8 2.1.7 2 .7 1.8.7 1.8 1.3 2.9 0 .1-.6-1.3-.1 0l.5 1c-.5-1-.7-1.5-1-2.3-.1-.2-.2-.4-.3-.7zm1.5 3.9c-.3-.7-.9-2.1-1-2.3.3.8.9 2.1 1 2.3zm.4.7c-.5-1.2-1.4-3.2-1.7-3.9.5 1.2 1.4 3.2 1.7 3.9zm1 1.9c.2.4.3.7.4.6-.5-1.1-.7-1.4-.9-1.9.1.4.3.9.5 1.3z"/><path d="M23.1 187.8c-.4-.8-.3-.8-.5-1.3.1.4.2.5.2.7-.2-.6-.6-1.4-.8-2 .3.7.8 2.1 1.1 2.6zM76.6 29.3c.3-.2 1.4-.8 1.8-1.1-.9.5-.4.2-1.5.8.6-.2-1.3.9-.3.3zm148.1 202.3c.6-.6 1-.9 1-1-.9.8-1 .9-1.8 1.7-.2.3 1-.9.8-.7zm-1.6 1.4c0-.1-1 .8-1.9 1.6 0 .1 1.5-1.2 1.9-1.6zm-176.4-8.6c-.9-.9-1.4-1.5-2.6-2.9l.3.3c-.8-1-.7-.8-1.4-1.6-.4-.4-.8-.9-1.2-1.4-.4-.5-.7-1-1.1-1.4-.7-1-1.5-1.9-2.1-2.7 1.1 1.4.3.5.6.8.1.1.3.4.4.6.5.7.8 1 1.1 1.4.1.2.1.1.4.6.4.5.6.8.9 1.1 0 0-.1 0 0 0 .3.4 1.1 1.3 1.4 1.6.2.2.7.8.9 1.1-.1-.1-1-1.2-1-1.1.6.8 1.7 2 1.9 2.1.4.5 2 2.2 2.6 2.8-.5-.7-1.4-1.7-1.1-1.3zm-7.3-8.7c.1.1 1.1 1.4 1.8 2.2-.1.1-.8-.9-1.8-2.2z"/><path d="M221.8 234.1c.1-.1-1.5 1.2-1.3 1.2 1.3-1.1 2.1-1.8 3.2-2.7.2-.4-1.7 1.3-1.9 1.5zM21.3 182.9c-.1-.4-.6-1.6-.8-2.3.3 1 1 2.9 1.5 4-.3-.7-.4-.9-.7-1.7zM234.9 57.7c.4.5 1.4 1.6 1.4 1.6-1.2-1.4-1.5-1.8-2.5-2.9-.2-.1.8.9 1.1 1.3zm-11.3 174.7c-.5.4-1 .8-1.3 1.1.5-.3 3.7-3.4 5.4-5-.1.1-1.5 1.4-2.6 2.4l-1.5 1.5zM128 13.8h-.7c-.6 0-.3 0-1.1.1.2 0-.4 0 .4-.1l2.8-.2c-.1 0 .4-.1.4-.1-2.1.1-3.4.2-4.6.4-1.2.1-2.4.3-4.6.6-.9.2-1.9.3-2.8.5-.4.1-.7.1-1.4.3-.6.1-.8.1-1.4.2-1.3.2-2.6.6-3.9.8-1.3.3-2.7.6-4 1-1.1.3-2.1.6-3.2.9-.5.1-1.1.3-1.6.4-.5.2-1.1.4-1.6.5-1 .3-1.9.7-3 1-1.8.6-3.9 1.5-5.9 2.2-2 .8-3.9 1.7-5.2 2.3-.6.3-1.3.6-1.9.9-2.5 1.3-5 2.4-7.2 3.7-1.3.8-2.7 1.5-4 2.3l-.9.6s-.4.2-.3.1c-1 .7-2.4 1.5-3.8 2.5s-3 2.1-4.3 3.1c-.3.3 1-.7 1.2-.8-.5.3-2.6 2-1.7 1.2-2.1 1.6-4.8 3.7-6.3 5.1-.1 0-.5.4-1.1.9.7-.6-.5.5-1.1 1 .3-.3.8-.7.8-.7-1.2 1-2.2 1.9-3.1 2.8-1.6 1.5-1.9 1.8-3.3 3.2-.2.3.8-.8 1-.9-1.7 1.7-2.7 2.8-3.7 3.8-.3.4-.7.8-1.1 1.2-.4.4-.8.9-1.1 1.3-.7.9-1.4 1.7-1.9 2.2l.5-.5c-.9 1-1.5 1.7-1.8 2.1.4-.4-.9 1.2-.9 1.1.2-.2.7-1 .6-.8-.4.5-2.4 3.1-2.6 3.4-.5.5-1.5 2-2.3 3.1-.4.5-.5.6-.8 1.1-.3.5-.7 1-1.1 1.5-.3.5-.7 1.1-1 1.6-.7 1.1-1.3 2.1-1.8 2.8-1.4 2.3-2.5 4.4-3.6 6.3-1 2-2 3.8-2.9 5.8-.3.7-.7 1.6-.8 1.9.2-.4.4-.9.4-1-.5 1.1-.6 1.3-1 2.2-.2.6-.4.9-.8 1.9-.5 1.2-.6 1.5-.9 2.3-.2.4-.1.3-.2.7-.3.8-1.3 3.5-1.4 4-.2.5-.3.8-.5 1.3s-.4 1.2-.5 1.7c-.3.9-.6 1.6-.8 2.7-.3 1.2-.8 2.8-1.1 4.1-.3 1.2-.6 2.6-.9 4-.3 1.4-.7 2.9-.9 4.2-.1.5 0 .3-.2 1.4.1-.7 0 .1-.1.3-.2 1.1-.3 2-.5 3-.1 1-.2 1.9-.4 2.9-.1.9-.2 1.9-.4 2.9-.1 1-.2 2-.3 3.1 0 .6-.1 2-.2 3.2 0-.7.2-2.1.1-1.8-.1.7-.1 1.4-.2 2.3 0 .8 0 1.7-.1 2.6 0 1.8-.1 3.7 0 5.3v3.2c.1 2.2.3 4.2.4 6 0-.1.2 1.6.2 2.1-.1-.5-.1-1.2-.1-1.1 0 .8.2 1.4.3 2.8-.1-1 .2 1.1.3 1.8 0 .1-.2-1.6-.2-1.1.2 1.9.2 1.8.4 3.1.1.6.4 2 .4 2.1-.1-.7-.1-.7-.2-1 0 .4 0 .2-.2-.7.1.2-.1-.8-.2-1.7-.1-.5-.1-.3-.1-.7-.1-.9-.2-1.8-.3-2.8-.1-.5-.1-1-.2-1.5 0-.5-.1-1.1-.1-1.6 0 .1.1.4 0 0-.1-2.1-.3-3.8-.3-5.5 0-1.7-.1-3.2-.1-4.7s.1-3.1.1-4.8c0-1.7.2-3.6.3-5.8 0-.1-.1.5-.1.7v-.7c.1-.9.1-1.1.1-1 0-.4.1-1.1.1-1.6.1-.6.1-1.1.2-1.2 0 .2-.2 1.3-.2 2.1v.7c-.1.9-.1 1.7-.2 2.1-.1 1.2 0 .9-.1 2.1-.1 1.8-.1 5.1-.2 6.3v-.6c-.1 2.7.1 4.2.1 6.7 0 0-.1-1.2-.1-.4 0 .1 0 .6.1 1.4 0-.4 0-.4.1.4.1 1.8.2 3.5.4 6 .1.2 0-.1 0-.4v-.6c.2 1.9.3 2.9.6 5.2.1.3-.2-1.4-.1-1 .1.9.3 2.3.3 2.1 0 .4.1.7.1.7.2 1.2.2.9.4 2.1 0 .2.3 1.8.4 2.4.2 1.1.5 2.6.5 2.4-.3-1.4-.5-2.8-.8-4.2-.2-1.4-.5-2.8-.6-4.1-.1-.7-.1-1.1-.2-1.8s-.1-1.1-.2-1.7c-.1-.6-.2-1.4-.2-2.1-.1-2.2-.4-4.5-.4-6.7 0-.7 0-1.3-.1-2.1-.1-3 0-6.3.1-9.8v-1.1c.1-1.2.2-2.9.3-3.5 0-.3 0-.5.1-1.4 0-.1-.1 1-.1 1.1.2-2.6.6-4.6.7-5.9.3-2 .6-3.6.8-4.9.1-.4.1-.5.2-1 .2-1.2.5-2.5.8-3.8.3-1.3.6-2.7.9-4.1.2-.6.2-.8.4-1.4.1-.4.2-.8.3-1 .1-.4.2-1 .4-1.4.2-.6.3-1.1.5-1.7.1-.4.2-.5.3-1 .7-2 1.2-3.8 1.9-5.6.3-.8.7-1.9 1-2.6.2-.4.2-.5.4-1 .2-.6.3-.8.5-1.3.6-1.3 1.4-3.3 2.3-5.1.5-1 1-2.1 1.6-3.2.6-1.1 1.1-2.3 1.8-3.4.3-.6.7-1.2 1-1.9.3-.5 1.1-2 1.6-2.8.8-1.2 1.6-2.5 2.1-3.2.3-.5.1-.3.6-.9.4-.7.8-1.3 1.6-2.3 0-.1 0 0 .2-.3.9-1.2 1.7-2.5 2.9-4 0 0 0 .1.2-.2 0 0 .8-1 1.1-1.4.7-.8 1.4-1.8 2.1-2.6.7-.8 1.4-1.6 1.9-2.2.3-.4.5-.6.7-.8.1-.2.3-.3.7-.8.9-1.2 3-3.1 4.1-4.4l.8-.8c.4-.4 1-.9 1.4-1.4l2-2-.5.5c1.4-1.4 2.9-2.6 4.2-3.8.6-.5.5-.4 1.3-1.1.9-.8 1.3-1.1 2.2-1.8 1.1-.9 2.1-1.6 3-2.4.4-.3.7-.5 1.1-.8 4.7-3.4 10-6.7 15.2-9.5.9-.4 1.6-.8 2.5-1.2 1.1-.5 2.3-1.2 3.6-1.8 1.3-.6 2.6-1.1 3.7-1.6.4-.2.6-.3 1.3-.6 1.6-.6 3.4-1.3 4.9-1.9.6-.2 1-.4 1.3-.5.8-.3 1.6-.5 2.3-.8.6-.2-1.2.4-.3 0 .4-.1 1.7-.5 1.7-.6-1.4.5-1.7.5-2.3.7-.2 0 .8-.3-.3 0-.2.1-1.8.6-1.3.5.3-.1 1.7-.6 1.7-.5-1.3.4-2.1.7-3.3 1.1.7-.3.4-.2.7-.3.3-.1 1.3-.5 1-.4-1.1.3-1.1.4-1.7.6-.4.2-.8.3-1 .4 0 0 1-.4.3-.1-.4.2-.9.3-1.3.5.8-.3 1.5-.6 2-.8-1.8.7-2.7 1.1-3.6 1.4-.9.3-1.3.6-2.6 1.1-.1 0 .4-.2.3-.2-1.4.6-.5.3-1.6.8v-.1c-1.1.5-1.2.5-2.2 1-.8.4-.1.1-.6.4-.4.2-.6.3-1.3.6.7-.4 1.9-.9 1.6-.8.9-.4 1.6-.7 2.3-1 .4-.2.6-.2 1.3-.6.5-.2 1-.5 1.7-.8.7-.3 1.6-.6 2.8-1.1.1-.1-1.3.5 0-.1-.1.1.6-.2.3-.1 2.4-1 5.3-1.9 7.6-2.7.5-.2 1.1-.4 1.7-.5.4-.1 1-.3 1.4-.4.6-.2 1.4-.4 2-.5 1.7-.5 3.4-.9 5.1-1.3l2.6-.6 2.6-.5c.1 0 .5-.1 1-.2 2.4-.5 4.7-.7 7-1 1.5-.2 2.9-.3 4.2-.4.6-.1 0 0 0 0 .8-.1 1.3-.1 1.4-.1-.7.1-.9 0-1.7.1-.3.5-.6.6-1.2.6zM13.4 135.5c0-.7 0-1.4.1-2.1-.1.7-.1 1.4-.1 2.1zm.6 15.2c-.1-.8-.1-1.8-.2-2.4 0-.2.1 1.4.1.4 0 .2.1 2.2.1 2zm-.3-5.9c0 1.4.1 2 .1 2.8 0-.5-.1-2.8-.1-2.8zm-.1-8.8c0-.2 0-2.4.1-3.2 0 1.2 0 2-.1 3.2zm.4-9.6c-.1.7.2-2 .3-2.5-.1.3-.3 2.2-.3 2.5zm4.8-23.3c.1-.7.4-1.5.7-2.4 0 .2-.5 1.6-.7 2.4zM24 88.9c-.4 1-.9 1.9-1.2 2.9 0-.1.3-.9.4-1 .2-.7.9-2.3.8-1.9zm20.7-32.6c.2-.3.4-.5 1.1-1.4 0 0-.6.7-1.1 1.4zm1.3-1.8c-.5.5-1 1.1-1.4 1.6-.3.4.2-.2-.7.8.2-.4 2.1-2.5 3.1-3.4l-1 1zm4.9-5c-.1 0 1-1.1 1.5-1.5l-1.5 1.5zm3.6-3.4c-.7.7-.8.8-1.5 1.4.2-.2 1.8-1.8 1.5-1.4zm9-7.2l1.1-.9c.3-.1-1.6 1.3-1.1.9zm4-2.8c-.4.2.9-.7.6-.5-.5.3-1.4 1-1.4.9 1.4-1 .8-.5 2.3-1.6-.5.4-.6.5-1.5 1.2zm12.2-7.5l-1.2.7c-.3.1 1.5-.9 1.2-.7zm-.6.3c-.1.1-.3.1-.6.3.3-.2 1-.6 1.8-1.1 0 .1-.4.3-1.2.8zm16.6-7.6c.4-.2.9-.3 1.3-.5.1 0 .6-.2.7-.2.1 0-.1.1 0 0 .4-.1 1.9-.6 1.3-.4-1 .3-1.3.4-2 .6-.6.3-1.6.7-1.3.5zm-2.6 1.1l1.6-.6c.5-.2-2.1.9-1.6.6zm2-.8s-1.1.4-1 .4c-.6.2-2 .8-2.3.8 1.5-.5 2-.7 3.3-1.2zm-2.7 1.1c.1 0-1.3.5-1.6.7-.7.3-.8.4-1.6.7-.1-.1 2.6-1.3 3.2-1.4zm-6.7 2.8l-1.6.8c0 .1.8-.4 1.6-.8zm31.1-10.2c-.4 0-.2 0 .4-.1.9-.2.9-.1 1-.1-.7.1-.4.1-1.4.2zm5.6-.9c-.8.1-2.2.3-2.1.2 1.3-.2 1.7-.2 2.4-.3.6-.1.1 0-.3.1.2 0 .3 0 .7-.1-.2 0-.8.1-.7.1zm91.7 225.9c-1 .7-1.3.9-2.6 1.8-.3.3 2.6-1.7 2.6-1.8zM48.4 226.1c.1.1-.3-.4-.9-1-.1-.1.3.4.9 1zM136 12.8c1.4 0 2.7 0 3.2-.1-.8 0-4 .1-3.2.1zm74.7 229.8c-.7.5-1.3 1-2 1.4-.2.2 1.9-1.3 2-1.4zM180 258.1c1.2-.4 3.3-1.2 4-1.4-.6.2-1.4.5-2.2.8-.8.3-1.4.5-1.8.6z"/><path d="M14.1 153.1c-.1-.9-.3-3-.3-3.2.1 1.4.2 2.8.3 3.2zm.2 2.8c-.2-1.3-.4-3.6-.5-3.9.2 1.4.3 3.1.5 3.9zm.3-35.9c-.2 1.6-.5 4-.8 6-.2 1.5-.4 5.6-.4 4.9.4-4.7.9-7.6 1.2-10.9zm-1.4 21.8c0-.8-.1-3.2-.1-2.1.1 2.4.1 3.9.1 5.5.1 1.5.2 3.1.4 5.5 0 .4.1.8.1.7-.1-1.4-.2-3.1-.4-4.8 0-1.8 0-3.5-.1-4.8zm4.3-35.2c.4-1.4 1.1-3.9 1.2-4.4-.3.9-.6 2.1-.9 3.3-.3 1.3-.8 2.6-1 3.8 0-.1.1-.5.3-1.1.1-.5.3-1.2.4-1.6zm-2.8 50.1c0 .5.2 1.6.3 1.7-.1-.5-.3-1.8-.3-1.7zm.3 3c.1.4.3 1.7.3 1.7-.1-.7-.2-1.4-.3-1.7zm4.5-59.9c.4-1.4 1.2-3.6 1.5-4.3-.5 1.2-1.2 3.3-1.5 4.3zm-4.2 62.7l-.5-3.1c-.1-.2.5 3.2.5 3.1z"/><path d="M14.2 153.5c.1 1 .2 1.7.3 2.6.1.9.2 1.8.4 3 0-.2.1.7.2 1.1-.2-.7 0 .4.1 1-.2-1 .2 1.2.2 1.1-.1-.5-.1-1-.2-1.4 0 .2.1.4 0 0-.2-1.3-.4-2.3-.5-3.1-.1-.5 0 .2-.1-.4 0-.4-.2-1.4-.2-1.7 0-.1 0 .1 0 0-.1-.9-.2-2-.4-3.1 0-.7.3 1.4.2.9zM52 47.7c-.8.8-3.1 2.9-2.5 2.5-1 1.1-1.9 2-2.2 2.3.6-.6 1.7-1.8 2.7-2.8.7-.7 2.2-2.1 2-2zm11.3-9.6c1.3-1 2.6-1.8 3.4-2.5-.7.5-1.1.8-1.2.8-.6.5-1.4 1-2.2 1.7-.9.7-2 1.6-2.2 1.7.2-.2-1.8 1.4-1.7 1.3.6-.4 1.2-.9 1.7-1.3.7-.6 1.4-1.1 2.2-1.7zm-4 3.2c.6-.5 1.2-.9.7-.6-.6.5-.8.6-1.6 1.3-.3.3.3-.2.9-.7z"/><path d="M15.3 161.8c-.1-.8-.3-1.9-.4-2.1.1.8.3 1.9.4 2.1zm22-97.4c-.1.1-.6.8-1.3 1.6.1 0 .2-.2.5-.5.4-.5.4-.6.8-1.1zm33.3-31.2c1-.6 2.1-1.3 3.2-2s2.1-1.2 2.8-1.6c.7-.4 1.6-1 2.5-1.5.4-.1-1.3.8-1.5.9.3-.2.7-.4.9-.5.5-.3.9-.5 1.4-.8.5-.2 1-.5 1.5-.7 1-.5 2.1-1 3.1-1.5.1-.1.4-.2.9-.5 1.4-.6 2.6-1.1 3.9-1.7 1.4-.7 2.8-1.2 4.3-1.7.9-.3 1.9-.7 2.6-1 .4-.2.6-.2 1-.4.1 0 0 0 .7-.2.3-.1.4-.1.7-.2 0 0 .1 0 .7-.2 1.1-.3 2.5-.9 3.9-1.3s2.6-.7 3.2-.9c-.5.1-1.3.4-1.4.4.8-.2 1.4-.4 2.1-.6-.8.2-3.7 1-3.4.9-.6.2-1 .3-1.7.5l-.3.1c.4-.2 1.3-.4 1.7-.6-.8.2-2.4.8-2.7.9.4-.1.8-.2.3-.1-1.3.4-.1 0-1.3.4-.7.1-1.7.4-2.5.7-.1 0-.4.1-1 .3-.3.1-.6.3-1.3.6.1 0-.1 0 0 0-.4.2-2.6 1.1-3.6 1.4.3-.1 1.5-.6 1.7-.7 0 0 .1 0 .4-.1.2-.1.5-.2.8-.3.6-.2 1.1-.4 1.2-.5-1.3.5-2.1.8-2.6 1 .1 0-.5.2-1.3.5v-.1c-1.2.5-2.1.9-2.9 1.3-.4.2-1.4.7-2.6 1.2-1.9.9-3.5 1.7-6 3-.1.1-1.2.7-1.8 1.1-.1.1.5-.2 0 0-1.2.7.1-.1 0-.1-1 .6-1.4.8-2.5 1.4-.5.3-1.2.7-1.5.9-.1 0-.7.4-.9.5l-.6.4c-.7.4-1.8 1.1-2.7 1.7-.7.4-2.1 1.4-2.3 1.6.3-.1 1.3-.9 2-1.4.2-.1.2-.1.9-.5zm30.9-14.5s-.9.3-1.7.6c.1 0-.1 0-.3.1.3-.2 1-.4 2-.7zm-10.9 3.8c-2 .9-1.7.8-3.6 1.6.3-.1 3.3-1.6 3.6-1.6zm-1 .5c.8-.3-2.2 1-2.6 1.1-.6.3 1.6-.6 2.6-1.1zm-6.1 2.8c.7-.3 1.7-.9 1.9-.9-.9.4-.8.4-1.6.8.1-.1-.6.2-.3.1zm-1 .5c-1.1.6-.4.1-1.6.8 0 0 .2-.1.3-.2.1-.1.3-.1.3-.1.7-.4.6-.3 1.6-.8.2-.1-.9.5-.6.3zm-.9.4c-.3.2-.6.3-.6.3-1 .5 0 0-.6.4-.5.3-.3.1-.6.2.9-.4 1.8-.9 1.8-.9zM47.1 52.8c-.3.3-.3.3-.3.2-.5.5-.5.5-.7.8-.8.8-.7.8-1.2 1.3.1-.1 1.5-1.7 2.2-2.3zm-9.6 11.4c.3-.5.7-.9 1.1-1.4-.1 0-.5.6-1 1.2-.4.6-.9 1.3-1.1 1.6l1-1.4zm3.3-4.2c-.8 1-1.4 1.8-1.7 2.3.8-1 1.4-1.7 2.2-2.8-.4.3-.5.5-.5.5zm2.7-3.3c.6-.7 1.1-1.2 1.4-1.6-.6.7-1.1 1.2-1.4 1.6zM18.3 174.2c-.4-1.5-.5-1.8-1-3.4-.4-1.2-.6-2.6-.8-3.8-.3-1.2-.6-2.7-.8-3.1.1.5.3 1.3.3 1.4-.1-.6-.1-.2-.2-.7-.2-.8-.1-.4-.2-1 0-.1-.2-1.1-.3-1.4.2 1 .3 1.8.5 2.8 0 .2.9 4.1.8 3.4-.3-1.1-.3-1.5-.6-2.8h.1c.2 1 .8 3.7 1.2 5.1-.2-.7-.2-.9-.4-1.7 0 .5 1.2 4.5 1.3 4.8.2.9.4 1.5.3 1.4-.3-1.2-.5-1.8-.7-2.4.4 1.4.8 3.1 1.1 3.7-.2-.6-.4-1.4-.6-2.3zM15.7 163c0-.2-.1-.4-.1-.4.1.8.1.7.4 2.1.1.2 0-.3-.2-.8 0-.4-.1-.7-.1-.9z"/><path d="M15.9 164c.3 1.2.2.8.4 2.1.1.1-.4-2.3-.4-2.1zm1.5 6.5c0 .2 0 .3.3 1.3.1.2-.3-1.2 0-.3l-.3-1zm3.5 12.4c-.3-.7-.8-2.2-.8-2.3.3 1 .7 2 .8 2.3zm-4.2-15.5c-.1-.1-.3-1.1-.4-1.7.1.5.4 1.8.5 2.1 0-.1-.1-.3-.1-.4 0-.1-.1-.2 0-.2.2.8.5 2.3.7 3.1-.2-.3-.5-1.7-.7-2.9zm2.5 9.8c.3.8.8 2.4.9 2.7-.3-1-.7-2.4-.9-2.7zm1.1 3.7c.4 1 .3.9.6 1.7 0 0-.1-.4-.3-.9-.2-.5-.4-1.2-.6-1.7-.2-.7-.6-1.8-.9-2.7 0 0-.3-.9-.4-1 .4 1.3.7 2.4 1.2 3.7-.3-.9-.4-1.2-.3-1 .4 1 .6 1.6.7 1.9-.4-1.2-1.3-3.7-1.3-4 0 .2-.4-1.2-.2-.3.4 1.2 1 3 1.6 4.7.2.5.4 1.2.6 1.7.2.6.8 2 .7 1.6-.7-1.8-1.1-2.7-1.4-3.7zM231.8 35.6c.1 0-1.1-1-2-1.8-.1-.1 1.6 1.3 2 1.8zM3.7 108.4c-.3 1.3-.7 3-.7 3.5.1-.6.3-1.4.4-1.5-.1.6 0 .2-.1.8-.3.8-.3.3-.4 1 0 .1-.2 1.2-.2 1.6.2-1.1.3-2 .6-3.1.1-.2 1.1-4.5.8-3.8-.3 1.2-.4 1.6-.7 3 .3-1.1.9-4.1 1.3-5.7-.2.7-.3.9-.5 1.9.1-.5 1.4-5 1.4-5.3.3-1 .4-1.6.4-1.5-.4 1.4-.5 2-.7 2.7.4-1.6.9-3.4 1.1-4.2-.3.8-.5 1.5-.8 2.6-.4 1.7-.5 2-1 3.8-.3 1.4-.6 2.9-.9 4.2zm-1.4 6.4c-.2 1.1.2-1.3.2-1.2-.1.5-.2 1.1-.3 1.5 0-.2.1-.4 0 0-.3 1.4-.4 2.5-.6 3.4 0 .5.1-.2 0 .4-.1.4-.2 1.6-.2 1.9 0 .1 0-.1 0 0-.1 1-.3 2.2-.4 3.5 0 .6.2-1.7.2-1.1.1-1 .2-1.9.4-2.8.1-.9.2-2 .5-3.3-.1.2.1-.8.2-1.2-.3.9-.1-.3 0-1.1zM9 91c-.3.7-.9 2.4-.9 2.6.3-1.1.8-2.2.9-2.6zm212.9-63.7c-1-.7-1.3-1-2.7-2-.4-.2 2.2 1.7 2.7 2zM20.9 66c0 .1 0 0-.2.4-.1.3.5-.7.6-.9.1-.2-.3.4-.2.4.2-.2 1-1.6.9-1.3-.7 1.1-1 1.6-1.9 2.9.1-.2.6-1 .2-.4-.5.7-1.9 3.3-1.2 2 0-.1.9-1.6.8-1.3-.4.7-1.4 2.5-1.7 3.1.5-.9 1.3-2.4 2.2-3.8.9-1.4 1.8-2.8 2.5-3.9-.5.8-.1 0 .2-.4.8-1.3 1.3-1.8 2.2-3.2-.1.1-.9 1.1-1.7 2.3-.8 1.2-1.6 2.5-2 3.2.4-.6 0-.1 0-.1.8-1.1 2-3.1 2.5-3.9-.4.5-.8 1.1-.7.9-1.3 2-1.4 2.4-2.5 4z"/><path d="M.8 127.2c.1-.7.1-1.5.2-2.1.1-.6.2-1.2.2-1.4-.3 1-.5 3.4-.4 3.5zm5.9-30.1l1-3c-.5 1.2-1 2.6-1 3zm223.8-62.9c.1.1-1.6-1.4-1.5-1.3 1.5 1.3 2.3 2 3.5 3.1.3.2-1.8-1.5-2-1.8zM11 84.9c-.1.4.8-1.9 1-2.1 0-.1-.5 1-1 2.1zm236.7-32.7c-.2-.1.5.7 1.2 1.5 0 .1-.6-.7-1.2-1.5zm-13-14c-.9-.9-1.1-1-1.9-1.9l.8.8 1.1 1.1zM8.7 90.7c-.2.3-.8 1.9-.9 2.6.3-1.1 1.2-3.1 1.6-4.4-.2.7-.3.9-.7 1.8zm2.2-5.3c-.4.9-.4.8-.6 1.4.2-.4.2-.6.3-.7-.2.6-.6 1.6-.8 2.2.3-.8.8-2.3 1.1-2.9z"/><path d="M234.3 37.6c-.6-.5-1.2-1.1-1.8-1.7-.6-.5-1.1-.9-1.4-1.2.5.4 4.1 3.8 5.9 5.6 0-.1-1.5-1.6-2.7-2.7zm-223.7 49c-.2.5-.5 1.1-.5 1 .2-.4.3-.9.3-.7-.6 1.6-1.1 2.9-1.1 3 .6-1.5.9-2.3.9-2.1.8-2 .8-2 1.3-3.3.1 0-.6 1.4 0 0 .4-.9.1-.2.4-1.1-.5 1.2-.7 1.7-1.1 2.5 0 .2-.1.4-.2.7z"/><path d="M7.3 95.3c.4-1.2.7-1.9.8-2.2-.4 1.3-1.3 4.1-1.5 4.4.1-.2-.4 1.3-.1.4.4-1.3 1.1-3.3 1.7-5.2.2-.6.5-1.3.7-1.8.3-.7.9-2.2.7-1.8-.7 1.9-1.2 3-1.5 4 .3-1.1.3-.9.7-1.8 0 0-.2.4-.4 1s-.4 1.3-.6 1.9c-.3.8-.7 2-1 3 0 0-.3 1-.3 1.1.5-1.4.9-2.6 1.4-4-.5.9-.6 1.3-.6 1zm-5.9 24.5c.1-.6.3-1.7.3-1.9-.1.5-.3 1.9-.3 1.9zM13 80.3c.6-1.2 1.3-2.5 1.9-3.9.3-.7.2-.5.9-1.8-.2.4-.3.7-.7 1.5-.3.5-.6 1.2-.5 1.1.6-1.3 1.2-2.5 1.8-3.6.6-1.1 1.2-2.1 1.7-2.9-.1.1.2-.4.2-.4-.4.7-.9 1.5-1.2 2.2-.2.3-.4.6-.5.8-.1.2-.2.3-.2.3.7-1.2.8-1.5 1.5-2.7-.6.9.6-1.2.5-1.1-.1.2-.6 1-.8 1.3l-1.5 2.7c-.4.9-.8 1.7-1.2 2.4-.7 1.5-1.4 2.7-1.8 3.6-.4 1-.2.5-.6 1.4-.5 1.3-1.1 2.6-1.7 4 .3-.7.5-1.2.6-1.4.5-1.2 1-2.3 1.6-3.5zm.1-.5c.5-1.1 1.3-2.7 1.2-2.4-.1.3-.5.9-.5 1-.5 1-1.7 3.8-.7 1.4zm-1.7 5.1c.3-.8 1-2.3 1.1-2.5-.3.7-1 2.3-1.1 2.5z"/><path d="M10.9 85.9c.6-1.3 1.6-3.5 1.9-4.3-.6 1.3-1.6 3.6-1.9 4.3zm34.6-49.1c-1.1 1.1-1.7 1.6-2.2 2.2.6-.7 3-2.9 2.2-2.2zM13.2 79.9c-.5 1.1-.8 1.8-.9 2.2-.2.4-.2.5-.5 1.1 0 .1 0 .2-.1.4-.3.6-.7 1.5-.8 1.8.1-.3.2-.4.2-.3.5-1.1.9-1.9 1.1-2.5.1-.3-.1.1.1-.4.1-.3.3-.6.5-1.1-.5 1.2-.1.2-.2.3.3-.6.8-1.8.6-1.5zm6.3-11.6c.1-.3.4-.7.4-.7-.2.3-.5.8-.7 1.2-.2.4-.4.8-.5.8 0 0 .3-.6.4-.7-.6 1.1-.5.8-.8 1.4-.3.5 0 0 0 0-.7 1.3-1.7 3-1.9 3.4.5-.9.6-1.1.6-1 .8-1.4.7-1.4 1.1-2.1l-.2.4c.6-1.2 1.2-2.1 1.6-2.9.4-.8.8-1.4 1.1-1.9.3-.5.7-1.1.6-1-.2.4-1.1 1.7-1.4 2.2l-.1.1s0-.1.1-.1c.2-.2.4-.7.3-.5-.7 1-.8 1.2-1.2 2 1.1-1.6.5-.5.6-.6z"/><path d="M18 71.1c0-.1.5-.9.5-1.1-.7 1.1-.8 1.5-1.1 2.1.3-.4.4-.7.6-1zm-5 9.7c.2-.4.4-1 .6-1.4.2-.4.4-.7.3-.7-.5 1.1-.6 1.5-.9 2.1zM2.1 116.4c.1-.5.3-1.9.3-1.9-.1.9-.2 1.6-.3 1.9zm275.3 6.7c-.1-.5-.1-1.1-.1-1.2-.1-.6-.6-4.8-.5-3.5.1.6.5 4.1.6 4.7zM38.8 43c.1-.1-.4.3-1.1 1.1l1.1-1.1zm177.3-19.9c-.2-.1 2.1 1.5 2.2 1.6-.8-.6-1.5-1.1-2.2-1.6zm-29.8-15c-.8-.3-1.6-.5-2-.7 1.4.4 3.6 1.3 4.4 1.6-.7-.2-1.6-.6-2.4-.9zm-159 48.7c.2-.3.3-.5-.7.9.2-.3 0 .1.7-.9zm1.4-2c.1-.1.4-.5.5-.6.6-.7.9-1.1 1.2-1.5.1-.2.1-.1.5-.6s.6-.9 1-1.2c0 0 0 .1 0 0 .4-.4 1.2-1.4 1.5-1.8.2-.2.8-.9 1-1.2-.1.1-1.1 1.3-1 1.2.7-.8 1.9-2.2 2-2.4.5-.6 2.3-2.4 2.9-3.1-.7.7-1.7 1.8-1.4 1.3-1 1-1.5 1.7-2.8 3.2l.2-.3c-1 1.1-.7.9-1.5 1.8-.4.5-.9 1-1.3 1.5s-.8 1.1-1.3 1.6c-.8 1.1-1.6 2.1-2.3 3 1.3-1.6.5-.5.8-.9zm2.1-2.8c0 .1-.8 1.1-1.9 2.5 0-.1 1.2-1.6 1.9-2.5z"/><path d="M25 59.9c1-1.5.3-.5.7-1l1.6-2.2c0-.1 0 0 .2-.3.3-.3-.7 1.1-.9 1.3.6-1 1.6-2.2 1.9-2.5-1 1.3-.2.2 0 0-.5.6-1.6 2-1.4 1.8-.9 1.3-1.4 2.1-.4.7-1.3 1.9-1.6 2.2-2.5 3.5 1.7-2.7.4-.7.8-1.3zm16-18.8h.1zm-6.7 188.4c.6.8 1.1 1.4 1.5 1.8-.6-.7-1.1-1.4-1.5-1.8zm-3-3.5c-.8-1.1-1.5-2-1.9-2.4.9 1.2 1.4 1.9 2.4 3.1-.4-.5-.5-.7-.5-.7zm5.8 6.7c-.9-.9-.8-.9-1.3-1.4 0 .1.4.6.9 1.1.5.5 1.1 1.1 1.4 1.5-.3-.3-.3-.3-.2-.3-.5-.6-.5-.6-.8-.9zm-9.3-11.1c-.5-.7-1-1.4-1.3-1.7l1.1 1.6 1.2 1.5c0-.2-.5-.8-1-1.4zm10.6 12.5c.6.7 1.8 2 2.9 3.1.8.8 2.4 2.4 2.3 2.1-.5-.4-1.3-1.2-2-1.9-.7-.6-1.1-1.1-.9-.8-1-1.1-1.9-2.2-2.3-2.5zM1.1 153.7c.2 2 .4 3.8.7 5.7-.2-1.7-.4-3.8-.7-5.7zM6.4 180c-.3-1-.7-2.3-1-3.7-.4-1.4-.8-2.8-1.1-4.2 0 .1.1.6.2 1.2.2.6.4 1.3.5 1.8.4 1.5 1.2 4.3 1.4 4.9zm-5.3-26.3c0-.2 0-.4-.1-.6.1.2.1.4.1.6zm6.1 28.8c.5 1.5 1.3 3.9 1.7 4.8-.6-1.3-1.3-3.7-1.7-4.8zm45.2 64.6c-.7-.5-.9-.7-1.8-1.5-.4-.3.3.3 1 .9.6.5 1.3.9.8.6zM3.3 166.5s0-.1 0 0c0-.1 0 0 0 0zm241.9 62.9c.5-.5 1.5-1.7 1.5-1.8-1.4 1.6-1.7 1.9-2.8 3.2-.1.2.9-1 1.3-1.4zM2.6 114.2c-.2.9-.4 2.1-.4 2.3.2-.9.4-2.1.4-2.3zm258.5-42c.2.4.4.7.7 1.3-.4-.9-.9-1.7-.7-1.3zM67.5 257.8c-.1-.1-.7-.5-1-.6 0 0-.3-.2-.7-.4-.8-.5-1.9-1.2-2.9-1.9-.7-.4-2.3-1.6-2.6-1.8.3.2 1.4 1 2.2 1.6.6.4.5.3 1.3.9 1.1.7 2.3 1.5 3.5 2.2 1.2.8 2.3 1.3 3.1 1.8.8.4 1.8 1 2.8 1.5.4.3-1.4-.8-1.7-.9.4.2.7.4 1 .6.5.3 1 .6 1.5.8.5.3 1.1.5 1.6.8 1.1.6 2.2 1.1 3.4 1.7.1.1.5.2 1.1.5 1.5.7 2.8 1.3 4.2 1.9 1.6.7 3.1 1.3 4.7 1.9 1 .4 2.1.8 2.9 1.1.5.2.7.2 1.1.4.1 0-.1 0 .7.3l.8.2s.1.1.7.3c1.2.4 2.8 1 4.3 1.4 1.5.4 2.9.8 3.5.9-.6-.2-1.4-.4-1.5-.4.9.2 1.5.4 2.3.6-.9-.2-4.1-1.1-3.7-1.1-.7-.2-1.1-.2-1.9-.5l-.3-.1c.4.1 1.4.4 1.9.5-.9-.2-2.7-.9-3-.9.4.1.9.3.3.1-1.4-.5 0-.1-1.4-.5-.6-.2-1.7-.5-2.6-.8-.1-.1-.5-.2-1.1-.4-.4-.1-.7-.2-1.5-.5.1 0 0 0 0 0-.5-.2-2.9-1.1-4-1.5.4.1 1.7.6 1.8.7l.4.2c.2.1.5.2.8.3.6.2 1.2.5 1.3.5-1.4-.5-2.3-.9-2.9-1.1.1.1-.5-.2-1.5-.5-1.3-.5-2.3-1-3.2-1.4-.5-.2-1.5-.6-2.9-1.2-2.1-1-3.9-1.9-6.6-3.3-.2-.1-1.3-.7-2.1-1.1-.2-.1.5.3 0 0-1.3-.8.1 0 .1 0-1.2-.6-1.5-.8-2.7-1.5-.3-.6-1.1-1-1.5-1.3zm30.3 13.7s-1-.3-1.9-.6c.1 0-.1 0-.3-.1.3.1 1.1.4 2.2.7zm-12-4.4c-2.2-1-1.9-.8-3.9-1.7.3.1 3.8 1.6 3.9 1.7zm-1.1-.4c.8.4-2.4-1.1-2.8-1.3-.7-.3 1.7.8 2.8 1.3zm-6.6-3.2c.8.4 1.9 1 2 1.1-1-.5-.9-.5-1.7-.9.1.1-.6-.3-.3-.2zm-1.1-.4c-1.2-.6-.4-.3-1.7-.9.1 0 .2.1.4.2s.3.2.3.2c.8.4.7.3 1.8.9.1 0-1.2-.6-.8-.4zm-1-.6c-.3-.2-.6-.3-.7-.4-1.2-.6 0 .1-.8-.3-.6-.3-.3-.2-.6-.4 1.1.6 2.1 1.1 2.1 1.1z"/><path d="M73.3 261c-1.5-.9-2.5-1.4-3.1-1.7 1 .5 1.4.8 2.4 1.3 0 .1.9.6.7.4zm8.7 4.3c-.7-.3-.8-.3-1.4-.6-1-.4-5.7-2.9-5.2-2.6 2.1 1 3.5 1.8 5.2 2.6-.1 0 1.9.9 1.4.6zM261.9 73.5c0 .1 0 .1 0 0zM2.8 111.7c.3-1.4.2-.9.5-2.3.1-.2-.6 2.5-.5 2.3zM.7 152.8c0-.3-.1-.8-.1-.8 0 .3 0 .5.1.8zm0-4.5c.1 1.7.2 3.2.4 4.6-.2-2-.4-5.3-.4-4.6zm3.1-40.7c0 .1-.1.3-.1.5s-.1.3-.1.3c.2-.9.6-2.6.8-3.4-.1.1-.4 1.7-.7 3 0 .2-.2 1.2-.4 1.9.1-.6.4-2 .5-2.3zm1-4.2l-.3 1.1c.1-.2.1-.3.5-1.5-.1-.2-.5 1.3-.2.4z"/><path d="M2.8 111.9c-.1.3-.1.7-.2.9 0 .3-.1.4-.1.4.2-.9.1-.8.5-2.3.1-.2-.1.4-.2 1zm0 1.6l-.6 3.4c0 .2.6-3.5.6-3.4zm38.3-72.4c1-1.1.7-.8 0 0zM.7 153v-.1.1zm.3-27.2c-.1 1.6-.3 3.5-.4 5.3-.2 1.9-.1 3.7-.2 5.1 0 .9-.1 3.5 0 2.3.1-2.7.1-4.3.2-6 .1-1.7.2-3.4.4-6 0-.4.1-.9 0-.7zm39.8-84.4c-.9 1-2.3 2.4-2.9 3.1-1 1-1.9 2-2.7 2.9 1.8-2.1 4.4-4.7 5.9-6.3l-.3.3zM.6 146.9zm-.1-.9c0 .3 0 .6.1.9-.1-1.5-.1-4.3-.2-5.2 0 .6 0 1.6.1 2.7v1.6zm1.1-25.2c-.2 1.4-.5 4-.5 4.3.2-1.6.5-3.5.5-4.3zm32.6-72.3c.3-.3.6-.7 1-1.1-.4.3-.7.7-1 1.1z"/><path d="M278.3 140.2v1.2c.1-2.1 0-3.5 0-5.8v-.4c0-.5-.1-1.5-.1-2.7v.4c-.1-2.2 0-1.3-.2-3.1-.1-.5.1 1.3 0 .8 0-.5 0-.4-.1-.8 0-.4-.1-1.6-.1-1.9 0-.1 0 .1 0 0-.1-1.1-.1-2.3-.4-3.9 0-.1 0 0-.1-.4-.1-1.1-.3-2.2-.4-3.3-.1-.6-.1-1.2-.2-1.8l-.3-1.8c0-.1 0 .1-.1-.4-.2-1.4-.2-1.1-.4-2.3-.1-.2 0 .4-.1-.4-.1-.6-.2-1.4-.3-1.5.3 1.4.2.8.3 1.2-.2-1.5-.7-3.2-.8-3.8.1.3.3 1.2.2.4-.3-1.2-.7-3-.9-4.2-.2-.7.1.4-.4-1.2.1.1-.2-.9-.3-1.1 0-.2.3.8-.1-.4-.3-1.3-.1-.2-.4-1.1-.5-1.7-.7-2.7-1.2-4.1-.3-1-.6-1.9-1.1-3.3-.2-.5.3.9-.1 0-.4-1.4 0-.3 0-.3-.2-.7-.3-.8-.1-.4-.2-.6-.2-.6-.4-1.1-.3-.7-.3-.7-.4-1.1-.4-1.1-.9-2.2-1.5-4-.3-.7-.2-.3-.6-1.5-.6-1.3-.3-.7-.8-1.8-1.1-2.4-1.7-4.1-2.7-6 .2.4.6 1.4.3.7-.2-.5-1.4-2.8-2.1-4.2 0-.1.2.4.2.3-.1-.3-.4-.8-.7-1.4 0 0 .2.4.1.3-.2-.3-.2-.4-.4-.7-.5-.9-.4-.7-.9-1.7-.6-.9 1 1.9 1.4 2.7-.7-1.4-1-1.9-1.9-3.4.3.4-.9-1.7-1.1-2l.6 1c-.5-.8.3.6-.5-.7 0 0-.1-.2-.3-.5-.2-.3-.3-.6-.5-.9-1-1.6-.6-.9-1.3-2 0 0-.1-.2-.4-.7-.2-.3-.4-.6-1.1-1.6 0 0-.3-.6-.8-1.3.1.2.6 1.2.9 1.6-.2-.3-.3-.4-.4-.7-.5-.9-.4-.8-1.9-2.9.1.1.4.5.5.6-1.2-1.7-2.3-3.3-2.7-3.8.7.9 1.4 1.9 1.6 2.2-.4-.6-1.3-1.9-1.1-1.6 0 0 .1.2.3.5s.3.5.3.5c-.1-.1-.3-.4-.7-1l-.4-.6c-.8-1.1-1.9-2.5-2.4-3.1-.3-.3.7.9-.1 0-.4-.5-.6-.8-1.4-1.8-.2-.3 1.2 1.4.1 0-1.1-1.4-.4-.4-.8-.9.4.5 1 1.3 1.2 1.5-.3-.4-1.4-1.7-1.7-2.1.9 1-.6-.8-.7-.9.4.4 1 1.1.5.6-.8-.9-.6-.7-1.6-1.8.2.1-1.4-1.7-2.2-2.7-.5-.5-2.6-2.6-3.5-3.7-.1-.1 1.2 1.3 1.4 1.4-.9-1-1.5-1.6-2.2-2.3.2.3 0 .1.5.6l.4.4.4.4c-.6-.5-1.2-1.3-1.8-2-.7-.6-.6-.6-1.4-1.3.1.1.5.4-.3-.3-.2-.2.2.3.2.3-.4-.4-.6-.6-.9-.8-.5-.5-.4-.5-.8-.8-.4-.3-1-.9-1.7-1.6-.6-.6-.3-.3-.9-.8-.7-.6-2.6-2.3-3.5-3.1.1.1.3.3 0 0s-.7-.6-1.1-1c-.5-.4-1-.8-1.6-1.2 0 0 .4.3.3.2-1-.7-1.1-.8-2.2-1.7.1 0-.3-.3-.3-.3-1-.8-.7-.5-1.9-1.4-.9-.6-.3-.3-1.5-1.1-.4-.3.1.1-.4-.2-.6-.4-1.9-1.3-2.2-1.6-.3-.3 1.7 1.1 1.1.6-1-.7-1.6-1.1-2.1-1.5-.5-.3-.9-.6-1.4-.9-1.1-.7-1.8-1.2-2.6-1.7-.1 0 0 0-.4-.2-.5-.3-1.1-.7-1.6-1-.6-.3-1.2-.6-1.7-1-.8-.5-1.6-.9-2.4-1.4-.7-.4-1.3-.8-2.1-1.1-1.1-.6-2.2-1.1-3.5-1.8-2.3-1.2-4.8-2.2-6.7-3.1-.5-.2-.5-.2-1.1-.5-1.1-.5-2-.7-2.9-1.1-.7-.3-1.6-.6-2.5-1-.5-.2-1-.4-1.4-.6-.5-.2-1-.3-1.5-.5-1-.3-2-.7-3.2-1-.6-.2-1.1-.4-1.7-.6-.6-.2-1.2-.3-1.8-.5-1.7-.5-3.6-1-5.7-1.5-2.7-.6-5.6-1.3-6.5-1.4-1.4-.2-3.1-.6-4.8-.9-1.7-.3-3.3-.4-4.4-.6-1.1-.2-2.4-.3-3.8-.5-1.4-.1-3-.2-4.7-.3-.6 0-1.5-.1-2.6-.1-1 0-2.2-.1-3.2-.1h-3.2c-.9 0-2.9.1-2.3 0 .8 0 1.6 0 2.4-.1h2.3c-.8 0-1.6 0-2.4-.1-.8 0-1.7 0-2.5.1-.9 0-1.8 0-2.8.1h-1.5c-.5 0-1.1.1-1.6.1-.6 0-.3.1-1.2.1-.5 0-1.9.1-2.7.2l-3.3.3c-1.1.1-2.3.3-3.4.4-1.1.1-2.2.3-3.1.5-.9.2-1.8.3-2.5.4-.7.1-1.6.3-1.9.3-.7.1-1.1.3-2.3.5-.5.1-.1.1-.8.2-1.3.3-1.9.4-2.7.6.5-.1.9-.2.8-.1-1.3.3-2.1.4-3 .7-1.7.5-2.9.8-4.5 1.2 0 0-.1.1-.8.2-.6.2-.3 0-1.1.3.2 0-1.3.4-1.5.5-.1 0-1 .3-1.1.4-.7.2-1.2.4-1.5.5-.4.1 1.1-.3 0 .1-.3.1-.5.2-.7.3-.9.3 1.1-.4-.4 0 .8-.3 1.4-.5 1.5-.5-.7.3-1.9.6-2.6.9-.3.1.1 0-.4.2-.3.8-.9 1.1-1.1 1.1-.6.3-1.3.5-1.8.7l-2.4.9c-.8.4-1.6.7-2.4 1.1.4-.2 1-.4.9-.4-.9.4-1.8.8-3.2 1.4-.3.2-.4.2-.7.3-.4.2-.5.2-1.1.5-.5.3-1 .6-1.4.7l-1 .5c-.6.3-1.2.6-1.7.9-.1.1-.5.3-.9.5l-.8.4c-.5.3-.7.3-1 .6.2-.1.4-.2 0 0-.9.5-2.2 1.3-3 1.7.5-.3 1.2-.7 1-.6-.9.5-2.4 1.3-2.7 1.6-1.6 1-3.5 2.2-3.9 2.5.1-.1-.3.1-1 .6-.9.5-2 1.4-3.2 2.2-1.2.9-2.5 1.7-3.5 2.5 0-.1-.3.2-.9.7-1.1.9 1.4-1 .6-.4-1.1.9-1.1.8-1.8 1.4-.8.7-1.6 1.3-2.3 1.8-.7.6-1.3 1.1-1.9 1.6.2-.1-1 .9-1.5 1.3-.6.5-2.6 2.2-3.2 2.8.1-.1.3-.3 0 0-.7.7-1.8 1.6-2.5 2.4.3-.3.7-.6.3-.2-1.8 1.6-4 4-4.1 4.2l1.3-1.4c0-.1-.1.1.3-.3l.8-.8c.6-.5 1.2-1.2 1.4-1.3l-1.4 1.4-.3.3c-.3.3-.1 0 0 0-.6.6-.7.8-1.6 1.7l.5-.5c-1.5 1.6-1 1-1.9 1.9l-.3.3c-.6.6-1.3 1.3-2.1 2.3.3-.4.6-.7.5-.6-.5.6-.5.6-.8.9-1.2 1.3-1.5 1.7-2.6 2.9-.1.1.4-.4 0 0-1.1 1.2-1.4 1.6-2.5 3-.5.6-1.4 1.8-1.9 2.5.4-.6.8-1 1-1.2-.4.6-1.6 2-2.3 3.1-.5.6-.5.6-1 1.4-.1 0 .2-.4.2-.4-.8 1.2-1.4 2-2 2.9-.7.9-1.7 2.7-2.5 3.9-1.6 2.4-3.2 5.2-4 6.7 0-.1-.4.7-.8 1.3-.6 1.1-1 2-1.8 3.5.7-1.4-.9 1.9-.7 1.3l1.9-3.8c.2-.6 1.2-2.1 1.5-2.8-.7 1.3-.6.9-1.2 2 0 0-.1.3-.5 1.1 0 0 .9-1.8.3-.8 0 .1-.8 1.6-.7 1.4.4-.9.4-1 .1-.4-.8 1.5-1.4 2.8-1.9 3.8l-.2.4c-.2.3-.8 1.6-.7 1.4.3-.7 1.1-2.2 1.4-2.8 0 .1-.1.4-.6 1.5.3-.6.4-.8.4-.6-.2.3-.2.4-.3.7-.6 1.2-.6 1.3-1.1 2.5-.1.3-.8 1.8-.8 1.8.4-.8 1.1-2.4 1.6-3.6 0 .1-.6 1.4-.6 1.5.7-1.7 1.4-3 2-4.2 0 0-.2.5 0 0 2.3-4.9 6.2-11.4 10.1-17.1-.2.3-.3.4 0 0 .2-.3 1-1.5 1.1-1.5.6-.9 1.5-2.1 2.3-3.1.5-.6.9-1.2 1.4-1.8l1.2-1.5c1.5-1.9 3.2-3.8 4.9-5.8 1.8-1.9 3.7-4 5.6-5.9 3.3-3.2 6.6-6.2 9.6-8.7l1.8-1.5c.5-.4-1 .8-.9.7 1.2-1 2.4-1.8 3.1-2.4-.9.7-1.1.9-1.5 1.2.5-.4 1-.8 2.1-1.7-.5.5.2-.1.3-.2-1.3 1-3 2.4-4.9 3.8-1.3 1.1-2.8 2.4-3.2 2.8.7-.6 1.8-1.5 3-2.6 1.2-1 2.5-1.9 3.3-2.6.5-.4 1.8-1.4 2.1-1.7 2.1-1.4 4.2-3 6.3-4.4 2.1-1.3 4.1-2.6 5.7-3.6-.1 0-1.6 1-.7.4 1.2-.7 1.1-.6 2-1.1.9-.5-.7.4-.3.1.7-.4 2.1-1.2 1.4-.7 1-.6 2.4-1.3 2.7-1.5-1 .6-1.7 1-2 1.1.5-.3 3-1.8 2.7-1.5 1.1-.5.7-.4 1.4-.7 1.2-.5-.8.5-1.4.8l3.8-1.9c.3-.2-1.8.9-1.4.6 2.4-1.1 2.9-1.5 4.9-2.4-.7.4 2.7-1.2 2.1-.9-1.2.5-2.4 1.1-3.6 1.6.4-.2 1-.4 1.1-.5-.3.1-.4.2-.7.3-.8.4-.4.2-.7.3-.5.3-1.4.7-.7.4.3-.1.5-.3 1.4-.7 1.8-.8 4.3-1.9 5.3-2.4-.5.2-1.8.8-1.8.8.1 0-.1 0 .4-.2-.2.2 1-.5 2.1-.9 0 0-.5.2-.4.2 2-.8 3.8-1.5 5.1-2 1.5-.6 1.7-.6 2.9-1 1-.3 2.2-.7 2.6-.9.4.2 1 0 1.4-.2 1.6-.5 2.8-.8 3.7-1.1.9-.2 1.4-.4 2.2-.6.5-.1 1-.3 1.5-.4.4-.1.6-.1 1.1-.2.4-.1.8-.2 1.1-.3.1 0 .9-.2.7-.1-1.6.4-2.4.5-3 .7-2.8.7-4.3 1.2-6.7 1.9-.2.1-.4.2-.7.3-.7.2-2.1.6-3.5 1.1-.7.3-1.5.5-2.2.8-.7.3-1.4.5-1.9.8-.9.3-1.8.7-2.5.9-1.3.5-2.5 1-3.7 1.5-1.1.5-2.2 1-3.1 1.4-.5.2-.1.1-.7.4-1.5.7-1.5.7-3.1 1.5-.6.3.5-.2-1 .6.3-.2-.3.1-.7.3-1.5.8-1.5.8-2.7 1.5-1.6.9-3.2 1.8-5.4 3.1-.1 0 .1 0-.3.2.1-.1-.4.3-.7.4-1 .6-1.9 1.2-2.7 1.7-.4.3-.8.5-1.3.8l-1.2.9c-.5.3-.3.2-1 .6-1.3 1-3.3 2.3-5.3 3.9-.4.3-.4.3-.9.7-2.3 1.7-4.9 4-6.9 5.7-.6.5-.7.5-1.2 1-.6.6-1.4 1.3-2 1.9-.8.8-2 1.9-2.5 2.4l-.8.8c-.5.6-.9.9-1.3 1.4-1 1.1-2.9 3-4 4.3-.3.3-.6.7-.8.9-.2.3-.2.3-.8.9-.5.6-.6.7-1 1.2-.1.1-.6.6-1 1.2-1.1 1.4-3 3.9-3.8 4.9-.6.7-.7 1-1.1 1.6-.1.1-.4.5-.7.9-1.2 1.7-2.1 3-2.6 3.8-.3.5-.7 1-1 1.6-.8 1.3-1.2 1.9-1.9 2.9-.6.9-.8 1.4-1.3 2.4.1-.2.4-.8 0-.1-.5.8-.1.4-.9 1.7 0-.1.3-.6.4-.7-1.8 3-2.7 5-4 7.5 0 .1.3-.4.4-.7-.4.7-.7 1.4-1.1 2.1-.3.7-.7 1.6-1.1 2.5-.5 1.1-1 2.2-1.5 3.2s-.8 2-1.1 2.8c-.3.7-.6 1.6-1 2.5-.4.9-.7 1.9-1 2.8-.6 1.9-1.2 3.6-1.5 4.5-.4 1.3-.7 2.5-1.1 3.7-.3 1.1-.6 2.3-.9 3.4-.2 1.1-.5 2-.6 2.7-.1.5-.1.5-.2 1.1-.7 2.9-1.1 5.4-1.6 8.4-2.5 15.9-2.3 32.7 1 49-.3-1.5-.6-3.6-.8-4.5.1.5.3 1.5.3 1.9.1.8.1.2.1.4.1.8.1.9 0 .4-.1-.2.4 2.2.3 1.9.4 1.9.8 3.8 1.3 5.7 0 0-.1-.6 0-.4.2 1.1.6 2.3.5 2.2-.4-1.3-.5-1.8-.4-1.5.3 1.4.3 1.1.6 2.3.1.5.7 2.6 1.1 4.1 0 .1 0-.1.1.4.5 1.8 1.2 3.4.8 2.6.2.5.4 1.1.5 1.5 0 .1 0-.1 0 0 .3.9.7 2.2 1.2 3.5.5 1.3 1.1 2.8 1.6 4.1.2.4.3.9.5 1.3.2.5.4.9.6 1.4.4.9.8 1.9 1.2 2.6.2.5.5 1 .7 1.4.9 2 1.9 3.9 2.8 5.6l-.5-1c-.2-.4-.4-.7-.4-.7-.1-.3.4.8.7 1.4 0 0 .2.3.5 1 0 0-.3-.7.2.4.7 1.2 1.5 2.6 1.5 2.7-1-1.8-1.8-3.1-1.9-3.4.4.8 1.3 2.3 1.9 3.4.3.6.5.8.8 1.4.4.6.7 1.1 1 1.7l.6 1c.5.8.6.9 1.3 2-.2-.3-.9-1.3-.8-1.3.6 1 1.2 1.9 1.9 2.9.6 1 1.4 2.1 2.1 3 .7.9 1.2 1.6 1.3 1.8-.6-.8-.8-1.1-1.4-1.9l-.4-.6c.6.9.5.6.2.1.5.8 1.1 1.6 1.7 2.4.1.1.1.2.2.4.4.6.5.7.9 1.3 0-.1-.1-.2-.3-.5.5.6 1 1.3 1.4 1.9l-.2-.2c.4.5.7.9.9 1.1 1.1 1.4 2.1 2.7 3.3 4.1-.1-.1-.1 0 .2.3-.7-.9-.9-1-.5-.6.1.2.4.5.8.9-.1 0 .2.2.7.9l.3.3c-.4-.4-.9-1.1-1-1.2l.4.4c1.9 2.3 3.9 4.5 6 6.7l.9.9c.2.2.3.4.5.5l.4.4.1.1c.5.5 1.1 1 1.5 1.4.8.7 1.5 1.5 2.3 2.2-.1 0-.4-.3-.7-.6.7.6 1.5 1.5 2.3 2.1.8.7 1.5 1.3 2 1.7-.3-.3-.3-.3 0 0 1.1 1 0 .1 1.1 1 .3.2.2.1.7.5.4.3.8.7 1.3 1-.1-.1-.2-.1-.1-.1.6.5 1.2 1 1.8 1.4.8.6 1.5 1.2 2.5 1.9 1.5 1.2 2.7 2 3.8 2.7-.7-.5-1.2-.8-1.2-.9-.8-.6-1.6-1.1-2.5-1.8-.3-.3-.7-.6-1.1-.8 1.8 1.4 3.7 2.8 5.6 4.1l.2.1s.2.2.3.2c-.1-.1-.1-.1-.2-.1l.9.6c-.1-.1-.2-.1-.1-.1.9.6.9.6 1 .6 1.7 1.1 3.3 2.2 5 3.2.2.1.6.4 1.1.7 20.6 12.2 44.2 18.8 68.7 19.1h1.6-.2.2c2.6 0 5.3-.1 7.9-.2l-.4.1c-1.2.1-1.4.1-2.7.1-.5 0-.8.1-1.6.1h-.8c-.6 0 0 0-.4.1h-.8c-.5 0-.3 0-.8.1h.8c-1 0-.3 0-1.2.1h1.5-1.2c.1 0 2.6 0 1.1.1h1.1c1.9 0 2.1.1 4.2 0 .2 0 1.4-.1 1.1 0 2.1-.2 4.4-.2 6.6-.5.8-.1 1.2-.2 2-.3 1.3-.2 2.9-.4 4.3-.5 1.4-.2 2.6-.5 3.1-.6 1.4-.2 2.1-.4 3.5-.6 1.5-.3 3.4-.7 4.2-.9.3-.1.9-.2 1.1-.3 1.6-.3 1.3-.2.3.1 1.1-.2 1.9-.5 2.3-.6-1.1.3-.5.2-1.9.5 0 0 .6-.1.4 0 1.4-.4 2.8-.8 4.1-1.1 1.2-.3 2.1-.6 3.4-1 2-.7 4.3-1.4 5.6-1.8 1.5-.6 3.3-1.3 4.7-1.8.2-.1.7-.3 1.1-.4.6-.2 1.5-.6 2.2-.9 1-.4 1.9-.8 2.9-1.3l1.4-.7c.8-.3 1.7-.8 2.5-1.2.8-.4 2-1 3.3-1.7 1.4-.7 2.8-1.6 4.2-2.3 0 0 0-.1.3-.2 1.4-.8 4.7-2.9 6-3.7-.7.5.2-.1 0 .1.7-.5 1.5-.9 2.2-1.4.7-.5 1.5-1 2.3-1.6-.4.2 1-.7 1.3-.9.2-.2 0-.1.6-.5.7-.5-.6.5.6-.4.8-.6-.4.3 0-.1 1-.7 1.3-1 1.5-1.2-1.2 1 .4-.3-.3.3.7-.6 3.5-2.7 2.8-2.2-.5.4-1.1.9-1.2.9.9-.7 1.3-1 1.8-1.5.1-.1 1.4-1.1 1.5-1.2.2-.2.2-.2.6-.5.2-.2.3-.3.9-.8.5-.4.9-.7 1.5-1.3 1.4-1.2 3.8-3.5 5.2-4.8 0-.1-.1 0 .3-.3 1.3-1.2 3.9-4 6-6.1.5-.5.6-.6 1-1.2.2-.3.4-.5 1-1.2.1-.1.6-.7 1-1.2 1.6-1.8-1.1 1.3-.5.6.9-1 1.1-1.3 1.3-1.4.8-.9.9-1 1.7-2.1.3-.4.2-.3.5-.6.4-.5.2-.2.7-.9.6-.9 1.8-2.2 2.8-3.7.3-.4.3-.3.9-1.2 0-.1 0 0 .4-.7-.1.2 0 .2-.6 1.1.9-1.2 1.4-2 2-2.8.6-.8 1.1-1.5 1.8-2.7 0-.1.1-.3.4-.7 0 0 .5-.8 1.1-1.6.1-.3-.6.9-.4.6.4-.6.7-1.1.7-.9.7-1 .3-.5.8-1.4.9-1.6 1.9-3.3 2.8-4.9.5-.8.9-1.7 1.3-2.5s.8-1.7 1.2-2.5c.1-.2.2-.3.4-.7.6-1.1 1.1-2.3 1.6-3.5.5-1.2 1.1-2.4 1.6-3.7l1.5-3.9c.5-1.3 1.1-2.6 1.5-4 .1-.4.2-.8.3-1.1.3-.8.2-.7.6-1.8.2-.5.2-.6.4-1.1 0 .1.4-1.1.5-1.5.6-2.2.8-3 1.2-4.5 0-.2.2-.9.4-1.6.2-.7.3-1.3.3-1.4l.1-.4c.1-.6.3-1.3.4-1.5.2-.8.4-1.7.6-2.7.2-.7.4-2 .5-2.7.3-1.6.6-3.3.7-4.2 0-.1 0-.3.1-.8 0-.3.1-.5.1-.8.2-1.4.3-2.6.4-3.9 0 0 0 .1.1-.7.2-1.7 0-.5.1-1.2.1-.5.2-2.3.2-2.7 0 .6-.1 1.3-.1 1.1.1-1.5.1-1.1.2-2.3 0-.5.3-3.3.2-4.3 0 .2 0 .4 0 0 0-.1 0-.5.1-.4 0-.8.1-2.5.1-2.7-.4 3.1-.4-.7-.3-1.2zM15.7 75.1c-.5 1.2-.6 1.4-.7 1.4l.7-1.4zm-1 2.2c.9-1.7.9-1.7 1.1-2l-.5 1c.2-.7-.9 1.6-.6 1zm15.7-24.5c-.1.1-.8 1-.5.6 1.2-1.6.8-.9 1.5-1.8.2-.2-1.2 1.5-1 1.2zm15.4-16.6c.2-.1-1.5 1.5-2.2 2.2-.3.1 1.5-1.5 2.2-2.2zm-.6.7l1.4-1.4v.1c-.6.7-.6.6-1.4 1.3zm1.7-1.7c-.3.2-.6.5-1 .8-.4.3-.7.7-1.1 1-.7.7-1.3 1.2-1.4 1.3 2-1.8 2.3-2.2 4.3-3.9.2 0-.7.8-.8.8zm2.7-2.3c-.4.3-.8.7-1.5 1.3.3-.3 1.6-1.4.9-.8.3-.3.8-.7.6-.5zm8.3-6.4c-.4.2-.8.5-1 .6 1.4-1 .9-.6 1-.6zm-1 .8c-.1 0 1.9-1.4 2.9-2.1.6-.4.4-.3 1-.7-.4.4-2.7 2-3.9 2.8zm3.8-2.9c-.5.4-.8.6-1 .7-.6.4-1.1.8-1 .6.6-.4 1-.7 1-.7.6-.4 1.2-.7 1-.6zm13-7.9c-.5.3-1.1.6-1.4.8.7-.4 1.5-.8 2.4-1.3 0 0-.5.2-1 .5zm13.3-6c.4-.2 2.8-1.2 2.9-1.1-.5.2-2.4.9-1.5.6-.3.1-1.2.4-1.4.5zm2.2-.8c.4-.2 1.9-.8 1.5-.6.5-.2.7-.2.7-.2-.5.1-1.3.4-2.2.8zm188 117.8s0-.5-.1-.8v.5c0-.4-.1-.7-.1-1.1 0-.8.1-.2.2 1.4zm-271 50.3c-.1-.5-.3-1-.4-1.4.1.4.2.8.3 1.1.1.3.2.5.1.3zm-1.7-6.4c.2.8-.3-1.4-.5-2.1.1.3.2.7.2 1 .1.2.2.5.3 1.1zM1 147.7v-.8.8c0 .1.1.8.1.8v.2c0 .3-.1-.3-.1-1zm264 4.5c-.3 2.5-.5 4.2-.8 6.1-.1.7-.2 1.3-.3 2-.1.4-.1.8-.2 1.2 0 .2-.1.3-.1.5-.5 2.6-1 5.1-1.6 7.6.3-1.3.5-2.3.7-3.3.2-1.1.5-2.2.8-3.7.1-.4.1-.7.1-.7.3-1.8.7-3.8.9-5.9.2-1.2.4-4.1.5-3.9v.1zm-15.4 47.6c.2-.4.3-.6.7-1.2 0 .1.2-.3.2-.3-.2.3-.2.4-.3.6-.5.8-.4.6-.9 1.5-.4.9 1-1.7 1.4-2.4-.6 1.3-1 1.7-1.7 3.1.2-.4-.9 1.5-1.1 1.8l.5-.9c-.4.8.3-.5-.3.7 0 0-.1.2-.3.4-.1.2-.3.5-.5.8-.9 1.4-.5.8-1.1 1.8 0 0-.1.2-.4.5-.2.3-.3.6-.9 1.5 0 0-.4.5-.8 1.1.2-.2.7-1 1-1.4-.2.3-.2.4-.4.6-.5.7-.6.9-1.8 2.6 0-.1.3-.5.4-.6-1.1 1.5-2.1 2.9-2.4 3.5.6-.9 1.2-1.8 1.4-2-.4.5-1.2 1.7-1 1.5 0 0 .1-.2.3-.4.1-.2.3-.4.3-.4-.1.1-.2.4-.6.9-.8 1.1 0 0-.4.5-.7 1-1.7 2.3-2.2 2.8-.2.3.7-.8 0 0-.4.4-.6.7-1.3 1.7-.3.3 1-1.3 0-.1-1 1.3-.3.4-.6.9.4-.5.9-1.1 1.1-1.4-.3.4-1.2 1.6-1.5 1.9.8-1-.6.6-.7.7.3-.4.9-1 .5-.5-.7.8-.5.6-1.4 1.6.1-.2-1.3 1.5-2.1 2.3-.4.5-2.2 2.4-3.1 3.4-.1.1 1.1-1.2 1.2-1.3-.8.9-1.4 1.4-1.9 2.1.2-.2.1 0 .5-.4 0 0 .2-.2.3-.4s.4-.4.4-.4c-.4.6-1.1 1.1-1.7 1.8-.6.6-.6.6-1.3 1.2.1-.1.4-.4-.3.2-.2.2.3-.2.3-.2-.3.3-.5.5-.8.7-.4.4-.4.4-.8.7l-1.5 1.5c-.6.5-.3.3-.8.7-.7.5-2.4 2.1-3.2 2.8.1-.1.3-.3 0 0-.6.5-1.4 1.2-2.5 2 0 0 .4-.3.3-.3-.9.7-1 .8-1.9 1.5.1-.1-.3.2-.3.2-.9.7-.6.5-1.7 1.3-.8.6-.4.2-1.4 1-.4.3.2-.1-.3.3s-1.7 1.2-2 1.4c-.3.2 1.4-1.1.8-.7-.9.6-1.5 1-1.9 1.3-.5.3-.8.5-1.3.8-1 .6-1.7 1-2.4 1.5-.1.1 0 0-.3.2l-3 1.8c-.7.4-1.5.8-2.1 1.2-.7.4-1.2.7-1.8 1-1 .5-2 1-3.1 1.6-2 1.1-4.3 2-6.1 2.8-.4.2-.5.2-1 .4-1 .5-1.8.7-2.6 1-.6.3-1.4.6-2.3.9-.4.2-.9.3-1.3.5-.5.1-.9.3-1.4.4-.9.3-1.9.6-2.9.9-.5.2-1 .3-1.6.5-.5.1-1.1.3-1.6.4-1.5.4-3.3 1-5.1 1.4-2.4.5-4.6 1-5.8 1.3-1.2.2-2.8.5-4.3.7-1.5.3-3 .4-4 .6-1.1.1-2.2.2-3.4.4-1.3.1-2.7.2-4.3.3-1.1.2-3.4.2-5.3.2-.5 0-1 0-1.8.1h-1c-.9 0-2.6 0-2.1-.1.8 0 1.5 0 2.2.1.7 0 1.4 0 2.1-.1h-2.2c-.7 0-1.5 0-2.3-.1-.8 0-1.6 0-2.5-.1h-1.4c-.5 0-1-.1-1.5-.1-.6 0-.3 0-1.1-.1-.5-.1-1.7-.1-2.5-.2-1.9-.1-4.1-.5-6.1-.7-1-.1-2-.3-2.8-.4-.9-.1-1.6-.3-2.2-.4-.6-.1-1.4-.2-1.7-.3-.6-.1-1-.2-2.1-.4-.5-.1-.1 0-.7-.1-1.2-.3-1.7-.4-2.4-.5.4.1.8.2.7.2-1.2-.3-1.9-.4-2.7-.7-1.6-.4-2.6-.7-4.1-1.1 0 0-.1 0-.7-.2-.5-.1-.2-.1-1-.3.1.1-1.2-.4-1.3-.4-.1 0-.9-.3-1-.3-.6-.2-1.1-.4-1.3-.4-.3-.1 1 .4 0 0-.3-.1-.4-.1-.7-.2-.8-.3 1 .3-.3-.2.8.3 1.3.4 1.4.4-.6-.2-1.7-.6-2.3-.8-.3-.1.1.1-.3-.1-.6-.2-1.1-.4-1.3-.5-.6-.2-1.1-.4-1.7-.6-.7-.3-1.4-.6-2.2-.9-.7-.3-1.5-.7-2.2-1 .3.1.9.4.8.4-.8-.3-1.6-.7-2.9-1.3-.3-.1-.4-.2-.7-.3-.4-.2-.4-.2-.9-.5-.4-.2-1-.5-1.3-.6 0 0-.6-.3-.9-.5-.5-.3-1.1-.5-1.6-.8-.1 0-.5-.2-.9-.4s-.7-.4-.7-.4c-.4-.2-.6-.4-.9-.5.2.1.3.2 0 0-.8-.5-2-1.1-2.7-1.6.5.3 1.1.6.9.5-.8-.4-1.9-1-2.5-1.4-1.4-.9-3.1-2-3.6-2.3.1 0-.2-.2-.9-.6-1.5-1-4.1-2.8-6-4.3.1 0-.2-.2-.8-.7-1-.8 1.2 1 .5.5-1-.8-.9-.8-1.6-1.3-1.5-1.2-2.8-2.2-3.8-3.1.1.2-1-.8-1.4-1.1-.5-.5-2.3-2-2.9-2.6.1.1.3.3 0 0-.6-.6-1.5-1.5-2.3-2.2.3.3.6.6.2.3-1.6-1.5-3.6-3.7-3.8-3.7l1.2 1.3c.1 0 0-.1.3.2-.2-.2.2.3.7.8.5.5 1.1 1 1.2 1.2.1.1-1.4-1.3-1.3-1.2.4.4-.1 0-.3-.2-.3-.3 0-.1 0 0-.5-.6-.7-.7-1.5-1.5-.1-.1.3.4.4.5-1.4-1.4-.8-1-1.6-1.8-.6-.6.3.3-.3-.2-.5-.6-1.1-1.2-1.9-2.1.3.3.5.6.4.5-.4-.5-.5-.5-.7-.8-1-1.2-1.3-1.6-2.3-2.7-.1-.1.3.4 0 0-1-1.1-1.2-1.5-2.2-2.7-.5-.6-1.3-1.6-1.8-2.2.4.5.7.9.8 1.1-.4-.5-1.5-1.8-2.1-2.8-.3-.5-.3-.4-.9-1.1 0-.1.3.3.3.3-.8-1.1-1.3-1.8-1.9-2.6-.6-.8-1.6-2.4-2.3-3.5-1.4-2.2-2.8-4.8-3.6-6.1.1.1-.3-.6-.7-1.2-.6-.9-1-1.8-1.6-3.1.7 1.2-.8-1.7-.6-1.3.6 1.1 1.2 2.4 1.7 3.5.3.5 1.1 1.9 1.4 2.5-.7-1.1-.5-.9-1-1.8 0 .1-.2-.2-.5-.9 0 0 .2.4.4.7.2.3.3.4 0 0-.1-.1-.8-1.5-.6-1.3.4.8.5.8.3.3-.7-1.4-1.3-2.5-1.8-3.5-.1-.1 0 0-.2-.3-.1-.2-.7-1.4-.6-1.3.3.7 1 2 1.2 2.5-.1-.1-.2-.3-.7-1.3.3.6.3.7.3.6-.2-.3-.2-.4-.3-.6-.6-1.1-.5-1.2-1-2.2-.2-.3-.7-1.6-.8-1.6.3.8 1 2.2 1.4 3.2l-.6-1.3c.7 1.6 1.3 2.7 1.9 3.8 0 0-.3-.5 0 0 2.2 4.4 5.6 10.4 9.2 15.5-.2-.3-.2-.4 0 0 .2.3.9 1.3 1 1.4.6.7 1.3 1.9 2.1 2.8.5.6.8 1 1.3 1.7.4.5.7.9 1.1 1.4 1.3 1.7 2.9 3.4 4.5 5.3 1.7 1.8 3.4 3.6 5.1 5.3 1.3 1.2 2.6 2.5 3.8 3.6l-.6-.6c.1.1.8.8 1.4 1.2h-.1l-.1-.1c2.1 1.9 4.1 3.6 6 5.1.5.3-.9-.7-.8-.7 1.1.9 2.1 1.7 2.8 2.2-.8-.6-1-.8-1.4-1.1.5.4.9.7 1.9 1.5-.5-.4.2.2.2.3-1.2-1-2.8-2.2-4.5-3.5-1.1-1-2.5-2.2-3-2.5.6.5 1.6 1.4 2.7 2.3 1.1.9 2.2 1.8 3 2.4.5.3 1.6 1.3 2 1.5 1.9 1.3 3.8 2.7 5.7 4 1.7 1.1 3.3 2.1 4.7 3-.3-.2-.7-.4-.1-.1 1.1.6 1 .6 1.8 1.1.8.4-.6-.4-.2-.2.6.4 1.9 1.1 1.2.7.9.5 2.1 1.3 2.5 1.4-.9-.5-1.6-.9-1.8-1.1.5.2 2.8 1.5 2.5 1.4 1 .5.7.3 1.3.6 1 .6-.8-.3-1.3-.6.7.4 2 1 3.4 1.8.3.1-1.7-.8-1.2-.7 2.1 1.1 2.7 1.4 4.5 2.1-.6-.2 2.4 1.1 1.9.9-1.1-.5-2.2-1-3.2-1.4.4.2.9.4 1 .4-.3-.1-.4-.2-.6-.3-.7-.3-.3-.1-.7-.3-.5-.2-1.3-.6-.7-.3.2.2.5.2 1.3.6 1.6.7 3.9 1.7 4.9 2.1-.5-.2-1.7-.7-1.6-.7.1 0 0 0 .4.1-.2-.1.9.5 1.9.9 0 0-.4-.2-.4-.1 1.8.7 3.4 1.3 4.6 1.8 1.4.5 1.6.5 2.7.9.9.3 2 .6 2.4.8.1 0 .6.2 1 .4 1.4.5 2.6.7 3.4 1 .8.2 1.3.4 2 .6.4.1.9.2 1.4.4.4.1.5.1 1 .2.4.1.7.1 1.1.2.1 0 .8.2.7.2-1.4-.3-2.2-.5-2.8-.6-2.5-.7-3.9-1-6.1-1.7-.2 0-.4-.1-.7-.2-.6-.2-1.9-.6-3.2-1.1-.7-.2-1.4-.4-2-.7-.7-.2-1.3-.5-1.8-.7-.8-.3-1.6-.6-2.3-.9-1.2-.4-2.3-.9-3.4-1.4-1-.5-2-.9-2.8-1.3-.5-.2-.1 0-.7-.3-1.3-.6-1.4-.7-2.8-1.4-.6-.3.4.3-1-.4.3.1-.2-.2-.6-.4-1.4-.7-1.4-.7-2.5-1.3-1.4-.9-2.9-1.6-4.9-2.8-.1 0 0 .1-.3-.2.1 0-.4-.3-.6-.4-.9-.6-1.7-1.1-2.5-1.6-.4-.2-.8-.5-1.1-.7-.4-.3-.7-.5-1.1-.8-.4-.3-.2-.2-.8-.6-1.2-.9-3-2-4.9-3.5-.3-.3-.4-.3-.8-.7-2.1-1.6-4.5-3.6-6.3-5.2-.5-.4-.6-.5-1-.9-.6-.5-1.3-1.2-1.8-1.7-.8-.7-1.8-1.7-2.3-2.2-.3-.3-.5-.6-.7-.8-.5-.5-.8-.8-1.2-1.3-1-1-2.6-2.7-3.6-3.9-.3-.3-.6-.7-.7-.8-.2-.3-.2-.3-.7-.8-.4-.5-.5-.6-.9-1.1-.1-.1-.5-.6-.9-1.1-1-1.3-2.8-3.5-3.5-4.4-.5-.7-.7-.9-1-1.4-.1-.1-.3-.5-.6-.9-1.1-1.6-2-2.7-2.4-3.5l-.9-1.5c-.7-1.1-1.1-1.7-1.7-2.7-.5-.8-.8-1.3-1.3-2.1.1.2.5.7.1 0-.4-.8-.2-.3-.9-1.5.1.1.3.5.4.6-1.6-2.7-2.5-4.5-3.6-6.9-.1-.1.2.4.3.6-.3-.7-.6-1.3-.9-1.9-.3-.7-.6-1.4-1-2.2-.9-2.1-1.8-4-2.3-5.5-.5-1.3-1.3-3.1-1.8-4.9-.6-1.7-1.1-3.3-1.4-4.1-.4-1.2-.7-2.3-1-3.4-.3-1-.6-2.1-.8-3.1-.2-1-.4-1.8-.5-2.4-.1-.4-.1-.5-.2-1-.6-2.7-1-4.9-1.4-7.6-2.5-16.2-1.9-33.4 2-49.8l-.1.3c.2-1 .5-2.1.5-2-.3 1.2-.4 1.6-.3 1.4.3-1.3.2-1 .5-2.1.2-.4.7-2.3 1.1-3.7 0-.1 0 0 .1-.4.5-1.6.9-3.1.8-2.4.1-.4.3-1 .4-1.4 0 0 0 .1 0 0 .3-.8.6-2 1.1-3.2.5-1.2 1-2.5 1.4-3.8.5-1.5 1.5-3.4 2.1-4.9.2-.5.4-.9.6-1.3.8-1.8 1.8-3.6 2.5-5.1-.1.2-.3.6-.5.9-.2.3-.3.6-.3.6-.2.3.3-.7.6-1.3 0 0 .1-.3.5-1 0 0-.3.6.1-.4.6-1.1 1.3-2.4 1.4-2.4-.9 1.6-1.6 2.8-1.7 3.1.4-.7 1.1-2.1 1.7-3.1.3-.5.4-.7.7-1.2.3-.6.6-1.1.9-1.6 0 0 .3-.5.6-.9.5-.8.5-.9 1.1-1.8l-.8 1.2c.6-.9 1.1-1.7 1.7-2.7.5-.9 1.3-1.9 1.9-2.8.6-.8 1-1.5 1.1-1.6-.6.7-.7 1-1.2 1.7 0 0-.4.5-.4.6.6-.9.4-.6 0-.1.4-.5 1-1.4.8-1.2-.4.6-.9 1.3-1.3 1.8 1.3-1.9 2.7-3.8 4.1-5.7.1-.2.1-.1-.1.2.8-1 .9-1.2 1.3-1.7 0 .1.8-1 1.1-1.4.2-.3-.7.8-.7.8.4-.5.7-.9 1.1-1.4l.1-.1c.4-.5.8-1 1.3-1.5-.5.6-.6.8-.2.3-.7.8-.8.9-.5.6.1-.1.4-.4.7-.8 0 .1.2-.2.7-.8 0 0 0-.1.2-.3-.3.4-.9 1-.9 1.1.4-.5 1.3-1.6 2.1-2.4 0-.1 0 0 0 0 .8-.9 1.6-1.8 2.5-2.7.3-.3.5-.5.5-.4l-.5.5c1-1.1 1-1 2.2-2.3.1-.2-1 1-1.5 1.5l.3-.3.7-.7.5-.5c.7-.7 1.6-1.6 2.3-2.2.2-.3-.6.5-1 1 1.5-1.5 3.1-3 4.7-4.4v.1c.1-.1-.4.3-.5.5-.2.2.2-.1-.5.5-.1.1.3-.4-.5.4.2-.1-.2.2-.5.6.6-.6 1.3-1.3 2.1-2 .7-.6 1.4-1.2 1.8-1.6-.3.2-.3.3 0 0 1-.9.1 0 1.1-.9.3-.3.1-.2 1.1-1 .5-.4.9-.8 1.2-1 .5-.4 1.1-.9 1.6-1.3-.4.3-.7.6-.6.5.5-.4 1.2-.9 1.4-1.1.9-.7 1.8-1.4 2.8-2.1.8-.5 1.1-.8 2-1.4.1-.1.3-.2.4-.3 0 0-.8.6-.6.5l.6-.4s.2-.2.3-.2c-.5.3-.3.2 0-.1.3-.2.6-.4.8-.6-.1.1-.4.3-.3.2 1-.7.7-.5.9-.7 1.1-.8 2.3-1.5 3.5-2.2-.2.2-.4.3-.5.4.7-.4.9-.6 1.1-.7.2-.1.4-.2.5-.3.6-.3 2.3-1.3 2.3-1.4.9-.5 1.9-1 2.8-1.6h-.1c.3-.2.7-.4 1.1-.6h.1l2.8-1.4c1.1-.5 2.1-1 3.2-1.5.8-.4 1.7-.8 2.4-1.1.2-.1.5-.2.7-.3 11.5-4.9 23.7-8.1 36.3-9.5h-.2.3c.5-.1 1.1-.1 1.6-.2 1.1-.1 2.2-.1 2.7-.2-.6 0-1.3.1-2 .1 3.7-.3 7.4-.5 11.1-.5 5.1 0 10.2.3 15.2.9.4.1 1.3.2 1.1.3l-2.8-.3c-1.2-.2-4.6-.4-6.3-.6h-.4c-1.1-.1-1.3 0-2.5-.1h-2.1c-.5 0 0 0-.4.1h-1.4.7-1.1 1.4-1.1c.1.1 2.3.1 1 .2 1 0 1.8.1 1 .1 1.7.1 1.9.1 3.8.2.1 0 1.2.1 1 .2 1.9.2 3.9.3 6 .5.7.1 1.1.1 1.8.2 1.1.1 2.6.3 3.9.5 1.3.2 2.4.4 2.8.4 1.2.2 1.9.3 3.1.5 1.4.3 3 .7 3.8.8.3.1.9.2 1 .2 1.5.4 1.1.3.2.2 1 .2 1.8.4 2 .5-1-.2-.5-.1-1.7-.4l.3.1c1.3.3 2.5.7 3.7 1 1.1.3 1.9.5 3.1.8 1.8.6 3.9 1.3 5 1.6 1.3.5 2.9 1.1 4.3 1.6.2.1.7.2 1 .4.5.2 1.3.6 1.9.8.9.4 1.7.7 2.6 1.1.1 0 2.2.9 3.5 1.6.7.3 1.8.9 3 1.5s2.5 1.4 3.8 2.1c.1 0 .1 0 .3.2 1.3.7 4.3 2.6 5.4 3.3-.7-.4.1.1-.1 0 .7.4 1.3.8 2 1.3.6.5 1.3.9 2.1 1.5-.3-.3.9.6 1.2.8.2.2.1 0 .6.4.6.5-.6-.4.5.4.7.5-.4-.3 0 0 .9.7 1.2.9 1.4 1.1-1.1-.8.3.3-.3-.2.7.5 3.2 2.5 2.5 1.9-.4-.3-1-.8-1.1-.9.8.6 1.2.9 1.7 1.3.1.1 1.3 1 1.4 1.1.2.1.2.2.5.5.2.1.3.3.8.7.5.4.8.7 1.3 1.2 1.3 1 3.5 3.1 4.7 4.3.1 0 0-.1.3.2 1.2 1.1 3.5 3.6 5.4 5.5.5.5.5.6.9 1.1.2.2.4.4.9 1.1.1.1.5.6.9 1.1 1.4 1.6-1-1.1-.4-.5.8.9 1 1.2 1.1 1.3.7.8.8.9 1.6 1.9.3.4.2.2.5.6.3.4.1.2.6.8.6.8 1.6 1.9 2.6 3.4.2.3.2.4.7 1.2l.4.6c-.2-.1-.1-.1-.8-.8 1.5 2.2 2.1 2.9 3.4 4.9.1 0 .2.2.4.6 0 0 .4.8.9 1.5.2.2-.5-.8-.3-.6.3.5.6 1 .5.9.6 1 .3.4.8 1.2.8 1.5 1.7 3 2.5 4.4.9 1.5 1.6 3 2.4 4.5.1.2.1.3.3.6.5 1 1 2.1 1.5 3.2l1.5 3.3c.5 1.1.9 2.3 1.4 3.5.4 1.2 1 2.4 1.3 3.6.1.3.2.7.4 1 .2.8.2.6.6 1.7.1.4.2.6.3 1 0-.1.3.9.4 1.3.6 2 .8 2.7 1.1 4.1.1.2.3.8.4 1.4.1.6.3 1.2.3 1.3 0 0 .1.3.1.4.1.5.3 1.2.3 1.4.1.7.3 1.5.5 2.4.2.6.3 1.8.5 2.4.3 1.5.5 3 .7 3.8 0 .1.1.2.1.7 0 .3.1.5.1.7.2 1.3.3 2.4.5 3.5v.7c.2 1.5.1.5.2 1.1 0 .4.1 2.1.2 2.5 0-.6-.1-1.2-.1-1 .1 1.3 0 1 .1 2.1.1.5.2 3 .3 3.9 0-.2 0-.4 0 0v.3c0 .7 0 2.3.1 2.5-.1-2.5.1 1 .1 1.4v-1.1c.1 1.9 0 3.2 0 5.3v.4c0 .5 0 1.4-.1 2.5v-.4c0 2-.1 1.2-.2 2.8 0 .5.1-1.1.1-.7v.7c0 .4-.1 1.4-.1 1.8 0 .1 0-.1 0 0-.1 1-.1 2-.3 3.5v.4c-.3 1.9-.4 4-.9 6.3v.4c-.2 1.2-.1 1-.3 2.1 0 .2.1-.4 0 .4-.1.5-.2 1.3-.3 1.4.2-1.3.1-.8.1-1.1-.2 1.3-.6 2.9-.7 3.5 0-.3.2-1.1 0-.4-.2 1-.6 2.8-.8 3.8-.1.6.2-.3-.2 1.1 0-.1-.2.8-.3 1-.1.2.2-.7-.1.3-.3 1.2 0 .2-.3 1-.4 1.6-.7 2.5-1.1 3.7-.3.9-.6 1.7-1 3-.1.5.3-.8 0 0-.4 1.3-.1.2-.2.3-.2.6-.2.7-.1.4-.2.6-.2.6-.3 1-.2.6-.2.7-.4 1-.4 1-.8 2-1.4 3.6-.2.6-.1.3-.5 1.3-.5 1.2-.3.6-.7 1.6-.9 2.2-1.6 3.7-2.5 5.4.2-.3.6-1.2.4-.6-.3.4-1.3 2.5-1.9 3.8-.1 0 .2-.4.1-.4-1.3.7-2.7 3.2-2.3 2.7zm-13.7 20.1c-.5.6-.9 1.2-1.6 1.9.2-.3.8-1 1.6-1.9zm-2.1 2.3c-.7.8-1.3 1.5-1.2 1.3.7-.7 1.3-1.4 1.2-1.3zm-2.1 2.5c0 .1-.6.7-1.2 1.3-.2.1.8-1 1.2-1.3zm-30.4 24.7c.1-.1.3-.2.4-.3-.1.1-.2.2-.4.3zm15.6-10.4c.1-.1.5-.4 1-.8-.4.2-.7.5-1 .8zm10.4-9.8l1-1c.2-.2.3-.2.3-.2-.7.6-.6.5-1.3 1.2zm-93.4 35.6c-.9 0-1.4 0-2.8-.2.5 0 1.6.2 2.8.2-.2 0-.4 0 0 0zm-2.9-.1h-.7c-.1 0-1.4-.1-1-.1 1 0 1 0 1.7.1zm-3.4-.3h-.9c-.5-.1-.9-.1-1.2-.2.4 0 1.1.1 2.1.2zm-6.6-.4c-.5 0-1.6-.2-2.5-.4.7.1 1 .2 2.5.4zm-3.9-1c.2 0 1.4.2 2.1.3-.6 0-.8-.1-2.1-.3zm-24-6.4c-.4-.1-1.1-.4-1.3-.5.4.1 2.6.9 2.6 1-.5-.2-2.1-.9-1.3-.5zm2 .7l.6.3c-.4-.1-1.2-.4-2-.8.5.2 1.8.7 1.4.5zm-14.3-6.6s-.1 0-.3-.1c-.2-.1-.4-.2-.7-.3-.5-.3-1-.6-1.2-.7.6.2 1.3.7 2.2 1.1zm-13.7-8.2c.5.4.4.2.9.6-.4-.2-2.4-1.7-3.5-2.4-.1-.1 1.7 1.2 2.6 1.8zm-2.4-1.9c1.3.9.7.6.8.6-.3-.2-.7-.5-.8-.6zm2.6 1.8c-.5-.4-1-.7-.8-.6.5.4.9.6.8.6.6.3 1.1.7.9.6-.5-.3-.8-.5-.9-.6zm-9.7-7.5c.3.2.7.7.5.5-.3-.3-.7-.6-1.3-1.1.2.1 1.4 1.1.8.6zm-1.1-.9c.1.1-.8-.7-.8-.7-1-.8-3-2.8-3.1-2.9 1.7 1.7 2.1 2 3.9 3.6zm-3.9-3.6c-.1-.2 1.4 1.3 2.1 1.9.1.2-1.5-1.3-2.1-1.9zm-12.4-13.5c1.1 1.4.6.9 1.2 1.7.1.2-1-1.3-.9-1.1 0-.2-.6-.9-.3-.6zm-12.8-19.8l-.5-.9c.3.5-.7-1.5-.4-.9.8 1.4.7 1.5.9 1.8zm-.5-1.3l.6 1.3h-.1c-.5-1.1-.5-1.2-.5-1.3zM247.1 73.3c-.3-.4-.4-.7-.5-.9.3.4.4.5.4.6l.3.6s-.1-.2-.4-.6c-.1-.2.9 1.4.2.3zm1 1.5c.1.2.2.4.3.5.2.3.4.6.6 1-.3-.5-1-1.6-1.2-2.1l.3.6zm2.4 4.1c-.1-.1-.1-.1-.3-.4-.3-.7-.5-1-1.1-2.1.4.8.9 1.7 1.4 2.5zm-4.1-6.8c-.3-.4-.6-.9-.9-1.5l.9 1.5zM230 51.3l-.7-.8h.1c.5.7.7.8.6.8zm-42-28.1s1.2.5 1.7.7c1.4.6-.2 0-1.7-.7zm-.6-.2c-1.4-.6-2.1-.8-3.3-1.2-.4-.2.9.3 1.7.6.5.1 1.9.6 1.6.6zm-5.9-2.3c1.3.5.8.4.6.3.2.1.7.3.6.3-.6-.2-.8-.4-2-.7 0 0 .3.1 1 .3-.1-.2-.2-.2-.2-.2zm-7.5-2.3c-.6-.2-.7-.2-1.3-.4-.1-.1.1 0 .4 0 1.1.4.5.2.9.4zM75.1 30.1c-.2.1-.4.2-.5.3.2-.1.5-.3.7-.4.1 0 0 0-.2.1zM33.3 70.2c-1 1.6-.2.3-.2.2.3-.5.4-.6.8-1.2-.2.4-.9 1.3-.6 1zm-.8 1.3c-.2.3-.4.7-.8 1.2-.1.1.1-.2.2-.3.6-1 .7-1 .6-.9zm-.2.1c-.2.4-.4.6-.7 1.2-.3.5-.5.7-.6.9.4-.6.8-1.3 1.3-2.1 0 .1 0 0 0 0zm-3.4 6c.7-1.2.5-.9.8-1.6.9-1.4-.2.5-.8 1.6zm-2 3.7c-.4.8-.7 1.4-.7 1.2.1-.3.1-.3.2-.3.4-.9.5-1 .5-.9zm-1.3 2.5c-.5 1.2-.6 1.2-.6 1.3-.1.1.3-.7.3-.7s-.5.9-.4.6c.8-1.7.7-1.3 1.2-2.2-.2.5-.7 1.3-.5 1zm-1.4 2.8c-.3.6-.3.7-.6 1.3-.5 1.1.1 0-.7 1.7.2-.5.8-1.6 1.2-2.6-.2.5-.3.8-.7 1.6.2-.4.7-1.7 1-2.3.1-.3.2-.4.2-.3-.8 1.7-1.5 3.3-2 4.5-.4 1.1-.8 2-1.2 3.3-.2.4.4-1.1.7-2 0 0-.1.3-.3.7-.1.4-.3.9-.5 1.3v-.1c.2-.3 1.1-2.8 1.1-2.6.2-.5.5-1.3.2-.7.2-.5.8-1.8.4-1 .6-1.4.6-1.4 1-2.4 0-.2.1-.3.2-.4-.1 0-.4.8-.5.9.1.1.5-.9.5-.9zm-4.3 10.9c-.1.1.2-.6.1-.4.2-.5.5-1.4 1-2.7 0 .1-.4 1.1-.7 2-.3.6.1-.3-.4 1.1zm-.9 2.7c-.3.8-.5 1.4-.6 2-.1.6-.3 1.1-.5 1.7-.3 1-.3 1.1-.6 2 .1-.4.3-1 .6-2 .1-.5-.3 1.1-.2.6.3-1.1.2-.8.4-1.4.3-1.1.1-.2.4-1.3.2-.5 0 0-.1.3.1-.4.3-.9.5-1.3 0-.1.9-2.7.3-1l-.2.4zm-4 16.5c.1-.8 0-.2 0-.4.1-.7.2-.8.1-.3 0 .2.4-2.1.3-1.7-.2 1.4-.6 3.2-.7 4.2 0-.5.2-1.5.3-1.8zm-.4 1.7c0-.4.3-1.6.4-2.1-.1.5-.3 1.2-.4 2.1zm-.1 1.1c-.1.5-.2 1.1-.2 1l.2-1.4c.1-.1 0 .3 0 .4zm-1 7.4c-.1.9-.2 2.2-.3 3.5-.1 1.1.1-1.4.1-1.4h-.1c.2-1.9.1-2.3.3-3.9.1-.1-.2 1.7-.1 1.1.1-.5.2-1.7.4-3.1.2.5-.3 3.9-.3 3.8-.1.6-.1.7-.2 1.4.1.4.2-2 .2-1.4zm.3-2.6c.1-.6.1-.8.2-1.4 0 0-.7 5-.2 1.4zm-.8 7c.1-.8.1-1.8.2-2.5 0 .2-.1 1.8-.2 2.5.1-.1.1-.7.1-.7.1-.6.1.1-.1.7 0-.1 0 1.1-.1.7-.1.9 0 .6-.1 1.3 0-.6.1-1.2.1-1.7.1-.1.1-.2.1-.3zm.2.1v.4c0 .2 0 .6-.1.8 0 .6 0 1.1-.1.9.1-1.1.1-1.2.2-2.1zm1.4 29.2c.1.7.2 1 .2 1.3-.1-.8-.3-1.6-.4-2.4.1.3.1.7.2 1.1zm-.2-1.7c0 .1.3 1.5.4 2.1 0 0-.1-.4-.2-.9s-.2-1-.2-1.2zm1.9 10c-.1-.6-.6-2.6-.8-3.4.3.9.7 2.7.8 3.4zm-.2-1.7c.2.9.2.7.3 1.4 0 .3-.4-1.6-.3-1.4zm-3.3-24.9v-.3.3zm0-5c0 .1 0 .1 0 0zm1 18.3c0 .2.1.5.2 1.1v.1c-.1-.4-.1-.8-.2-1.2zm-.3-3c0 .2 0 0-.1-.3v-.4c0-.1.1.7.1.7zm-.4-4c.1 1.3.2 1.9.2 2.9 0-.9-.1-1.9-.2-2.9zm0-1c0-.3 0-.6-.1-1 0 .2 0 .5.1 1zm-.1-3.1c0-.4 0 .2-.1-1.4v2.1c0-.1-.1-1.2-.1-1.4v-1.6c0-.2 0-.4 0 0v.3c0-.2-.1-2.1 0-1.7v1.8c.1.5 0-1.6 0-1v1.4c0 1.1.1 3.7.1 3.9.1-1.2.1-2 .1-2.4zm-.1-5.7c0 .1 0-.1-.1-.4l.2-2.4c0 .3 0 1.1-.1 1.8 0-.2.1-2.5 0-1.8v-1 .7c0-.1 0-.9.1-.7 0 1.6 0 1.7-.1 3.8zm2.9-27.1c.3-1.4.2-.7.5-2.1.2-.8-.6 2.6-.5 2.1zm.8-3.4c0-.1-.1 0-.2.7.2-1.1.4-1.4.5-1.7l.5-1.7c.3-1.1-.2.9-.4 1.4-.2.8-.4 1.5-.7 2.7-.1.3.2-.8.3-1.4zm3.2-10.4c0 .1 0-.1.1-.3-.1.4-.5 1.4-.7 2 .1-.1.3-.9.6-1.7zm-1.6 4.6c-.2.8-.3 1-.6 2-.1.5.3-1.1.2-.6-.2.8-.5 1.6-.6 2 0-.1.5-2 .1-.4 0-.2.1-.6.3-1.1.2-.7.4-1.5.6-2.2v.3zm5.4-14.7s0 .1-.1.1c0 0 .1 0 .1-.1zm-.3.6c.4-.7-.9 2-.7 1.8l-.3.6c.3-.8.7-1.6 1-2.4zm2.6-5.3c-.2.3-.3.7-.5 1 .1-.4.3-.7.5-1zm2.9-5.7c.1-.2.3-.5.4-.7-.1.2-.1.3-.6 1.1.1 0 .2-.3.2-.4zm10.6-15.9l-.3.3.3-.3zm18.3-19l-.2.2c-1.1.9-1.1 1-2.1 1.9.7-.8 1.5-1.4 2.3-2.1zm25-16.5l-.6.3.6-.3zm-62 157.5c0 .1.2.4.3.8.2.4.3.9.4 1.1 0 0-.4-1-.7-1.7.1 0 .1-.1 0-.2zm232.9-98.3c.3.6.6 1.4.8 1.9.2.6-.9-2-1.2-2.6-.1-.3.1.1.4.7zm1.8 4.1c.6 1.3.5 1.1.8 1.9-.2-.5-.8-1.9-.8-1.9zm10.1 55.3v.3c0 .7 0 .8-.1 1.8-.1.8-.1 1.6-.2 2.4 0-.4.1-1.8.2-2.8.1-2 .1-4 .2-5.3v3.2c-.1 0-.1.1-.1.4zm-.3 5.3c-.2 2.2-.2 1.8 0 0-.1 0-.1.4-.1.7 0 .1.1-.8.1-.7zm-7.4-54.7c.4.9.8 2.1 1.1 3.2.4 1.1.7 2.2 1.1 3.1.1.3.3.9.3 1 .2.6.5 1.7.9 3.1.1.4 0 .1.2 1 0 0-.2-.6-.4-1.4-.2-.7-.4-1.6-.6-2-.2-.6-.2-.6-.3-1-.2-.8-.6-1.9-.9-2.7-.3-.8-.4-1.1-.6-1.7-.2-.6-.5-1.5-.6-2-.2-.6-.3-.7-.5-1.3-.4-1.2.4 1 .3.7zm4.2 74.6c-.4 1.6-.8 3.2-1.3 4.8.2-.9.5-1.8.8-2.7.1-.5.3-1.2.4-1.7.2-1.4 0-.3.1-.4zm-3.6 11.8c.3-.9.8-2.4 1.2-3.7.1-.2.2-.5.3-.8l-1.5 4.5zm.4-3.1c-.1.1.6-1.8.7-2.4.2-.6 0 0 0 0-.2 1.2-.3 1.1-.7 2.4zm2.7-9.2c.1-.7.3-1.4.6-2.8-.2.7-.5 2.2-.6 2.8zm-9.6 26.1c0 .1-.6 1.2-.8 1.6l.8-1.6zm4.8-9.5c.5-1.4.7-1.8 1.1-3 0 .1-.1.2-.1.4-.2.4-.3.9-.5 1.3.1-.1-.6 1.9-.5 1.3zm.4-92.7c-.1-.1-.1-.1-.3-.6-1.6-4-3.4-8-5-11-.3-.5-.3-.5-.5-.9-.1-.2-.1-.3-.2-.5 2.3 4.2 4.3 8.6 6 13zm-5.8 104.6c.2-.4.1-.2 0 0 0 .1-.1.2-.2.4 0-.1.1-.2.2-.4zM.9 133.9v-1.3 1.3zm4.7 41.7zm1.1 3.9s0-.1-.1-.2c-.1-.2-.1-.4-.1-.5.1.3.2.5.2.7zm4.8 13.3c-.2-.3-.2-.5-.3-.6l.3.6zm247.1 16.6c-.2.3-.3.6-.4.7.1-.2.3-.5.4-.7zm18.4-84.3l-.3-2.4c.2 1.3.3 2.4.3 2.4zm-.6-4.7c-.3-2-.6-4.1-1-6.1v.1c.4 1.8.8 3.8 1 6zm-1.2-7.2c-.2-.9-.4-1.9-.6-2.8.3.8.5 1.7.6 2.8zm-.3-4.3c-.2-.7-.5-2.3-.7-3 .2.7.4 1.5.7 3zm-1.4-3.6c.3 1.2.1.5.1.4-.1-.4-.2-.7-.3-1.1.1.2.2.4.2.7zm-1.3-7c.2.7 0 .1 0 0-.5-1.2-.4-1.2-.9-2.6 0-.1.7 2 .9 2.6zM263.6 77c-.1 0-.7-1.3-.9-1.7 0 0 .7 1.3.9 1.7zm-17.7-26.9c-.6-.6-1.1-1.2-1.8-2.1.2.3.9 1 1.8 2.1zm-3.5-4.1c.7.8 1.4 1.6 1.2 1.5-.7-.9-1.4-1.7-1.2-1.5zm-1.2-1.2c-.1 0-.7-.7-1.4-1.4-.1-.2 1 1 1.4 1.4zm-3.7-3.9c.2.2.3.3.2.3l-1.4-1.4c.3.3.5.4 1.2 1.1zM133.3.2c-.2 0-.5 0 0 0-1 .1-1.5.1-3.1.2.6-.1 1.8-.2 3.1-.2zm-5 .3c1.1-.1 1.1 0 1.9-.1h-.7c-.2 0-1.6.1-1.2.1zm-2 .1s-.5.1-1 .1c-.5.1-1.1.1-1.4.2.6-.1 1.4-.2 2.4-.3zm-9.8 1.7c.7-.2 1.1-.3 2.7-.5-.5.1-1.7.4-2.7.5zm.5-.5c-.6.1-.9.2-2.3.4.3 0 1.5-.3 2.3-.4zM4.4 106.8c.1-.3-.4 1.8-.3 1.5.2-1 .2-.7.3-1.5zm.2-.3c0 .1 0 .1 0 0-.3 1.1-.5 2.2-.7 3.2 0 .2-.1.4-.1.6.2-1 .6-2.9.8-3.8zm-1.8 8.7s-.1.5-.1 1c-.1.5-.2 1-.2 1.3-.1 0 .2-1.6.3-2.3zm-1.3 9.3s.1 0 0 0c0 .3-.1.5-.1.8l.1-.8zm-.7 10.4v.4c0-.6 0-1.6.1-2.5 0-.9.1-1.6.1-1.7-.1 1-.1 1.9-.1 2.3-.1.4 0-.3-.1 1.5.1.3.1.6.1.8 0 .2 0 2.3-.1 1.9v-1.9c0-.6 0 1.7-.1 1.1 0-1.2 0-.8.1-1.9zm-.2 4.6c0-.1 0 .1.1.4l.1 2.7v-1.9c0 .2 0 2.3.1 2.1v1-.8.8c-.2-1.9-.2-2-.3-4.3zm.3 7.7c0-.3 0-.6-.1-.9v-.9c0 1.2.1 1.4.1 2.3v-.5zm0-1.4zm.4 6.9c-.1-.7-.1-.8-.1-1.6-.1-.4.2 2.2.1 1.6-.2-1.1-.3-2.4-.4-3.9-.1-1.2.1 1.5.1 1.6h.1c.1 2.1.2 2.5.4 4.3 0 .1-.2-1.9-.2-1.2.1.5.2 1.9.4 3.5 0-.7-.5-4.6-.4-4.3zm.4 2.7c.1.7.1.8.2 1.5-.1 0-.7-5.4-.2-1.5zm.6 5.3c-.1-.6-.2-1.2-.1-1.1l.3 1.5c-.1.2-.2-.2-.2-.4zm.3 1.2c.1.5.3 1.8.4 2.3-.1-.5-.2-1.3-.4-2.3zm2.6 12.5c-.2-.9-.5-1.7-.7-3 0-.4.2.9.4 1.5.1.1 0-.1-.1-.7.3 1.1.3 1.5.4 1.9l.5 1.9c.2 1.1-.4-1.1-.5-1.6zm2.2 7.5c-.3-.9-.5-1.6-.8-2.2-.2-.6-.4-1.2-.6-1.9-.3-1.1-.3-1.2-.6-2.2.2.4.3 1.1.6 2.2.2.5-.3-1.2-.2-.7.3 1.2.3.9.4 1.5.4 1.2 0 .3.4 1.5.2.5 0 0-.1-.4.2.4.3 1 .5 1.5.1.1 1 2.9.4 1.1v-.4zm.2.7c0 .1.3.9.6 1.8 0-.1 0 .1.1.4-.1-.4-.5-1.5-.7-2.2zm1.2 3.3c-.2-.6.1.5-.4-1.1 0-.1.3.7.2.4.2.6.6 1.5 1.1 2.9-.1 0-.5-1.2-.9-2.2zm4.6 11.5c-.8-1.9-1.6-3.6-2.2-5-.5-1.1-.9-2.2-1.5-3.6-.1-.5.5 1.2.9 2.2 0 0-.1-.3-.3-.7-.2-.4-.4-1-.6-1.4h.1c.1.3 1.2 3 1 2.9.2.5.6 1.4.3.7.2.6.9 2 .5 1.1l.4.8c.3.6.6 1.3.8 1.9.1.3.2.5.2.5-.3-.6-.3-.8-.6-1.4-.6-1.2 0 .1-.9-1.8.2.5.8 1.8 1.2 2.8-.2-.5-.4-.9-.8-1.8.3.6.8 1.8 1.1 2.5.4.3.5.4.4.3zm1.2 2.5c-.6-1.3-.7-1.3-.7-1.4 0-.1.1.1.2.3.1.2.2.3.2.4 0-.1-.5-1.1-.3-.7.9 1.8.7 1.4 1.1 2.4-.2-.5-.6-1.4-.5-1zm1.4 2.7c-.5-.9-.7-1.5-.7-1.4.1.3.2.3.2.3.5 1 .6 1.2.5 1.1zm2.2 4.1c.8 1.3.6 1 1.1 1.7.8 1.6-.4-.5-1.1-1.7zm4 6.7c-.2-.3-.5-.8-.8-1.3l.3.3c.6 1 .6 1 .5 1zm1.6 2.3c-.2-.3-.9-1.3-.7-1-.8-1.2-.5-.9-.3-.6.3.4.6.9.8 1.3.1.1.1.2.2.3zm23 26.6c.1.1-.4-.4-.6-.5-.2-.2.1.2-.6-.5 0-.1.1 0 .1 0 .4.3.8.6 1.1 1 .1 0 0 0 0 0zm6.8 5.7c.1 0 0 0 0 0 .1 0 .1 0 0 0 .1 0 .1 0 0 0zM154 276.9c-.8.1-2.6.2-4.2.3 2.3-.2 4.7-.4 7-.7h.3l-3.1.4zm22.3-3.5c-.1 0 .1-.1.4-.2 1.3-.4.6-.1 1.1-.2-.7.1-.8.2-1.5.4zm11.1-3.6c-.6.2-.9.3-2.2.8-.1 0 .3-.1 1.1-.4-.2.1-.4.1-.4.1 1.5-.5 1-.3.7-.2.3-.1.9-.3.8-.3zm5.1-2c-1.5.6-2.3.9-3.6 1.4-.5.1.9-.4 1.8-.8.7-.2 2.2-.8 1.8-.6zm.7-.3c0-.1 1.3-.6 1.8-.9 1.6-.7-.1.2-1.8.9zm44.7-31.1c.7-.8.9-1 .8-.8l-.8.8zm19.6-25.1c-.3.4-.5.7-.6.9.1-.2.3-.5.4-.7.2-.3.7-1.1.2-.2zm3.2-5.7c0-.1.1-.1.1-.2 0 .1 0 .1-.1.2zm1.2-2.2c.1-.2.2-.3.3-.5 0 .1-.1.2-.1.3-.1.1-.1.2-.2.2zm2.2-4.3c-.2.3.1-.2.4-.8.1-.3.3-.7.5-1.1l.3-.6c-.3.6-.9 2-1.2 2.5zm2.9-6.1l-.3.6c-.1.1-.1.2-.1.2.6-1.4.6-1.2.9-2.1-.1.3-.3.8-.5 1.3zm5.7-16.7c-.2.8-.5 1.7-.6 2.2-.2.6-.2.6-.3 1.1-.3.8-.7 2.1-1 2.9-.3.9-.4 1.2-.6 1.9-.2.8-.7 2.1-.8 2.2-.2.6-.3.8-.6 1.5-.5 1.3.4-1.1.3-.7.4-1 .9-2.3 1.3-3.5l.3-.9c.1-.2.1-.4.2-.6.2-.7.4-1.3.6-1.9.1-.3.3-.8.4-1.1.1-.4.2-.9.4-1.6.2-.6.4-1.3.5-1.9.1-.2.1-.1.3-.9 0-.2-.2.5-.4 1.3zm4.9-40.2c0-.5 0-1.1-.1-1.6v-1.7c0-.5 0-.7-.1-1.1-.1-1.1-.1-2.2-.2-3.3v-.2c.1.4.2 2 .2 3.1.1 2.2.2 4.4.2 5.8.1-.2.1-.5 0-1z"/><path d="M126.8 277.6c-.4 0 .2 0-.8-.1-.6-.1-.3 0-1.2-.1.2 0-.4-.1.4 0l3.1.2h.4c-2.4-.2-3.7-.3-5-.5-1.3-.2-2.7-.3-5-.6-1-.1-2.1-.3-3.1-.5-.5-.1-.8-.1-1.5-.3-.7-.1-.8-.2-1.5-.3-1.4-.2-2.8-.6-4.3-.9-1.5-.3-3-.6-4.4-1.1-1.2-.3-2.4-.7-3.5-1-.6-.2-1.2-.3-1.8-.5l-1.8-.6c-1.1-.4-2.1-.7-3.3-1.1-2-.6-4.3-1.6-6.5-2.4-2.2-.9-4.3-1.9-5.8-2.5-.7-.3-1.5-.6-2.1-1-2.7-1.4-5.5-2.7-7.9-4.2-1.4-.8-3-1.6-4.4-2.6-.3-.2-.7-.4-1-.6 0 0-.4-.3-.3-.2-1.1-.7-2.6-1.6-4.2-2.7s-3.3-2.3-4.8-3.4c-.4-.2 1.1.8 1.2.9-.6-.3-2.9-2.2-1.9-1.4-2.3-1.8-5.3-4.1-7-5.6 0-.1-.5-.4-1.1-1 .7.7-.6-.4-1.2-1 .3.3.8.7.9.8-1.3-1.1-2.4-2.2-3.4-3.2-1.8-1.7-2.1-1.9-3.7-3.5-.2-.2.3.4.7.8l.3.3-.3-.3c-1.8-1.8-2.8-2.9-3.7-3.9-.4-.4-.8-.8-1.2-1.3-.4-.5-.8-1-1.3-1.5-.8-1-1.6-1.8-2.1-2.5.2.2.5.6.5.6-1-1.1-1.6-1.9-2-2.4.3.5-1.1-1.3-1-1.2.2.2.8 1.1.7.9-.4-.6-2.7-3.4-2.9-3.7-.5-.6-1.6-2.2-2.5-3.5-.4-.6-.5-.7-.9-1.3-.4-.5-.8-1.1-1.2-1.7-.4-.6-.8-1.2-1.1-1.8-.7-1.2-1.4-2.3-1.9-3-1.6-2.5-2.8-4.8-4-6.9-1.1-2.2-2.2-4.2-3.2-6.4-.4-.8-.7-1.8-1-2.1.2.4.4 1 .5 1.1-.6-1.3-.6-1.4-1.1-2.5-.3-.6-.4-.9-1-2.1-.5-1.3-.6-1.7-1-2.5-.2-.5-.2-.4-.3-.7-.4-.9-1.5-3.9-1.6-4.4l-.5-1.5c-.2-.6-.4-1.3-.6-1.8-.3-1-.6-1.8-.9-3-.4-1.3-.9-3.1-1.3-4.5-.4-1.3-.7-2.9-1-4.4-.3-1.6-.7-3.2-.9-4.7-.1-.6-.1-.3-.3-1.5.2.8 0-.1 0-.4-.2-1.2-.4-2.3-.6-3.3-.1-1.1-.3-2.1-.4-3.2-.1-1-.3-2.1-.4-3.2-.1-1.1-.2-2.2-.3-3.4-.1-.7-.2-2.2-.3-3.5.1.7.2 2.3.2 2 0-.7-.1-1.6-.2-2.5 0-.9 0-1.9-.1-2.9-.1-2-.1-4.1 0-5.9v-.8c0-1 .1-1.6.1-2.7 0-1.2.1-2.4.2-3.5s.2-2.1.2-3.1c0 .2.1-1.8.2-2.3.2.7.2 1.4.2 1.2.1-1 .2-1.6.4-3.1-.2 1.1.1-1.2.2-2 0-.1-.2 1.8-.1 1.2.3-2.1.2-2.1.4-3.5.1-.7.3-2.2.3-2.4-.1.8-.1.7-.2 1.1.1-.4.1-.2-.1.8 0-.3-.2.8-.3 1.9-.1.5 0 .4-.1.8-.1 1-.3 2-.4 3.1-.1.5-.1 1.1-.2 1.7 0 .6-.1 1.2-.1 1.8 0-.2 0-.5 0 0-.2 2.3-.4 4.2-.4 6.1 0 1.8-.1 3.5-.1 5.2 0 1.7.1 3.4.1 5.3s.2 4 .3 6.4v-.8c0 .4 0 .5.1.8.1 1 .1 1.3 0 1.1 0 .5.1 1.2.1 1.8.1.6.1 1.2.1 1.3-.1-.2-.2-1.5-.3-2.3 0-.1 0-.1-.1-.8-.1-1-.1-1.8-.1-2.3-.1-1.4-.1-1-.2-2.3-.1-2-.1-5.4-.2-6.9v-.1.1c0-2.6.1-4.2.1-6.8v.4c0-.1 0-.7.1-1.6 0 .4-.1.4 0-.4.2-2 .2-3.9.5-6.6 0-.3 0 .1-.1.5 0 .4-.1.8-.1.6.2-2.1.4-3.2.7-5.8 0-.3-.2 1.6-.2 1.1.2-1 .3-2.5.3-2.3.1-.5.1-.8.1-.7.2-1.4.1-1 .4-2.3.1-.2.3-2 .5-2.7.2-1.2.6-2.9.5-2.7-.4 1.5-.6 3.1-.9 4.7-.3 1.6-.6 3.1-.7 4.5-.1.7-.1 1.2-.2 1.9-.1.8-.2 1.2-.3 1.9-.1.7-.2 1.6-.2 2.3-.2 2.4-.4 4.9-.5 7.4v2.4c-.1 3.4 0 7 .1 10.9.1.7.1.3.1 1.2.1 1.3.2 3.2.3 3.9 0 .3.1.6.2 1.6v-.1c.2 2.3.5 4.2.7 5.5.2 2.2.7 4 .9 5.4.1.5.1.5.2 1.1.2 1.3.6 2.8.9 4.3.3 1.5.6 3 1 4.5.2.7.2.8.4 1.5.1.4.2.9.3 1.1.1.4.3 1.1.4 1.5.2.6.3 1.2.5 1.9.2.4.2.6.4 1.1.8 2.2 1.3 4.2 2.1 6.3.4.9.8 2.1 1.1 2.9.2.4.2.5.4 1.1.3.6.3.8.6 1.5.6 1.4 1.6 3.6 2.5 5.7.5 1.1 1.1 2.3 1.8 3.5.6 1.2 1.2 2.5 2 3.8.4.6.8 1.3 1.2 2 .3.5 1.3 2.2 1.8 3 .9 1.4 1.8 2.8 2.3 3.6.3.5.2.3.7 1 .4.8.9 1.4 1.7 2.6l.3.3c.9 1.3 1.9 2.7 3.2 4.4 0 .1-.1 0 .2.3 0 0 .9 1.1 1.2 1.5.7.9 1.5 2 2.3 2.9.8.9 1.6 1.8 2.1 2.5.3.4.6.7.8.9.2.2.3.3.7.9 1.1 1.2 3.2 3.5 4.6 4.8.1.1.4.5.9 1s1.1 1 1.6 1.5c-.2-.3 1.3 1.1 2.3 2.1-.6-.6-1.1-1-.6-.5 1.5 1.5 3.2 2.9 4.6 4.2.7.6.5.5 1.4 1.3 1 .9 1.4 1.2 2.4 2 1.3 1 2.3 1.8 3.4 2.6.4.3.7.6 1.2.9 5.1 3.8 11 7.5 16.8 10.6 1 .5 1.7.9 2.8 1.4 1.2.6 2.6 1.4 4 2 1.4.6 2.8 1.3 4.1 1.8.5.2.7.3 1.4.6 1.8.7 3.8 1.5 5.4 2.1.7.3 1.1.4 1.5.5.9.3 1.8.6 2.6.9.6.2-1.3-.5-.3-.2.5.2 1.8.6 1.9.6-1.6-.5-1.9-.7-2.5-.9-.2-.1.9.3-.3-.2-.3-.1-1.9-.6-1.5-.4.3.1 1.9.6 1.8.6-1.5-.5-2.3-.7-3.7-1.3.8.3.5.1.8.2.3.1 1.5.5 1.1.4-1.2-.4-1.3-.5-1.8-.7-.5-.2-.9-.4-1.1-.4 0 0 1.1.5.3.2-.5-.2-1-.4-1.4-.6.9.4 1.7.6 2.2.8-2-.8-3-1.1-4-1.5-1-.4-1.5-.6-2.9-1.2-.1 0 .4.2.4.1-1.6-.7-.7-.2-1.9-.7-1.2-.6-1.4-.6-2.5-1.1-.9-.4-.2 0-.8-.3-.4-.2-.6-.4-1.3-.7.8.4 2.1 1.1 1.8.8 1 .5 1.7.8 2.5 1.1.4.2.6.3 1.4.6.6.3 1.2.5 2 .8.8.3 1.8.7 3.1 1.2.1 0-1.4-.6.1 0-.2 0 .6.3.3.2 2.7 1.1 5.9 2.1 8.5 3 .6.2 1.3.4 1.9.6.4.1 1.1.3 1.5.4.7.2 1.6.4 2.2.6 1.9.6 3.8.9 5.7 1.3l2.9.6 2.9.5c.1 0 .6.1 1.1.2 2.7.5 5.2.7 7.7 1.1 1.6.2 3.2.3 4.7.4.7 0 0 0 0 0 .9.1 1.5.1 1.6.1-.8 0-1-.1-1.9-.2-.5.3-.9.3-1.6.2zM.4 143.2c.1.8 0 1.5 0 2.3v-2.3zm.1-14.5c0-.3.2-2.5.2-2.3-.1.9-.2 1.9-.2 2.7 0 .2.1-1.6 0-.4zm-.2 1.1c0 .3-.1 1-.1 1.8 0 .4-.1.7-.1.9v.4c.1-1.5.2-2.3.2-3.1zm-.2 12.8c.1.3.1 2.6.1 3.5-.1-1.1-.1-2.1-.1-3.5zm.9 10.7c-.1-.7.3 2.2.4 2.7-.2-.3-.4-2.4-.4-2.7zm4.8 25.8c.2.7.5 1.6.8 2.6 0-.2-.6-1.8-.8-2.6zm5.8 15.7c-.5-1.1-1-2.1-1.4-3.2.1.1.4 1 .5 1.1.3.7 1.1 2.5.9 2.1zm23 36c.3.3.5.5 1.3 1.5 0 .1-.6-.7-1.3-1.5zm1.7 1.8c-.5-.6-1.1-1.3-1.5-1.8-.4-.4.2.3-.8-.9.4.3 2.3 2.8 3.4 3.8-.1 0-.5-.5-1.1-1.1zm5.4 5.6c0-.1 1.2 1.1 1.7 1.6-.4-.5-.6-.6-1.7-1.6zm3.9 3.7c-.8-.8-.9-.8-1.7-1.6.4.3 2.1 2 1.7 1.6zm9.7 8.3l1.2 1c.3.3-1.8-1.3-1.2-1zm4.3 3.3c-.4-.3 1 .7.7.4-.5-.4-1.5-1.1-1.5-1.2 1.6 1.1.8.6 2.5 1.8-.5-.2-.6-.3-1.7-1zm13.5 8.4l-1.4-.8c-.1-.1 1.7 1 1.4.8zm-.6-.4c-.1-.1-.3-.2-.7-.4.3.2 1.1.6 2.1 1.1 0 0-.5-.2-1.4-.7zm18.4 8.4c.5.2 1 .4 1.4.6.1 0 .7.2.7.3.1 0-.1 0 0 0 .4.1 2.1.7 1.4.5-1.1-.4-1.4-.5-2.2-.8-.5-.2-1.7-.7-1.3-.6zm-2.9-1.1l1.8.7c.5.3-2.4-.9-1.8-.7zm2.2.8c-.1 0-1.2-.5-1.1-.4-.6-.3-2.2-.9-2.5-1 1.6.7 2.2.9 3.6 1.4zm-5-1.9c.8.4 1.8.7 2.1.9.1.1-1.5-.5-1.8-.7-.8-.3-.9-.4-1.8-.8-.1-.1.6.2 1.5.6zm-5.4-2.4c0 .1-.9-.4-1.8-.8 0-.1.9.4 1.8.8zm34.7 10.7c-.5-.1-.3-.1.4 0 1 .2 1 .2 1.1.2-.7-.1-.5 0-1.5-.2zm6.2.9c-.9-.1-2.5-.3-2.3-.3 1.4.2 1.8.3 2.7.3.6.1 0 0-.4 0 .2 0 .3.1.8.1-.3 0-.9-.1-.8-.1z"/></g><g id="SvgjsG1335" class="text" transform="translate(208.60801643484118, 76.92390141197387) scale(1)" light-content="false" fill="#383838"><path d="M34.13 -20.63L34.13 -11.76C34.13 -10.05 34.11 -8.57 34.06 -7.29C34.01 -6.02 33.95 -4.92 33.88 -4C33.81 -3.08 33.72 -2.31 33.61 -1.68C33.5 -1.06 33.38 -0.54 33.26 -0.12L33.26 0L40.48 0L40.48 -0.12C40.36 -0.54 40.24 -1.06 40.13 -1.68C40.02 -2.31 39.93 -3.08 39.85 -4C39.77 -4.92 39.71 -6.02 39.67 -7.29C39.63 -8.57 39.61 -10.05 39.61 -11.76L39.61 -31.34C39.61 -33.04 39.63 -34.53 39.67 -35.8C39.71 -37.08 39.77 -38.18 39.85 -39.11C39.93 -40.04 40.02 -40.82 40.13 -41.44C40.24 -42.06 40.36 -42.58 40.48 -43L40.48 -43.12L33.26 -43.12L33.26 -43C33.38 -42.58 33.5 -42.06 33.61 -41.44C33.72 -40.82 33.81 -40.04 33.88 -39.11C33.95 -38.18 34.01 -37.08 34.06 -35.8C34.11 -34.53 34.13 -33.04 34.13 -31.34L34.13 -23.91C33.25 -23.87 32.2 -23.83 30.99 -23.79C29.78 -23.75 28.47 -23.71 27.08 -23.68C25.69 -23.65 24.24 -23.63 22.75 -23.61C21.26 -23.59 19.79 -23.57 18.34 -23.56C16.9 -23.55 15.52 -23.55 14.19 -23.56C12.87 -23.57 11.69 -23.6 10.65 -23.64L10.65 -31.34C10.65 -33.04 10.67 -34.53 10.72 -35.8C10.77 -37.08 10.83 -38.18 10.9 -39.11C10.97 -40.04 11.06 -40.82 11.17 -41.44C11.28 -42.06 11.4 -42.58 11.52 -43L11.52 -43.12L4.3 -43.12L4.3 -43C4.42 -42.58 4.54 -42.06 4.65 -41.44C4.76 -40.82 4.85 -40.04 4.93 -39.11C5.01 -38.18 5.07 -37.08 5.11 -35.8C5.15 -34.53 5.17 -33.04 5.17 -31.34L5.17 -11.76C5.17 -10.05 5.15 -8.57 5.11 -7.29C5.07 -6.02 5.01 -4.92 4.93 -4C4.85 -3.08 4.76 -2.31 4.65 -1.68C4.54 -1.06 4.42 -0.54 4.3 -0.12L4.3 0L11.52 0L11.52 -0.12C11.4 -0.54 11.28 -1.06 11.17 -1.68C11.06 -2.31 10.97 -3.08 10.9 -4C10.83 -4.92 10.77 -6.02 10.72 -7.29C10.67 -8.57 10.65 -10.05 10.65 -11.76L10.65 -20.69C11.63 -20.73 12.78 -20.76 14.1 -20.78C15.43 -20.8 16.82 -20.81 18.28 -20.8C19.75 -20.79 21.25 -20.78 22.78 -20.77C24.31 -20.76 25.79 -20.74 27.2 -20.72C28.61 -20.7 29.92 -20.69 31.13 -20.68C32.33 -20.67 33.33 -20.65 34.13 -20.63Z"/></g><g id="SvgjsG1336" class="text" transform="translate(-3.009999999999991, 175.4931166187585) scale(1)" light-content="false" fill="#383838"><path d="M23.89 -14.44L23.89 -8.23C23.89 -7.04 23.88 -6 23.84 -5.1C23.81 -4.21 23.76 -3.45 23.71 -2.8C23.67 -2.15 23.6 -1.61 23.52 -1.18C23.45 -0.74 23.37 -0.38 23.28 -0.08L23.28 0L28.33 0L28.33 -0.08C28.25 -0.38 28.17 -0.74 28.09 -1.18C28.02 -1.61 27.95 -2.15 27.89 -2.8C27.84 -3.45 27.79 -4.21 27.77 -5.1C27.74 -6 27.72 -7.04 27.72 -8.23L27.72 -21.94C27.72 -23.13 27.74 -24.17 27.77 -25.06C27.79 -25.95 27.84 -26.72 27.89 -27.38C27.95 -28.03 28.01 -28.57 28.09 -29.01C28.17 -29.44 28.25 -29.81 28.33 -30.1L28.33 -30.19L23.28 -30.19L23.28 -30.1C23.37 -29.81 23.45 -29.44 23.52 -29.01C23.6 -28.57 23.67 -28.03 23.71 -27.38C23.76 -26.72 23.81 -25.95 23.84 -25.06C23.88 -24.17 23.89 -23.13 23.89 -21.94L23.89 -16.74C23.28 -16.71 22.54 -16.68 21.69 -16.65C20.84 -16.62 19.93 -16.6 18.96 -16.58C17.98 -16.56 16.97 -16.54 15.93 -16.53C14.88 -16.51 13.85 -16.5 12.84 -16.49C11.83 -16.49 10.86 -16.49 9.94 -16.49C9.01 -16.5 8.18 -16.52 7.45 -16.55L7.45 -21.94C7.45 -23.13 7.47 -24.17 7.5 -25.06C7.54 -25.95 7.58 -26.72 7.63 -27.38C7.68 -28.03 7.74 -28.57 7.82 -29.01C7.9 -29.44 7.98 -29.81 8.06 -30.1L8.06 -30.19L3.01 -30.19L3.01 -30.1C3.09 -29.81 3.18 -29.44 3.25 -29.01C3.33 -28.57 3.4 -28.03 3.45 -27.38C3.51 -26.72 3.55 -25.95 3.58 -25.06C3.61 -24.17 3.62 -23.13 3.62 -21.94L3.62 -8.23C3.62 -7.04 3.61 -6 3.58 -5.1C3.55 -4.21 3.51 -3.45 3.45 -2.8C3.4 -2.15 3.33 -1.61 3.25 -1.18C3.18 -0.74 3.09 -0.38 3.01 -0.08L3.01 0L8.06 0L8.06 -0.08C7.98 -0.38 7.9 -0.74 7.82 -1.18C7.74 -1.61 7.68 -2.15 7.63 -2.8C7.58 -3.45 7.54 -4.21 7.5 -5.1C7.47 -6 7.45 -7.04 7.45 -8.23L7.45 -14.48C8.14 -14.51 8.95 -14.53 9.87 -14.55C10.8 -14.56 11.77 -14.56 12.8 -14.56C13.82 -14.55 14.87 -14.54 15.95 -14.54C17.02 -14.53 18.05 -14.52 19.04 -14.5C20.03 -14.49 20.95 -14.48 21.79 -14.47C22.63 -14.47 23.33 -14.46 23.89 -14.44Z M55.24 0L61.01 0L61.01 -0.08C60.94 -0.17 60.8 -0.36 60.61 -0.67C60.41 -0.98 60.19 -1.36 59.93 -1.81C59.68 -2.26 59.41 -2.77 59.12 -3.34C58.83 -3.9 58.56 -4.49 58.29 -5.09L46.86 -30.82L45.18 -30.82L33.11 -4.06C32.66 -3.04 32.25 -2.19 31.87 -1.51C31.49 -0.82 31.18 -0.35 30.92 -0.08L30.92 0L35.22 0L35.22 -0.08C35.19 -0.13 35.16 -0.21 35.13 -0.33C35.11 -0.45 35.09 -0.6 35.09 -0.78C35.09 -1.41 35.21 -2.03 35.45 -2.65C35.69 -3.27 35.91 -3.84 36.12 -4.36L38.54 -9.92C39.37 -9.94 40.3 -9.96 41.33 -9.96L44.54 -9.96L48.78 -9.96C50.08 -9.96 51.13 -9.94 51.91 -9.92L54.46 -4.19C54.8 -3.4 55.02 -2.75 55.14 -2.22C55.26 -1.69 55.32 -1.21 55.32 -0.78C55.32 -0.67 55.32 -0.54 55.3 -0.4C55.29 -0.26 55.27 -0.15 55.24 -0.08ZM41.6 -11.77L39.32 -11.77L45.13 -25.22L51.05 -11.85C50.43 -11.84 49.74 -11.83 48.99 -11.82C48.23 -11.81 47.44 -11.81 46.62 -11.8C45.8 -11.79 44.96 -11.79 44.1 -11.78C43.25 -11.77 42.41 -11.77 41.6 -11.77Z M68.04 -8.23L68.04 -12.97C68.44 -12.9 68.85 -12.85 69.25 -12.82C69.65 -12.79 70.04 -12.78 70.44 -12.78C70.77 -12.78 71.1 -12.79 71.43 -12.81C71.75 -12.83 72.07 -12.86 72.4 -12.88L79.85 -2.38C80.16 -1.94 80.43 -1.51 80.66 -1.06C80.89 -0.62 81.03 -0.27 81.07 0L87.15 0L87.15 -0.08C86.87 -0.18 86.6 -0.32 86.33 -0.49C86.06 -0.67 85.79 -0.89 85.5 -1.17C85.21 -1.44 84.91 -1.77 84.59 -2.15C84.28 -2.53 83.94 -2.98 83.57 -3.49L76.18 -13.87C77 -14.24 77.73 -14.69 78.39 -15.23C79.05 -15.77 79.62 -16.39 80.09 -17.09C80.56 -17.8 80.92 -18.58 81.18 -19.44C81.44 -20.3 81.57 -21.24 81.57 -22.25C81.57 -23.54 81.34 -24.7 80.87 -25.71C80.4 -26.73 79.74 -27.59 78.9 -28.29C78.06 -28.99 77.06 -29.53 75.92 -29.89C74.78 -30.26 73.53 -30.44 72.18 -30.44C70.74 -30.44 69.55 -30.37 68.62 -30.24C67.68 -30.11 66.94 -30.04 66.4 -30.04C66.04 -30.04 65.7 -30.04 65.37 -30.05C65.04 -30.06 64.75 -30.08 64.48 -30.1L63.6 -30.19L63.6 -30.1C63.68 -29.81 63.76 -29.44 63.84 -29C63.91 -28.56 63.98 -28.01 64.03 -27.37C64.08 -26.72 64.12 -25.95 64.15 -25.06C64.19 -24.17 64.21 -23.13 64.21 -21.94L64.21 -8.23C64.21 -7.02 64.19 -5.98 64.15 -5.09C64.12 -4.21 64.08 -3.45 64.03 -2.8C63.98 -2.15 63.91 -1.61 63.84 -1.18C63.76 -0.74 63.68 -0.38 63.6 -0.08L63.6 0L68.65 0L68.65 -0.08C68.56 -0.38 68.48 -0.74 68.41 -1.18C68.33 -1.61 68.27 -2.15 68.22 -2.8C68.17 -3.45 68.13 -4.21 68.09 -5.1C68.05 -6 68.04 -7.04 68.04 -8.23ZM68.04 -14.61L68.04 -28.55C68.33 -28.66 68.77 -28.76 69.34 -28.86C69.92 -28.96 70.69 -29.01 71.66 -29.01C72.61 -29.01 73.45 -28.84 74.16 -28.51C74.88 -28.18 75.47 -27.72 75.94 -27.12C76.41 -26.53 76.77 -25.8 77.01 -24.95C77.24 -24.09 77.36 -23.14 77.36 -22.08C77.36 -20.79 77.19 -19.67 76.86 -18.7C76.52 -17.74 76.05 -16.94 75.44 -16.29C74.83 -15.65 74.09 -15.17 73.22 -14.85C72.35 -14.54 71.38 -14.38 70.33 -14.38C69.97 -14.38 69.59 -14.4 69.2 -14.43C68.8 -14.47 68.42 -14.53 68.04 -14.61Z M93.51 -8.23L93.51 -12.97C93.92 -12.9 94.32 -12.85 94.72 -12.82C95.12 -12.79 95.52 -12.78 95.91 -12.78C96.25 -12.78 96.58 -12.79 96.9 -12.81C97.22 -12.83 97.54 -12.86 97.87 -12.88L105.32 -2.38C105.63 -1.94 105.9 -1.51 106.13 -1.06C106.36 -0.62 106.5 -0.27 106.54 0L112.62 0L112.62 -0.08C112.34 -0.18 112.07 -0.32 111.8 -0.49C111.54 -0.67 111.26 -0.89 110.97 -1.17C110.68 -1.44 110.38 -1.77 110.07 -2.15C109.75 -2.53 109.41 -2.98 109.05 -3.49L101.66 -13.87C102.47 -14.24 103.21 -14.69 103.87 -15.23C104.53 -15.77 105.09 -16.39 105.56 -17.09C106.03 -17.8 106.4 -18.58 106.66 -19.44C106.92 -20.3 107.05 -21.24 107.05 -22.25C107.05 -23.54 106.81 -24.7 106.34 -25.71C105.87 -26.73 105.21 -27.59 104.37 -28.29C103.53 -28.99 102.54 -29.53 101.39 -29.89C100.25 -30.26 99 -30.44 97.66 -30.44C96.21 -30.44 95.02 -30.37 94.09 -30.24C93.15 -30.11 92.41 -30.04 91.87 -30.04C91.52 -30.04 91.18 -30.04 90.85 -30.05C90.52 -30.06 90.22 -30.08 89.95 -30.1L89.07 -30.19L89.07 -30.1C89.15 -29.81 89.23 -29.44 89.31 -29C89.39 -28.56 89.45 -28.01 89.5 -27.37C89.55 -26.72 89.59 -25.95 89.63 -25.06C89.66 -24.17 89.68 -23.13 89.68 -21.94L89.68 -8.23C89.68 -7.02 89.66 -5.98 89.63 -5.09C89.59 -4.21 89.55 -3.45 89.5 -2.8C89.45 -2.15 89.39 -1.61 89.31 -1.18C89.23 -0.74 89.15 -0.38 89.07 -0.08L89.07 0L94.12 0L94.12 -0.08C94.04 -0.38 93.95 -0.74 93.88 -1.18C93.8 -1.61 93.74 -2.15 93.69 -2.8C93.64 -3.45 93.6 -4.21 93.56 -5.1C93.53 -6 93.51 -7.04 93.51 -8.23ZM93.51 -14.61L93.51 -28.55C93.8 -28.66 94.24 -28.76 94.81 -28.86C95.39 -28.96 96.16 -29.01 97.13 -29.01C98.08 -29.01 98.92 -28.84 99.64 -28.51C100.35 -28.18 100.94 -27.72 101.41 -27.12C101.88 -26.53 102.24 -25.8 102.48 -24.95C102.72 -24.09 102.84 -23.14 102.84 -22.08C102.84 -20.79 102.67 -19.67 102.33 -18.7C101.99 -17.74 101.52 -16.94 100.91 -16.29C100.3 -15.65 99.56 -15.17 98.69 -14.85C97.82 -14.54 96.86 -14.38 95.8 -14.38C95.44 -14.38 95.06 -14.4 94.67 -14.43C94.27 -14.47 93.89 -14.53 93.51 -14.61Z M114.73 -0.08L114.73 0L119.76 0L119.76 -0.08C119.68 -0.38 119.6 -0.74 119.52 -1.18C119.44 -1.61 119.38 -2.15 119.33 -2.8C119.28 -3.45 119.24 -4.21 119.2 -5.1C119.17 -6 119.15 -7.04 119.15 -8.23L119.15 -21.94C119.15 -23.13 119.17 -24.17 119.2 -25.06C119.24 -25.95 119.28 -26.72 119.33 -27.38C119.38 -28.03 119.44 -28.57 119.52 -29.01C119.6 -29.44 119.68 -29.81 119.76 -30.1L119.76 -30.19L114.73 -30.19L114.73 -30.1C114.81 -29.81 114.89 -29.44 114.96 -29.01C115.03 -28.57 115.09 -28.03 115.15 -27.38C115.21 -26.72 115.25 -25.95 115.28 -25.06C115.3 -24.17 115.32 -23.13 115.32 -21.94L115.32 -8.23C115.32 -7.04 115.3 -6 115.28 -5.1C115.25 -4.21 115.21 -3.45 115.15 -2.8C115.09 -2.15 115.03 -1.61 114.96 -1.18C114.89 -0.74 114.81 -0.38 114.73 -0.08Z M138.56 -25.39L138.71 -29.32C138.48 -29.42 138.19 -29.55 137.84 -29.7C137.49 -29.86 137.08 -30.01 136.61 -30.17C136.14 -30.32 135.61 -30.45 135.02 -30.57C134.43 -30.68 133.79 -30.73 133.09 -30.73C132.13 -30.73 131.2 -30.57 130.31 -30.23C129.41 -29.89 128.61 -29.41 127.9 -28.78C127.19 -28.15 126.62 -27.38 126.19 -26.49C125.76 -25.6 125.55 -24.6 125.55 -23.49C125.55 -22.44 125.71 -21.48 126.03 -20.6C126.36 -19.72 126.78 -18.9 127.31 -18.14C127.83 -17.37 128.43 -16.65 129.1 -15.98C129.76 -15.3 130.45 -14.65 131.15 -14.01C131.85 -13.37 132.53 -12.74 133.2 -12.1C133.87 -11.47 134.46 -10.82 134.99 -10.15C135.52 -9.47 135.94 -8.76 136.26 -8.01C136.59 -7.26 136.75 -6.44 136.75 -5.56C136.75 -4.93 136.64 -4.34 136.42 -3.81C136.2 -3.28 135.89 -2.82 135.49 -2.43C135.08 -2.05 134.59 -1.74 134.02 -1.53C133.45 -1.31 132.81 -1.2 132.1 -1.2C131.31 -1.2 130.59 -1.34 129.93 -1.61C129.27 -1.88 128.68 -2.25 128.17 -2.71C127.66 -3.16 127.23 -3.69 126.88 -4.28C126.52 -4.88 126.27 -5.51 126.12 -6.17L125.59 -6.17L125.11 -1.52C125.42 -1.31 125.81 -1.07 126.3 -0.82C126.78 -0.57 127.33 -0.33 127.94 -0.12C128.55 0.1 129.22 0.28 129.94 0.43C130.66 0.58 131.42 0.65 132.22 0.65C133.65 0.65 134.89 0.42 135.93 -0.03C136.97 -0.49 137.82 -1.08 138.47 -1.81C139.13 -2.54 139.62 -3.36 139.94 -4.28C140.25 -5.2 140.41 -6.12 140.41 -7.03C140.41 -8.25 140.13 -9.39 139.56 -10.45C138.99 -11.51 138.28 -12.53 137.42 -13.49C136.57 -14.46 135.64 -15.4 134.64 -16.29C133.65 -17.19 132.72 -18.09 131.86 -18.99C131.01 -19.89 130.3 -20.8 129.73 -21.71C129.16 -22.63 128.88 -23.6 128.88 -24.61C128.88 -25.24 128.97 -25.82 129.15 -26.34C129.33 -26.85 129.6 -27.3 129.96 -27.68C130.32 -28.06 130.76 -28.36 131.3 -28.57C131.83 -28.78 132.44 -28.88 133.13 -28.88C133.9 -28.88 134.57 -28.76 135.14 -28.52C135.71 -28.29 136.19 -27.99 136.59 -27.63C136.99 -27.27 137.31 -26.89 137.56 -26.48C137.8 -26.08 137.98 -25.71 138.1 -25.39Z M159.36 -30.69C157.8 -30.69 156.34 -30.49 154.99 -30.09C153.64 -29.69 152.4 -29.13 151.28 -28.42C150.17 -27.7 149.18 -26.86 148.32 -25.88C147.45 -24.91 146.72 -23.84 146.13 -22.67C145.53 -21.51 145.08 -20.28 144.77 -18.99C144.46 -17.7 144.31 -16.38 144.31 -15.05C144.31 -12.69 144.71 -10.55 145.53 -8.62C146.34 -6.69 147.47 -5.04 148.92 -3.66C150.36 -2.29 152.08 -1.22 154.06 -0.47C156.05 0.28 158.21 0.65 160.56 0.65C162.12 0.65 163.57 0.45 164.91 0.05C166.26 -0.35 167.49 -0.9 168.61 -1.61C169.73 -2.32 170.72 -3.16 171.59 -4.14C172.46 -5.11 173.19 -6.18 173.79 -7.33C174.38 -8.48 174.84 -9.7 175.15 -10.99C175.45 -12.28 175.61 -13.59 175.61 -14.93C175.61 -17.27 175.2 -19.41 174.39 -21.35C173.57 -23.28 172.44 -24.94 171 -26.32C169.55 -27.71 167.84 -28.78 165.85 -29.55C163.87 -30.31 161.7 -30.69 159.36 -30.69ZM160.56 -1.24C158.61 -1.24 156.89 -1.63 155.42 -2.41C153.95 -3.19 152.72 -4.26 151.74 -5.62C150.75 -6.98 150.02 -8.59 149.53 -10.45C149.04 -12.31 148.79 -14.31 148.79 -16.46C148.79 -18.41 149.05 -20.15 149.57 -21.68C150.09 -23.21 150.81 -24.5 151.75 -25.56C152.68 -26.61 153.79 -27.41 155.08 -27.97C156.38 -28.52 157.8 -28.8 159.36 -28.8C161.31 -28.8 163.02 -28.42 164.48 -27.65C165.95 -26.89 167.17 -25.83 168.16 -24.47C169.14 -23.12 169.88 -21.52 170.38 -19.67C170.88 -17.83 171.13 -15.82 171.13 -13.66C171.13 -11.71 170.87 -9.97 170.35 -8.43C169.83 -6.89 169.1 -5.59 168.17 -4.53C167.23 -3.46 166.12 -2.65 164.83 -2.08C163.54 -1.52 162.12 -1.24 160.56 -1.24Z M181.52 -30.19L180.18 -30.19L180.18 -30.1C180.26 -29.81 180.34 -29.44 180.42 -29.01C180.5 -28.57 180.56 -28.03 180.62 -27.38C180.68 -26.72 180.72 -25.95 180.75 -25.06C180.77 -24.17 180.79 -23.13 180.79 -21.94L180.79 -8.23C180.79 -7.04 180.77 -6 180.75 -5.1C180.72 -4.21 180.68 -3.45 180.62 -2.8C180.56 -2.15 180.5 -1.61 180.42 -1.18C180.34 -0.74 180.26 -0.38 180.18 -0.08L180.18 0L183.92 0L183.92 -0.08C183.84 -0.38 183.76 -0.74 183.69 -1.18C183.62 -1.61 183.56 -2.15 183.5 -2.8C183.45 -3.45 183.4 -4.21 183.38 -5.1C183.35 -6 183.33 -7.04 183.33 -8.23L183.33 -22.63L205.02 0.42L205.75 0.42L205.75 -21.94C205.75 -23.13 205.77 -24.17 205.8 -25.06C205.82 -25.95 205.87 -26.72 205.92 -27.38C205.98 -28.03 206.04 -28.57 206.11 -29.01C206.18 -29.44 206.26 -29.81 206.34 -30.1L206.34 -30.19L202.6 -30.19L202.6 -30.1C202.68 -29.81 202.76 -29.44 202.84 -29.01C202.92 -28.57 202.98 -28.03 203.04 -27.38C203.09 -26.72 203.14 -25.95 203.16 -25.06C203.19 -24.17 203.21 -23.13 203.21 -21.94L203.21 -7.12Z M249.14 -11.3C249.27 -11.99 249.37 -12.63 249.44 -13.23C249.51 -13.83 249.57 -14.37 249.62 -14.87C249.68 -15.37 249.73 -15.83 249.78 -16.24C249.83 -16.65 249.91 -17.03 250 -17.37L250 -17.45L246.21 -17.45L246.21 -17.37C246.35 -16.81 246.49 -16.13 246.63 -15.34C246.76 -14.54 246.83 -13.56 246.83 -12.38C246.83 -10.99 246.63 -9.71 246.25 -8.55C245.86 -7.38 245.33 -6.34 244.66 -5.43C243.74 -6.41 242.86 -7.42 242 -8.46C241.15 -9.5 240.35 -10.56 239.6 -11.63C238.86 -12.7 238.18 -13.78 237.55 -14.86C236.93 -15.94 236.39 -17.01 235.94 -18.06C236.84 -18.58 237.71 -19.11 238.55 -19.66C239.39 -20.21 240.14 -20.8 240.79 -21.43C241.45 -22.06 241.97 -22.76 242.37 -23.51C242.77 -24.27 242.97 -25.13 242.97 -26.08C242.97 -26.84 242.84 -27.51 242.57 -28.08C242.31 -28.66 241.94 -29.14 241.49 -29.52C241.03 -29.91 240.5 -30.2 239.88 -30.4C239.26 -30.59 238.6 -30.69 237.9 -30.69C236.95 -30.69 236.05 -30.52 235.22 -30.19C234.38 -29.85 233.65 -29.37 233.04 -28.76C232.42 -28.14 231.93 -27.38 231.57 -26.49C231.22 -25.6 231.04 -24.6 231.04 -23.49C231.04 -22.58 231.15 -21.63 231.37 -20.63C231.6 -19.63 231.91 -18.61 232.32 -17.56C231.31 -16.97 230.32 -16.36 229.35 -15.73C228.38 -15.09 227.52 -14.39 226.77 -13.62C226.02 -12.85 225.42 -11.98 224.95 -11.02C224.49 -10.06 224.26 -8.96 224.26 -7.73C224.26 -6.43 224.49 -5.27 224.96 -4.23C225.43 -3.19 226.1 -2.31 226.97 -1.58C227.84 -0.85 228.91 -0.29 230.16 0.11C231.42 0.5 232.83 0.69 234.4 0.69C236.15 0.69 237.75 0.47 239.22 0.02C240.68 -0.43 242.03 -1.07 243.25 -1.89C244.58 -0.58 245.94 0.64 247.34 1.75C248.74 2.86 250.12 3.81 251.48 4.62C252.84 5.43 254.15 6.06 255.42 6.52C256.69 6.97 257.88 7.2 258.97 7.2C259.66 7.2 260.27 7.16 260.81 7.07C261.35 6.99 261.82 6.89 262.22 6.78C262.62 6.67 262.96 6.55 263.23 6.42C263.51 6.29 263.73 6.2 263.9 6.13L263.9 5.64C263.45 5.73 263 5.77 262.55 5.77C261.43 5.77 260.19 5.52 258.85 5.01C257.5 4.5 256.1 3.8 254.65 2.91C253.19 2.01 251.72 0.95 250.21 -0.26C248.71 -1.48 247.25 -2.8 245.81 -4.23C247.51 -6.15 248.62 -8.51 249.14 -11.3ZM235.98 -1.2C234.86 -1.2 233.83 -1.39 232.88 -1.78C231.93 -2.16 231.11 -2.7 230.43 -3.39C229.74 -4.08 229.2 -4.89 228.82 -5.83C228.43 -6.77 228.24 -7.79 228.24 -8.88C228.24 -9.71 228.36 -10.47 228.61 -11.17C228.85 -11.86 229.18 -12.5 229.61 -13.09C230.03 -13.68 230.52 -14.22 231.09 -14.71C231.66 -15.21 232.27 -15.68 232.93 -16.13C233.42 -15.03 234 -13.92 234.67 -12.79C235.33 -11.66 236.06 -10.54 236.85 -9.42C237.63 -8.3 238.47 -7.21 239.37 -6.14C240.27 -5.06 241.2 -4.02 242.15 -3.01C241.28 -2.42 240.32 -1.97 239.28 -1.66C238.23 -1.35 237.13 -1.2 235.98 -1.2ZM234.4 -24.61C234.4 -26.03 234.68 -27.13 235.24 -27.93C235.79 -28.73 236.63 -29.13 237.75 -29.13C238.19 -29.13 238.57 -29.05 238.9 -28.89C239.23 -28.73 239.5 -28.51 239.71 -28.22C239.92 -27.93 240.08 -27.6 240.18 -27.23C240.29 -26.86 240.34 -26.46 240.34 -26.04C240.34 -25.3 240.21 -24.62 239.96 -24C239.71 -23.38 239.36 -22.8 238.92 -22.26C238.48 -21.72 237.96 -21.22 237.36 -20.76C236.77 -20.29 236.12 -19.84 235.44 -19.41C235.11 -20.34 234.86 -21.23 234.68 -22.09C234.5 -22.96 234.4 -23.79 234.4 -24.61Z M290.91 -26.21L289.58 -26.12L282.02 -6L274.11 -26C273.8 -26.76 273.59 -27.4 273.49 -27.93C273.38 -28.47 273.33 -28.97 273.33 -29.45L273.33 -29.75C273.33 -29.83 273.34 -29.95 273.37 -30.1L273.37 -30.19L267.54 -30.19L267.54 -30.1C267.62 -30 267.76 -29.8 267.95 -29.49C268.14 -29.18 268.35 -28.81 268.58 -28.36C268.81 -27.91 269.06 -27.4 269.32 -26.84C269.58 -26.28 269.83 -25.7 270.09 -25.09L280.4 0.65L281.98 0.65L289.45 -19.22L297.64 0.65L299.24 0.65L310.48 -26.12C310.92 -27.12 311.3 -27.96 311.63 -28.63C311.96 -29.3 312.27 -29.79 312.55 -30.1L312.55 -30.19L308.38 -30.19L308.38 -30.1C308.41 -30.03 308.43 -29.93 308.44 -29.8C308.46 -29.66 308.46 -29.53 308.46 -29.41C308.46 -29 308.39 -28.51 308.23 -27.93C308.08 -27.36 307.84 -26.66 307.52 -25.83L299.33 -5.77Z M315.12 -0.08L315.12 0L320.15 0L320.15 -0.08C320.06 -0.38 319.98 -0.74 319.9 -1.18C319.83 -1.61 319.76 -2.15 319.71 -2.8C319.67 -3.45 319.62 -4.21 319.59 -5.1C319.55 -6 319.54 -7.04 319.54 -8.23L319.54 -21.94C319.54 -23.13 319.55 -24.17 319.59 -25.06C319.62 -25.95 319.67 -26.72 319.71 -27.38C319.76 -28.03 319.83 -28.57 319.9 -29.01C319.98 -29.44 320.06 -29.81 320.15 -30.1L320.15 -30.19L315.12 -30.19L315.12 -30.1C315.2 -29.81 315.28 -29.44 315.35 -29.01C315.42 -28.57 315.48 -28.03 315.54 -27.38C315.59 -26.72 315.63 -25.95 315.66 -25.06C315.69 -24.17 315.7 -23.13 315.7 -21.94L315.7 -8.23C315.7 -7.04 315.69 -6 315.66 -5.1C315.63 -4.21 315.59 -3.45 315.54 -2.8C315.48 -2.15 315.42 -1.61 315.35 -1.18C315.28 -0.74 315.2 -0.38 315.12 -0.08Z M330.8 -1.85L330.8 -21.94C330.8 -23.13 330.82 -24.17 330.85 -25.06C330.89 -25.95 330.93 -26.72 330.98 -27.38C331.03 -28.03 331.09 -28.57 331.17 -29.01C331.24 -29.44 331.32 -29.81 331.41 -30.1L331.41 -30.19L326.36 -30.19L326.36 -30.1C326.44 -29.81 326.52 -29.44 326.6 -29.01C326.68 -28.57 326.74 -28.03 326.8 -27.38C326.85 -26.72 326.9 -25.95 326.92 -25.06C326.95 -24.17 326.97 -23.13 326.97 -21.94L326.97 -8.23C326.97 -7.04 326.95 -6 326.92 -5.1C326.9 -4.21 326.85 -3.45 326.8 -2.8C326.74 -2.15 326.68 -1.61 326.6 -1.18C326.52 -0.74 326.44 -0.38 326.36 -0.08L326.36 0L335.45 0C335.59 0 335.82 0 336.13 0.01C336.45 0.02 336.81 0.02 337.22 0.03C337.63 0.04 338.06 0.05 338.51 0.05C338.97 0.06 339.4 0.07 339.82 0.08C340.23 0.1 340.61 0.11 340.94 0.13C341.28 0.14 341.53 0.15 341.7 0.17L342.31 -3.24C341.32 -2.98 340.22 -2.74 339.01 -2.55C337.97 -2.36 336.76 -2.2 335.37 -2.06C333.98 -1.92 332.45 -1.85 330.8 -1.85Z M350.63 -1.85L350.63 -21.94C350.63 -23.13 350.65 -24.17 350.68 -25.06C350.72 -25.95 350.76 -26.72 350.81 -27.38C350.86 -28.03 350.92 -28.57 351 -29.01C351.07 -29.44 351.15 -29.81 351.24 -30.1L351.24 -30.19L346.19 -30.19L346.19 -30.1C346.27 -29.81 346.35 -29.44 346.43 -29.01C346.51 -28.57 346.57 -28.03 346.63 -27.38C346.68 -26.72 346.73 -25.95 346.75 -25.06C346.78 -24.17 346.8 -23.13 346.8 -21.94L346.8 -8.23C346.8 -7.04 346.78 -6 346.75 -5.1C346.73 -4.21 346.68 -3.45 346.63 -2.8C346.57 -2.15 346.51 -1.61 346.43 -1.18C346.35 -0.74 346.27 -0.38 346.19 -0.08L346.19 0L355.28 0C355.42 0 355.65 0 355.96 0.01C356.28 0.02 356.64 0.02 357.05 0.03C357.46 0.04 357.89 0.05 358.34 0.05C358.8 0.06 359.23 0.07 359.65 0.08C360.06 0.1 360.44 0.11 360.78 0.13C361.11 0.14 361.36 0.15 361.53 0.17L362.14 -3.24C361.15 -2.98 360.05 -2.74 358.84 -2.55C357.8 -2.36 356.59 -2.2 355.2 -2.06C353.81 -1.92 352.28 -1.85 350.63 -1.85Z M366.21 -0.08L366.21 0L371.24 0L371.24 -0.08C371.15 -0.38 371.07 -0.74 371 -1.18C370.92 -1.61 370.86 -2.15 370.81 -2.8C370.76 -3.45 370.71 -4.21 370.68 -5.1C370.64 -6 370.63 -7.04 370.63 -8.23L370.63 -21.94C370.63 -23.13 370.64 -24.17 370.68 -25.06C370.71 -25.95 370.76 -26.72 370.81 -27.38C370.86 -28.03 370.92 -28.57 371 -29.01C371.07 -29.44 371.15 -29.81 371.24 -30.1L371.24 -30.19L366.21 -30.19L366.21 -30.1C366.29 -29.81 366.37 -29.44 366.44 -29.01C366.51 -28.57 366.57 -28.03 366.63 -27.38C366.68 -26.72 366.73 -25.95 366.75 -25.06C366.78 -24.17 366.8 -23.13 366.8 -21.94L366.8 -8.23C366.8 -7.04 366.78 -6 366.75 -5.1C366.73 -4.21 366.68 -3.45 366.63 -2.8C366.57 -2.15 366.51 -1.61 366.44 -1.18C366.37 -0.74 366.29 -0.38 366.21 -0.08Z M398.33 0L404.1 0L404.1 -0.08C404.03 -0.17 403.9 -0.36 403.7 -0.67C403.5 -0.98 403.28 -1.36 403.02 -1.81C402.77 -2.26 402.5 -2.77 402.21 -3.34C401.93 -3.9 401.65 -4.49 401.38 -5.09L389.95 -30.82L388.27 -30.82L376.21 -4.06C375.76 -3.04 375.34 -2.19 374.96 -1.51C374.58 -0.82 374.27 -0.35 374.02 -0.08L374.02 0L378.31 0L378.31 -0.08C378.28 -0.13 378.25 -0.21 378.23 -0.33C378.2 -0.45 378.18 -0.6 378.18 -0.78C378.18 -1.41 378.3 -2.03 378.54 -2.65C378.78 -3.27 379.01 -3.84 379.22 -4.36L381.64 -9.92C382.46 -9.94 383.39 -9.96 384.43 -9.96L387.64 -9.96L391.87 -9.96C393.17 -9.96 394.22 -9.94 395 -9.92L397.55 -4.19C397.89 -3.4 398.12 -2.75 398.24 -2.22C398.35 -1.69 398.41 -1.21 398.41 -0.78C398.41 -0.67 398.41 -0.54 398.39 -0.4C398.38 -0.26 398.36 -0.15 398.33 -0.08ZM384.69 -11.77L382.42 -11.77L388.23 -25.22L394.14 -11.85C393.52 -11.84 392.84 -11.83 392.08 -11.82C391.32 -11.81 390.53 -11.81 389.71 -11.8C388.89 -11.79 388.05 -11.79 387.19 -11.78C386.34 -11.77 385.5 -11.77 384.69 -11.77Z M405.19 -0.08L405.19 0L409.4 0C409.36 -0.22 409.32 -0.48 409.28 -0.78C409.25 -1.03 409.22 -1.34 409.19 -1.71C409.16 -2.07 409.15 -2.49 409.15 -2.97C409.15 -3.35 409.19 -3.93 409.26 -4.73C409.33 -5.52 409.42 -6.43 409.54 -7.47C409.66 -8.51 409.8 -9.63 409.95 -10.83C410.11 -12.03 410.26 -13.23 410.41 -14.44C410.78 -17.26 411.21 -20.34 411.7 -23.66L424.2 -0.25L425.65 -0.08L438.08 -23.45L440.75 -3.28C440.78 -3.06 440.8 -2.85 440.81 -2.66C440.83 -2.47 440.83 -2.29 440.83 -2.11C440.83 -1.61 440.8 -1.19 440.74 -0.84C440.67 -0.49 440.61 -0.24 440.54 -0.08L440.54 0L445.84 0L445.84 -0.08C445.74 -0.25 445.64 -0.47 445.54 -0.73C445.43 -0.99 445.32 -1.32 445.21 -1.72C445.1 -2.12 444.99 -2.6 444.87 -3.16C444.76 -3.72 444.66 -4.39 444.56 -5.18L441.11 -30.19L439.11 -30.19L425.97 -5.43L412.73 -30.19L410.06 -30.19C410.01 -29.79 409.95 -29.21 409.86 -28.43C409.76 -27.65 409.65 -26.73 409.51 -25.68C409.37 -24.63 409.21 -23.47 409.03 -22.2C408.86 -20.93 408.68 -19.61 408.49 -18.24C408.3 -16.87 408.1 -15.48 407.9 -14.07C407.69 -12.66 407.49 -11.28 407.29 -9.94C407.08 -8.59 406.89 -7.3 406.7 -6.07C406.51 -4.85 406.34 -3.74 406.18 -2.76C406.07 -2.08 405.92 -1.53 405.72 -1.08C405.52 -0.64 405.35 -0.31 405.19 -0.08Z M463.17 -25.39L463.32 -29.32C463.09 -29.42 462.8 -29.55 462.45 -29.7C462.1 -29.86 461.69 -30.01 461.22 -30.17C460.75 -30.32 460.22 -30.45 459.63 -30.57C459.04 -30.68 458.4 -30.73 457.69 -30.73C456.74 -30.73 455.81 -30.57 454.92 -30.23C454.02 -29.89 453.21 -29.41 452.51 -28.78C451.8 -28.15 451.23 -27.38 450.8 -26.49C450.37 -25.6 450.16 -24.6 450.16 -23.49C450.16 -22.44 450.32 -21.48 450.64 -20.6C450.97 -19.72 451.39 -18.9 451.92 -18.14C452.44 -17.37 453.04 -16.65 453.71 -15.98C454.37 -15.3 455.06 -14.65 455.76 -14.01C456.46 -13.37 457.14 -12.74 457.81 -12.1C458.48 -11.47 459.07 -10.82 459.6 -10.15C460.13 -9.47 460.55 -8.76 460.87 -8.01C461.2 -7.26 461.36 -6.44 461.36 -5.56C461.36 -4.93 461.25 -4.34 461.03 -3.81C460.81 -3.28 460.5 -2.82 460.09 -2.43C459.69 -2.05 459.2 -1.74 458.63 -1.53C458.06 -1.31 457.42 -1.2 456.71 -1.2C455.92 -1.2 455.2 -1.34 454.54 -1.61C453.88 -1.88 453.29 -2.25 452.78 -2.71C452.27 -3.16 451.84 -3.69 451.48 -4.28C451.13 -4.88 450.88 -5.51 450.73 -6.17L450.2 -6.17L449.72 -1.52C450.03 -1.31 450.42 -1.07 450.91 -0.82C451.39 -0.57 451.94 -0.33 452.55 -0.12C453.16 0.1 453.82 0.28 454.55 0.43C455.27 0.58 456.03 0.65 456.83 0.65C458.26 0.65 459.5 0.42 460.54 -0.03C461.58 -0.49 462.42 -1.08 463.08 -1.81C463.74 -2.54 464.23 -3.36 464.55 -4.28C464.86 -5.2 465.02 -6.12 465.02 -7.03C465.02 -8.25 464.74 -9.39 464.17 -10.45C463.6 -11.51 462.89 -12.53 462.03 -13.49C461.18 -14.46 460.25 -15.4 459.25 -16.29C458.26 -17.19 457.33 -18.09 456.47 -18.99C455.62 -19.89 454.91 -20.8 454.34 -21.71C453.77 -22.63 453.48 -23.6 453.48 -24.61C453.48 -25.24 453.58 -25.82 453.76 -26.34C453.94 -26.85 454.21 -27.3 454.57 -27.68C454.93 -28.06 455.37 -28.36 455.91 -28.57C456.44 -28.78 457.05 -28.88 457.74 -28.88C458.51 -28.88 459.18 -28.76 459.75 -28.52C460.32 -28.29 460.8 -27.99 461.2 -27.63C461.6 -27.27 461.92 -26.89 462.17 -26.48C462.41 -26.08 462.59 -25.71 462.7 -25.39Z"/></g></g></svg>