<svg xmlns="http://www.w3.org/2000/svg" version="1.1" xlink="http://www.w3.org/1999/xlink" xmlns:svgjs="http://svgjs.com/svgjs" width="300" height="38.119032471941466"><defs id="SvgjsDefs1137"/><g id="SvgjsG1138" transform="scale(0.5714838357995059)" opacity="1"><g id="SvgjsG1139" class="text" transform="translate(-4.190769230769206, 39.24) scale(1)" light-content="false" fill="#000000"><path d="M10.38 -26.79C9.62 -27.93 9.24 -29.26 9.24 -30.78C9.24 -32.62 9.79 -34.14 10.89 -35.34C11.99 -36.54 13.54 -37.14 15.54 -37.14C18.18 -37.14 20.22 -36.17 21.66 -34.23C23.1 -32.29 24.04 -30.24 24.48 -28.08C24.52 -27.92 24.64 -27.86 24.84 -27.9C25.04 -27.94 25.14 -28.04 25.14 -28.2L24.84 -35.7C24.84 -36.18 24.54 -36.54 23.94 -36.78C21.78 -37.7 19.36 -38.16 16.68 -38.16C14.72 -38.16 12.85 -37.81 11.07 -37.11C9.29 -36.41 7.85 -35.34 6.75 -33.9C5.65 -32.46 5.1 -30.72 5.1 -28.68C5.1 -27 5.48 -25.53 6.24 -24.27C7 -23.01 7.93 -21.95 9.03 -21.09C10.13 -20.23 11.62 -19.2 13.5 -18C15.42 -16.84 16.95 -15.81 18.09 -14.91C19.23 -14.01 20.2 -12.9 21 -11.58C21.8 -10.26 22.2 -8.72 22.2 -6.96C22.2 -4.64 21.57 -2.97 20.31 -1.95C19.05 -0.93 17.48 -0.42 15.6 -0.42C12.84 -0.42 10.6 -1.48 8.88 -3.6C7.16 -5.72 5.82 -8.3 4.86 -11.34C4.82 -11.5 4.69 -11.56 4.47 -11.52C4.25 -11.48 4.16 -11.38 4.2 -11.22L4.8 -2.64C4.8 -2.32 4.84 -2.08 4.92 -1.92C5 -1.76 5.14 -1.62 5.34 -1.5C6.5 -0.78 7.86 -0.23 9.42 0.15C10.98 0.53 12.56 0.72 14.16 0.72C16.68 0.72 18.89 0.27 20.79 -0.63C22.69 -1.53 24.15 -2.77 25.17 -4.35C26.19 -5.93 26.7 -7.7 26.7 -9.66C26.7 -11.46 26.28 -13.02 25.44 -14.34C24.6 -15.66 23.59 -16.77 22.41 -17.67C21.23 -18.57 19.64 -19.64 17.64 -20.88C15.72 -22.04 14.22 -23.03 13.14 -23.85C12.06 -24.67 11.14 -25.65 10.38 -26.79Z M42.06 -34.23C43.46 -35.61 45.4 -36.3 47.88 -36.3C49.36 -36.3 50.42 -36.22 51.06 -36.06C51.7 -35.9 52.14 -35.57 52.38 -35.07C52.62 -34.57 52.74 -33.76 52.74 -32.64L52.74 -4.86C52.74 -3.66 52.6 -2.77 52.32 -2.19C52.04 -1.61 51.52 -1.22 50.76 -1.02C50 -0.82 48.8 -0.72 47.16 -0.72C47.04 -0.72 46.98 -0.6 46.98 -0.36C46.98 -0.12 47.04 0 47.16 0C48.6 0 49.72 -0.02 50.52 -0.06L55.14 -0.12L59.88 -0.06C60.68 -0.02 61.78 0 63.18 0C63.26 0 63.3 -0.12 63.3 -0.36C63.3 -0.6 63.26 -0.72 63.18 -0.72C61.5 -0.72 60.28 -0.82 59.52 -1.02C58.76 -1.22 58.25 -1.6 57.99 -2.16C57.73 -2.72 57.6 -3.62 57.6 -4.86L57.6 -32.52C57.6 -33.68 57.72 -34.51 57.96 -35.01C58.2 -35.51 58.64 -35.85 59.28 -36.03C59.92 -36.21 60.98 -36.3 62.46 -36.3C65.06 -36.3 67.02 -35.62 68.34 -34.26C69.66 -32.9 70.46 -30.68 70.74 -27.6C70.74 -27.52 70.85 -27.48 71.07 -27.48C71.29 -27.48 71.4 -27.52 71.4 -27.6C71.4 -29.12 71.47 -31.12 71.61 -33.6C71.75 -36.08 71.88 -37.88 72 -39C72 -39.16 71.89 -39.24 71.67 -39.24C71.45 -39.24 71.32 -39.16 71.28 -39C71.08 -38.4 70.64 -38 69.96 -37.8C69.28 -37.6 68.2 -37.5 66.72 -37.5L62.64 -37.44C60 -37.36 57.5 -37.32 55.14 -37.32C50.5 -37.32 46.48 -37.38 43.08 -37.5C40.88 -37.5 39.78 -37.94 39.78 -38.82C39.78 -39.02 39.66 -39.12 39.42 -39.12C39.18 -39.12 39.06 -39.02 39.06 -38.82C39.06 -37.54 38.96 -35.64 38.76 -33.12C38.56 -30.6 38.38 -28.76 38.22 -27.6C38.22 -27.52 38.33 -27.48 38.55 -27.48C38.77 -27.48 38.9 -27.52 38.94 -27.6C39.62 -30.64 40.66 -32.85 42.06 -34.23Z M109.32 -9.24C109.16 -9.24 109.08 -9.2 109.08 -9.12C108.52 -6.64 107.49 -4.73 105.99 -3.39C104.49 -2.05 102.6 -1.38 100.32 -1.38L96.42 -1.38C94.78 -1.38 93.69 -1.64 93.15 -2.16C92.61 -2.68 92.34 -3.66 92.34 -5.1L92.34 -18.84L98.76 -18.84C100.92 -18.84 102.49 -18.43 103.47 -17.61C104.45 -16.79 104.94 -15.52 104.94 -13.8C104.94 -13.72 105.06 -13.68 105.3 -13.68C105.54 -13.68 105.66 -13.72 105.66 -13.8C105.66 -14.52 105.62 -15.52 105.54 -16.8L105.48 -19.5L105.54 -24.54C105.54 -24.62 105.43 -24.66 105.21 -24.66C104.99 -24.66 104.88 -24.62 104.88 -24.54C104.88 -23.06 104.4 -21.97 103.44 -21.27C102.48 -20.57 100.98 -20.22 98.94 -20.22L92.34 -20.22L92.34 -32.4C92.34 -33.84 92.64 -34.81 93.24 -35.31C93.84 -35.81 95.02 -36.06 96.78 -36.06L99.84 -36.06C101.92 -36.06 103.6 -35.49 104.88 -34.35C106.16 -33.21 106.94 -31.54 107.22 -29.34C107.26 -29.22 107.39 -29.17 107.61 -29.19C107.83 -29.21 107.94 -29.28 107.94 -29.4L107.82 -36.96C107.82 -37.32 107.62 -37.5 107.22 -37.5L82.74 -37.5C82.62 -37.5 82.56 -37.38 82.56 -37.14C82.56 -36.9 82.62 -36.78 82.74 -36.78C84.14 -36.78 85.17 -36.67 85.83 -36.45C86.49 -36.23 86.94 -35.84 87.18 -35.28C87.42 -34.72 87.54 -33.84 87.54 -32.64L87.54 -4.86C87.54 -3.66 87.42 -2.77 87.18 -2.19C86.94 -1.61 86.5 -1.22 85.86 -1.02C85.22 -0.82 84.18 -0.72 82.74 -0.72C82.62 -0.72 82.56 -0.6 82.56 -0.36C82.56 -0.12 82.62 0 82.74 0L108.3 0C108.66 0 108.9 -0.07 109.02 -0.21C109.14 -0.35 109.2 -0.58 109.2 -0.9C109.2 -3.42 109.4 -6.12 109.8 -9C109.8 -9.04 109.75 -9.09 109.65 -9.15C109.55 -9.21 109.44 -9.24 109.32 -9.24Z M158.94 -37.14C158.94 -37.38 158.88 -37.5 158.76 -37.5L156.24 -37.44C155.2 -37.36 154.26 -37.32 153.42 -37.32C152.22 -37.32 150.9 -37.36 149.46 -37.44L146.76 -37.5C146.64 -37.5 146.58 -37.38 146.58 -37.14C146.58 -36.9 146.64 -36.78 146.76 -36.78C149.8 -36.78 151.32 -35.8 151.32 -33.84C151.32 -33.2 151.16 -32.44 150.84 -31.56L141 -6.54L129.12 -32.34C128.76 -33.18 128.58 -33.88 128.58 -34.44C128.58 -36 129.82 -36.78 132.3 -36.78C132.42 -36.78 132.48 -36.9 132.48 -37.14C132.48 -37.38 132.42 -37.5 132.3 -37.5C131.3 -37.5 130.48 -37.48 129.84 -37.44C127.84 -37.36 125.74 -37.32 123.54 -37.32C122.62 -37.32 121.64 -37.36 120.6 -37.44L118.74 -37.5C118.62 -37.5 118.56 -37.38 118.56 -37.14C118.56 -36.9 118.62 -36.78 118.74 -36.78C119.82 -36.78 120.73 -36.45 121.47 -35.79C122.21 -35.13 122.94 -34.04 123.66 -32.52L138.72 -0.06C138.76 0.1 138.98 0.18 139.38 0.18C139.78 0.18 140 0.1 140.04 -0.06L152.28 -31.32C153.72 -34.96 155.88 -36.78 158.76 -36.78C158.88 -36.78 158.94 -36.9 158.94 -37.14Z M193.68 -9.24C193.52 -9.24 193.44 -9.2 193.44 -9.12C192.88 -6.64 191.85 -4.73 190.35 -3.39C188.85 -2.05 186.96 -1.38 184.68 -1.38L180.78 -1.38C179.14 -1.38 178.05 -1.64 177.51 -2.16C176.97 -2.68 176.7 -3.66 176.7 -5.1L176.7 -18.84L183.12 -18.84C185.28 -18.84 186.85 -18.43 187.83 -17.61C188.81 -16.79 189.3 -15.52 189.3 -13.8C189.3 -13.72 189.42 -13.68 189.66 -13.68C189.9 -13.68 190.02 -13.72 190.02 -13.8C190.02 -14.52 189.98 -15.52 189.9 -16.8L189.84 -19.5L189.9 -24.54C189.9 -24.62 189.79 -24.66 189.57 -24.66C189.35 -24.66 189.24 -24.62 189.24 -24.54C189.24 -23.06 188.76 -21.97 187.8 -21.27C186.84 -20.57 185.34 -20.22 183.3 -20.22L176.7 -20.22L176.7 -32.4C176.7 -33.84 177 -34.81 177.6 -35.31C178.2 -35.81 179.38 -36.06 181.14 -36.06L184.2 -36.06C186.28 -36.06 187.96 -35.49 189.24 -34.35C190.52 -33.21 191.3 -31.54 191.58 -29.34C191.62 -29.22 191.75 -29.17 191.97 -29.19C192.19 -29.21 192.3 -29.28 192.3 -29.4L192.18 -36.96C192.18 -37.32 191.98 -37.5 191.58 -37.5L167.1 -37.5C166.98 -37.5 166.92 -37.38 166.92 -37.14C166.92 -36.9 166.98 -36.78 167.1 -36.78C168.5 -36.78 169.53 -36.67 170.19 -36.45C170.85 -36.23 171.3 -35.84 171.54 -35.28C171.78 -34.72 171.9 -33.84 171.9 -32.64L171.9 -4.86C171.9 -3.66 171.78 -2.77 171.54 -2.19C171.3 -1.61 170.86 -1.22 170.22 -1.02C169.58 -0.82 168.54 -0.72 167.1 -0.72C166.98 -0.72 166.92 -0.6 166.92 -0.36C166.92 -0.12 166.98 0 167.1 0L192.66 0C193.02 0 193.26 -0.07 193.38 -0.21C193.5 -0.35 193.56 -0.58 193.56 -0.9C193.56 -3.42 193.76 -6.12 194.16 -9C194.16 -9.04 194.11 -9.09 194.01 -9.15C193.91 -9.21 193.8 -9.24 193.68 -9.24Z M245.82 -37.14C245.82 -37.38 245.76 -37.5 245.64 -37.5L243.12 -37.44C241.76 -37.36 240.72 -37.32 240 -37.32C239.16 -37.32 238.14 -37.36 236.94 -37.44L234.54 -37.5C234.46 -37.5 234.42 -37.38 234.42 -37.14C234.42 -36.9 234.46 -36.78 234.54 -36.78C236.14 -36.78 237.32 -36.27 238.08 -35.25C238.84 -34.23 239.22 -32.66 239.22 -30.54L239.22 -7.44L216.9 -34.38C216.26 -35.14 215.76 -35.8 215.4 -36.36C215.08 -36.84 214.85 -37.15 214.71 -37.29C214.57 -37.43 214.34 -37.5 214.02 -37.5C213.46 -37.5 213 -37.48 212.64 -37.44L209.52 -37.38C208.64 -37.38 207.96 -37.4 207.48 -37.44L205.14 -37.5C205.02 -37.5 204.96 -37.38 204.96 -37.14C204.96 -36.9 205.02 -36.78 205.14 -36.78C206.86 -36.78 208.6 -35.9 210.36 -34.14L210.36 -6.9C210.36 -4.78 209.95 -3.22 209.13 -2.22C208.31 -1.22 207.04 -0.72 205.32 -0.72C205.24 -0.72 205.2 -0.6 205.2 -0.36C205.2 -0.12 205.24 0 205.32 0C206.48 0 207.36 -0.02 207.96 -0.06L211.2 -0.12L214.26 -0.06C214.82 -0.02 215.62 0 216.66 0C216.78 0 216.84 -0.12 216.84 -0.36C216.84 -0.6 216.78 -0.72 216.66 -0.72C215.06 -0.72 213.87 -1.22 213.09 -2.22C212.31 -3.22 211.92 -4.78 211.92 -6.9L211.92 -32.46L240.06 0.9C240.14 0.98 240.27 1 240.45 0.96C240.63 0.92 240.72 0.86 240.72 0.78L240.72 -30.54C240.72 -34.7 242.36 -36.78 245.64 -36.78C245.76 -36.78 245.82 -36.9 245.82 -37.14Z M285.36 -2.31C285.04 -2.89 284.88 -3.82 284.88 -5.1L284.88 -32.52C284.88 -33.76 285 -34.67 285.24 -35.25C285.48 -35.83 285.89 -36.21 286.47 -36.39C287.05 -36.57 287.94 -36.66 289.14 -36.66C291.78 -36.66 293.9 -35.77 295.5 -33.99C297.1 -32.21 297.9 -29.74 297.9 -26.58C297.9 -23.34 297.08 -20.86 295.44 -19.14C293.8 -17.42 291.8 -16.56 289.44 -16.56C288.64 -16.56 287.92 -16.64 287.28 -16.8C287.2 -16.84 287.13 -16.8 287.07 -16.68C287.01 -16.56 286.98 -16.44 286.98 -16.32C286.98 -16.12 287.04 -16.02 287.16 -16.02C287.92 -15.82 288.88 -15.72 290.04 -15.72C292.2 -15.72 294.29 -16.16 296.31 -17.04C298.33 -17.92 299.99 -19.26 301.29 -21.06C302.59 -22.86 303.24 -25.06 303.24 -27.66C303.24 -31.02 302.1 -33.53 299.82 -35.19C297.54 -36.85 294.52 -37.68 290.76 -37.68C290 -37.68 289.11 -37.65 288.09 -37.59C287.07 -37.53 286.32 -37.5 285.84 -37.5C284.52 -37.38 283.38 -37.32 282.42 -37.32C281.38 -37.32 280.02 -37.36 278.34 -37.44L275.22 -37.5C275.14 -37.5 275.1 -37.38 275.1 -37.14C275.1 -36.9 275.14 -36.78 275.22 -36.78C276.66 -36.78 277.71 -36.67 278.37 -36.45C279.03 -36.23 279.48 -35.84 279.72 -35.28C279.96 -34.72 280.08 -33.84 280.08 -32.64L280.08 -4.86C280.08 -3.66 279.96 -2.77 279.72 -2.19C279.48 -1.61 279.03 -1.22 278.37 -1.02C277.71 -0.82 276.66 -0.72 275.22 -0.72C275.14 -0.72 275.1 -0.6 275.1 -0.36C275.1 -0.12 275.14 0 275.22 0C276.54 0 277.58 -0.02 278.34 -0.06L282.48 -0.12L287.7 -0.06C288.62 -0.02 289.9 0 291.54 0C291.66 0 291.72 -0.12 291.72 -0.36C291.72 -0.6 291.66 -0.72 291.54 -0.72C289.54 -0.72 288.09 -0.84 287.19 -1.08C286.29 -1.32 285.68 -1.73 285.36 -2.31Z M351.24 -0.36C351.24 -0.6 351.16 -0.72 351 -0.72C349.8 -0.72 348.72 -1.24 347.76 -2.28C346.8 -3.32 345.64 -5.3 344.28 -8.22L329.82 -37.92C329.78 -38.08 329.64 -38.15 329.4 -38.13C329.16 -38.11 329.02 -38.04 328.98 -37.92L316.2 -8.46C315.28 -6.34 314.46 -4.74 313.74 -3.66C313.02 -2.58 312.27 -1.82 311.49 -1.38C310.71 -0.94 309.76 -0.72 308.64 -0.72C308.48 -0.72 308.4 -0.6 308.4 -0.36C308.4 -0.12 308.48 0 308.64 0C309.44 0 310.48 -0.04 311.76 -0.12C313.2 -0.2 314.44 -0.24 315.48 -0.24C316.6 -0.24 317.92 -0.2 319.44 -0.12C320.8 -0.04 321.84 0 322.56 0C322.76 0 322.86 -0.12 322.86 -0.36C322.86 -0.6 322.76 -0.72 322.56 -0.72C318.68 -0.72 316.74 -2.02 316.74 -4.62C316.74 -5.5 317.02 -6.6 317.58 -7.92L322.5 -19.26L333.54 -19.26L340.26 -5.34C340.86 -4.14 341.16 -3.2 341.16 -2.52C341.16 -1.84 340.86 -1.37 340.26 -1.11C339.66 -0.85 338.68 -0.72 337.32 -0.72C337.16 -0.72 337.08 -0.6 337.08 -0.36C337.08 -0.12 337.16 0 337.32 0C338 0 339.02 -0.04 340.38 -0.12C341.74 -0.2 342.88 -0.24 343.8 -0.24C344.56 -0.24 345.74 -0.2 347.34 -0.12C349.02 -0.04 350.24 0 351 0C351.16 0 351.24 -0.12 351.24 -0.36ZM323.04 -20.64L327.72 -31.44L332.88 -20.64Z M398.64 -0.36C398.64 -0.6 398.6 -0.72 398.52 -0.72C396.84 -0.72 395.12 -1.35 393.36 -2.61C391.6 -3.87 389.59 -5.93 387.33 -8.79C385.07 -11.65 382.26 -15.62 378.9 -20.7C380.7 -21.74 382.16 -23.1 383.28 -24.78C384.4 -26.46 384.96 -28.24 384.96 -30.12C384.96 -32.48 384.04 -34.33 382.2 -35.67C380.36 -37.01 377.74 -37.68 374.34 -37.68C373.18 -37.68 371.94 -37.62 370.62 -37.5C370.14 -37.46 369.58 -37.42 368.94 -37.38C368.3 -37.34 367.62 -37.32 366.9 -37.32C365.86 -37.32 364.46 -37.36 362.7 -37.44L359.7 -37.5C359.62 -37.5 359.58 -37.38 359.58 -37.14C359.58 -36.9 359.62 -36.78 359.7 -36.78C361.14 -36.78 362.19 -36.67 362.85 -36.45C363.51 -36.23 363.96 -35.84 364.2 -35.28C364.44 -34.72 364.56 -33.84 364.56 -32.64L364.56 -4.86C364.56 -3.66 364.44 -2.77 364.2 -2.19C363.96 -1.61 363.5 -1.22 362.82 -1.02C362.14 -0.82 361.08 -0.72 359.64 -0.72C359.52 -0.72 359.46 -0.6 359.46 -0.36C359.46 -0.12 359.52 0 359.64 0C360.92 0 361.94 -0.02 362.7 -0.06L366.9 -0.12L371.22 -0.06C371.94 -0.02 372.92 0 374.16 0C374.28 0 374.34 -0.12 374.34 -0.36C374.34 -0.6 374.28 -0.72 374.16 -0.72C372.72 -0.72 371.67 -0.82 371.01 -1.02C370.35 -1.22 369.9 -1.61 369.66 -2.19C369.42 -2.77 369.3 -3.66 369.3 -4.86L369.3 -19.02C370.5 -18.94 371.48 -18.9 372.24 -18.9C373.08 -18.9 373.96 -19 374.88 -19.2C378.56 -13.24 381.73 -8.55 384.39 -5.13C387.05 -1.71 388.86 0 389.82 0L398.52 0C398.6 0 398.64 -0.12 398.64 -0.36ZM372.84 -20.34C372 -20.34 370.82 -20.42 369.3 -20.58L369.3 -32.52C369.3 -33.72 369.42 -34.61 369.66 -35.19C369.9 -35.77 370.29 -36.16 370.83 -36.36C371.37 -36.56 372.16 -36.66 373.2 -36.66C375.32 -36.66 376.98 -36 378.18 -34.68C379.38 -33.36 379.98 -31.12 379.98 -27.96C379.98 -25.16 379.43 -23.19 378.33 -22.05C377.23 -20.91 375.4 -20.34 372.84 -20.34Z M442.98 -0.36C442.98 -0.6 442.92 -0.72 442.8 -0.72C441.32 -0.72 440.17 -0.88 439.35 -1.2C438.53 -1.52 437.39 -2.45 435.93 -3.99C434.47 -5.53 432.32 -8.18 429.48 -11.94L420.78 -23.28L429.42 -31.86C431.06 -33.5 432.86 -34.73 434.82 -35.55C436.78 -36.37 438.62 -36.78 440.34 -36.78C440.46 -36.78 440.52 -36.9 440.52 -37.14C440.52 -37.38 440.46 -37.5 440.34 -37.5L437.94 -37.44C436.42 -37.36 434.94 -37.32 433.5 -37.32C432.06 -37.32 430.54 -37.36 428.94 -37.44L426.3 -37.5C426.18 -37.5 426.12 -37.38 426.12 -37.14C426.12 -36.9 426.18 -36.78 426.3 -36.78C428.66 -36.78 429.84 -36.26 429.84 -35.22C429.84 -34.5 429.2 -33.5 427.92 -32.22L415.62 -19.8L415.62 -32.52C415.62 -33.72 415.74 -34.61 415.98 -35.19C416.22 -35.77 416.68 -36.18 417.36 -36.42C418.04 -36.66 419.08 -36.78 420.48 -36.78C420.56 -36.78 420.6 -36.9 420.6 -37.14C420.6 -37.38 420.56 -37.5 420.48 -37.5L417.54 -37.44C415.78 -37.36 414.34 -37.32 413.22 -37.32C412.18 -37.32 410.78 -37.36 409.02 -37.44L406.02 -37.5C405.9 -37.5 405.84 -37.38 405.84 -37.14C405.84 -36.9 405.9 -36.78 406.02 -36.78C407.42 -36.78 408.45 -36.67 409.11 -36.45C409.77 -36.23 410.22 -35.84 410.46 -35.28C410.7 -34.72 410.82 -33.84 410.82 -32.64L410.82 -4.86C410.82 -3.66 410.7 -2.77 410.46 -2.19C410.22 -1.61 409.76 -1.22 409.08 -1.02C408.4 -0.82 407.34 -0.72 405.9 -0.72C405.82 -0.72 405.78 -0.6 405.78 -0.36C405.78 -0.12 405.82 0 405.9 0C407.22 0 408.26 -0.02 409.02 -0.06L413.22 -0.12L417.48 -0.06C418.2 -0.02 419.2 0 420.48 0C420.6 0 420.66 -0.12 420.66 -0.36C420.66 -0.6 420.6 -0.72 420.48 -0.72C419.04 -0.72 417.99 -0.82 417.33 -1.02C416.67 -1.22 416.22 -1.61 415.98 -2.19C415.74 -2.77 415.62 -3.66 415.62 -4.86L415.62 -18.24L417.42 -19.98L426.12 -8.7C427.16 -7.34 427.98 -6.25 428.58 -5.43C429.18 -4.61 429.66 -3.98 430.02 -3.54C430.9 -2.34 431.53 -1.52 431.91 -1.08C432.29 -0.64 432.63 -0.34 432.93 -0.18C433.23 -0.02 433.66 0.06 434.22 0.06L436.08 0L442.8 0C442.92 0 442.98 -0.12 442.98 -0.36Z M478.2 -9.24C478.04 -9.24 477.96 -9.2 477.96 -9.12C477.4 -6.64 476.37 -4.73 474.87 -3.39C473.37 -2.05 471.48 -1.38 469.2 -1.38L465.3 -1.38C463.66 -1.38 462.57 -1.64 462.03 -2.16C461.49 -2.68 461.22 -3.66 461.22 -5.1L461.22 -18.84L467.64 -18.84C469.8 -18.84 471.37 -18.43 472.35 -17.61C473.33 -16.79 473.82 -15.52 473.82 -13.8C473.82 -13.72 473.94 -13.68 474.18 -13.68C474.42 -13.68 474.54 -13.72 474.54 -13.8C474.54 -14.52 474.5 -15.52 474.42 -16.8L474.36 -19.5L474.42 -24.54C474.42 -24.62 474.31 -24.66 474.09 -24.66C473.87 -24.66 473.76 -24.62 473.76 -24.54C473.76 -23.06 473.28 -21.97 472.32 -21.27C471.36 -20.57 469.86 -20.22 467.82 -20.22L461.22 -20.22L461.22 -32.4C461.22 -33.84 461.52 -34.81 462.12 -35.31C462.72 -35.81 463.9 -36.06 465.66 -36.06L468.72 -36.06C470.8 -36.06 472.48 -35.49 473.76 -34.35C475.04 -33.21 475.82 -31.54 476.1 -29.34C476.14 -29.22 476.27 -29.17 476.49 -29.19C476.71 -29.21 476.82 -29.28 476.82 -29.4L476.7 -36.96C476.7 -37.32 476.5 -37.5 476.1 -37.5L451.62 -37.5C451.5 -37.5 451.44 -37.38 451.44 -37.14C451.44 -36.9 451.5 -36.78 451.62 -36.78C453.02 -36.78 454.05 -36.67 454.71 -36.45C455.37 -36.23 455.82 -35.84 456.06 -35.28C456.3 -34.72 456.42 -33.84 456.42 -32.64L456.42 -4.86C456.42 -3.66 456.3 -2.77 456.06 -2.19C455.82 -1.61 455.38 -1.22 454.74 -1.02C454.1 -0.82 453.06 -0.72 451.62 -0.72C451.5 -0.72 451.44 -0.6 451.44 -0.36C451.44 -0.12 451.5 0 451.62 0L477.18 0C477.54 0 477.78 -0.07 477.9 -0.21C478.02 -0.35 478.08 -0.58 478.08 -0.9C478.08 -3.42 478.28 -6.12 478.68 -9C478.68 -9.04 478.63 -9.09 478.53 -9.15C478.43 -9.21 478.32 -9.24 478.2 -9.24Z M529.14 -0.36C529.14 -0.6 529.1 -0.72 529.02 -0.72C527.34 -0.72 525.62 -1.35 523.86 -2.61C522.1 -3.87 520.09 -5.93 517.83 -8.79C515.57 -11.65 512.76 -15.62 509.4 -20.7C511.2 -21.74 512.66 -23.1 513.78 -24.78C514.9 -26.46 515.46 -28.24 515.46 -30.12C515.46 -32.48 514.54 -34.33 512.7 -35.67C510.86 -37.01 508.24 -37.68 504.84 -37.68C503.68 -37.68 502.44 -37.62 501.12 -37.5C500.64 -37.46 500.08 -37.42 499.44 -37.38C498.8 -37.34 498.12 -37.32 497.4 -37.32C496.36 -37.32 494.96 -37.36 493.2 -37.44L490.2 -37.5C490.12 -37.5 490.08 -37.38 490.08 -37.14C490.08 -36.9 490.12 -36.78 490.2 -36.78C491.64 -36.78 492.69 -36.67 493.35 -36.45C494.01 -36.23 494.46 -35.84 494.7 -35.28C494.94 -34.72 495.06 -33.84 495.06 -32.64L495.06 -4.86C495.06 -3.66 494.94 -2.77 494.7 -2.19C494.46 -1.61 494 -1.22 493.32 -1.02C492.64 -0.82 491.58 -0.72 490.14 -0.72C490.02 -0.72 489.96 -0.6 489.96 -0.36C489.96 -0.12 490.02 0 490.14 0C491.42 0 492.44 -0.02 493.2 -0.06L497.4 -0.12L501.72 -0.06C502.44 -0.02 503.42 0 504.66 0C504.78 0 504.84 -0.12 504.84 -0.36C504.84 -0.6 504.78 -0.72 504.66 -0.72C503.22 -0.72 502.17 -0.82 501.51 -1.02C500.85 -1.22 500.4 -1.61 500.16 -2.19C499.92 -2.77 499.8 -3.66 499.8 -4.86L499.8 -19.02C501 -18.94 501.98 -18.9 502.74 -18.9C503.58 -18.9 504.46 -19 505.38 -19.2C509.06 -13.24 512.23 -8.55 514.89 -5.13C517.55 -1.71 519.36 0 520.32 0L529.02 0C529.1 0 529.14 -0.12 529.14 -0.36ZM503.34 -20.34C502.5 -20.34 501.32 -20.42 499.8 -20.58L499.8 -32.52C499.8 -33.72 499.92 -34.61 500.16 -35.19C500.4 -35.77 500.79 -36.16 501.33 -36.36C501.87 -36.56 502.66 -36.66 503.7 -36.66C505.82 -36.66 507.48 -36 508.68 -34.68C509.88 -33.36 510.48 -31.12 510.48 -27.96C510.48 -25.16 509.93 -23.19 508.83 -22.05C507.73 -20.91 505.9 -20.34 503.34 -20.34Z"/></g><rect id="SvgjsRect1140" width="524.9492307692308" height="1" fill="#000000" transform="translate(0, 44.22)" light-content="false"/><g id="SvgjsG1141" class="text" transform="translate(215.22923076923072, 66.38185591271001) scale(1)" light-content="false" fill="#000000"><path d="M12.69 -8.05C11.81 -8.89 10.65 -9.38 9.21 -9.5C10.22 -9.86 11 -10.39 11.56 -11.08C12.11 -11.78 12.39 -12.55 12.39 -13.42C12.39 -14.5 11.99 -15.36 11.18 -16C10.37 -16.64 9.19 -16.96 7.64 -16.96C7.32 -16.96 7.02 -16.95 6.74 -16.93C6.46 -16.91 6.22 -16.89 6.02 -16.87C5.45 -16.82 4.91 -16.79 4.43 -16.79C3.96 -16.79 3.33 -16.81 2.54 -16.85L1.19 -16.87C1.15 -16.87 1.13 -16.82 1.13 -16.71C1.13 -16.6 1.15 -16.55 1.19 -16.55C1.82 -16.55 2.28 -16.5 2.58 -16.4C2.88 -16.3 3.08 -16.13 3.2 -15.88C3.32 -15.62 3.38 -15.23 3.38 -14.69L3.38 -2.19C3.38 -1.65 3.31 -1.25 3.19 -1C3.06 -0.75 2.85 -0.57 2.55 -0.47C2.25 -0.37 1.79 -0.32 1.16 -0.32C1.11 -0.32 1.08 -0.27 1.08 -0.16C1.08 -0.05 1.11 0 1.16 0C1.74 0 2.2 -0.01 2.54 -0.03L4.43 -0.05C4.86 -0.05 5.25 -0.05 5.59 -0.03C5.93 -0.01 6.23 0.01 6.48 0.03C7.16 0.08 7.79 0.11 8.37 0.11C9.43 0.11 10.39 -0.11 11.25 -0.55C12.1 -0.99 12.78 -1.6 13.27 -2.36C13.77 -3.13 14.01 -3.99 14.01 -4.94C14.01 -6.16 13.57 -7.2 12.69 -8.05ZM6.14 -16.36C6.37 -16.45 6.7 -16.5 7.13 -16.5C8.19 -16.5 8.98 -16.2 9.49 -15.62C10 -15.03 10.26 -14.23 10.26 -13.2C10.26 -12.09 9.96 -11.19 9.37 -10.5C8.78 -9.82 7.88 -9.48 6.7 -9.48L5.51 -9.5L5.51 -14.63C5.51 -15.17 5.56 -15.57 5.66 -15.84C5.76 -16.1 5.92 -16.27 6.14 -16.36ZM10.79 -1.43C10.17 -0.76 9.22 -0.43 7.94 -0.43C7.25 -0.43 6.74 -0.49 6.4 -0.61C6.06 -0.72 5.82 -0.9 5.7 -1.15C5.57 -1.39 5.51 -1.74 5.51 -2.19L5.51 -8.8C6.26 -8.86 6.89 -8.87 7.37 -8.86C8.76 -8.84 9.83 -8.41 10.58 -7.59C11.34 -6.76 11.72 -5.66 11.72 -4.29C11.72 -3.05 11.41 -2.1 10.79 -1.43Z M33.24 -0.16C33.24 -0.27 33.19 -0.32 33.1 -0.32C32.63 -0.32 32.25 -0.41 31.95 -0.58C31.66 -0.75 31.36 -1.07 31.08 -1.53C30.79 -1.98 30.41 -2.71 29.94 -3.7L25.62 -13.04C25.59 -13.11 25.53 -13.15 25.46 -13.15C25.39 -13.15 25.34 -13.11 25.3 -13.04L21.36 -3.56C20.96 -2.61 20.62 -1.91 20.34 -1.47C20.07 -1.03 19.76 -0.73 19.43 -0.57C19.09 -0.4 18.65 -0.32 18.09 -0.32C18 -0.32 17.95 -0.27 17.95 -0.16C17.95 -0.05 18 0 18.09 0C18.41 0 18.85 -0.02 19.39 -0.05C20 -0.09 20.53 -0.11 20.98 -0.11C21.41 -0.11 21.88 -0.09 22.38 -0.05C22.85 -0.02 23.22 0 23.49 0C23.58 0 23.63 -0.05 23.63 -0.16C23.63 -0.27 23.58 -0.32 23.49 -0.32C22.82 -0.32 22.33 -0.42 22.02 -0.62C21.7 -0.82 21.55 -1.14 21.55 -1.59C21.55 -1.99 21.7 -2.56 22.01 -3.32L23.11 -6.05L26.7 -6.05L28.46 -2.27C28.69 -1.78 28.81 -1.38 28.81 -1.05C28.81 -0.8 28.71 -0.62 28.5 -0.5C28.29 -0.38 27.96 -0.32 27.51 -0.32C27.44 -0.32 27.41 -0.27 27.41 -0.16C27.41 -0.05 27.44 0 27.51 0C27.78 0 28.17 -0.02 28.67 -0.05C29.21 -0.09 29.62 -0.11 29.89 -0.11C30.21 -0.11 30.75 -0.09 31.51 -0.05C32.23 -0.02 32.76 0 33.1 0C33.19 0 33.24 -0.05 33.24 -0.16ZM23.36 -6.61L24.79 -10.15L26.43 -6.61Z M48.11 -12.47C48.11 -12.58 48.09 -12.64 48.03 -12.64L47.3 -12.61C46.94 -12.57 46.65 -12.55 46.41 -12.55C45.89 -12.55 45.31 -12.57 44.66 -12.61L43.47 -12.64C43.43 -12.64 43.42 -12.58 43.42 -12.47C43.42 -12.37 43.43 -12.31 43.47 -12.31C43.87 -12.31 44.17 -12.22 44.37 -12.03C44.58 -11.84 44.69 -11.58 44.69 -11.26C44.69 -10.86 44.54 -10.41 44.25 -9.91L42.44 -6.7L39.64 -11.02C39.46 -11.27 39.37 -11.49 39.37 -11.69C39.37 -12.11 39.78 -12.31 40.61 -12.31C40.66 -12.31 40.69 -12.37 40.69 -12.47C40.69 -12.58 40.66 -12.64 40.61 -12.64L39.18 -12.61C38.24 -12.57 37.49 -12.55 36.94 -12.55C36.77 -12.55 36.46 -12.57 35.99 -12.61L35.1 -12.64C35.05 -12.64 35.02 -12.58 35.02 -12.47C35.02 -12.37 35.05 -12.31 35.1 -12.31C35.6 -12.31 36.05 -12.17 36.44 -11.88C36.82 -11.59 37.24 -11.1 37.69 -10.39L40.69 -5.78L40.69 -2.19C40.69 -1.65 40.63 -1.25 40.51 -0.99C40.4 -0.72 40.18 -0.55 39.88 -0.46C39.57 -0.37 39.1 -0.32 38.45 -0.32C38.39 -0.32 38.37 -0.27 38.37 -0.16C38.37 -0.05 38.39 0 38.45 0C39.04 0 39.51 -0.01 39.85 -0.03L41.69 -0.05L43.61 -0.03C43.93 -0.01 44.37 0 44.93 0C44.98 0 45.01 -0.05 45.01 -0.16C45.01 -0.27 44.98 -0.32 44.93 -0.32C44.26 -0.32 43.78 -0.37 43.47 -0.46C43.16 -0.55 42.96 -0.72 42.86 -0.97C42.76 -1.22 42.71 -1.63 42.71 -2.19L42.71 -6.18L44.87 -9.88C45.34 -10.67 45.85 -11.28 46.39 -11.69C46.93 -12.11 47.48 -12.31 48.03 -12.31C48.09 -12.31 48.11 -12.37 48.11 -12.47Z M78.97 -0.16C78.97 -0.27 78.94 -0.32 78.87 -0.32C78.33 -0.32 77.84 -0.56 77.41 -1.03C76.98 -1.49 76.46 -2.38 75.84 -3.7L69.34 -17.06C69.32 -17.14 69.26 -17.17 69.15 -17.16C69.04 -17.15 68.98 -17.12 68.96 -17.06L63.21 -3.81C62.79 -2.85 62.42 -2.13 62.1 -1.65C61.78 -1.16 61.44 -0.82 61.09 -0.62C60.74 -0.42 60.31 -0.32 59.81 -0.32C59.73 -0.32 59.7 -0.27 59.7 -0.16C59.7 -0.05 59.73 0 59.81 0C60.16 0 60.63 -0.02 61.21 -0.05C61.86 -0.09 62.41 -0.11 62.88 -0.11C63.39 -0.11 63.98 -0.09 64.67 -0.05C65.28 -0.02 65.75 0 66.07 0C66.16 0 66.2 -0.05 66.2 -0.16C66.2 -0.27 66.16 -0.32 66.07 -0.32C64.32 -0.32 63.45 -0.91 63.45 -2.08C63.45 -2.47 63.58 -2.97 63.83 -3.56L66.04 -8.67L71.01 -8.67L74.03 -2.4C74.3 -1.86 74.44 -1.44 74.44 -1.13C74.44 -0.83 74.3 -0.62 74.03 -0.5C73.76 -0.38 73.32 -0.32 72.71 -0.32C72.64 -0.32 72.6 -0.27 72.6 -0.16C72.6 -0.05 72.64 0 72.71 0C73.02 0 73.48 -0.02 74.09 -0.05C74.7 -0.09 75.21 -0.11 75.63 -0.11C75.97 -0.11 76.5 -0.09 77.22 -0.05C77.98 -0.02 78.52 0 78.87 0C78.94 0 78.97 -0.05 78.97 -0.16ZM66.29 -9.29L68.39 -14.15L70.71 -9.29Z M96.53 -0.16C96.53 -0.27 96.5 -0.32 96.44 -0.32C95.8 -0.32 95.18 -0.52 94.58 -0.9C93.99 -1.29 93.34 -1.93 92.65 -2.83C91.96 -3.73 91.12 -5 90.13 -6.64C90.86 -7.02 91.44 -7.51 91.87 -8.11C92.29 -8.72 92.5 -9.38 92.5 -10.1C92.5 -10.94 92.17 -11.59 91.52 -12.04C90.86 -12.49 89.91 -12.72 88.67 -12.72C88.16 -12.72 87.63 -12.69 87.07 -12.64C86.88 -12.62 86.64 -12.6 86.36 -12.58C86.08 -12.56 85.77 -12.55 85.43 -12.55C85.01 -12.55 84.47 -12.57 83.78 -12.61L82.54 -12.64C82.49 -12.64 82.46 -12.58 82.46 -12.47C82.46 -12.37 82.49 -12.31 82.54 -12.31C83.08 -12.31 83.48 -12.26 83.74 -12.16C84 -12.06 84.18 -11.89 84.28 -11.64C84.38 -11.38 84.43 -10.99 84.43 -10.45L84.43 -2.19C84.43 -1.65 84.38 -1.25 84.28 -0.99C84.18 -0.72 84 -0.55 83.74 -0.46C83.48 -0.37 83.06 -0.32 82.49 -0.32C82.45 -0.32 82.43 -0.27 82.43 -0.16C82.43 -0.05 82.45 0 82.49 0C83.03 0 83.45 -0.01 83.75 -0.03L85.43 -0.05L87.16 -0.03C87.44 -0.01 87.84 0 88.34 0C88.4 0 88.43 -0.05 88.43 -0.16C88.43 -0.27 88.4 -0.32 88.34 -0.32C87.77 -0.32 87.35 -0.37 87.1 -0.46C86.85 -0.55 86.68 -0.72 86.59 -0.97C86.5 -1.22 86.45 -1.63 86.45 -2.19L86.45 -6.02C86.65 -6 86.94 -5.99 87.32 -5.99C87.7 -5.99 88.07 -6.02 88.45 -6.07C89.53 -4.18 90.47 -2.7 91.26 -1.62C92.05 -0.54 92.59 0 92.88 0L96.44 0C96.5 0 96.53 -0.05 96.53 -0.16ZM87.51 -6.48C87.2 -6.48 86.85 -6.5 86.45 -6.53L86.45 -10.39C86.45 -11.11 86.55 -11.61 86.75 -11.88C86.95 -12.15 87.36 -12.28 87.99 -12.28C89.6 -12.28 90.4 -11.31 90.4 -9.37C90.4 -8.41 90.18 -7.69 89.76 -7.21C89.34 -6.72 88.59 -6.48 87.51 -6.48Z M110.15 -3.67C110.05 -3.67 109.99 -3.64 109.97 -3.59C109.72 -2.67 109.27 -1.92 108.62 -1.32C107.97 -0.73 107.26 -0.43 106.49 -0.43L105.49 -0.43C104.95 -0.43 104.55 -0.48 104.29 -0.58C104.03 -0.68 103.85 -0.86 103.76 -1.12C103.67 -1.38 103.63 -1.77 103.63 -2.29L103.63 -6.13C105.25 -6.09 106.38 -6.03 107.03 -5.94C107.68 -5.85 108.04 -5.8 108.11 -5.8C108.22 -5.8 108.27 -6.01 108.27 -6.43C108.27 -6.82 108.22 -7.02 108.11 -7.02C108.02 -7.02 107.65 -6.98 107.01 -6.9C106.38 -6.82 105.25 -6.77 103.63 -6.75L103.63 -10.42C103.63 -10.96 103.67 -11.36 103.76 -11.61C103.85 -11.86 104.03 -12.04 104.29 -12.14C104.55 -12.24 104.95 -12.28 105.49 -12.28L106.08 -12.28C106.84 -12.28 107.51 -12.02 108.09 -11.49C108.68 -10.96 109.05 -10.28 109.21 -9.45C109.21 -9.4 109.27 -9.37 109.38 -9.37C109.48 -9.37 109.54 -9.4 109.54 -9.45C109.54 -9.97 109.53 -10.4 109.51 -10.75L109.48 -12.42C109.48 -12.56 109.39 -12.64 109.21 -12.64L99.71 -12.64C99.68 -12.64 99.66 -12.58 99.66 -12.47C99.66 -12.37 99.68 -12.31 99.71 -12.31C100.27 -12.31 100.68 -12.26 100.95 -12.16C101.22 -12.06 101.41 -11.89 101.51 -11.64C101.61 -11.38 101.65 -10.99 101.65 -10.45L101.65 -2.19C101.65 -1.65 101.61 -1.25 101.51 -0.99C101.41 -0.72 101.23 -0.55 100.97 -0.46C100.71 -0.37 100.29 -0.32 99.71 -0.32C99.68 -0.32 99.66 -0.27 99.66 -0.16C99.66 -0.05 99.68 0 99.71 0L109.7 0C109.86 0 109.97 -0.03 110.03 -0.09C110.08 -0.16 110.11 -0.26 110.11 -0.4C110.11 -1.23 110.17 -2.29 110.29 -3.59C110.29 -3.64 110.25 -3.67 110.15 -3.67Z M129.2 -0.16C129.2 -0.27 129.15 -0.32 129.06 -0.32C128.59 -0.32 128.21 -0.41 127.91 -0.58C127.62 -0.75 127.32 -1.07 127.04 -1.53C126.75 -1.98 126.37 -2.71 125.9 -3.7L121.58 -13.04C121.54 -13.11 121.49 -13.15 121.42 -13.15C121.35 -13.15 121.29 -13.11 121.26 -13.04L117.32 -3.56C116.92 -2.61 116.58 -1.91 116.3 -1.47C116.02 -1.03 115.72 -0.73 115.38 -0.57C115.05 -0.4 114.61 -0.32 114.05 -0.32C113.96 -0.32 113.91 -0.27 113.91 -0.16C113.91 -0.05 113.96 0 114.05 0C114.37 0 114.8 -0.02 115.34 -0.05C115.96 -0.09 116.49 -0.11 116.94 -0.11C117.37 -0.11 117.84 -0.09 118.34 -0.05C118.81 -0.02 119.18 0 119.45 0C119.54 0 119.58 -0.05 119.58 -0.16C119.58 -0.27 119.54 -0.32 119.45 -0.32C118.78 -0.32 118.29 -0.42 117.98 -0.62C117.66 -0.82 117.5 -1.14 117.5 -1.59C117.5 -1.99 117.66 -2.56 117.96 -3.32L119.07 -6.05L122.66 -6.05L124.42 -2.27C124.65 -1.78 124.77 -1.38 124.77 -1.05C124.77 -0.8 124.66 -0.62 124.46 -0.5C124.25 -0.38 123.92 -0.32 123.47 -0.32C123.4 -0.32 123.36 -0.27 123.36 -0.16C123.36 -0.05 123.4 0 123.47 0C123.74 0 124.13 -0.02 124.63 -0.05C125.17 -0.09 125.58 -0.11 125.85 -0.11C126.17 -0.11 126.71 -0.09 127.47 -0.05C128.19 -0.02 128.72 0 129.06 0C129.15 0 129.2 -0.05 129.2 -0.16ZM119.31 -6.61L120.74 -10.15L122.39 -6.61Z M159.54 -0.16C159.54 -0.27 159.52 -0.32 159.49 -0.32C158.73 -0.32 157.96 -0.61 157.17 -1.17C156.38 -1.74 155.47 -2.67 154.45 -3.96C153.44 -5.24 152.17 -7.03 150.66 -9.31C151.47 -9.78 152.13 -10.39 152.63 -11.15C153.13 -11.91 153.39 -12.71 153.39 -13.55C153.39 -14.62 152.97 -15.45 152.14 -16.05C151.32 -16.65 150.14 -16.96 148.61 -16.96C148.09 -16.96 147.53 -16.93 146.93 -16.87C146.72 -16.86 146.47 -16.84 146.18 -16.82C145.89 -16.8 145.58 -16.79 145.26 -16.79C144.79 -16.79 144.16 -16.81 143.37 -16.85L142.02 -16.87C141.98 -16.87 141.97 -16.82 141.97 -16.71C141.97 -16.6 141.98 -16.55 142.02 -16.55C142.67 -16.55 143.14 -16.5 143.44 -16.4C143.73 -16.3 143.94 -16.13 144.04 -15.88C144.15 -15.62 144.21 -15.23 144.21 -14.69L144.21 -2.19C144.21 -1.65 144.15 -1.25 144.04 -0.99C143.94 -0.72 143.73 -0.55 143.42 -0.46C143.12 -0.37 142.64 -0.32 141.99 -0.32C141.94 -0.32 141.91 -0.27 141.91 -0.16C141.91 -0.05 141.94 0 141.99 0C142.57 0 143.03 -0.01 143.37 -0.03L145.26 -0.05L147.2 -0.03C147.53 -0.01 147.97 0 148.53 0C148.58 0 148.61 -0.05 148.61 -0.16C148.61 -0.27 148.58 -0.32 148.53 -0.32C147.88 -0.32 147.41 -0.37 147.11 -0.46C146.81 -0.55 146.61 -0.72 146.5 -0.99C146.39 -1.25 146.34 -1.65 146.34 -2.19L146.34 -8.56C146.88 -8.52 147.32 -8.51 147.66 -8.51C148.04 -8.51 148.44 -8.55 148.85 -8.64C150.51 -5.96 151.93 -3.85 153.13 -2.31C154.33 -0.77 155.14 0 155.57 0L159.49 0C159.52 0 159.54 -0.05 159.54 -0.16ZM147.93 -9.15C147.56 -9.15 147.02 -9.19 146.34 -9.26L146.34 -14.63C146.34 -15.17 146.39 -15.57 146.5 -15.84C146.61 -16.1 146.79 -16.27 147.03 -16.36C147.27 -16.45 147.63 -16.5 148.1 -16.5C149.05 -16.5 149.8 -16.2 150.34 -15.61C150.88 -15.01 151.15 -14 151.15 -12.58C151.15 -11.32 150.9 -10.44 150.4 -9.92C149.91 -9.41 149.08 -9.15 147.93 -9.15Z M173.25 -3.67C173.15 -3.67 173.09 -3.64 173.07 -3.59C172.82 -2.67 172.37 -1.92 171.72 -1.32C171.07 -0.73 170.36 -0.43 169.59 -0.43L168.59 -0.43C168.05 -0.43 167.65 -0.48 167.39 -0.58C167.13 -0.68 166.95 -0.86 166.86 -1.12C166.77 -1.38 166.73 -1.77 166.73 -2.29L166.73 -6.13C168.35 -6.09 169.48 -6.03 170.13 -5.94C170.78 -5.85 171.14 -5.8 171.21 -5.8C171.32 -5.8 171.37 -6.01 171.37 -6.43C171.37 -6.82 171.32 -7.02 171.21 -7.02C171.12 -7.02 170.75 -6.98 170.11 -6.9C169.47 -6.82 168.35 -6.77 166.73 -6.75L166.73 -10.42C166.73 -10.96 166.77 -11.36 166.86 -11.61C166.95 -11.86 167.13 -12.04 167.39 -12.14C167.65 -12.24 168.05 -12.28 168.59 -12.28L169.18 -12.28C169.94 -12.28 170.61 -12.02 171.19 -11.49C171.78 -10.96 172.15 -10.28 172.31 -9.45C172.31 -9.4 172.37 -9.37 172.48 -9.37C172.58 -9.37 172.64 -9.4 172.64 -9.45C172.64 -9.97 172.63 -10.4 172.61 -10.75L172.58 -12.42C172.58 -12.56 172.49 -12.64 172.31 -12.64L162.81 -12.64C162.77 -12.64 162.76 -12.58 162.76 -12.47C162.76 -12.37 162.77 -12.31 162.81 -12.31C163.37 -12.31 163.78 -12.26 164.05 -12.16C164.32 -12.06 164.51 -11.89 164.61 -11.64C164.7 -11.38 164.75 -10.99 164.75 -10.45L164.75 -2.19C164.75 -1.65 164.7 -1.25 164.61 -0.99C164.51 -0.72 164.33 -0.55 164.07 -0.46C163.8 -0.37 163.39 -0.32 162.81 -0.32C162.77 -0.32 162.76 -0.27 162.76 -0.16C162.76 -0.05 162.77 0 162.81 0L172.8 0C172.96 0 173.07 -0.03 173.12 -0.09C173.18 -0.16 173.21 -0.26 173.21 -0.4C173.21 -1.23 173.27 -2.29 173.39 -3.59C173.39 -3.64 173.34 -3.67 173.25 -3.67Z M192.29 -0.16C192.29 -0.27 192.25 -0.32 192.16 -0.32C191.69 -0.32 191.31 -0.41 191.01 -0.58C190.71 -0.75 190.42 -1.07 190.13 -1.53C189.85 -1.98 189.47 -2.71 189 -3.7L184.68 -13.04C184.64 -13.11 184.59 -13.15 184.52 -13.15C184.45 -13.15 184.39 -13.11 184.36 -13.04L180.41 -3.56C180.02 -2.61 179.68 -1.91 179.4 -1.47C179.12 -1.03 178.82 -0.73 178.48 -0.57C178.15 -0.4 177.71 -0.32 177.15 -0.32C177.06 -0.32 177.01 -0.27 177.01 -0.16C177.01 -0.05 177.06 0 177.15 0C177.47 0 177.9 -0.02 178.44 -0.05C179.05 -0.09 179.59 -0.11 180.04 -0.11C180.47 -0.11 180.94 -0.09 181.44 -0.05C181.91 -0.02 182.28 0 182.55 0C182.64 0 182.68 -0.05 182.68 -0.16C182.68 -0.27 182.64 -0.32 182.55 -0.32C181.88 -0.32 181.39 -0.42 181.08 -0.62C180.76 -0.82 180.6 -1.14 180.6 -1.59C180.6 -1.99 180.76 -2.56 181.06 -3.32L182.17 -6.05L185.76 -6.05L187.52 -2.27C187.75 -1.78 187.87 -1.38 187.87 -1.05C187.87 -0.8 187.76 -0.62 187.56 -0.5C187.35 -0.38 187.02 -0.32 186.57 -0.32C186.5 -0.32 186.46 -0.27 186.46 -0.16C186.46 -0.05 186.5 0 186.57 0C186.84 0 187.23 -0.02 187.73 -0.05C188.27 -0.09 188.68 -0.11 188.95 -0.11C189.27 -0.11 189.81 -0.09 190.57 -0.05C191.29 -0.02 191.82 0 192.16 0C192.25 0 192.29 -0.05 192.29 -0.16ZM182.41 -6.61L183.84 -10.15L185.49 -6.61Z M199.67 -2.29L199.67 -10.42C199.67 -10.96 199.71 -11.36 199.81 -11.62C199.91 -11.88 200.1 -12.06 200.37 -12.16C200.64 -12.26 201.06 -12.31 201.64 -12.31C201.67 -12.31 201.69 -12.37 201.69 -12.47C201.69 -12.58 201.67 -12.64 201.64 -12.64L200.45 -12.61C199.73 -12.57 199.15 -12.55 198.72 -12.55C198.32 -12.55 197.77 -12.57 197.05 -12.61L195.8 -12.64C195.77 -12.64 195.75 -12.58 195.75 -12.47C195.75 -12.37 195.77 -12.31 195.8 -12.31C196.34 -12.31 196.74 -12.26 197.01 -12.16C197.27 -12.06 197.44 -11.89 197.53 -11.64C197.62 -11.38 197.67 -10.99 197.67 -10.45L197.67 -2.19C197.67 -1.65 197.62 -1.25 197.53 -0.99C197.44 -0.72 197.27 -0.55 197.02 -0.46C196.77 -0.37 196.36 -0.32 195.8 -0.32C195.77 -0.32 195.75 -0.27 195.75 -0.16C195.75 -0.05 195.77 0 195.8 0L206.44 0C206.6 0 206.72 -0.03 206.78 -0.09C206.84 -0.16 206.87 -0.26 206.87 -0.4C206.87 -1.86 206.94 -3.02 207.06 -3.89C207.06 -3.92 207.04 -3.95 207 -3.97C206.95 -3.99 206.9 -4 206.85 -4C206.78 -4 206.74 -3.98 206.74 -3.94C206.47 -2.88 206.01 -2.04 205.35 -1.42C204.69 -0.8 203.88 -0.49 202.91 -0.49L201.61 -0.49C201.05 -0.49 200.64 -0.54 200.37 -0.63C200.1 -0.73 199.91 -0.91 199.81 -1.16C199.71 -1.41 199.67 -1.79 199.67 -2.29Z M232.31 -4.16C232.24 -4.16 232.2 -4.14 232.2 -4.1C231.95 -2.99 231.48 -2.13 230.81 -1.53C230.13 -0.92 229.28 -0.62 228.26 -0.62L226.5 -0.62C225.77 -0.62 225.27 -0.74 225.03 -0.97C224.79 -1.21 224.67 -1.65 224.67 -2.29L224.67 -8.48L227.56 -8.48C228.53 -8.48 229.23 -8.29 229.68 -7.92C230.12 -7.56 230.34 -6.98 230.34 -6.21C230.34 -6.17 230.39 -6.16 230.5 -6.16C230.61 -6.16 230.66 -6.17 230.66 -6.21C230.66 -6.53 230.64 -6.98 230.61 -7.56L230.58 -8.77L230.61 -11.04C230.61 -11.08 230.56 -11.1 230.46 -11.1C230.36 -11.1 230.31 -11.08 230.31 -11.04C230.31 -10.38 230.09 -9.89 229.66 -9.57C229.23 -9.26 228.56 -9.1 227.64 -9.1L224.67 -9.1L224.67 -14.58C224.67 -15.23 224.8 -15.66 225.07 -15.89C225.34 -16.11 225.87 -16.23 226.67 -16.23L228.04 -16.23C228.98 -16.23 229.73 -15.97 230.31 -15.46C230.89 -14.94 231.24 -14.19 231.36 -13.2C231.38 -13.15 231.44 -13.13 231.54 -13.14C231.64 -13.14 231.69 -13.18 231.69 -13.23L231.63 -16.63C231.63 -16.79 231.54 -16.87 231.36 -16.87L220.35 -16.87C220.29 -16.87 220.27 -16.82 220.27 -16.71C220.27 -16.6 220.29 -16.55 220.35 -16.55C220.98 -16.55 221.44 -16.5 221.74 -16.4C222.03 -16.3 222.24 -16.13 222.35 -15.88C222.45 -15.62 222.51 -15.23 222.51 -14.69L222.51 -2.19C222.51 -1.65 222.45 -1.25 222.35 -0.99C222.24 -0.72 222.04 -0.55 221.75 -0.46C221.46 -0.37 221 -0.32 220.35 -0.32C220.29 -0.32 220.27 -0.27 220.27 -0.16C220.27 -0.05 220.29 0 220.35 0L231.85 0C232.01 0 232.12 -0.03 232.17 -0.09C232.23 -0.16 232.25 -0.26 232.25 -0.4C232.25 -1.54 232.34 -2.75 232.52 -4.05C232.52 -4.07 232.5 -4.09 232.46 -4.12C232.41 -4.14 232.36 -4.16 232.31 -4.16Z M240.34 -9.13C240.06 -9.52 239.92 -9.98 239.92 -10.5C239.92 -11.1 240.09 -11.57 240.42 -11.93C240.75 -12.29 241.25 -12.47 241.89 -12.47C242.52 -12.47 243.09 -12.3 243.61 -11.95C244.12 -11.6 244.53 -11.18 244.85 -10.69C245.16 -10.21 245.37 -9.76 245.46 -9.37C245.49 -9.31 245.56 -9.3 245.65 -9.31C245.74 -9.33 245.78 -9.38 245.78 -9.45L245.67 -11.85C245.66 -11.98 245.62 -12.07 245.58 -12.14C245.53 -12.2 245.43 -12.27 245.27 -12.34C244.35 -12.75 243.39 -12.96 242.38 -12.96C241.19 -12.96 240.18 -12.66 239.34 -12.07C238.5 -11.47 238.09 -10.66 238.09 -9.64C238.09 -9.04 238.23 -8.53 238.53 -8.09C238.83 -7.65 239.19 -7.28 239.63 -6.98C240.06 -6.68 240.62 -6.34 241.33 -5.97C242.01 -5.59 242.57 -5.25 243 -4.95C243.43 -4.66 243.79 -4.29 244.08 -3.85C244.37 -3.41 244.51 -2.9 244.51 -2.32C244.51 -1.58 244.3 -1.04 243.86 -0.69C243.43 -0.34 242.92 -0.16 242.33 -0.16C241.41 -0.16 240.57 -0.54 239.83 -1.31C239.08 -2.07 238.53 -2.98 238.17 -4.02C238.13 -4.1 238.07 -4.12 237.98 -4.1C237.89 -4.09 237.84 -4.04 237.84 -3.97L238.09 -1.16C238.09 -0.89 238.16 -0.71 238.3 -0.62C238.72 -0.33 239.23 -0.1 239.85 0.07C240.48 0.24 241.13 0.32 241.81 0.32C242.73 0.32 243.54 0.16 244.24 -0.16C244.94 -0.49 245.49 -0.93 245.88 -1.5C246.26 -2.07 246.46 -2.69 246.46 -3.37C246.46 -4 246.3 -4.55 245.98 -5.01C245.67 -5.47 245.28 -5.85 244.82 -6.16C244.36 -6.46 243.77 -6.8 243.03 -7.18C242.31 -7.56 241.75 -7.88 241.35 -8.14C240.96 -8.4 240.62 -8.73 240.34 -9.13Z M252.15 -11.49C252.64 -11.98 253.33 -12.23 254.23 -12.23C254.72 -12.23 255.07 -12.19 255.29 -12.1C255.5 -12.01 255.64 -11.84 255.72 -11.61C255.79 -11.38 255.83 -11.01 255.83 -10.5L255.83 -2.19C255.83 -1.65 255.77 -1.25 255.65 -0.99C255.53 -0.72 255.32 -0.55 255.02 -0.46C254.71 -0.37 254.22 -0.32 253.56 -0.32C253.52 -0.32 253.5 -0.27 253.5 -0.16C253.5 -0.05 253.52 0 253.56 0C254.15 0 254.62 -0.01 254.96 -0.03L256.82 -0.05L258.71 -0.03C259.04 -0.01 259.5 0 260.09 0C260.13 0 260.15 -0.05 260.15 -0.16C260.15 -0.27 260.13 -0.32 260.09 -0.32C259.43 -0.32 258.94 -0.37 258.63 -0.46C258.33 -0.55 258.12 -0.72 258.03 -0.97C257.93 -1.22 257.88 -1.63 257.88 -2.19L257.88 -10.45C257.88 -11.15 257.98 -11.62 258.2 -11.87C258.42 -12.11 258.86 -12.23 259.52 -12.23C260.44 -12.23 261.13 -11.97 261.6 -11.46C262.07 -10.95 262.34 -10.14 262.41 -9.04C262.41 -9.01 262.46 -8.99 262.56 -8.99C262.66 -8.99 262.71 -9.01 262.71 -9.04C262.71 -9.58 262.77 -11.02 262.9 -13.34C262.9 -13.39 262.85 -13.42 262.76 -13.42C262.67 -13.42 262.61 -13.39 262.58 -13.34C262.48 -13.07 262.28 -12.89 261.97 -12.81C261.65 -12.73 261.15 -12.69 260.47 -12.69C259.95 -12.69 259.53 -12.68 259.23 -12.66L256.88 -12.64C255.71 -12.64 254.35 -12.65 252.8 -12.69C252.39 -12.69 252.05 -12.72 251.77 -12.78C251.51 -12.85 251.37 -13 251.37 -13.23C251.37 -13.32 251.32 -13.36 251.22 -13.36C251.12 -13.36 251.07 -13.32 251.07 -13.23C251.07 -12.76 251.04 -12.09 250.96 -11.2C250.89 -10.32 250.82 -9.6 250.75 -9.04C250.75 -9.01 250.8 -8.99 250.9 -8.99C251 -8.99 251.05 -9.01 251.05 -9.04C251.3 -10.18 251.67 -10.99 252.15 -11.49Z M280.42 -0.16C280.42 -0.27 280.38 -0.32 280.29 -0.32C279.82 -0.32 279.44 -0.41 279.14 -0.58C278.84 -0.75 278.55 -1.07 278.26 -1.53C277.97 -1.98 277.6 -2.71 277.13 -3.7L272.81 -13.04C272.77 -13.11 272.72 -13.15 272.65 -13.15C272.57 -13.15 272.52 -13.11 272.48 -13.04L268.54 -3.56C268.15 -2.61 267.81 -1.91 267.53 -1.47C267.25 -1.03 266.94 -0.73 266.61 -0.57C266.28 -0.4 265.83 -0.32 265.27 -0.32C265.19 -0.32 265.14 -0.27 265.14 -0.16C265.14 -0.05 265.19 0 265.27 0C265.6 0 266.03 -0.02 266.57 -0.05C267.18 -0.09 267.71 -0.11 268.16 -0.11C268.6 -0.11 269.06 -0.09 269.57 -0.05C270.04 -0.02 270.4 0 270.67 0C270.76 0 270.81 -0.05 270.81 -0.16C270.81 -0.27 270.76 -0.32 270.67 -0.32C270.01 -0.32 269.52 -0.42 269.2 -0.62C268.89 -0.82 268.73 -1.14 268.73 -1.59C268.73 -1.99 268.88 -2.56 269.19 -3.32L270.3 -6.05L273.89 -6.05L275.64 -2.27C275.88 -1.78 275.99 -1.38 275.99 -1.05C275.99 -0.8 275.89 -0.62 275.68 -0.5C275.48 -0.38 275.15 -0.32 274.7 -0.32C274.63 -0.32 274.59 -0.27 274.59 -0.16C274.59 -0.05 274.63 0 274.7 0C274.97 0 275.36 -0.02 275.86 -0.05C276.4 -0.09 276.8 -0.11 277.07 -0.11C277.4 -0.11 277.94 -0.09 278.69 -0.05C279.41 -0.02 279.94 0 280.29 0C280.38 0 280.42 -0.05 280.42 -0.16ZM270.54 -6.61L271.97 -10.15L273.62 -6.61Z M284.18 -11.49C284.66 -11.98 285.35 -12.23 286.25 -12.23C286.74 -12.23 287.09 -12.19 287.31 -12.1C287.52 -12.01 287.67 -11.84 287.74 -11.61C287.81 -11.38 287.85 -11.01 287.85 -10.5L287.85 -2.19C287.85 -1.65 287.79 -1.25 287.67 -0.99C287.55 -0.72 287.34 -0.55 287.04 -0.46C286.73 -0.37 286.25 -0.32 285.58 -0.32C285.54 -0.32 285.52 -0.27 285.52 -0.16C285.52 -0.05 285.54 0 285.58 0C286.17 0 286.64 -0.01 286.98 -0.03L288.85 -0.05L290.74 -0.03C291.06 -0.01 291.52 0 292.11 0C292.15 0 292.17 -0.05 292.17 -0.16C292.17 -0.27 292.15 -0.32 292.11 -0.32C291.45 -0.32 290.96 -0.37 290.66 -0.46C290.35 -0.55 290.15 -0.72 290.05 -0.97C289.95 -1.22 289.9 -1.63 289.9 -2.19L289.9 -10.45C289.9 -11.15 290.01 -11.62 290.22 -11.87C290.44 -12.11 290.88 -12.23 291.55 -12.23C292.46 -12.23 293.16 -11.97 293.63 -11.46C294.09 -10.95 294.36 -10.14 294.44 -9.04C294.44 -9.01 294.48 -8.99 294.58 -8.99C294.68 -8.99 294.73 -9.01 294.73 -9.04C294.73 -9.58 294.8 -11.02 294.92 -13.34C294.92 -13.39 294.88 -13.42 294.79 -13.42C294.7 -13.42 294.63 -13.39 294.6 -13.34C294.51 -13.07 294.3 -12.89 293.99 -12.81C293.67 -12.73 293.18 -12.69 292.49 -12.69C291.97 -12.69 291.56 -12.68 291.25 -12.66L288.9 -12.64C287.73 -12.64 286.37 -12.65 284.82 -12.69C284.41 -12.69 284.07 -12.72 283.8 -12.78C283.53 -12.85 283.39 -13 283.39 -13.23C283.39 -13.32 283.34 -13.36 283.24 -13.36C283.14 -13.36 283.1 -13.32 283.1 -13.23C283.1 -12.76 283.06 -12.09 282.99 -11.2C282.91 -10.32 282.84 -9.6 282.77 -9.04C282.77 -9.01 282.82 -8.99 282.92 -8.99C283.02 -8.99 283.07 -9.01 283.07 -9.04C283.32 -10.18 283.69 -10.99 284.18 -11.49Z M309.57 -3.67C309.47 -3.67 309.41 -3.64 309.39 -3.59C309.14 -2.67 308.69 -1.92 308.04 -1.32C307.4 -0.73 306.68 -0.43 305.91 -0.43L304.91 -0.43C304.37 -0.43 303.97 -0.48 303.71 -0.58C303.45 -0.68 303.27 -0.86 303.18 -1.12C303.09 -1.38 303.05 -1.77 303.05 -2.29L303.05 -6.13C304.67 -6.09 305.8 -6.03 306.45 -5.94C307.1 -5.85 307.46 -5.8 307.53 -5.8C307.64 -5.8 307.69 -6.01 307.69 -6.43C307.69 -6.82 307.64 -7.02 307.53 -7.02C307.44 -7.02 307.08 -6.98 306.44 -6.9C305.8 -6.82 304.67 -6.77 303.05 -6.75L303.05 -10.42C303.05 -10.96 303.09 -11.36 303.18 -11.61C303.27 -11.86 303.45 -12.04 303.71 -12.14C303.97 -12.24 304.37 -12.28 304.91 -12.28L305.51 -12.28C306.26 -12.28 306.93 -12.02 307.52 -11.49C308.1 -10.96 308.48 -10.28 308.64 -9.45C308.64 -9.4 308.69 -9.37 308.8 -9.37C308.91 -9.37 308.96 -9.4 308.96 -9.45C308.96 -9.97 308.95 -10.4 308.93 -10.75L308.91 -12.42C308.91 -12.56 308.82 -12.64 308.64 -12.64L299.13 -12.64C299.1 -12.64 299.08 -12.58 299.08 -12.47C299.08 -12.37 299.1 -12.31 299.13 -12.31C299.69 -12.31 300.1 -12.26 300.38 -12.16C300.65 -12.06 300.83 -11.89 300.93 -11.64C301.03 -11.38 301.08 -10.99 301.08 -10.45L301.08 -2.19C301.08 -1.65 301.03 -1.25 300.93 -0.99C300.83 -0.72 300.65 -0.55 300.39 -0.46C300.13 -0.37 299.71 -0.32 299.13 -0.32C299.1 -0.32 299.08 -0.27 299.08 -0.16C299.08 -0.05 299.1 0 299.13 0L309.12 0C309.29 0 309.39 -0.03 309.45 -0.09C309.5 -0.16 309.53 -0.26 309.53 -0.4C309.53 -1.23 309.59 -2.29 309.72 -3.59C309.72 -3.64 309.67 -3.67 309.57 -3.67Z"/></g></g></svg>