<svg xmlns="http://www.w3.org/2000/svg" version="1.1" xlink="http://www.w3.org/1999/xlink" xmlns:svgjs="http://svgjs.com/svgjs" width="300" height="68.24552296911497"><defs id="SvgjsDefs1314"/><g id="SvgjsG1315" transform="scale(0.9732675837010122)" opacity="1"><g id="SvgjsG1316" class="text" transform="translate(-2.6899999999999977, 38.6) scale(1)" light-content="false" fill="#1c1c1c"><path d="M19.54 -31.8L19.72 -36.73C19.44 -36.85 19.08 -37.01 18.64 -37.2C18.2 -37.4 17.69 -37.59 17.1 -37.78C16.51 -37.98 15.85 -38.14 15.11 -38.29C14.37 -38.43 13.56 -38.5 12.68 -38.5C11.49 -38.5 10.33 -38.29 9.2 -37.86C8.08 -37.44 7.07 -36.83 6.18 -36.04C5.3 -35.25 4.58 -34.3 4.05 -33.18C3.51 -32.07 3.24 -30.81 3.24 -29.43C3.24 -28.11 3.45 -26.9 3.85 -25.8C4.25 -24.7 4.79 -23.67 5.44 -22.72C6.1 -21.76 6.85 -20.86 7.69 -20.01C8.52 -19.17 9.38 -18.35 10.26 -17.55C11.14 -16.75 11.99 -15.95 12.83 -15.16C13.66 -14.37 14.41 -13.55 15.07 -12.71C15.73 -11.87 16.26 -10.97 16.66 -10.03C17.07 -9.09 17.27 -8.07 17.27 -6.96C17.27 -6.17 17.13 -5.44 16.86 -4.77C16.59 -4.1 16.2 -3.53 15.69 -3.05C15.18 -2.56 14.57 -2.18 13.86 -1.91C13.14 -1.64 12.34 -1.5 11.44 -1.5C10.46 -1.5 9.55 -1.67 8.73 -2.02C7.9 -2.36 7.17 -2.82 6.53 -3.39C5.88 -3.96 5.34 -4.62 4.9 -5.37C4.46 -6.11 4.15 -6.9 3.96 -7.73L3.3 -7.73L2.69 -1.9C3.08 -1.63 3.57 -1.34 4.18 -1.03C4.79 -0.71 5.47 -0.42 6.24 -0.15C7 0.13 7.84 0.36 8.74 0.54C9.65 0.73 10.6 0.82 11.6 0.82C13.39 0.82 14.94 0.53 16.24 -0.04C17.54 -0.61 18.61 -1.35 19.43 -2.27C20.26 -3.18 20.87 -4.21 21.27 -5.37C21.66 -6.52 21.86 -7.66 21.86 -8.81C21.86 -10.34 21.5 -11.76 20.79 -13.09C20.08 -14.42 19.19 -15.69 18.11 -16.9C17.04 -18.11 15.88 -19.28 14.63 -20.41C13.39 -21.53 12.23 -22.66 11.15 -23.78C10.08 -24.91 9.19 -26.05 8.48 -27.2C7.77 -28.35 7.41 -29.56 7.41 -30.82C7.41 -31.61 7.52 -32.33 7.75 -32.99C7.98 -33.64 8.32 -34.2 8.77 -34.67C9.22 -35.15 9.77 -35.52 10.44 -35.78C11.11 -36.04 11.87 -36.18 12.74 -36.18C13.7 -36.18 14.54 -36.03 15.25 -35.73C15.97 -35.43 16.57 -35.06 17.07 -34.61C17.57 -34.16 17.98 -33.68 18.29 -33.17C18.59 -32.66 18.82 -32.2 18.96 -31.8Z M75.13 -32.01L73.34 -36.89C70.44 -37.92 67.29 -38.44 63.9 -38.44C61.72 -38.44 59.69 -38.19 57.82 -37.69C55.95 -37.19 54.23 -36.49 52.68 -35.6C51.12 -34.7 49.74 -33.64 48.53 -32.42C47.31 -31.2 46.29 -29.86 45.47 -28.4C44.64 -26.94 44.01 -25.4 43.58 -23.78C43.15 -22.17 42.94 -20.52 42.94 -18.85C42.94 -15.9 43.48 -13.21 44.56 -10.8C45.64 -8.38 47.15 -6.31 49.09 -4.59C51.04 -2.87 53.36 -1.53 56.05 -0.59C58.75 0.35 61.73 0.82 64.98 0.82C66.6 0.82 68.2 0.68 69.79 0.41C71.38 0.14 72.84 -0.25 74.16 -0.76L76.26 -6.14L75.97 -6.33C75.31 -5.57 74.56 -4.9 73.75 -4.31C72.93 -3.72 72.06 -3.22 71.14 -2.81C70.21 -2.4 69.25 -2.08 68.25 -1.87C67.25 -1.66 66.24 -1.56 65.24 -1.56C62.47 -1.56 60.04 -2.04 57.95 -3.02C55.87 -3.99 54.13 -5.33 52.74 -7.04C51.36 -8.75 50.31 -10.76 49.61 -13.09C48.9 -15.42 48.55 -17.93 48.55 -20.62C48.55 -23.06 48.92 -25.24 49.66 -27.16C50.4 -29.07 51.43 -30.69 52.76 -32.01C54.09 -33.33 55.67 -34.33 57.52 -35.03C59.36 -35.72 61.39 -36.07 63.61 -36.07C65.91 -36.07 68.02 -35.69 69.95 -34.94C71.87 -34.18 73.52 -33.17 74.89 -31.9Z M123.97 0L131.2 0L131.2 -0.11C131.11 -0.21 130.94 -0.46 130.7 -0.84C130.45 -1.23 130.17 -1.71 129.85 -2.27C129.54 -2.83 129.2 -3.47 128.84 -4.18C128.48 -4.89 128.13 -5.62 127.8 -6.38L113.48 -38.6L111.37 -38.6L96.26 -5.09C95.7 -3.81 95.18 -2.74 94.71 -1.89C94.23 -1.03 93.84 -0.44 93.52 -0.11L93.52 0L98.9 0L98.9 -0.11C98.86 -0.16 98.83 -0.26 98.79 -0.41C98.76 -0.56 98.74 -0.75 98.74 -0.98C98.74 -1.77 98.89 -2.55 99.19 -3.32C99.49 -4.1 99.77 -4.81 100.03 -5.46L103.06 -12.42C104.1 -12.45 105.27 -12.47 106.56 -12.47L110.58 -12.47L115.88 -12.47C117.51 -12.47 118.82 -12.45 119.81 -12.42L123 -5.25C123.42 -4.26 123.71 -3.44 123.85 -2.78C124 -2.12 124.08 -1.52 124.08 -0.98C124.08 -0.83 124.07 -0.68 124.05 -0.5C124.03 -0.33 124.01 -0.19 123.97 -0.11ZM106.89 -14.74L104.04 -14.74L111.32 -31.59L118.73 -14.84C117.95 -14.83 117.09 -14.81 116.14 -14.81C115.19 -14.8 114.2 -14.79 113.18 -14.78C112.15 -14.77 111.1 -14.76 110.03 -14.75C108.95 -14.74 107.91 -14.74 106.89 -14.74Z M156.2 -10.31L156.2 -16.24C156.71 -16.15 157.22 -16.09 157.72 -16.06C158.22 -16.02 158.72 -16 159.21 -16C159.63 -16 160.05 -16.02 160.45 -16.04C160.85 -16.07 161.26 -16.1 161.66 -16.14L171 -2.98C171.38 -2.43 171.72 -1.89 172.01 -1.33C172.3 -0.78 172.47 -0.33 172.53 0L180.15 0L180.15 -0.11C179.79 -0.23 179.45 -0.4 179.12 -0.62C178.78 -0.84 178.44 -1.12 178.08 -1.46C177.72 -1.81 177.34 -2.21 176.94 -2.69C176.55 -3.16 176.12 -3.73 175.66 -4.38L166.41 -17.38C167.43 -17.83 168.35 -18.4 169.18 -19.08C170 -19.75 170.71 -20.53 171.3 -21.41C171.89 -22.29 172.35 -23.27 172.67 -24.35C173 -25.43 173.16 -26.6 173.16 -27.87C173.16 -29.49 172.86 -30.93 172.28 -32.21C171.69 -33.48 170.86 -34.56 169.81 -35.44C168.76 -36.32 167.51 -36.98 166.08 -37.44C164.65 -37.9 163.09 -38.13 161.4 -38.13C159.59 -38.13 158.1 -38.04 156.93 -37.88C155.76 -37.71 154.83 -37.63 154.15 -37.63C153.71 -37.63 153.28 -37.63 152.87 -37.64C152.46 -37.65 152.08 -37.67 151.75 -37.71L150.64 -37.81L150.64 -37.71C150.75 -37.34 150.85 -36.87 150.94 -36.32C151.04 -35.77 151.12 -35.09 151.18 -34.28C151.24 -33.47 151.3 -32.51 151.34 -31.39C151.38 -30.27 151.41 -28.97 151.41 -27.47L151.41 -10.31C151.41 -8.8 151.38 -7.49 151.34 -6.38C151.3 -5.27 151.24 -4.32 151.18 -3.51C151.12 -2.7 151.04 -2.02 150.94 -1.48C150.85 -0.93 150.75 -0.47 150.64 -0.11L150.64 0L156.97 0L156.97 -0.11C156.86 -0.47 156.76 -0.93 156.67 -1.48C156.57 -2.02 156.49 -2.7 156.43 -3.51C156.37 -4.32 156.31 -5.28 156.27 -6.39C156.23 -7.51 156.2 -8.82 156.2 -10.31ZM156.2 -18.3L156.2 -35.75C156.57 -35.89 157.12 -36.03 157.84 -36.15C158.56 -36.27 159.53 -36.33 160.74 -36.33C161.93 -36.33 162.98 -36.13 163.88 -35.71C164.77 -35.3 165.52 -34.72 166.11 -33.97C166.69 -33.23 167.14 -32.32 167.44 -31.25C167.74 -30.17 167.89 -28.98 167.89 -27.66C167.89 -26.04 167.67 -24.63 167.25 -23.43C166.83 -22.22 166.24 -21.22 165.47 -20.41C164.71 -19.6 163.78 -19 162.69 -18.6C161.6 -18.21 160.4 -18.01 159.08 -18.01C158.62 -18.01 158.15 -18.03 157.65 -18.07C157.16 -18.12 156.68 -18.19 156.2 -18.3Z M204.31 -2.32L204.31 -27.47C204.31 -28.97 204.33 -30.27 204.37 -31.39C204.42 -32.51 204.47 -33.47 204.53 -34.29C204.59 -35.11 204.67 -35.79 204.77 -36.33C204.87 -36.88 204.97 -37.34 205.07 -37.71L205.07 -37.81L198.75 -37.81L198.75 -37.71C198.85 -37.34 198.95 -36.88 199.05 -36.33C199.15 -35.79 199.23 -35.11 199.3 -34.29C199.37 -33.47 199.42 -32.51 199.46 -31.39C199.49 -30.27 199.51 -28.97 199.51 -27.47L199.51 -10.31C199.51 -8.82 199.49 -7.51 199.46 -6.39C199.42 -5.28 199.37 -4.32 199.3 -3.51C199.23 -2.7 199.15 -2.02 199.05 -1.48C198.95 -0.93 198.85 -0.47 198.75 -0.11L198.75 0L210.14 0C210.31 0 210.6 0 210.99 0.01C211.39 0.02 211.84 0.03 212.35 0.04C212.86 0.05 213.4 0.06 213.97 0.07C214.54 0.07 215.09 0.09 215.61 0.11C216.13 0.12 216.6 0.14 217.02 0.16C217.44 0.18 217.76 0.19 217.97 0.21L218.73 -4.06C217.48 -3.73 216.1 -3.44 214.59 -3.19C213.29 -2.96 211.77 -2.76 210.03 -2.58C208.29 -2.41 206.38 -2.32 204.31 -2.32Z M239.78 -37.81L239.78 -37.81L239.78 -37.71C239.89 -37.34 239.99 -36.88 240.09 -36.33C240.18 -35.79 240.27 -35.11 240.34 -34.29C240.41 -33.47 240.46 -32.51 240.5 -31.39C240.53 -30.27 240.55 -28.97 240.55 -27.47L240.55 -10.31C240.55 -8.82 240.53 -7.51 240.5 -6.39C240.46 -5.28 240.41 -4.32 240.34 -3.51C240.27 -2.7 240.18 -2.02 240.09 -1.48C239.99 -0.93 239.89 -0.47 239.78 -0.11L239.78 0L251.17 0C251.35 0 251.64 0 252.03 0.01C252.43 0.02 252.88 0.03 253.39 0.04C253.9 0.05 254.44 0.06 255.01 0.07C255.58 0.07 256.13 0.09 256.65 0.11C257.16 0.12 257.63 0.14 258.06 0.16C258.48 0.18 258.79 0.19 259 0.21L259.77 -4.06C258.52 -3.73 257.14 -3.44 255.63 -3.19C254.33 -2.96 252.81 -2.76 251.07 -2.58C249.33 -2.41 247.42 -2.32 245.35 -2.32L245.35 -18.85C246.52 -18.85 247.75 -18.8 249.04 -18.71C250.32 -18.61 251.51 -18.5 252.6 -18.38C253.86 -18.24 255.1 -18.09 256.32 -17.93L257.13 -21.75C256.22 -21.61 255.16 -21.49 253.97 -21.38C252.95 -21.3 251.71 -21.21 250.25 -21.12C248.79 -21.03 247.16 -20.98 245.35 -20.96L245.35 -35.36C246 -35.39 246.64 -35.43 247.27 -35.46C247.82 -35.5 248.38 -35.53 248.97 -35.56C249.56 -35.58 250.07 -35.6 250.49 -35.6C251.74 -35.6 252.84 -35.55 253.8 -35.45C254.76 -35.35 255.57 -35.25 256.24 -35.15C257.01 -35.02 257.69 -34.88 258.27 -34.73L259.56 -38.23C259.1 -38.14 258.23 -38.07 256.95 -38.02C255.67 -37.97 254.12 -37.93 252.31 -37.9C250.5 -37.88 248.51 -37.85 246.34 -37.84C244.16 -37.82 241.98 -37.81 239.78 -37.81Z M292.4 -35.49L292.4 -10.31C292.4 -8.82 292.38 -7.51 292.34 -6.39C292.31 -5.28 292.26 -4.32 292.19 -3.51C292.12 -2.7 292.04 -2.02 291.95 -1.48C291.86 -0.93 291.76 -0.47 291.66 -0.11L291.66 0L297.96 0L297.96 -0.11C297.85 -0.47 297.75 -0.93 297.66 -1.48C297.56 -2.02 297.48 -2.7 297.42 -3.51C297.36 -4.32 297.3 -5.28 297.26 -6.39C297.22 -7.51 297.2 -8.82 297.2 -10.31L297.2 -35.49C299.27 -35.49 301.14 -35.4 302.81 -35.21C304.48 -35.03 305.92 -34.83 307.14 -34.62C308.54 -34.36 309.81 -34.07 310.93 -33.75L310.17 -38.02C309.96 -38 309.64 -37.99 309.22 -37.97C308.8 -37.95 308.33 -37.93 307.81 -37.92C307.29 -37.9 306.74 -37.89 306.17 -37.88C305.6 -37.87 305.06 -37.86 304.55 -37.85C304.04 -37.84 303.59 -37.83 303.19 -37.82C302.8 -37.81 302.51 -37.81 302.34 -37.81L287.28 -37.81C287.11 -37.81 286.82 -37.81 286.42 -37.82C286.03 -37.83 285.58 -37.84 285.07 -37.85C284.56 -37.86 284.02 -37.87 283.44 -37.88C282.87 -37.89 282.33 -37.9 281.81 -37.92C281.29 -37.93 280.82 -37.95 280.4 -37.97C279.98 -37.99 279.66 -38 279.45 -38.02L278.69 -33.75C279.79 -34.07 281.05 -34.36 282.46 -34.62C283.67 -34.83 285.11 -35.03 286.78 -35.21C288.45 -35.4 290.32 -35.49 292.4 -35.49Z"/></g><g id="SvgjsG1317" class="text" transform="translate(93.37, 69.92) scale(1)" light-content="false" fill="#ec2d83"><path d="M5.6 -13.58C6.29 -13.58 6.91 -13.41 7.46 -13.06L7.9 -13.9C7.25 -14.3 6.49 -14.5 5.62 -14.5C4.22 -14.5 3.11 -13.85 2.3 -12.55C1.49 -11.25 1.08 -9.46 1.08 -7.18C1.08 -5.65 1.27 -4.34 1.64 -3.23C2.01 -2.12 2.54 -1.27 3.22 -0.68C3.9 -0.1 4.69 0.2 5.6 0.2C6.42 0.2 7.09 0.05 7.6 -0.24L7.6 -1.12C7.06 -0.86 6.43 -0.72 5.68 -0.72C4.96 -0.72 4.33 -0.98 3.78 -1.5C3.23 -2.02 2.81 -2.77 2.52 -3.74C2.23 -4.71 2.08 -5.85 2.08 -7.16C2.08 -9.17 2.4 -10.74 3.03 -11.88C3.67 -13.02 4.52 -13.58 5.6 -13.58Z M21.31 -7.16C21.31 -9.51 20.96 -11.32 20.26 -12.58C19.56 -13.85 18.55 -14.48 17.22 -14.48C15.84 -14.48 14.81 -13.88 14.12 -12.68C13.43 -11.47 13.08 -9.64 13.08 -7.18C13.08 -4.82 13.43 -3 14.13 -1.72C14.82 -0.44 15.85 0.2 17.19 0.2C18.53 0.2 19.55 -0.44 20.25 -1.71C20.96 -2.98 21.31 -4.79 21.31 -7.16ZM14.08 -7.16C14.08 -9.25 14.34 -10.84 14.86 -11.93C15.39 -13.02 16.17 -13.56 17.22 -13.56C18.24 -13.56 19.02 -13.03 19.54 -11.95C20.06 -10.87 20.32 -9.27 20.32 -7.16C20.32 -5.02 20.05 -3.41 19.52 -2.33C18.99 -1.26 18.22 -0.72 17.19 -0.72C16.18 -0.72 15.4 -1.26 14.87 -2.35C14.34 -3.43 14.08 -5.04 14.08 -7.16Z M35.48 0L35.48 -14.28L34.54 -14.28L34.54 -4.3C34.54 -3.58 34.57 -2.69 34.62 -1.62L34.56 -1.62L29.2 -14.28L27.96 -14.28L27.96 0L28.9 0L28.9 -10.24C28.9 -11.06 28.86 -11.92 28.78 -12.8L28.86 -12.8L34.26 0Z M48.08 -3.74C48.08 -4.64 47.86 -5.4 47.42 -6.03C46.97 -6.66 46.26 -7.21 45.3 -7.68C44.37 -8.15 43.74 -8.61 43.43 -9.05C43.11 -9.5 42.95 -10.12 42.95 -10.92C42.95 -11.71 43.17 -12.34 43.61 -12.82C44.05 -13.3 44.62 -13.54 45.32 -13.54C46.07 -13.54 46.8 -13.35 47.53 -12.98L47.9 -13.9C47.64 -14.04 47.28 -14.17 46.83 -14.3C46.38 -14.42 45.87 -14.48 45.32 -14.48C44.71 -14.48 44.15 -14.33 43.63 -14.03C43.12 -13.73 42.72 -13.3 42.43 -12.75C42.14 -12.21 42 -11.58 42 -10.88C42 -10.23 42.09 -9.68 42.26 -9.22C42.44 -8.76 42.71 -8.35 43.07 -8C43.44 -7.65 43.99 -7.29 44.72 -6.92C45.66 -6.46 46.3 -6 46.63 -5.54C46.96 -5.07 47.13 -4.45 47.13 -3.66C47.13 -2.81 46.89 -2.11 46.42 -1.55C45.96 -1 45.36 -0.72 44.63 -0.72C44.14 -0.72 43.64 -0.78 43.14 -0.89C42.64 -1 42.22 -1.15 41.88 -1.34L41.88 -0.3C42.57 0.03 43.49 0.2 44.63 0.2C45.63 0.2 46.46 -0.17 47.11 -0.89C47.76 -1.62 48.08 -2.57 48.08 -3.74Z M61.38 -14.28L60.42 -14.28L60.42 -4.56C60.42 -3.3 60.21 -2.34 59.79 -1.69C59.37 -1.05 58.74 -0.72 57.92 -0.72C57.1 -0.72 56.46 -1.05 56.01 -1.69C55.57 -2.34 55.35 -3.28 55.35 -4.52L55.35 -14.28L54.38 -14.28L54.38 -4.64C54.38 -3.08 54.68 -1.89 55.29 -1.05C55.89 -0.22 56.77 0.2 57.92 0.2C60.23 0.2 61.38 -1.42 61.38 -4.64Z M68.39 0L73.37 0L73.37 -0.92L69.35 -0.92L69.35 -14.28L68.39 -14.28Z M81.3 0L81.3 -13.36L84.15 -13.36L84.15 -14.28L77.51 -14.28L77.51 -13.36L80.35 -13.36L80.35 0Z M89.88 0L90.83 0L90.83 -14.28L89.88 -14.28Z M105.48 0L105.48 -14.28L104.54 -14.28L104.54 -4.3C104.54 -3.58 104.57 -2.69 104.62 -1.62L104.56 -1.62L99.2 -14.28L97.96 -14.28L97.96 0L98.89 0L98.89 -10.24C98.89 -11.06 98.86 -11.92 98.78 -12.8L98.86 -12.8L104.26 0Z M117.3 -7.2L117.3 -6.28L119.46 -6.28L119.46 -1.08C118.81 -0.84 118.03 -0.72 117.12 -0.72C115.85 -0.72 114.87 -1.28 114.18 -2.41C113.49 -3.53 113.14 -5.11 113.14 -7.16C113.14 -9.25 113.48 -10.84 114.17 -11.94C114.86 -13.04 115.87 -13.58 117.2 -13.58C118.03 -13.58 118.9 -13.3 119.8 -12.72L120.26 -13.56C119.3 -14.18 118.28 -14.48 117.2 -14.48C115.59 -14.48 114.34 -13.84 113.46 -12.57C112.57 -11.29 112.12 -9.5 112.12 -7.18C112.12 -4.87 112.55 -3.06 113.41 -1.76C114.27 -0.46 115.48 0.2 117.04 0.2C118.21 0.2 119.34 -0.02 120.42 -0.44L120.42 -7.2Z"/></g></g></svg>