<svg xmlns="http://www.w3.org/2000/svg" version="1.1" xlink="http://www.w3.org/1999/xlink" xmlns:svgjs="http://svgjs.com/svgjs" width="300" height="146.80522295993845"><defs id="SvgjsDefs1098"/><g id="SvgjsG1099" transform="scale(0.6493506493506495)" opacity="1"><g id="SvgjsG1100" class="_2yykHFqr" transform="translate(0, 0) scale(1)" light-content="false" fill="#000000"><path d="M0 0 h 461.9999999999999 v 175.09045610027076 h -461.9999999999999 Z"/></g><g id="SvgjsG1101" class="text" transform="translate(231.94099190745587, 156.50014564066217) scale(1)" light-content="true" fill="#ffffff"><path d="M-209.6 0L-182.03 0L-182.03 -62.14L-156.22 -62.14L-156.22 -88.43L-182.03 -88.43L-182.03 -110.25L-154.79 -110.25L-154.79 -136.86L-209.6 -136.86Z M-147.3 0L-120.85 0L-120.85 -136.86L-147.3 -136.86Z M-101.97 -8.13C-95.97 -1.86 -87.98 1.27 -77.99 1.27C-54.94 1.27 -43.42 -10.2 -43.42 -33.14L-43.42 -58.95L-70.98 -58.95L-70.98 -34.26C-70.98 -27.35 -73.1 -23.9 -77.35 -23.9C-79.48 -23.9 -81.07 -24.72 -82.13 -26.37C-83.2 -28.02 -83.73 -30.64 -83.73 -34.26L-83.73 -102.93C-83.73 -106.22 -83.28 -108.71 -82.37 -110.41C-81.47 -112.11 -79.8 -112.96 -77.35 -112.96C-75.02 -112.96 -73.37 -112.22 -72.41 -110.73C-71.46 -109.25 -70.98 -106.54 -70.98 -102.61L-70.98 -82.37L-43.74 -82.37L-43.74 -105.95C-43.74 -116.36 -46.82 -124.33 -52.98 -129.85C-59.14 -135.38 -67.26 -138.14 -77.35 -138.14C-88.93 -138.14 -97.43 -134.68 -102.85 -127.78C-108.26 -120.88 -110.97 -110.63 -110.97 -97.03L-110.97 -33.94C-110.97 -23 -107.97 -14.39 -101.97 -8.13Z M-22.54 0L4.86 0L4.86 -110.57L21.11 -110.57L21.11 -136.86L-38.8 -136.86L-38.8 -110.57L-22.54 -110.57Z M27.48 0L53.93 0L53.93 -136.86L27.48 -136.86Z M72.41 -8.84C78.15 -2.1 86.54 1.27 97.59 1.27C108.63 1.27 117.03 -2.07 122.76 -8.76C128.5 -15.45 131.37 -24.96 131.37 -37.28L131.37 -102.45C131.37 -114.24 128.5 -123.13 122.76 -129.13C117.03 -135.14 108.63 -138.14 97.59 -138.14C86.54 -138.14 78.15 -135.14 72.41 -129.13C66.68 -123.13 63.81 -114.24 63.81 -102.45L63.81 -37.28C63.81 -25.07 66.68 -15.59 72.41 -8.84ZM102.53 -27.09C101.68 -24.96 100.03 -23.9 97.59 -23.9C95.04 -23.9 93.29 -24.91 92.33 -26.93C91.37 -28.94 90.9 -31.92 90.9 -35.85L90.9 -102.61C90.9 -109.51 93.18 -112.96 97.75 -112.96C100.19 -112.96 101.81 -112.03 102.61 -110.17C103.4 -108.32 103.8 -105.9 103.8 -102.93L103.8 -36.01C103.8 -32.18 103.38 -29.21 102.53 -27.09Z M142.36 0L169.13 0L169.13 -68.51L182.83 0L209.6 0L209.6 -136.86L183.15 -136.86L183.15 -71.38L170.56 -136.86L142.36 -136.86Z"/></g><g id="SvgjsG1102" class="text" transform="translate(232.00728161934947, 225.33383141482403) scale(1)" light-content="false" fill="#000000"><path d="M-209.67 -24.17C-209.67 -22.74 -209.39 -21.39 -208.85 -20.13C-208.3 -18.87 -207.56 -17.78 -206.62 -16.84C-205.68 -15.9 -204.59 -15.16 -203.34 -14.61C-202.09 -14.06 -200.75 -13.79 -199.32 -13.79L-192.41 -13.79C-191.93 -13.79 -191.48 -13.7 -191.06 -13.53C-190.64 -13.35 -190.28 -13.11 -189.97 -12.79C-189.65 -12.48 -189.41 -12.11 -189.23 -11.7C-189.06 -11.28 -188.97 -10.83 -188.97 -10.35C-188.97 -9.87 -189.06 -9.42 -189.23 -9C-189.41 -8.58 -189.65 -8.22 -189.97 -7.91C-190.28 -7.59 -190.64 -7.35 -191.06 -7.17C-191.48 -7 -191.93 -6.91 -192.41 -6.91L-207.74 -6.91L-207.74 0L-192.41 0C-190.98 0 -189.64 -0.27 -188.38 -0.82C-187.12 -1.36 -186.02 -2.11 -185.08 -3.04C-184.14 -3.98 -183.4 -5.08 -182.87 -6.33C-182.33 -7.58 -182.06 -8.92 -182.06 -10.35C-182.06 -11.78 -182.33 -13.12 -182.87 -14.38C-183.4 -15.64 -184.14 -16.74 -185.08 -17.68C-186.02 -18.62 -187.12 -19.36 -188.38 -19.89C-189.64 -20.43 -190.98 -20.7 -192.41 -20.7L-199.32 -20.7C-199.8 -20.7 -200.25 -20.79 -200.67 -20.96C-201.08 -21.14 -201.45 -21.39 -201.76 -21.7C-202.07 -22.01 -202.32 -22.38 -202.49 -22.81C-202.67 -23.23 -202.76 -23.68 -202.76 -24.17C-202.76 -24.65 -202.67 -25.1 -202.49 -25.51C-202.32 -25.93 -202.07 -26.3 -201.76 -26.61C-201.45 -26.92 -201.08 -27.17 -200.67 -27.34C-200.25 -27.52 -199.8 -27.61 -199.32 -27.61L-183.48 -27.61L-183.48 -34.52L-199.32 -34.52C-200.75 -34.52 -202.09 -34.24 -203.34 -33.7C-204.59 -33.15 -205.68 -32.41 -206.62 -31.47C-207.56 -30.53 -208.3 -29.44 -208.85 -28.19C-209.39 -26.93 -209.67 -25.59 -209.67 -24.17Z M-114.23 0L-114.23 -27.61L-103.88 -27.61L-103.88 -34.52L-131.49 -34.52L-131.49 -27.61L-121.12 -27.61L-121.12 0Z M-23.71 -13.79L-23.71 -34.52L-30.62 -34.52L-30.62 -13.79C-30.62 -12.84 -30.8 -11.95 -31.16 -11.12C-31.52 -10.29 -32.01 -9.56 -32.64 -8.93C-33.26 -8.3 -34 -7.81 -34.84 -7.45C-35.68 -7.09 -36.58 -6.91 -37.52 -6.91C-38.47 -6.91 -39.37 -7.09 -40.21 -7.45C-41.05 -7.81 -41.78 -8.3 -42.41 -8.93C-43.04 -9.56 -43.53 -10.29 -43.89 -11.12C-44.25 -11.95 -44.43 -12.84 -44.43 -13.79L-44.43 -34.52L-51.32 -34.52L-51.32 -13.79C-51.32 -11.88 -50.95 -10.09 -50.23 -8.41C-49.51 -6.74 -48.53 -5.28 -47.28 -4.03C-46.04 -2.79 -44.58 -1.81 -42.9 -1.08C-41.23 -0.36 -39.43 0 -37.52 0C-35.61 0 -33.82 -0.36 -32.14 -1.08C-30.47 -1.81 -29 -2.79 -27.75 -4.03C-26.5 -5.28 -25.51 -6.74 -24.79 -8.41C-24.07 -10.09 -23.71 -11.88 -23.71 -13.79Z M59.23 -17.26C59.23 -18.85 59.03 -20.37 58.62 -21.84C58.21 -23.31 57.63 -24.68 56.88 -25.96C56.12 -27.23 55.22 -28.4 54.18 -29.45C53.14 -30.5 51.97 -31.4 50.69 -32.16C49.41 -32.91 48.03 -33.49 46.56 -33.9C45.09 -34.31 43.57 -34.52 41.98 -34.52L31.58 -34.52L31.58 0L41.98 0C43.57 0 45.09 -0.2 46.56 -0.61C48.03 -1.02 49.41 -1.6 50.69 -2.36C51.97 -3.11 53.14 -4.02 54.18 -5.07C55.22 -6.12 56.12 -7.28 56.88 -8.56C57.63 -9.83 58.21 -11.2 58.62 -12.67C59.03 -14.14 59.23 -15.67 59.23 -17.26ZM52.33 -17.26C52.33 -15.83 52.06 -14.49 51.52 -13.23C50.98 -11.97 50.24 -10.87 49.31 -9.93C48.37 -8.99 47.27 -8.25 46.01 -7.71C44.75 -7.18 43.4 -6.91 41.98 -6.91L38.53 -6.91L38.53 -27.61L41.98 -27.61C43.4 -27.61 44.75 -27.33 46.01 -26.79C47.27 -26.24 48.37 -25.5 49.31 -24.56C50.24 -23.62 50.98 -22.53 51.52 -21.28C52.06 -20.03 52.33 -18.69 52.33 -17.26Z M120.01 0L120.01 -34.52L113.1 -34.52L113.1 0Z M209.52 -17.11C209.52 -18.75 209.31 -20.33 208.89 -21.85C208.46 -23.38 207.86 -24.8 207.09 -26.12C206.32 -27.43 205.39 -28.63 204.3 -29.73C203.21 -30.82 202.01 -31.75 200.69 -32.52C199.37 -33.29 197.95 -33.89 196.43 -34.31C194.9 -34.74 193.32 -34.95 191.69 -34.95C190.05 -34.95 188.47 -34.74 186.96 -34.31C185.44 -33.89 184.02 -33.29 182.7 -32.52C181.37 -31.75 180.17 -30.82 179.08 -29.73C177.98 -28.63 177.05 -27.43 176.27 -26.12C175.49 -24.8 174.89 -23.38 174.47 -21.85C174.04 -20.33 173.83 -18.75 173.83 -17.11C173.83 -15.48 174.04 -13.9 174.47 -12.38C174.89 -10.87 175.49 -9.45 176.27 -8.12C177.05 -6.8 177.98 -5.59 179.08 -4.5C180.17 -3.41 181.37 -2.48 182.7 -1.7C184.02 -0.92 185.44 -0.32 186.96 0.11C188.47 0.53 190.05 0.75 191.69 0.75C193.32 0.75 194.9 0.53 196.43 0.11C197.95 -0.32 199.37 -0.92 200.69 -1.7C202.01 -2.48 203.21 -3.41 204.3 -4.5C205.39 -5.59 206.32 -6.8 207.09 -8.12C207.86 -9.45 208.46 -10.87 208.89 -12.38C209.31 -13.9 209.52 -15.48 209.52 -17.11ZM202.66 -17.11C202.66 -15.6 202.37 -14.19 201.8 -12.87C201.22 -11.54 200.44 -10.38 199.45 -9.39C198.46 -8.39 197.3 -7.61 195.96 -7.03C194.62 -6.45 193.2 -6.16 191.69 -6.16C190.16 -6.16 188.74 -6.45 187.4 -7.03C186.07 -7.61 184.91 -8.39 183.91 -9.39C182.92 -10.38 182.13 -11.54 181.55 -12.87C180.98 -14.19 180.69 -15.6 180.69 -17.11C180.69 -18.62 180.98 -20.05 181.55 -21.39C182.13 -22.73 182.92 -23.89 183.91 -24.88C184.91 -25.86 186.07 -26.64 187.4 -27.22C188.74 -27.8 190.16 -28.09 191.69 -28.09C193.2 -28.09 194.62 -27.8 195.96 -27.22C197.3 -26.64 198.46 -25.86 199.45 -24.88C200.44 -23.89 201.22 -22.73 201.8 -21.39C202.37 -20.05 202.66 -18.62 202.66 -17.11Z"/></g></g></svg>