<svg xmlns="http://www.w3.org/2000/svg" version="1.1" xlink="http://www.w3.org/1999/xlink" xmlns:svgjs="http://svgjs.com/svgjs" width="300" height="52.94625246548324"><defs id="SvgjsDefs1243"/><g id="SvgjsG1244" transform="scale(1.232741617357002)" opacity="1"><g id="SvgjsG1245" class="text" transform="translate(1.0400000000000063, 26.14) scale(1)" light-content="false" fill="#171717"><path d="M-0.72 -1.66L-1.04 0L11.56 0C15.9 0 19.29 -1.03 21.73 -3.08C24.16 -5.13 25.81 -8.3 26.68 -12.6C26.99 -14.06 27.14 -15.43 27.14 -16.7C27.14 -19.56 26.29 -21.69 24.59 -23.09C22.88 -24.5 20.26 -25.2 16.7 -25.2L4.07 -25.2L3.78 -23.54L4.86 -23.54C5.94 -23.54 6.48 -23.2 6.48 -22.5L6.48 -22.1L2.59 -3.06C2.38 -2.12 1.64 -1.66 0.4 -1.66ZM11.95 -2.34L9.22 -2.34L13.39 -22.86L16.16 -22.86C17.51 -22.86 18.53 -22.39 19.24 -21.44C19.95 -20.49 20.3 -19.08 20.3 -17.21C20.3 -15.91 20.12 -14.38 19.76 -12.6C19.07 -9.22 18.05 -6.66 16.7 -4.93C15.36 -3.2 13.78 -2.34 11.95 -2.34Z M52.52 -1.66L51.73 -1.66C50.84 -1.66 50.33 -2.08 50.18 -2.92L45.79 -26.14L40.36 -24.37L27.76 -3.02C27.52 -2.57 27.14 -2.23 26.64 -2C26.14 -1.77 25.63 -1.66 25.13 -1.66L24.55 -1.66L24.23 0L33.23 0L33.55 -1.66L32.76 -1.66C32.42 -1.66 32.14 -1.73 31.91 -1.87C31.69 -2.02 31.57 -2.24 31.57 -2.56C31.57 -2.84 31.67 -3.14 31.86 -3.46L33.52 -6.37L42.26 -6.37L42.7 -3.31L42.73 -2.95C42.73 -2.09 42.23 -1.66 41.22 -1.66L40.43 -1.66L40.1 0L52.2 0ZM41.9 -8.75L34.85 -8.75L40.46 -18.61Z M53.24 -1.66L52.92 0L65.66 0L65.99 -1.66L64.87 -1.66C64.32 -1.66 63.92 -1.74 63.67 -1.91C63.41 -2.08 63.29 -2.33 63.29 -2.66C63.29 -2.83 63.3 -2.96 63.32 -3.06L67.18 -22.1C67.39 -23.06 68.12 -23.54 69.37 -23.54L70.49 -23.54L70.78 -25.2L58.03 -25.2L57.71 -23.54L58.79 -23.54C59.87 -23.54 60.41 -23.2 60.41 -22.5C60.41 -22.33 60.4 -22.2 60.37 -22.1L56.52 -3.06C56.3 -2.12 55.56 -1.66 54.29 -1.66Z M73.53 -0.2C74.6 0.17 76 0.36 77.72 0.36C80.8 0.36 83.38 -0.25 85.48 -1.46C87.58 -2.67 88.91 -4.57 89.46 -7.16C89.6 -7.88 89.68 -8.54 89.68 -9.14C89.68 -10.46 89.36 -11.55 88.74 -12.4C88.12 -13.25 87.37 -13.91 86.51 -14.36C85.64 -14.82 84.5 -15.3 83.09 -15.8C81.6 -16.33 80.5 -16.83 79.78 -17.3C79.06 -17.77 78.7 -18.43 78.7 -19.3C78.7 -19.42 78.72 -19.62 78.77 -19.91C78.98 -20.94 79.57 -21.73 80.51 -22.28C81.46 -22.84 82.48 -23.11 83.56 -23.11C85.04 -23.11 86.28 -22.73 87.26 -21.96C88.25 -21.19 88.74 -19.96 88.74 -18.25L88.7 -17.6L90.54 -17.6L92.16 -25.38L90 -25.38L89.71 -23.98C89.71 -23.95 89.71 -23.91 89.69 -23.85C89.68 -23.79 89.66 -23.72 89.64 -23.65C89.62 -23.58 89.57 -23.54 89.5 -23.54L89.21 -23.65C88.27 -24.23 87.32 -24.69 86.35 -25.04C85.37 -25.39 84.07 -25.56 82.44 -25.56C79.49 -25.56 77.06 -24.98 75.15 -23.83C73.24 -22.68 72.06 -20.99 71.6 -18.76C71.51 -18.2 71.46 -17.65 71.46 -17.1C71.46 -15.92 71.75 -14.94 72.32 -14.15C72.9 -13.36 73.6 -12.73 74.41 -12.28C75.23 -11.82 76.31 -11.33 77.65 -10.8C78.73 -10.37 79.58 -9.99 80.21 -9.67C80.83 -9.34 81.35 -8.94 81.76 -8.46C82.16 -7.98 82.37 -7.39 82.37 -6.7C82.37 -6.36 82.34 -6.11 82.3 -5.94C82.01 -4.55 81.35 -3.56 80.33 -2.97C79.31 -2.38 78.08 -2.09 76.64 -2.09C74.99 -2.09 73.6 -2.53 72.47 -3.4C71.34 -4.28 70.84 -5.68 70.96 -7.6L69.08 -7.6L67.5 0.18L69.66 0.18L69.98 -1.48C70.01 -1.55 70.05 -1.61 70.11 -1.67C70.17 -1.73 70.24 -1.76 70.31 -1.76C70.45 -1.76 70.57 -1.73 70.67 -1.66C71.51 -1.06 72.46 -0.57 73.53 -0.2Z M94.97 -1.66L94.64 0L107.42 0L107.75 -1.66L106.63 -1.66C105.55 -1.66 105.01 -1.99 105.01 -2.66C105.01 -2.83 105.02 -2.96 105.05 -3.06L106.49 -10.22L115.67 -22.14C116 -22.6 116.41 -22.94 116.89 -23.18C117.37 -23.42 117.85 -23.54 118.33 -23.54L118.91 -23.54L119.23 -25.2L110.23 -25.2L109.91 -23.54L110.95 -23.54C111.24 -23.54 111.49 -23.47 111.71 -23.33C111.92 -23.18 112.03 -22.98 112.03 -22.72C112.03 -22.48 111.9 -22.15 111.64 -21.74L105.16 -13.18L102.71 -22.03C102.66 -22.22 102.64 -22.37 102.64 -22.46C102.64 -22.8 102.76 -23.06 103.01 -23.26C103.27 -23.45 103.58 -23.54 103.97 -23.54L104.98 -23.54L105.3 -25.2L93.67 -25.2L93.38 -23.54L94.18 -23.54C94.54 -23.54 94.84 -23.44 95.08 -23.24C95.32 -23.03 95.52 -22.7 95.69 -22.25L99.68 -10.3L98.24 -3.06C98.12 -2.58 97.9 -2.23 97.56 -2C97.22 -1.77 96.73 -1.66 96.08 -1.66Z M147.98 -13.19C148.88 -14.36 149.52 -15.86 149.9 -17.71C150.1 -18.62 150.19 -19.42 150.19 -20.09C150.19 -21.77 149.64 -23.04 148.54 -23.9C147.43 -24.77 145.61 -25.2 143.06 -25.2L129.06 -25.2L128.77 -23.54L129.85 -23.54C130.91 -23.54 131.44 -23.2 131.44 -22.5L131.44 -22.1L127.55 -3.06C127.43 -2.58 127.2 -2.23 126.86 -2C126.53 -1.77 126.04 -1.66 125.39 -1.66L124.27 -1.66L123.95 0L136.69 0L137.02 -1.66L135.9 -1.66C134.84 -1.66 134.32 -1.99 134.32 -2.66C134.32 -2.83 134.33 -2.96 134.35 -3.06L135.79 -10.19L138.42 -10.19C138.76 -9.85 138.98 -9.43 139.1 -8.91C139.22 -8.39 139.28 -7.75 139.28 -6.98L139.25 -4.79C139.25 -4.26 139.26 -3.86 139.28 -3.6C139.38 -2.69 139.57 -1.97 139.84 -1.46C140.12 -0.94 140.56 -0.57 141.17 -0.34C141.79 -0.11 142.63 0 143.71 0L148.57 0L148.86 -1.66C148.19 -1.7 147.67 -1.95 147.31 -2.39C146.95 -2.84 146.71 -3.37 146.57 -3.98C146.44 -4.59 146.33 -5.41 146.23 -6.44C146.16 -7.16 146.08 -7.75 145.98 -8.21C145.88 -8.66 145.69 -9.12 145.4 -9.58C145.12 -10.03 144.68 -10.4 144.11 -10.69C145.79 -11.2 147.08 -12.03 147.98 -13.19ZM136.3 -12.56L138.35 -22.82L140.9 -22.82C141.77 -22.82 142.42 -22.6 142.85 -22.14C143.28 -21.68 143.5 -20.98 143.5 -20.02C143.5 -19.44 143.4 -18.67 143.21 -17.71C142.85 -15.94 142.31 -14.63 141.61 -13.81C140.9 -12.98 139.97 -12.56 138.82 -12.56Z M150.34 -1.66L150.01 0L162.76 0L163.08 -1.66L161.96 -1.66C161.41 -1.66 161.01 -1.74 160.76 -1.91C160.51 -2.08 160.38 -2.33 160.38 -2.66C160.38 -2.83 160.39 -2.96 160.42 -3.06L164.27 -22.1C164.48 -23.06 165.22 -23.54 166.46 -23.54L167.58 -23.54L167.87 -25.2L155.12 -25.2L154.8 -23.54L155.88 -23.54C156.96 -23.54 157.5 -23.2 157.5 -22.5C157.5 -22.33 157.49 -22.2 157.46 -22.1L153.61 -3.06C153.4 -2.12 152.65 -1.66 151.38 -1.66Z M164.27 -1.66L163.94 0L186.26 0L188.6 -7.81L186.84 -7.81C186.41 -6.61 185.77 -5.4 184.91 -4.18C184.06 -2.95 183.12 -2.34 182.09 -2.34L176.22 -2.34C175.09 -2.34 174.53 -2.78 174.53 -3.67C174.53 -3.77 174.55 -3.96 174.6 -4.25L178.2 -22.1C178.42 -23.06 179.15 -23.54 180.4 -23.54L181.51 -23.54L181.8 -25.2L169.06 -25.2L168.73 -23.54L169.81 -23.54C170.89 -23.54 171.43 -23.2 171.43 -22.5C171.43 -22.33 171.42 -22.2 171.4 -22.1L167.54 -3.06C167.33 -2.12 166.58 -1.66 165.31 -1.66Z M211.57 -17.96L213.19 -17.96L214.63 -25.2L193.18 -25.2L192.89 -23.54L193.97 -23.54C195.05 -23.54 195.59 -23.2 195.59 -22.5C195.59 -22.33 195.58 -22.2 195.55 -22.1L191.66 -3.06C191.54 -2.58 191.32 -2.23 190.98 -2C190.64 -1.77 190.15 -1.66 189.5 -1.66L188.39 -1.66L188.06 0L209.48 0L211.72 -7.2L210.1 -7.2C209.54 -5.66 208.92 -4.47 208.22 -3.62C207.53 -2.77 206.6 -2.34 205.45 -2.34L198.29 -2.34L200.23 -11.84L204.59 -11.84C205.12 -11.84 205.48 -11.68 205.67 -11.36C205.86 -11.03 205.96 -10.58 205.96 -10.01C205.96 -9.7 205.93 -9.25 205.88 -8.68L207.14 -8.68L208.91 -17.35L207.65 -17.35C207.34 -16.34 207.01 -15.56 206.66 -15.01C206.31 -14.46 205.79 -14.18 205.09 -14.18L200.74 -14.18L202.5 -22.82L208.62 -22.82C210.64 -22.82 211.64 -21.6 211.64 -19.15C211.64 -18.74 211.62 -18.35 211.57 -17.96Z M218.05 -1.66L217.73 0L230.51 0L230.83 -1.66L229.72 -1.66C228.64 -1.66 228.1 -1.99 228.1 -2.66C228.1 -2.83 228.11 -2.96 228.13 -3.06L229.57 -10.22L238.75 -22.14C239.09 -22.6 239.5 -22.94 239.98 -23.18C240.46 -23.42 240.94 -23.54 241.42 -23.54L241.99 -23.54L242.32 -25.2L233.32 -25.2L232.99 -23.54L234.04 -23.54C234.32 -23.54 234.58 -23.47 234.79 -23.33C235.01 -23.18 235.12 -22.98 235.12 -22.72C235.12 -22.48 234.98 -22.15 234.72 -21.74L228.24 -13.18L225.79 -22.03C225.74 -22.22 225.72 -22.37 225.72 -22.46C225.72 -22.8 225.85 -23.06 226.1 -23.26C226.35 -23.45 226.67 -23.54 227.05 -23.54L228.06 -23.54L228.38 -25.2L216.76 -25.2L216.47 -23.54L217.26 -23.54C217.62 -23.54 217.92 -23.44 218.16 -23.24C218.4 -23.03 218.6 -22.7 218.77 -22.25L222.77 -10.3L221.33 -3.06C221.21 -2.58 220.98 -2.23 220.64 -2C220.31 -1.77 219.82 -1.66 219.17 -1.66Z"/></g><rect id="SvgjsRect1246" width="45.16999999999999" height="1" fill="#171717" transform="translate(0, 38.225)" light-content="false"/><g id="SvgjsG1247" class="text" transform="translate(53.859999999999985, 42.87) scale(1)" light-content="false" fill="#171717"><path d="M5.76 -0.53L5.71 -0.61L3.67 -0.57L1.99 -0.59L1.96 -2.56L1.98 -3.99L4.98 -3.98L5.04 -4.51L4.99 -4.58L3.6 -4.56L1.98 -4.58L2 -7.71L3.72 -7.72L5.66 -7.7L5.73 -8.23L5.68 -8.31L1.31 -8.31L1.35 -2.52L1.31 0L5.69 0Z M11.28 0L14.46 -8.31L13.75 -8.31L13.56 -7.57L10.96 -0.77L10.89 -0.77L8.5 -7.59L8.32 -8.31L7.62 -8.31L10.52 0Z M21.63 -0.53L21.58 -0.61L19.54 -0.57L17.86 -0.59L17.84 -2.56L17.85 -3.99L20.85 -3.98L20.92 -4.51L20.87 -4.58L19.47 -4.56L17.85 -4.58L17.88 -7.71L19.59 -7.72L21.53 -7.7L21.61 -8.23L21.55 -8.31L17.19 -8.31L17.23 -2.52L17.19 0L21.57 0Z M30.72 -2.37L30.76 -8.32L30.12 -8.27L30.11 -1.13L30.04 -1.13L25.3 -8.31L24.6 -8.31L24.61 -2.47L24.58 0L25.21 0L25.19 -2.66L25.21 -7.18L25.27 -7.18L30.03 0L30.72 0Z M39.12 -8.23L39.05 -8.31L33.54 -8.31L33.48 -7.79L33.53 -7.71L34.94 -7.75L35.96 -7.75L36 -2.52L35.96 0L36.63 0L36.61 -2.56L36.65 -7.75L37.66 -7.75L39.05 -7.71Z M53.59 0L52.74 -8.31L51.97 -8.31L51.53 -7.14L49.37 -1.9L49.31 -1.9L47.27 -7.03L46.8 -8.31L46.03 -8.31L45.14 0L45.73 0L45.98 -2.57L46.49 -7.14L46.57 -7.14L49.01 -1L49.62 -1L52.16 -7.14L52.23 -7.14L52.74 -2.53L52.96 0Z M62.82 0L59.92 -8.31L59.15 -8.31L55.98 0L56.68 0L56.88 -0.73L57.55 -2.5L59.33 -2.52L61.31 -2.5L61.93 -0.7L62.11 0ZM61.1 -3.09L59.41 -3.08L57.79 -3.09L59.48 -7.53L59.55 -7.53Z M71.89 -2.37L71.93 -8.32L71.29 -8.27L71.28 -1.13L71.21 -1.13L66.47 -8.31L65.77 -8.31L65.78 -2.47L65.75 0L66.38 0L66.37 -2.66L66.38 -7.18L66.44 -7.18L71.2 0L71.89 0Z M81.59 0L78.69 -8.31L77.92 -8.31L74.75 0L75.45 0L75.65 -0.73L76.32 -2.5L78.1 -2.52L80.08 -2.5L80.7 -0.7L80.89 0ZM79.87 -3.09L78.18 -3.08L76.56 -3.09L78.25 -7.53L78.33 -7.53Z M89.96 -7.72C89.18 -8.16 88.38 -8.37 87.57 -8.37C86.3 -8.37 85.33 -8 84.64 -7.25C83.96 -6.5 83.62 -5.43 83.62 -4.03C83.62 -2.71 83.92 -1.7 84.52 -0.99C85.12 -0.28 86.01 0.08 87.18 0.08C87.61 0.07 88.03 0.03 88.43 -0.04C88.84 -0.11 89.33 -0.23 89.91 -0.39L89.88 -2.14L89.9 -3.32L89.25 -3.26L89.26 -2.07L89.25 -0.86C88.79 -0.73 88.41 -0.64 88.12 -0.59C87.83 -0.54 87.52 -0.52 87.19 -0.52C86.24 -0.52 85.52 -0.81 85.03 -1.4C84.55 -1.99 84.31 -2.88 84.31 -4.06C84.31 -5.29 84.58 -6.22 85.12 -6.84C85.66 -7.47 86.45 -7.79 87.49 -7.79C88.18 -7.79 88.92 -7.55 89.7 -7.09L89.8 -7.1Z M97.94 -0.53L97.89 -0.61L95.85 -0.57L94.17 -0.59L94.15 -2.56L94.16 -3.99L97.16 -3.98L97.23 -4.51L97.18 -4.58L95.78 -4.56L94.16 -4.58L94.19 -7.71L95.9 -7.72L97.84 -7.7L97.92 -8.23L97.86 -8.31L93.5 -8.31L93.54 -2.52L93.5 0L97.88 0Z M108.9 0L108.06 -8.31L107.29 -8.31L106.85 -7.14L104.69 -1.9L104.62 -1.9L102.58 -7.03L102.12 -8.31L101.35 -8.31L100.45 0L101.05 0L101.3 -2.57L101.8 -7.14L101.88 -7.14L104.33 -1L104.94 -1L107.47 -7.14L107.55 -7.14L108.06 -2.53L108.28 0Z M116.84 -0.53L116.79 -0.61L114.75 -0.57L113.07 -0.59L113.05 -2.56L113.06 -3.99L116.06 -3.98L116.13 -4.51L116.08 -4.58L114.69 -4.56L113.06 -4.58L113.09 -7.71L114.8 -7.72L116.74 -7.7L116.82 -8.23L116.77 -8.31L112.4 -8.31L112.44 -2.52L112.4 0L116.78 0Z M125.93 -2.37L125.97 -8.32L125.33 -8.27L125.32 -1.13L125.26 -1.13L120.51 -8.31L119.81 -8.31L119.82 -2.47L119.8 0L120.42 0L120.41 -2.66L120.42 -7.18L120.48 -7.18L125.24 0L125.93 0Z M134.33 -8.23L134.26 -8.31L128.75 -8.31L128.69 -7.79L128.74 -7.71L130.16 -7.75L131.17 -7.75L131.21 -2.52L131.17 0L131.85 0L131.82 -2.56L131.86 -7.75L132.87 -7.75L134.26 -7.71Z"/></g><rect id="SvgjsRect1248" width="45.16999999999999" height="1" fill="#171717" transform="translate(198.19, 38.225)" light-content="false"/></g></svg>