<svg xmlns="http://www.w3.org/2000/svg" version="1.1" xlink="http://www.w3.org/1999/xlink" xmlns:svgjs="http://svgjs.com/svgjs" width="300" height="54.13906142167012"><defs id="SvgjsDefs1092"/><g id="SvgjsG1093" transform="scale(0.862663906142167)" opacity="1"><g id="SvgjsG1094" class="text" transform="translate(-0.9399999999999977, 37.36) scale(1)" light-content="false" fill="#262626"><path d="M0.94 -20.06C0.94 -18.19 1.01 -16.44 1.15 -14.81C1.29 -13.19 1.46 -11.58 1.66 -9.98C1.87 -8.39 2.09 -6.78 2.34 -5.16C2.59 -3.53 2.83 -1.81 3.05 0C3.11 0 3.19 0.02 3.28 0.05C3.38 0.08 3.45 0.09 3.52 0.09C3.61 0.09 3.7 0.08 3.8 0.05C3.89 0.05 3.95 0.03 3.98 0C4.08 -0.06 4.23 -0.18 4.45 -0.35C4.67 -0.52 4.88 -0.72 5.09 -0.94C5.29 -1.16 5.48 -1.37 5.67 -1.57C5.86 -1.77 5.98 -1.92 6.05 -2.02L6.05 -2.39C6.05 -3.7 5.93 -5.01 5.7 -6.3C5.46 -7.6 5.22 -8.89 4.97 -10.17C4.72 -11.45 4.48 -12.74 4.27 -14.04C4.05 -15.34 3.94 -16.64 3.94 -17.95C3.94 -18.83 3.95 -19.62 3.96 -20.34C3.98 -21.06 4.02 -21.77 4.1 -22.45C4.18 -23.14 4.29 -23.85 4.43 -24.59C4.57 -25.32 4.77 -26.17 5.02 -27.14C5.67 -26.61 6.32 -25.89 6.96 -24.98C7.6 -24.08 8.26 -23.1 8.93 -22.05C9.6 -21.01 10.29 -19.95 10.99 -18.87C11.7 -17.79 12.42 -16.8 13.17 -15.91C13.92 -15.02 14.7 -14.3 15.49 -13.76C16.29 -13.21 17.11 -12.94 17.95 -12.94C19.17 -12.94 20.14 -13.27 20.86 -13.92C21.58 -14.58 22.17 -15.41 22.64 -16.43C23.11 -17.45 23.48 -18.58 23.77 -19.83C24.05 -21.08 24.36 -22.3 24.7 -23.51C25.05 -24.71 25.48 -25.82 25.99 -26.84C26.51 -27.85 27.22 -28.61 28.13 -29.11C29.28 -27.8 30.25 -26.23 31.03 -24.42C31.81 -22.61 32.46 -20.74 32.98 -18.82C33.49 -16.9 33.92 -15 34.27 -13.12C34.61 -11.25 34.92 -9.55 35.2 -8.02C35.2 -7.86 35.28 -7.68 35.44 -7.48C35.59 -7.27 35.78 -7.06 36 -6.84C36.22 -6.62 36.43 -6.45 36.63 -6.3C36.84 -6.16 37.02 -6.08 37.17 -6.05C37.7 -5.89 38.11 -5.88 38.39 -6.02C38.67 -6.16 38.87 -6.37 39 -6.63C39.13 -6.9 39.2 -7.2 39.23 -7.52C39.27 -7.85 39.28 -8.16 39.28 -8.44C39.28 -9.09 39.17 -10.19 38.95 -11.72C38.73 -13.25 38.41 -14.97 37.97 -16.87C37.53 -18.78 36.99 -20.77 36.35 -22.83C35.71 -24.89 34.94 -26.77 34.03 -28.45C33.13 -30.14 32.1 -31.53 30.96 -32.62C29.82 -33.72 28.55 -34.27 27.14 -34.27C25.95 -34.27 25.02 -33.91 24.35 -33.21C23.68 -32.51 23.14 -31.61 22.73 -30.52C22.33 -29.42 22.01 -28.23 21.77 -26.93C21.54 -25.63 21.28 -24.38 21 -23.18C20.72 -21.98 20.36 -20.91 19.92 -19.99C19.48 -19.07 18.87 -18.44 18.09 -18.09C17.38 -18.69 16.66 -19.48 15.94 -20.46C15.22 -21.45 14.48 -22.49 13.73 -23.6C12.98 -24.71 12.23 -25.83 11.46 -26.95C10.7 -28.08 9.89 -29.1 9.05 -30.02C8.2 -30.95 7.33 -31.69 6.42 -32.25C5.52 -32.81 4.55 -33.09 3.52 -33.09C3.08 -33.09 2.71 -32.93 2.41 -32.6C2.12 -32.27 1.88 -31.89 1.71 -31.45C1.54 -31.02 1.39 -30.57 1.27 -30.12C1.14 -29.66 1.06 -29.33 1.03 -29.11C1.03 -28.77 1.02 -28.17 1.01 -27.33C0.99 -26.48 0.98 -25.59 0.98 -24.63C0.98 -23.68 0.98 -22.77 0.96 -21.91C0.95 -21.05 0.94 -20.44 0.94 -20.06Z M67.05 -6.05C67.89 -4.05 68.6 -2.5 69.18 -1.41C69.76 -0.31 70.27 0.38 70.71 0.66C71.14 0.94 71.54 0.87 71.9 0.45C72.26 0.02 72.64 -0.7 73.05 -1.73C72.36 -3.27 71.91 -4.94 71.69 -6.75C71.47 -8.56 71.29 -10.37 71.15 -12.19C71.01 -14 70.82 -15.76 70.57 -17.46C70.32 -19.16 69.86 -20.71 69.21 -22.1C68.55 -23.49 67.58 -24.63 66.3 -25.52C65.02 -26.41 63.25 -26.97 61 -27.19C59.66 -27.19 58.39 -26.93 57.18 -26.41C55.98 -25.9 54.85 -25.2 53.78 -24.33C52.72 -23.45 51.77 -22.45 50.93 -21.3C50.08 -20.16 49.35 -18.96 48.75 -17.7C48.14 -16.43 47.68 -15.16 47.36 -13.87C47.05 -12.59 46.89 -11.36 46.89 -10.17C46.89 -7.11 47.6 -4.8 49 -3.26C50.41 -1.71 52.57 -0.94 55.47 -0.94C56.82 -0.94 57.95 -1.05 58.87 -1.27C59.79 -1.48 60.66 -1.81 61.47 -2.25C62.28 -2.69 63.12 -3.23 63.98 -3.87C64.84 -4.51 65.86 -5.23 67.05 -6.05ZM50.88 -10.08C50.88 -11.52 51.16 -13.01 51.72 -14.55C52.28 -16.1 53.07 -17.52 54.07 -18.8C55.07 -20.08 56.25 -21.13 57.63 -21.96C59 -22.79 60.5 -23.2 62.13 -23.2C63 -23.2 63.66 -22.84 64.1 -22.1C64.53 -21.37 64.83 -20.5 64.99 -19.5C65.14 -18.5 65.21 -17.49 65.18 -16.48C65.14 -15.46 65.13 -14.67 65.13 -14.11C65.13 -12.73 64.86 -11.48 64.33 -10.36C63.8 -9.23 63.1 -8.27 62.22 -7.48C61.35 -6.68 60.32 -6.05 59.15 -5.6C57.98 -5.15 56.75 -4.92 55.47 -4.92C53.75 -4.92 52.56 -5.34 51.89 -6.16C51.21 -6.99 50.88 -8.3 50.88 -10.08Z M80.8 -19.69C80.8 -19.12 80.97 -18.25 81.3 -17.06C81.62 -15.88 82.07 -14.55 82.63 -13.08C83.19 -11.61 83.85 -10.1 84.6 -8.55C85.35 -7.01 86.14 -5.59 86.97 -4.31C87.8 -3.03 88.63 -1.98 89.48 -1.15C90.32 -0.32 91.13 0.09 91.91 0.09C93.32 0.09 94.02 -0.56 94.02 -1.87C94.02 -2.56 93.96 -3.23 93.83 -3.87C93.71 -4.51 93.57 -5.13 93.41 -5.74C93.26 -6.35 93.12 -6.98 92.99 -7.62C92.87 -8.26 92.8 -8.89 92.8 -9.52C92.8 -10.33 92.84 -11.23 92.92 -12.21C93 -13.2 93.19 -14.13 93.51 -15.02C93.82 -15.91 94.28 -16.66 94.89 -17.27C95.5 -17.88 96.35 -18.19 97.44 -18.19C97.51 -18.19 97.56 -18.18 97.61 -18.16C97.65 -18.15 97.71 -18.14 97.77 -18.14C97.8 -18.11 97.85 -18.09 97.91 -18.09L99.93 -16.08L100.4 -16.08C101.08 -16.08 101.7 -16.22 102.25 -16.5C102.8 -16.78 103.07 -17.27 103.07 -17.95C103.07 -18.77 102.91 -19.48 102.6 -20.11C102.29 -20.73 101.87 -21.27 101.36 -21.73C100.84 -22.18 100.25 -22.52 99.58 -22.76C98.9 -22.99 98.19 -23.11 97.44 -23.11C95.97 -23.11 94.73 -22.73 93.72 -21.98C92.7 -21.23 91.83 -20.3 91.09 -19.2C90.36 -18.09 89.74 -16.89 89.24 -15.61C88.74 -14.33 88.29 -13.14 87.88 -12.05C87.85 -12.08 87.74 -12.36 87.55 -12.89C87.37 -13.42 87.12 -14.05 86.83 -14.79C86.53 -15.52 86.19 -16.33 85.8 -17.2C85.4 -18.08 85.01 -18.88 84.6 -19.62C84.19 -20.35 83.8 -20.96 83.4 -21.45C83.01 -21.93 82.66 -22.17 82.35 -22.17C81.98 -22.17 81.69 -22.09 81.48 -21.94C81.28 -21.78 81.13 -21.59 81.04 -21.35C80.94 -21.12 80.88 -20.85 80.85 -20.55C80.82 -20.26 80.8 -19.97 80.8 -19.69Z M111.53 -17.58C111.53 -16.98 111.53 -16.14 111.55 -15.05C111.56 -13.95 111.61 -12.75 111.69 -11.44C111.77 -10.12 111.92 -8.79 112.13 -7.43C112.35 -6.07 112.64 -4.84 113 -3.73C113.36 -2.62 113.84 -1.7 114.43 -0.98C115.03 -0.27 115.76 0.09 116.63 0.09C118.07 0.09 118.79 -0.61 118.79 -2.02C118.79 -3.64 118.6 -5.39 118.2 -7.27C117.81 -9.14 117.37 -11.04 116.87 -12.96C116.37 -14.88 115.9 -16.8 115.46 -18.7C115.03 -20.61 114.76 -22.41 114.67 -24.09C114.1 -23.91 113.55 -23.66 113 -23.34C112.45 -23.03 112.01 -22.62 111.67 -22.12C111.67 -21.94 111.66 -21.63 111.64 -21.19C111.63 -20.75 111.61 -20.3 111.6 -19.83C111.58 -19.36 111.56 -18.91 111.55 -18.49C111.53 -18.07 111.53 -17.77 111.53 -17.58ZM112.18 -35.16C111.31 -35.16 110.7 -34.84 110.38 -34.22C110.05 -33.59 109.88 -32.86 109.88 -32.02C111.42 -31.48 112.51 -31.3 113.17 -31.48C113.82 -31.65 114.17 -31.96 114.22 -32.41C114.27 -32.87 114.09 -33.37 113.68 -33.94C113.28 -34.5 112.77 -34.91 112.18 -35.16Z M125.42 -9.52C125.42 -8.2 125.57 -6.96 125.86 -5.79C126.16 -4.62 126.62 -3.6 127.25 -2.74C127.87 -1.88 128.7 -1.2 129.73 -0.68C130.76 -0.16 132.03 0.09 133.53 0.09C135.22 0.09 136.9 -0.3 138.59 -1.08C140.28 -1.86 141.79 -2.88 143.14 -4.15C144.48 -5.41 145.57 -6.87 146.42 -8.51C147.26 -10.15 147.68 -11.84 147.68 -13.59C147.68 -14.41 147.54 -15.36 147.24 -16.45C146.94 -17.55 146.51 -18.59 145.95 -19.57C145.39 -20.55 144.69 -21.39 143.86 -22.08C143.04 -22.77 142.09 -23.11 141.03 -23.11C139.12 -23.11 137.24 -22.77 135.38 -22.08C133.52 -21.39 131.85 -20.45 130.36 -19.24C128.88 -18.04 127.68 -16.6 126.78 -14.93C125.87 -13.26 125.42 -11.45 125.42 -9.52ZM129.4 -9.05C129.4 -9.48 129.6 -10.05 129.99 -10.73C130.38 -11.42 130.9 -12.14 131.56 -12.89C132.22 -13.64 132.94 -14.39 133.74 -15.14C134.54 -15.89 135.35 -16.56 136.18 -17.16C137 -17.75 137.8 -18.23 138.57 -18.61C139.33 -18.98 140 -19.17 140.56 -19.17C141.18 -19.17 141.7 -19 142.11 -18.66C142.51 -18.31 142.82 -17.89 143.04 -17.39C143.26 -16.89 143.42 -16.34 143.51 -15.75C143.61 -15.16 143.65 -14.61 143.65 -14.11C143.65 -12.98 143.37 -11.83 142.81 -10.64C142.25 -9.45 141.5 -8.37 140.58 -7.38C139.66 -6.4 138.62 -5.59 137.47 -4.95C136.31 -4.3 135.15 -3.98 134 -3.98C133.12 -3.98 132.39 -4.1 131.79 -4.34C131.2 -4.57 130.72 -4.91 130.36 -5.34C130 -5.78 129.75 -6.3 129.61 -6.91C129.47 -7.52 129.4 -8.23 129.4 -9.05Z M179.69 -16.64C179.69 -14.39 180.07 -12.29 180.82 -10.34C181.57 -8.38 182.61 -6.7 183.96 -5.27C185.3 -3.85 186.92 -2.75 188.81 -1.97C190.7 -1.19 192.77 -0.8 195.02 -0.8C196.61 -0.8 198.34 -1.02 200.2 -1.48C202.06 -1.93 203.79 -2.61 205.4 -3.52C207.01 -4.42 208.35 -5.59 209.41 -7.01C210.47 -8.43 211 -10.11 211 -12.05C211 -13.3 210.82 -14.32 210.44 -15.12C210.07 -15.91 209.53 -16.54 208.82 -16.99C208.12 -17.45 207.28 -17.76 206.32 -17.93C205.35 -18.1 204.3 -18.19 203.18 -18.19C202.55 -18.19 201.75 -18.14 200.78 -18.05C199.82 -17.95 198.89 -17.77 198 -17.48C197.1 -17.2 196.34 -16.79 195.7 -16.24C195.06 -15.7 194.74 -14.98 194.74 -14.11C194.74 -13.2 194.97 -12.63 195.44 -12.37C195.91 -12.12 196.55 -12 197.36 -12C198.02 -12 198.59 -12.11 199.07 -12.33C199.56 -12.55 200.04 -12.8 200.53 -13.08C201.01 -13.36 201.5 -13.61 202 -13.83C202.5 -14.05 203.1 -14.16 203.78 -14.16C204.22 -14.16 204.64 -14.15 205.05 -14.13C205.46 -14.12 205.8 -14.04 206.08 -13.9C206.36 -13.76 206.58 -13.54 206.74 -13.24C206.89 -12.95 206.97 -12.53 206.97 -12C206.97 -10.69 206.53 -9.59 205.66 -8.7C204.78 -7.8 203.71 -7.08 202.45 -6.52C201.18 -5.95 199.86 -5.55 198.49 -5.3C197.11 -5.05 195.96 -4.92 195.02 -4.92C193.39 -4.92 191.89 -5.16 190.5 -5.62C189.1 -6.09 187.91 -6.79 186.91 -7.71C185.91 -8.63 185.13 -9.78 184.57 -11.16C184 -12.53 183.72 -14.09 183.72 -15.84C183.72 -17.19 183.89 -18.57 184.21 -19.99C184.54 -21.41 185.03 -22.8 185.67 -24.16C186.31 -25.52 187.08 -26.81 187.99 -28.03C188.89 -29.25 189.91 -30.33 191.03 -31.27C192.16 -32.2 193.39 -32.94 194.74 -33.47C196.08 -34 197.49 -34.27 198.96 -34.27C199.02 -34.27 199.1 -34.26 199.19 -34.24C199.28 -34.23 199.38 -34.22 199.47 -34.22C199.6 -34.19 199.72 -34.17 199.85 -34.17C200 -34.11 200.38 -33.93 200.97 -33.63L202.89 -32.67L204.82 -31.71C205.41 -31.41 205.78 -31.22 205.94 -31.12C206 -31.09 206.07 -31.08 206.13 -31.08C206.19 -31.05 206.28 -31.03 206.41 -31.03C206.5 -31.03 206.6 -31.05 206.69 -31.08C206.78 -31.08 206.86 -31.09 206.93 -31.12C207.02 -31.19 207.19 -31.35 207.44 -31.62C207.69 -31.88 207.85 -32.06 207.91 -32.16C207.91 -32.22 207.92 -32.28 207.96 -32.34C207.96 -32.41 207.96 -32.46 207.98 -32.51C208 -32.55 208 -32.61 208 -32.67C208 -33.52 207.62 -34.24 206.85 -34.85C206.09 -35.46 205.17 -35.95 204.09 -36.33C203.01 -36.7 201.9 -36.97 200.76 -37.12C199.62 -37.28 198.69 -37.36 197.97 -37.36C196.32 -37.36 194.71 -37.07 193.17 -36.49C191.62 -35.91 190.17 -35.12 188.81 -34.1C187.45 -33.09 186.21 -31.89 185.1 -30.52C184 -29.14 183.04 -27.69 182.25 -26.16C181.45 -24.62 180.82 -23.05 180.37 -21.42C179.92 -19.8 179.69 -18.2 179.69 -16.64Z M218.62 -9.52C218.62 -8.2 218.76 -6.96 219.06 -5.79C219.36 -4.62 219.82 -3.6 220.44 -2.74C221.07 -1.88 221.9 -1.2 222.93 -0.68C223.96 -0.16 225.23 0.09 226.73 0.09C228.41 0.09 230.1 -0.3 231.79 -1.08C233.48 -1.86 234.99 -2.88 236.33 -4.15C237.68 -5.41 238.77 -6.87 239.62 -8.51C240.46 -10.15 240.88 -11.84 240.88 -13.59C240.88 -14.41 240.73 -15.36 240.44 -16.45C240.14 -17.55 239.71 -18.59 239.15 -19.57C238.58 -20.55 237.89 -21.39 237.06 -22.08C236.23 -22.77 235.29 -23.11 234.23 -23.11C232.32 -23.11 230.44 -22.77 228.58 -22.08C226.72 -21.39 225.05 -20.45 223.56 -19.24C222.08 -18.04 220.88 -16.6 219.98 -14.93C219.07 -13.26 218.62 -11.45 218.62 -9.52ZM222.6 -9.05C222.6 -9.48 222.8 -10.05 223.19 -10.73C223.58 -11.42 224.1 -12.14 224.76 -12.89C225.41 -13.64 226.14 -14.39 226.94 -15.14C227.73 -15.89 228.55 -16.56 229.37 -17.16C230.2 -17.75 231 -18.23 231.76 -18.61C232.53 -18.98 233.19 -19.17 233.76 -19.17C234.38 -19.17 234.9 -19 235.3 -18.66C235.71 -18.31 236.02 -17.89 236.24 -17.39C236.46 -16.89 236.62 -16.34 236.71 -15.75C236.8 -15.16 236.85 -14.61 236.85 -14.11C236.85 -12.98 236.57 -11.83 236.01 -10.64C235.44 -9.45 234.7 -8.37 233.78 -7.38C232.86 -6.4 231.82 -5.59 230.66 -4.95C229.51 -4.3 228.35 -3.98 227.19 -3.98C226.32 -3.98 225.58 -4.1 224.99 -4.34C224.4 -4.57 223.92 -4.91 223.56 -5.34C223.2 -5.78 222.95 -6.3 222.81 -6.91C222.67 -7.52 222.6 -8.23 222.6 -9.05ZM233.85 -34.69C233.73 -35.38 233.53 -35.82 233.26 -36.02C233 -36.23 232.68 -36.26 232.3 -36.12C231.93 -35.98 231.53 -35.7 231.11 -35.27C230.69 -34.85 230.26 -34.37 229.82 -33.82C229.38 -33.27 228.96 -32.69 228.55 -32.06C228.15 -31.44 227.79 -30.88 227.48 -30.37C227.44 -30.31 227.37 -30.2 227.26 -30.02C227.15 -29.85 227.05 -29.72 226.96 -29.62C226.62 -29.19 226.45 -28.74 226.47 -28.29C226.48 -27.84 226.59 -27.46 226.8 -27.16C227 -26.87 227.29 -26.69 227.66 -26.62C228.04 -26.56 228.41 -26.75 228.79 -27.19Z M246.48 -19.69C246.48 -19.06 246.58 -18.16 246.78 -16.97C246.99 -15.78 247.27 -14.45 247.65 -12.98C248.02 -11.52 248.49 -10.02 249.03 -8.48C249.58 -6.95 250.19 -5.55 250.86 -4.29C251.53 -3.02 252.27 -1.99 253.09 -1.2C253.9 -0.4 254.74 0 255.62 0C255.71 0 255.86 -0.03 256.06 -0.09C256.27 -0.16 256.47 -0.25 256.67 -0.37C256.88 -0.5 257.07 -0.62 257.26 -0.73C257.45 -0.84 257.57 -0.94 257.63 -1.03L257.73 -2.11C257.79 -2.83 257.89 -3.71 258.03 -4.76C258.17 -5.8 258.35 -6.93 258.57 -8.13C258.79 -9.34 259.02 -10.46 259.27 -11.51C259.53 -12.55 259.81 -13.42 260.12 -14.11C260.43 -14.8 260.76 -15.14 261.1 -15.14C262.04 -15.14 262.77 -14.84 263.28 -14.23C263.8 -13.62 264.2 -12.86 264.5 -11.95C264.8 -11.05 265.05 -10.05 265.25 -8.98C265.45 -7.9 265.7 -6.91 266 -6C266.3 -5.09 266.68 -4.34 267.15 -3.73C267.62 -3.12 268.29 -2.81 269.17 -2.81C269.29 -2.81 269.54 -2.84 269.92 -2.88C270.29 -2.93 270.54 -2.98 270.67 -3.05C270.82 -3.48 271.03 -4.12 271.3 -4.95C271.56 -5.77 271.87 -6.68 272.21 -7.66C272.56 -8.65 272.95 -9.64 273.38 -10.64C273.82 -11.64 274.29 -12.55 274.79 -13.36C275.29 -14.17 275.83 -14.84 276.41 -15.37C276.99 -15.91 277.6 -16.17 278.26 -16.17C278.29 -16.17 278.32 -16.16 278.35 -16.15C278.38 -16.13 278.43 -16.12 278.49 -16.12C278.56 -16.09 278.63 -16.08 278.73 -16.08C278.85 -16.02 279.04 -15.85 279.29 -15.59C279.54 -15.32 279.67 -15.14 279.67 -15.05L282.71 -1.03C282.93 -0.97 283.1 -0.92 283.23 -0.89C283.38 -0.86 283.52 -0.84 283.65 -0.82C283.78 -0.8 283.87 -0.8 283.93 -0.8C284.21 -0.8 284.52 -0.81 284.85 -0.84C285.17 -0.88 285.48 -0.95 285.76 -1.05C286.04 -1.16 286.27 -1.33 286.46 -1.55C286.65 -1.77 286.74 -2.08 286.74 -2.48C286.74 -2.98 286.69 -3.8 286.58 -4.95C286.47 -6.09 286.29 -7.34 286.04 -8.72C285.79 -10.09 285.45 -11.52 285.01 -13.01C284.57 -14.49 284.02 -15.84 283.35 -17.04C282.67 -18.24 281.87 -19.24 280.93 -20.04C279.99 -20.84 278.88 -21.23 277.6 -21.23C277.07 -21.23 276.52 -21.05 275.96 -20.7C275.4 -20.34 274.85 -19.88 274.32 -19.34C273.79 -18.79 273.28 -18.18 272.8 -17.51C272.31 -16.84 271.86 -16.16 271.44 -15.49C271.02 -14.82 270.67 -14.18 270.38 -13.57L269.68 -12.05C268.84 -12.7 268.14 -13.45 267.6 -14.27C267.05 -15.1 266.49 -15.88 265.91 -16.62C265.33 -17.35 264.65 -17.96 263.87 -18.45C263.09 -18.93 262.04 -19.17 260.73 -19.17C259.54 -19.42 258.61 -19.42 257.94 -19.17C257.27 -18.92 256.76 -18.52 256.42 -17.98C256.07 -17.43 255.85 -16.77 255.74 -16.01C255.63 -15.24 255.51 -14.45 255.38 -13.62C255.26 -12.79 255.07 -11.97 254.82 -11.16C254.57 -10.34 254.17 -9.64 253.6 -9.05C253.04 -9.95 252.56 -10.97 252.17 -12.09C251.78 -13.22 251.43 -14.36 251.12 -15.52C250.81 -16.67 250.53 -17.82 250.3 -18.96C250.06 -20.1 249.84 -21.16 249.62 -22.12C249.56 -22.12 249.39 -22.13 249.13 -22.15C248.86 -22.16 248.68 -22.17 248.59 -22.17C247.71 -22.17 247.14 -21.95 246.88 -21.52C246.61 -21.08 246.48 -20.47 246.48 -19.69Z M293.47 -13.03C293.47 -11.06 293.75 -9.27 294.33 -7.66C294.91 -6.05 295.75 -4.68 296.84 -3.54C297.93 -2.4 299.28 -1.51 300.87 -0.87C302.47 -0.23 304.26 0.09 306.26 0.09C306.57 0.09 307.05 0.09 307.69 0.07C308.33 0.05 309.04 0.01 309.8 -0.07C310.57 -0.15 311.36 -0.26 312.17 -0.4C312.98 -0.54 313.72 -0.75 314.4 -1.03C315.07 -1.31 315.62 -1.65 316.06 -2.04C316.5 -2.43 316.72 -2.92 316.72 -3.52C316.72 -3.86 316.64 -4.15 316.48 -4.38C316.33 -4.62 316.12 -4.79 315.87 -4.9C315.62 -5.01 315.36 -5.08 315.08 -5.11C314.79 -5.14 314.51 -5.16 314.23 -5.16C313.51 -5.16 312.83 -5.09 312.19 -4.97C311.55 -4.84 310.92 -4.7 310.29 -4.55C309.67 -4.39 309.04 -4.25 308.42 -4.12C307.79 -4 307.12 -3.94 306.4 -3.94C305.72 -3.94 304.93 -3.98 304.06 -4.05C303.18 -4.13 302.34 -4.31 301.53 -4.59C300.72 -4.87 300.02 -5.29 299.44 -5.84C298.86 -6.38 298.56 -7.11 298.53 -8.02C300.18 -7.7 301.81 -7.84 303.4 -8.41C305 -8.99 306.41 -9.85 307.65 -10.99C308.88 -12.13 309.86 -13.45 310.6 -14.95C311.33 -16.45 311.7 -18 311.7 -19.59C311.7 -20.59 311.55 -21.55 311.25 -22.48C310.96 -23.4 310.51 -24.2 309.92 -24.89C309.33 -25.58 308.59 -26.13 307.72 -26.55C306.84 -26.98 305.82 -27.19 304.67 -27.19C302.64 -27.19 300.91 -26.77 299.49 -25.92C298.07 -25.08 296.91 -23.98 296.02 -22.64C295.13 -21.3 294.48 -19.78 294.08 -18.09C293.67 -16.41 293.47 -14.72 293.47 -13.03ZM298.43 -16.08C298.43 -16.92 298.58 -17.76 298.86 -18.59C299.14 -19.41 299.54 -20.16 300.08 -20.84C300.61 -21.51 301.25 -22.05 302.02 -22.48C302.79 -22.9 303.64 -23.11 304.58 -23.11C305.2 -23.11 305.71 -22.98 306.1 -22.71C306.49 -22.45 306.81 -22.1 307.06 -21.68C307.31 -21.26 307.47 -20.8 307.55 -20.3C307.63 -19.8 307.67 -19.31 307.67 -18.84C307.67 -18 307.48 -17.22 307.11 -16.5C306.73 -15.78 306.22 -15.16 305.58 -14.62C304.94 -14.09 304.23 -13.68 303.45 -13.38C302.67 -13.09 301.87 -12.94 301.06 -12.94C299.9 -12.94 299.18 -13.19 298.88 -13.69C298.58 -14.19 298.43 -14.98 298.43 -16.08Z M340.55 -23.11C339.27 -21.45 337.96 -19.72 336.63 -17.91C335.3 -16.09 334.09 -14.22 332.98 -12.28C331.87 -10.34 330.96 -8.34 330.26 -6.26C329.55 -4.18 329.2 -2.02 329.2 0.23C330.73 0.23 332.27 0.14 333.82 -0.05C335.37 -0.23 336.91 -0.45 338.44 -0.7L343.03 -1.45C344.56 -1.7 346.08 -1.89 347.58 -2.02C348.14 -2.2 348.47 -2.48 348.56 -2.86C348.66 -3.23 348.7 -3.64 348.7 -4.08C348.7 -4.7 348.58 -5.19 348.33 -5.53C348.08 -5.88 347.5 -6.05 346.59 -6.05L334.55 -6.05C334.95 -6.98 335.52 -7.95 336.23 -8.95C336.95 -9.95 337.72 -10.95 338.53 -11.95C339.34 -12.95 340.18 -13.96 341.04 -14.98C341.9 -15.99 342.66 -17.01 343.34 -18.02C344.01 -19.04 344.56 -20.05 345 -21.07C345.44 -22.09 345.66 -23.12 345.66 -24.19C345.66 -24.69 345.6 -25.1 345.49 -25.43C345.38 -25.76 345.21 -26.06 344.98 -26.34C344.74 -26.62 344.43 -26.91 344.04 -27.19C343.65 -27.47 343.17 -27.78 342.61 -28.12C342.17 -28.16 341.54 -28.2 340.71 -28.27C339.88 -28.33 338.95 -28.39 337.9 -28.45C336.85 -28.52 335.74 -28.59 334.57 -28.66C333.4 -28.74 332.28 -28.8 331.22 -28.85C330.16 -28.9 329.2 -28.95 328.36 -28.99C327.52 -29.04 326.91 -29.08 326.53 -29.11L325.31 -29.11C325.03 -29.11 324.77 -29.1 324.54 -29.09C324.3 -29.07 324.11 -29.01 323.95 -28.9C323.8 -28.79 323.68 -28.6 323.6 -28.34C323.52 -28.07 323.48 -27.67 323.48 -27.14C323.48 -26.33 323.91 -25.77 324.77 -25.48C325.63 -25.18 326.7 -25.02 327.98 -25.01C329.27 -24.99 330.65 -25.05 332.13 -25.17C333.62 -25.3 335 -25.37 336.28 -25.38C337.56 -25.4 338.63 -25.29 339.49 -25.05C340.35 -24.82 340.78 -24.34 340.78 -23.62C340.78 -23.56 340.76 -23.48 340.71 -23.37C340.66 -23.26 340.61 -23.17 340.55 -23.11Z"/></g><g id="SvgjsG1095" class="text" transform="translate(100.07, 62.518) scale(1)" light-content="false" fill="#262626"><path d="M4.24 -11.18C3.79 -11.18 3.31 -11.16 2.79 -11.11C2.27 -11.06 1.82 -10.99 1.44 -10.88L1.44 0L2.53 0L2.53 -4.29L4.03 -4.29C4.79 -4.29 5.47 -4.35 6.07 -4.47C6.67 -4.59 7.18 -4.79 7.6 -5.06C8.02 -5.34 8.34 -5.69 8.56 -6.14C8.78 -6.58 8.9 -7.11 8.9 -7.74C8.9 -8.84 8.51 -9.69 7.74 -10.29C6.98 -10.89 5.81 -11.18 4.24 -11.18ZM4.29 -10.24C4.73 -10.24 5.15 -10.2 5.57 -10.13C5.98 -10.05 6.35 -9.92 6.68 -9.74C7.01 -9.55 7.27 -9.3 7.46 -8.98C7.66 -8.66 7.76 -8.25 7.76 -7.76C7.76 -7.25 7.67 -6.83 7.49 -6.5C7.31 -6.17 7.05 -5.91 6.71 -5.72C6.38 -5.53 5.97 -5.41 5.5 -5.34C5.02 -5.27 4.49 -5.23 3.9 -5.23L2.53 -5.23L2.53 -10.13C2.73 -10.15 2.97 -10.17 3.26 -10.2C3.54 -10.23 3.88 -10.24 4.29 -10.24Z M21.22 -11.09L21.22 -6.27L15.2 -6.27L15.2 -11.09L14.11 -11.09L14.11 0L15.2 0L15.2 -5.33L21.22 -5.33L21.22 0L22.3 0L22.3 -11.09Z M38.34 -5.55C38.34 -6.5 38.2 -7.34 37.92 -8.06C37.64 -8.78 37.27 -9.38 36.79 -9.86C36.32 -10.35 35.77 -10.71 35.14 -10.96C34.51 -11.21 33.84 -11.33 33.14 -11.33C32.43 -11.33 31.77 -11.21 31.14 -10.96C30.51 -10.71 29.95 -10.35 29.48 -9.86C29.01 -9.38 28.63 -8.78 28.35 -8.06C28.07 -7.34 27.94 -6.5 27.94 -5.55C27.94 -4.6 28.07 -3.77 28.35 -3.04C28.63 -2.31 29.01 -1.71 29.48 -1.22C29.95 -0.74 30.51 -0.37 31.14 -0.13C31.77 0.12 32.43 0.24 33.14 0.24C33.84 0.24 34.51 0.12 35.14 -0.13C35.77 -0.37 36.32 -0.74 36.79 -1.22C37.27 -1.71 37.64 -2.31 37.92 -3.04C38.2 -3.77 38.34 -4.6 38.34 -5.55ZM37.18 -5.55C37.18 -4.81 37.09 -4.14 36.9 -3.54C36.7 -2.95 36.43 -2.45 36.08 -2.03C35.73 -1.62 35.3 -1.3 34.81 -1.07C34.31 -0.85 33.75 -0.74 33.14 -0.74C32.52 -0.74 31.96 -0.85 31.46 -1.07C30.97 -1.3 30.54 -1.62 30.19 -2.03C29.84 -2.45 29.57 -2.95 29.38 -3.54C29.18 -4.14 29.09 -4.81 29.09 -5.55C29.09 -6.3 29.18 -6.97 29.38 -7.56C29.57 -8.15 29.84 -8.66 30.19 -9.07C30.54 -9.49 30.97 -9.81 31.46 -10.02C31.96 -10.24 32.52 -10.35 33.14 -10.35C33.75 -10.35 34.31 -10.24 34.81 -10.02C35.3 -9.81 35.73 -9.49 36.08 -9.07C36.43 -8.66 36.7 -8.15 36.9 -7.56C37.09 -6.97 37.18 -6.3 37.18 -5.55Z M50.75 -11.09L42.56 -11.09L42.56 -10.14L46.11 -10.14L46.11 0L47.2 0L47.2 -10.14L50.75 -10.14Z M65.38 -5.55C65.38 -6.5 65.24 -7.34 64.96 -8.06C64.68 -8.78 64.31 -9.38 63.83 -9.86C63.36 -10.35 62.81 -10.71 62.18 -10.96C61.55 -11.21 60.88 -11.33 60.18 -11.33C59.47 -11.33 58.81 -11.21 58.18 -10.96C57.55 -10.71 56.99 -10.35 56.52 -9.86C56.05 -9.38 55.67 -8.78 55.39 -8.06C55.11 -7.34 54.98 -6.5 54.98 -5.55C54.98 -4.6 55.11 -3.77 55.39 -3.04C55.67 -2.31 56.05 -1.71 56.52 -1.22C56.99 -0.74 57.55 -0.37 58.18 -0.13C58.81 0.12 59.47 0.24 60.18 0.24C60.88 0.24 61.55 0.12 62.18 -0.13C62.81 -0.37 63.36 -0.74 63.83 -1.22C64.31 -1.71 64.68 -2.31 64.96 -3.04C65.24 -3.77 65.38 -4.6 65.38 -5.55ZM64.22 -5.55C64.22 -4.81 64.13 -4.14 63.94 -3.54C63.74 -2.95 63.47 -2.45 63.12 -2.03C62.77 -1.62 62.34 -1.3 61.85 -1.07C61.35 -0.85 60.79 -0.74 60.18 -0.74C59.56 -0.74 59 -0.85 58.5 -1.07C58.01 -1.3 57.58 -1.62 57.23 -2.03C56.88 -2.45 56.61 -2.95 56.42 -3.54C56.22 -4.14 56.13 -4.81 56.13 -5.55C56.13 -6.3 56.22 -6.97 56.42 -7.56C56.61 -8.15 56.88 -8.66 57.23 -9.07C57.58 -9.49 58.01 -9.81 58.5 -10.02C59 -10.24 59.56 -10.35 60.18 -10.35C60.79 -10.35 61.35 -10.24 61.85 -10.02C62.34 -9.81 62.77 -9.49 63.12 -9.07C63.47 -8.66 63.74 -8.15 63.94 -7.56C64.13 -6.97 64.22 -6.3 64.22 -5.55Z M77.92 -5.25L77.92 -0.99C77.79 -0.94 77.54 -0.88 77.18 -0.82C76.81 -0.77 76.35 -0.74 75.81 -0.74C75.14 -0.74 74.54 -0.85 74.03 -1.07C73.52 -1.3 73.09 -1.62 72.74 -2.04C72.4 -2.46 72.14 -2.97 71.97 -3.56C71.8 -4.15 71.71 -4.82 71.71 -5.55C71.71 -6.34 71.82 -7.03 72.02 -7.63C72.23 -8.23 72.52 -8.73 72.88 -9.14C73.24 -9.54 73.67 -9.85 74.16 -10.05C74.65 -10.25 75.17 -10.35 75.73 -10.35C76.33 -10.35 76.88 -10.29 77.39 -10.15C77.9 -10.02 78.31 -9.85 78.61 -9.63L78.98 -10.56C78.73 -10.72 78.34 -10.89 77.81 -11.06C77.27 -11.24 76.6 -11.33 75.78 -11.33C75.06 -11.33 74.39 -11.2 73.76 -10.94C73.13 -10.69 72.58 -10.32 72.1 -9.83C71.63 -9.35 71.25 -8.74 70.98 -8.02C70.7 -7.3 70.56 -6.48 70.56 -5.55C70.56 -4.62 70.69 -3.8 70.94 -3.08C71.2 -2.36 71.55 -1.76 72.01 -1.27C72.46 -0.79 73 -0.42 73.62 -0.16C74.23 0.1 74.91 0.22 75.63 0.22C76.5 0.22 77.22 0.16 77.82 0.02C78.41 -0.11 78.81 -0.22 79.01 -0.3L79.01 -5.25Z M92.13 -7.76C92.13 -8.89 91.74 -9.74 90.97 -10.32C90.19 -10.9 89.05 -11.18 87.52 -11.18C87.08 -11.18 86.61 -11.16 86.09 -11.11C85.57 -11.06 85.12 -10.99 84.74 -10.88L84.74 0L85.82 0L85.82 -4.48L87.62 -4.48C87.96 -4.48 88.3 -4.5 88.64 -4.53L89.31 -3.63C89.57 -3.29 89.83 -2.92 90.1 -2.52C90.38 -2.12 90.64 -1.71 90.9 -1.28C91.17 -0.85 91.41 -0.43 91.63 0L92.8 0C92.61 -0.43 92.37 -0.87 92.1 -1.34C91.82 -1.81 91.54 -2.26 91.25 -2.7C90.96 -3.13 90.68 -3.53 90.41 -3.89C90.14 -4.25 89.91 -4.54 89.74 -4.75C90.46 -4.97 91.03 -5.31 91.47 -5.79C91.91 -6.27 92.13 -6.93 92.13 -7.76ZM87.65 -10.24C88.07 -10.24 88.49 -10.21 88.89 -10.14C89.29 -10.07 89.64 -9.94 89.95 -9.75C90.26 -9.57 90.51 -9.31 90.7 -8.99C90.9 -8.67 90.99 -8.27 90.99 -7.78C90.99 -7.24 90.9 -6.82 90.7 -6.51C90.51 -6.2 90.25 -5.97 89.92 -5.8C89.59 -5.63 89.2 -5.53 88.75 -5.48C88.3 -5.43 87.83 -5.41 87.33 -5.41L85.82 -5.41L85.82 -10.13C86.03 -10.15 86.28 -10.17 86.58 -10.2C86.89 -10.23 87.24 -10.24 87.65 -10.24Z M105.73 0L106.93 0C106.49 -1.15 106.09 -2.23 105.71 -3.22C105.34 -4.22 104.97 -5.17 104.62 -6.06C104.26 -6.95 103.9 -7.8 103.55 -8.62C103.2 -9.45 102.83 -10.27 102.43 -11.09L101.47 -11.09C101.08 -10.27 100.7 -9.45 100.35 -8.62C100 -7.8 99.65 -6.95 99.29 -6.06C98.93 -5.17 98.57 -4.22 98.19 -3.22C97.82 -2.23 97.42 -1.15 96.99 0L98.13 0C98.32 -0.54 98.51 -1.07 98.69 -1.57C98.87 -2.07 99.05 -2.56 99.23 -3.04L104.62 -3.04C104.79 -2.56 104.97 -2.07 105.15 -1.57C105.33 -1.07 105.53 -0.54 105.73 0ZM101.92 -9.84C102.33 -8.92 102.72 -7.99 103.1 -7.04C103.49 -6.09 103.88 -5.07 104.29 -3.97L99.57 -3.97C99.97 -5.07 100.37 -6.09 100.74 -7.04C101.12 -7.99 101.51 -8.92 101.92 -9.84Z M114.53 -11.18C114.08 -11.18 113.6 -11.16 113.08 -11.11C112.56 -11.06 112.11 -10.99 111.73 -10.88L111.73 0L112.82 0L112.82 -4.29L114.32 -4.29C115.08 -4.29 115.76 -4.35 116.36 -4.47C116.96 -4.59 117.47 -4.79 117.89 -5.06C118.3 -5.34 118.62 -5.69 118.85 -6.14C119.07 -6.58 119.18 -7.11 119.18 -7.74C119.18 -8.84 118.8 -9.69 118.03 -10.29C117.26 -10.89 116.1 -11.18 114.53 -11.18ZM114.58 -10.24C115.01 -10.24 115.44 -10.2 115.86 -10.13C116.27 -10.05 116.64 -9.92 116.97 -9.74C117.29 -9.55 117.55 -9.3 117.75 -8.98C117.95 -8.66 118.05 -8.25 118.05 -7.76C118.05 -7.25 117.96 -6.83 117.78 -6.5C117.59 -6.17 117.34 -5.91 117 -5.72C116.66 -5.53 116.26 -5.41 115.78 -5.34C115.31 -5.27 114.78 -5.23 114.19 -5.23L112.82 -5.23L112.82 -10.13C113.02 -10.15 113.26 -10.17 113.54 -10.2C113.83 -10.23 114.17 -10.24 114.58 -10.24Z M131.5 -11.09L131.5 -6.27L125.49 -6.27L125.49 -11.09L124.4 -11.09L124.4 0L125.49 0L125.49 -5.33L131.5 -5.33L131.5 0L132.59 0L132.59 -11.09Z M141.25 0L142.34 0L142.34 -4.59C143.07 -5.72 143.75 -6.83 144.38 -7.93C145.01 -9.02 145.61 -10.07 146.18 -11.09L144.99 -11.09C144.53 -10.15 144.03 -9.2 143.49 -8.23C142.94 -7.27 142.39 -6.35 141.82 -5.47C141.24 -6.35 140.67 -7.27 140.14 -8.23C139.6 -9.2 139.1 -10.15 138.66 -11.09L137.39 -11.09C137.94 -10.06 138.53 -9.01 139.16 -7.93C139.79 -6.85 140.49 -5.72 141.25 -4.56Z"/></g></g></svg>