<svg xmlns="http://www.w3.org/2000/svg" version="1.1" xlink="http://www.w3.org/1999/xlink" xmlns:svgjs="http://svgjs.com/svgjs" width="300" height="35.8974773870973"><defs id="SvgjsDefs1084"/><g id="SvgjsG1085" transform="scale(0.485429038365075)" opacity="1"><g id="SvgjsG1086" class="ktrIXEOh2R" transform="translate(-4.8953937326030585, -7.920842686540359) scale(0.8979078746520607)" light-content="false" fill="#293c5f"><path fill-rule="evenodd" clip-rule="evenodd" d="M48.341 28.73l4.707 2.266-2.441 8.717h19.998c.873-2.75.651-14.298-2.645-17.281-2.746-2.486-8.272-3.11-11.251-3.291-2.375.049-2.055 3.343-.174 4.184l-3.138 3.836c-7.319-2.379-10.525.212-13.599 2.964-1.055-5.145.368-9.271 10.635-9.763-.125-3.215 1.467-5.962 3.716-6.146 9.349-.08 18.278.012 22.959-.654-1.352 2.935-3.212 5.724-5.579 8.369l4.184 16.388c.678 2.045 3.089 1.272 5.056 1.22 3.726-.203 7.629 2.782 11.778 8.217.704.922.982 1.454 2.001 2.221-2.345-.501-5.487.347-7.146.249-2.377-.14-7.342-4.422-9.818-3.634-4.929.903-10.25 12.063-16.341 25.202-4.028 8.866-9.258 13.748-15.691 14.645h-40.1c7.3-.161 13.099-6.24 16.782-14.195 4.87-10.519 8.442-23.176 12.584-26.851 2.807-2.49 6.855-4.805 10.733-5.854.931-3.488 1.86-7.322 2.79-10.809z"/></g><g id="SvgjsG1087" class="text" transform="translate(104.89999999999998, 39.78) scale(1)" light-content="false" fill="#293c5f"><path d="M27.57 -15.86C26.39 -17.36 24.77 -18.53 22.7 -19.38C24.23 -20.23 25.41 -21.36 26.24 -22.77C27.07 -24.18 27.49 -25.86 27.49 -27.79C27.49 -30.86 26.42 -33.18 24.28 -34.76C22.13 -36.34 19.13 -37.13 15.25 -37.13L5.1 -37.13L5.1 0L16.68 0C20.25 0 23.25 -0.88 25.68 -2.63C28.11 -4.38 29.33 -7.05 29.33 -10.66C29.33 -12.63 28.74 -14.36 27.57 -15.86ZM11.07 -21.32L11.07 -31.42L15.5 -31.42C17.34 -31.42 18.78 -31.01 19.81 -30.19C20.85 -29.38 21.37 -28.15 21.37 -26.52C21.37 -25.02 20.94 -23.78 20.07 -22.8C19.2 -21.81 17.92 -21.32 16.22 -21.32ZM21.32 -6.81C20.06 -5.94 18.43 -5.51 16.42 -5.51L11.07 -5.51L11.07 -15.61L16.01 -15.61C18.05 -15.61 19.76 -15.22 21.14 -14.43C22.52 -13.65 23.21 -12.38 23.21 -10.61C23.21 -8.94 22.58 -7.68 21.32 -6.81Z M44.06 -19.69C43.01 -18.77 42.19 -17.73 41.62 -16.58L41.21 -21.57L36.06 -21.57L36.06 0L41.77 0L41.77 -9.28C41.77 -10.64 42.11 -11.93 42.79 -13.13C43.47 -14.34 44.42 -15.29 45.65 -15.99C46.87 -16.69 48.26 -16.97 49.83 -16.83L50.08 -22.54C49.33 -22.54 48.41 -22.3 47.3 -21.8C46.2 -21.31 45.12 -20.6 44.06 -19.69Z M77.93 -21.57L72.68 -21.57L72.27 -18.67C70.53 -21.25 67.91 -22.54 64.41 -22.54C62.44 -22.54 60.63 -22.06 58.98 -21.09C57.33 -20.12 56.02 -18.74 55.03 -16.96C54.04 -15.17 53.55 -13.11 53.55 -10.76C53.55 -8.35 54.03 -6.29 54.98 -4.59C55.93 -2.89 57.22 -1.61 58.85 -0.74C60.49 0.13 62.34 0.56 64.41 0.56C66.18 0.56 67.73 0.18 69.05 -0.59C70.38 -1.35 71.43 -2.19 72.22 -3.11L72.22 0L77.93 0ZM69.95 -5.33C68.88 -4.53 67.56 -4.13 65.99 -4.13C64.8 -4.13 63.7 -4.44 62.68 -5.05C61.66 -5.66 60.84 -6.49 60.23 -7.55C59.62 -8.6 59.31 -9.78 59.31 -11.07C59.31 -13.04 59.94 -14.66 61.2 -15.94C62.46 -17.21 63.99 -17.85 65.79 -17.85C67.32 -17.85 68.67 -17.44 69.84 -16.63C71.02 -15.81 71.81 -14.74 72.22 -13.41L72.22 -8.72C71.77 -7.26 71.02 -6.13 69.95 -5.33Z M108.83 -39.78L103.17 -39.78L103.17 -19.23C102.32 -20.25 101.2 -21.05 99.81 -21.65C98.41 -22.24 96.93 -22.54 95.37 -22.54C93.19 -22.54 91.25 -22.09 89.53 -21.19C87.81 -20.29 86.47 -18.97 85.5 -17.24C84.53 -15.5 84.05 -13.46 84.05 -11.12C84.05 -8.77 84.51 -6.72 85.43 -4.95C86.34 -3.18 87.61 -1.82 89.22 -0.87C90.84 0.09 92.65 0.56 94.66 0.56C97.92 0.56 100.74 -0.6 103.12 -2.91L103.12 0L108.83 0ZM100.67 -5.51C99.52 -4.69 98.12 -4.28 96.49 -4.28C95.3 -4.28 94.2 -4.59 93.18 -5.2C92.16 -5.81 91.34 -6.65 90.73 -7.7C90.12 -8.76 89.81 -9.93 89.81 -11.22C89.81 -12.51 90.12 -13.68 90.73 -14.71C91.34 -15.75 92.16 -16.57 93.18 -17.16C94.2 -17.76 95.3 -18.05 96.49 -18.05C98.09 -18.05 99.49 -17.63 100.7 -16.78C101.91 -15.93 102.71 -14.84 103.12 -13.51L103.12 -8.93C102.65 -7.46 101.83 -6.32 100.67 -5.51Z M156.72 -37.13L134.18 -37.13L134.18 0L140.15 0L140.15 -15.3L154.58 -15.3L154.58 -20.96L140.15 -20.96L140.15 -31.42L156.72 -31.42Z M160.27 -5.3C159.64 -4.69 159.32 -3.96 159.32 -3.11C159.32 -2.19 159.64 -1.44 160.27 -0.87C160.9 -0.29 161.62 0 162.44 0C163.18 0 163.87 -0.3 164.5 -0.89C165.13 -1.49 165.44 -2.23 165.44 -3.11C165.44 -3.96 165.13 -4.69 164.5 -5.3C163.87 -5.92 163.18 -6.22 162.44 -6.22C161.62 -6.22 160.9 -5.92 160.27 -5.3Z M194.06 -37.13L188.09 -37.13L188.09 0L212.36 0L212.36 -5.71L194.06 -5.71Z M240.36 -21.57L235.16 -21.57L228.74 -7.29L222.31 -21.57L215.88 -21.57L225.88 -0.92L220.83 10.35L226.44 10.35Z M264.15 -20.68C262.81 -21.89 261.14 -22.49 259.13 -22.49C257.19 -22.49 255.48 -22.07 254.01 -21.24C252.53 -20.41 251.4 -19.24 250.61 -17.75L250.21 -21.57L245.06 -21.57L245.06 0L250.77 0L250.77 -9.59C250.77 -11.93 251.34 -13.86 252.48 -15.38C253.61 -16.89 255.07 -17.65 256.84 -17.65C258.03 -17.61 258.92 -17.27 259.51 -16.63C260.11 -15.98 260.44 -15.1 260.51 -13.97L260.51 0L266.22 0L266.22 -16.01C266.19 -17.92 265.5 -19.47 264.15 -20.68Z M293.17 -20.68C291.83 -21.89 290.16 -22.49 288.15 -22.49C286.21 -22.49 284.5 -22.07 283.02 -21.24C281.55 -20.41 280.41 -19.24 279.63 -17.75L279.22 -21.57L274.07 -21.57L274.07 0L279.79 0L279.79 -9.59C279.79 -11.93 280.36 -13.86 281.49 -15.38C282.63 -16.89 284.09 -17.65 285.86 -17.65C287.05 -17.61 287.94 -17.27 288.53 -16.63C289.13 -15.98 289.46 -15.1 289.53 -13.97L289.53 0L295.24 0L295.24 -16.01C295.21 -17.92 294.52 -19.47 293.17 -20.68Z M303.6 6.22L308.09 -4.49L302.99 -4.49C302.75 -3.84 301.87 -1.46 300.34 2.65L299.01 6.22Z M354.02 -0.66C355.94 -1.38 357.44 -2.12 358.53 -2.91L356.03 -8.21C355.05 -7.36 353.83 -6.66 352.38 -6.12C350.94 -5.58 349.32 -5.3 347.51 -5.3C345 -5.3 342.78 -5.87 340.86 -7.01C338.94 -8.15 337.46 -9.73 336.42 -11.76C335.38 -13.78 334.87 -16.07 334.87 -18.62C334.87 -21.03 335.43 -23.25 336.55 -25.27C337.67 -27.29 339.18 -28.89 341.06 -30.06C342.95 -31.24 344.98 -31.82 347.16 -31.82C350.01 -31.82 352.82 -30.86 355.57 -28.92L357.92 -34.48C356.49 -35.36 354.85 -36.09 353 -36.67C351.14 -37.25 349.13 -37.54 346.95 -37.54C343.42 -37.54 340.26 -36.71 337.49 -35.06C334.72 -33.41 332.56 -31.13 331.02 -28.2C329.47 -25.28 328.7 -21.96 328.7 -18.26C328.7 -14.86 329.47 -11.74 331.02 -8.9C332.56 -6.06 334.77 -3.8 337.65 -2.12C340.52 -0.43 343.88 0.41 347.72 0.41C350 0.41 352.1 0.05 354.02 -0.66Z M386.84 -33.97C384.46 -36.07 381.16 -37.13 376.94 -37.13L366.44 -37.13L366.44 0L372.4 0L372.4 -12.9L377.76 -12.9C380.72 -12.9 383.14 -13.49 385.02 -14.66C386.91 -15.84 388.28 -17.35 389.13 -19.2C389.98 -21.05 390.41 -23.05 390.41 -25.19C390.41 -28.93 389.22 -31.86 386.84 -33.97ZM381.71 -19.66C380.71 -18.96 379.39 -18.62 377.76 -18.62L372.4 -18.62L372.4 -31.42L377.91 -31.42C380.29 -31.42 381.98 -30.75 382.98 -29.43C383.99 -28.1 384.49 -26.66 384.49 -25.09C384.49 -24.17 384.28 -23.21 383.85 -22.21C383.43 -21.21 382.71 -20.36 381.71 -19.66Z M413 -8.72L416.42 0L423.25 0L406.83 -38.66L406.47 -38.66L390.05 0L395.91 0L399.48 -8.72ZM411.01 -13.82L401.57 -13.82L406.37 -25.55Z M428.91 6.22L433.4 -4.49L428.3 -4.49C428.06 -3.84 427.18 -1.46 425.65 2.65L424.32 6.22Z M476.7 -33.97C474.32 -36.07 471.02 -37.13 466.8 -37.13L456.3 -37.13L456.3 0L462.26 0L462.26 -12.9L467.62 -12.9C470.58 -12.9 473 -13.49 474.89 -14.66C476.77 -15.84 478.14 -17.35 478.99 -19.2C479.84 -21.05 480.27 -23.05 480.27 -25.19C480.27 -28.93 479.08 -31.86 476.7 -33.97ZM471.57 -19.66C470.57 -18.96 469.25 -18.62 467.62 -18.62L462.26 -18.62L462.26 -31.42L467.77 -31.42C470.15 -31.42 471.84 -30.75 472.85 -29.43C473.85 -28.1 474.35 -26.66 474.35 -25.09C474.35 -24.17 474.14 -23.21 473.71 -22.21C473.29 -21.21 472.57 -20.36 471.57 -19.66Z M502.86 -8.72L506.28 0L513.11 0L496.69 -38.66L496.33 -38.66L479.91 0L485.78 0L489.35 -8.72ZM500.87 -13.82L491.44 -13.82L496.23 -25.55Z"/></g><g id="SvgjsG1088" class="text" transform="translate(108.82, 73.63) scale(1)" light-content="false" fill="#293c5f"><path d="M10.93 -0.23C11.64 -0.49 12.23 -0.77 12.7 -1.08L11.88 -2.82C10.92 -2.09 9.79 -1.72 8.5 -1.72C7.45 -1.72 6.52 -1.96 5.71 -2.43C4.9 -2.9 4.28 -3.56 3.85 -4.4C3.42 -5.24 3.2 -6.18 3.2 -7.22C3.2 -8.23 3.44 -9.16 3.91 -10.01C4.38 -10.86 5.02 -11.53 5.81 -12.02C6.6 -12.51 7.47 -12.76 8.4 -12.76C9.52 -12.76 10.63 -12.39 11.74 -11.64L12.52 -13.46C11.96 -13.81 11.33 -14.09 10.62 -14.3C9.91 -14.51 9.15 -14.62 8.34 -14.62C6.97 -14.62 5.74 -14.3 4.65 -13.65C3.56 -13 2.71 -12.11 2.1 -10.97C1.49 -9.83 1.18 -8.55 1.18 -7.12C1.18 -5.79 1.48 -4.57 2.09 -3.46C2.7 -2.35 3.56 -1.47 4.69 -0.82C5.82 -0.17 7.12 0.16 8.6 0.16C9.44 0.16 10.22 0.03 10.93 -0.23Z M21.4 -2.12C20.75 -1.64 20.07 -1.4 19.38 -1.4C18.86 -1.4 18.4 -1.52 17.99 -1.75C17.58 -1.98 17.26 -2.31 17.02 -2.72L23.58 -5.02C23.31 -6.15 22.82 -7.04 22.09 -7.67C21.36 -8.3 20.46 -8.62 19.38 -8.62C18.54 -8.62 17.77 -8.42 17.06 -8.03C16.35 -7.64 15.8 -7.1 15.39 -6.43C14.98 -5.76 14.78 -5.01 14.78 -4.2C14.78 -3.36 14.97 -2.61 15.34 -1.94C15.71 -1.27 16.24 -0.75 16.93 -0.37C17.62 0.01 18.42 0.2 19.34 0.2C19.82 0.2 20.32 0.12 20.83 -0.05C21.34 -0.22 21.82 -0.45 22.26 -0.74ZM17.36 -6.34C17.85 -6.87 18.48 -7.14 19.24 -7.14C19.79 -7.14 20.24 -7 20.61 -6.72C20.98 -6.44 21.26 -6.07 21.46 -5.62L16.64 -3.84C16.63 -3.95 16.62 -4.1 16.62 -4.3C16.62 -5.13 16.87 -5.81 17.36 -6.34Z M28.61 -7.52C28.22 -7.17 27.91 -6.77 27.7 -6.32L27.56 -8.28L25.9 -8.28L25.9 0L27.76 0L27.76 -3.78C27.76 -4.31 27.9 -4.82 28.17 -5.29C28.44 -5.76 28.82 -6.13 29.31 -6.4C29.8 -6.67 30.34 -6.79 30.94 -6.76L31.02 -8.62C30.69 -8.61 30.3 -8.51 29.86 -8.32C29.42 -8.13 29 -7.87 28.61 -7.52Z M36.1 -11.92L34.22 -11.92L34.22 -8.26L32.7 -8.26L32.7 -6.78L34.22 -6.78L34.22 0L36.1 0L36.1 -6.78L38.36 -6.78L38.36 -8.26L36.1 -8.26Z M42.48 -8.28L40.62 -8.28L40.62 0L42.48 0ZM40.82 -12C40.59 -11.8 40.48 -11.55 40.48 -11.26C40.48 -10.97 40.59 -10.72 40.82 -10.52C41.05 -10.32 41.31 -10.22 41.6 -10.22C41.89 -10.22 42.15 -10.32 42.37 -10.52C42.59 -10.72 42.7 -10.97 42.7 -11.26C42.7 -11.55 42.59 -11.8 42.37 -12C42.15 -12.2 41.89 -12.3 41.6 -12.3C41.31 -12.3 41.05 -12.2 40.82 -12Z M46.4 -6.62L46.4 0L48.26 0L48.26 -6.62L50.64 -6.62L50.64 -8.3L48.26 -8.3L48.26 -11.76C48.26 -12.53 48.39 -13.09 48.65 -13.44C48.91 -13.79 49.29 -13.96 49.8 -13.96C50.16 -13.96 50.44 -13.85 50.64 -13.64L51.44 -15C51.19 -15.16 50.89 -15.28 50.56 -15.37C50.23 -15.46 49.91 -15.5 49.62 -15.5C48.57 -15.5 47.77 -15.18 47.22 -14.54C46.67 -13.9 46.4 -12.98 46.4 -11.78L46.4 -8.3L44.98 -8.3L44.98 -6.62ZM52.44 -12C52.21 -11.8 52.1 -11.55 52.1 -11.26C52.1 -10.97 52.21 -10.72 52.44 -10.52C52.67 -10.32 52.93 -10.22 53.22 -10.22C53.51 -10.22 53.77 -10.32 53.99 -10.52C54.21 -10.72 54.32 -10.97 54.32 -11.26C54.32 -11.55 54.21 -11.8 53.99 -12C53.77 -12.2 53.51 -12.3 53.22 -12.3C52.93 -12.3 52.67 -12.2 52.44 -12ZM54.1 -8.28L52.24 -8.28L52.24 0L54.1 0Z M63.22 -2.12C62.57 -1.64 61.89 -1.4 61.2 -1.4C60.68 -1.4 60.22 -1.52 59.81 -1.75C59.4 -1.98 59.08 -2.31 58.84 -2.72L65.4 -5.02C65.13 -6.15 64.64 -7.04 63.91 -7.67C63.18 -8.3 62.28 -8.62 61.2 -8.62C60.36 -8.62 59.59 -8.42 58.88 -8.03C58.17 -7.64 57.62 -7.1 57.21 -6.43C56.8 -5.76 56.6 -5.01 56.6 -4.2C56.6 -3.36 56.79 -2.61 57.16 -1.94C57.53 -1.27 58.06 -0.75 58.75 -0.37C59.44 0.01 60.24 0.2 61.16 0.2C61.64 0.2 62.14 0.12 62.65 -0.05C63.16 -0.22 63.64 -0.45 64.08 -0.74ZM59.18 -6.34C59.67 -6.87 60.3 -7.14 61.06 -7.14C61.61 -7.14 62.06 -7 62.43 -6.72C62.8 -6.44 63.08 -6.07 63.28 -5.62L58.46 -3.84C58.45 -3.95 58.44 -4.1 58.44 -4.3C58.44 -5.13 58.69 -5.81 59.18 -6.34Z M76.36 -15.5L74.5 -15.5L74.5 -7.16C74.17 -7.61 73.71 -7.97 73.13 -8.23C72.55 -8.49 71.95 -8.62 71.32 -8.62C70.49 -8.62 69.75 -8.45 69.1 -8.1C68.45 -7.75 67.93 -7.25 67.56 -6.59C67.19 -5.93 67 -5.15 67 -4.26C67 -3.38 67.18 -2.6 67.53 -1.93C67.88 -1.26 68.37 -0.73 69 -0.36C69.63 0.01 70.33 0.2 71.1 0.2C71.79 0.2 72.43 0.07 73.01 -0.2C73.59 -0.47 74.08 -0.83 74.48 -1.3L74.48 0L76.36 0ZM73.51 -1.98C73.01 -1.59 72.4 -1.4 71.68 -1.4C71.17 -1.4 70.71 -1.53 70.28 -1.78C69.85 -2.03 69.51 -2.38 69.26 -2.82C69.01 -3.26 68.88 -3.75 68.88 -4.28C68.88 -4.83 69.01 -5.32 69.26 -5.75C69.51 -6.18 69.85 -6.52 70.28 -6.77C70.71 -7.02 71.17 -7.14 71.68 -7.14C72.35 -7.14 72.94 -6.95 73.46 -6.57C73.98 -6.19 74.32 -5.7 74.48 -5.1L74.48 -3.54C74.33 -2.89 74.01 -2.37 73.51 -1.98Z M93.93 -13.28C93.04 -14.07 91.81 -14.46 90.24 -14.46L86.36 -14.46L86.36 0L88.3 0L88.3 -5.32L90.44 -5.32C91.55 -5.32 92.46 -5.54 93.19 -5.98C93.92 -6.42 94.44 -6.99 94.77 -7.7C95.1 -8.41 95.26 -9.17 95.26 -9.98C95.26 -11.39 94.82 -12.49 93.93 -13.28ZM92.13 -7.64C91.7 -7.35 91.13 -7.2 90.44 -7.2L88.3 -7.2L88.3 -12.6L90.54 -12.6C91.5 -12.6 92.21 -12.33 92.66 -11.79C93.11 -11.25 93.34 -10.63 93.34 -9.94C93.34 -9.54 93.25 -9.13 93.06 -8.71C92.87 -8.29 92.56 -7.93 92.13 -7.64Z M105.5 -8.28L103.64 -8.28L103.64 -4.42C103.64 -3.83 103.53 -3.3 103.31 -2.82C103.09 -2.34 102.79 -1.96 102.42 -1.69C102.05 -1.42 101.63 -1.28 101.18 -1.28C100.69 -1.29 100.32 -1.44 100.07 -1.71C99.82 -1.98 99.69 -2.35 99.66 -2.82L99.66 -8.28L97.8 -8.28L97.8 -2.16C97.83 -1.43 98.08 -0.83 98.57 -0.37C99.06 0.09 99.68 0.32 100.44 0.32C101.16 0.32 101.81 0.14 102.4 -0.21C102.99 -0.56 103.42 -1.02 103.7 -1.58L103.82 0L105.5 0Z M116.09 -8.08C115.47 -8.44 114.79 -8.62 114.04 -8.62C113.31 -8.62 112.64 -8.49 112.03 -8.23C111.42 -7.97 110.95 -7.62 110.6 -7.18L110.6 -15.5L108.74 -15.5L108.74 0L110.6 0L110.6 -1.28C110.95 -0.83 111.4 -0.47 111.95 -0.2C112.5 0.07 113.12 0.2 113.8 0.2C114.57 0.2 115.29 0.02 115.95 -0.34C116.61 -0.7 117.13 -1.22 117.52 -1.9C117.91 -2.58 118.1 -3.37 118.1 -4.28C118.1 -5.15 117.92 -5.91 117.56 -6.56C117.2 -7.21 116.71 -7.72 116.09 -8.08ZM115.41 -2.22C114.88 -1.67 114.21 -1.4 113.4 -1.4C112.71 -1.4 112.11 -1.59 111.6 -1.98C111.09 -2.37 110.76 -2.86 110.6 -3.46L110.6 -5.14C110.76 -5.74 111.1 -6.22 111.61 -6.59C112.12 -6.96 112.72 -7.14 113.4 -7.14C113.92 -7.14 114.39 -7.01 114.82 -6.76C115.25 -6.51 115.58 -6.16 115.83 -5.73C116.08 -5.3 116.2 -4.81 116.2 -4.28C116.2 -3.45 115.94 -2.77 115.41 -2.22Z M122.46 -15.5L120.6 -15.5L120.6 0L122.46 0Z M127.56 -8.28L125.7 -8.28L125.7 0L127.56 0ZM125.9 -12C125.67 -11.8 125.56 -11.55 125.56 -11.26C125.56 -10.97 125.67 -10.72 125.9 -10.52C126.13 -10.32 126.39 -10.22 126.68 -10.22C126.97 -10.22 127.23 -10.32 127.45 -10.52C127.67 -10.72 127.78 -10.97 127.78 -11.26C127.78 -11.55 127.67 -11.8 127.45 -12C127.23 -12.2 126.97 -12.3 126.68 -12.3C126.39 -12.3 126.13 -12.2 125.9 -12Z M136.19 -0.06C136.7 -0.23 137.15 -0.47 137.52 -0.78L136.56 -1.94C136.05 -1.54 135.46 -1.34 134.78 -1.34C134.23 -1.34 133.75 -1.47 133.32 -1.72C132.89 -1.97 132.56 -2.31 132.31 -2.74C132.06 -3.17 131.94 -3.64 131.94 -4.16C131.94 -4.68 132.06 -5.15 132.29 -5.58C132.52 -6.01 132.84 -6.34 133.25 -6.59C133.66 -6.84 134.11 -6.96 134.6 -6.96C135 -6.96 135.37 -6.89 135.72 -6.75C136.07 -6.61 136.37 -6.44 136.64 -6.24L137.58 -7.46C136.75 -8.15 135.71 -8.5 134.44 -8.5C133.67 -8.5 132.95 -8.32 132.28 -7.96C131.61 -7.6 131.08 -7.09 130.68 -6.43C130.28 -5.77 130.08 -5.01 130.08 -4.16C130.08 -3.29 130.27 -2.53 130.65 -1.87C131.03 -1.21 131.56 -0.7 132.25 -0.34C132.94 0.02 133.73 0.2 134.62 0.2C135.15 0.2 135.68 0.11 136.19 -0.06Z M154.28 -3.8L155.78 0L158.02 0L151.7 -15.06L151.58 -15.06L145.26 0L147.18 0L148.72 -3.8ZM153.62 -5.48L149.42 -5.48L151.56 -10.76Z M165.45 -0.06C165.96 -0.23 166.41 -0.47 166.78 -0.78L165.82 -1.94C165.31 -1.54 164.72 -1.34 164.04 -1.34C163.49 -1.34 163.01 -1.47 162.58 -1.72C162.15 -1.97 161.82 -2.31 161.57 -2.74C161.32 -3.17 161.2 -3.64 161.2 -4.16C161.2 -4.68 161.32 -5.15 161.55 -5.58C161.78 -6.01 162.1 -6.34 162.51 -6.59C162.92 -6.84 163.37 -6.96 163.86 -6.96C164.26 -6.96 164.63 -6.89 164.98 -6.75C165.33 -6.61 165.63 -6.44 165.9 -6.24L166.84 -7.46C166.01 -8.15 164.97 -8.5 163.7 -8.5C162.93 -8.5 162.21 -8.32 161.54 -7.96C160.87 -7.6 160.34 -7.09 159.94 -6.43C159.54 -5.77 159.34 -5.01 159.34 -4.16C159.34 -3.29 159.53 -2.53 159.91 -1.87C160.29 -1.21 160.82 -0.7 161.51 -0.34C162.2 0.02 162.99 0.2 163.88 0.2C164.41 0.2 164.94 0.11 165.45 -0.06Z M174.57 -0.06C175.08 -0.23 175.53 -0.47 175.9 -0.78L174.94 -1.94C174.43 -1.54 173.84 -1.34 173.16 -1.34C172.61 -1.34 172.13 -1.47 171.7 -1.72C171.27 -1.97 170.94 -2.31 170.69 -2.74C170.44 -3.17 170.32 -3.64 170.32 -4.16C170.32 -4.68 170.44 -5.15 170.67 -5.58C170.9 -6.01 171.22 -6.34 171.63 -6.59C172.04 -6.84 172.49 -6.96 172.98 -6.96C173.38 -6.96 173.75 -6.89 174.1 -6.75C174.45 -6.61 174.75 -6.44 175.02 -6.24L175.96 -7.46C175.13 -8.15 174.09 -8.5 172.82 -8.5C172.05 -8.5 171.33 -8.32 170.66 -7.96C169.99 -7.6 169.46 -7.09 169.06 -6.43C168.66 -5.77 168.46 -5.01 168.46 -4.16C168.46 -3.29 168.65 -2.53 169.03 -1.87C169.41 -1.21 169.94 -0.7 170.63 -0.34C171.32 0.02 172.11 0.2 173 0.2C173.53 0.2 174.06 0.11 174.57 -0.06Z M178.17 -6.45C177.78 -5.78 177.58 -5.03 177.58 -4.22C177.58 -3.34 177.78 -2.57 178.17 -1.9C178.56 -1.23 179.11 -0.72 179.8 -0.35C180.49 0.02 181.27 0.2 182.14 0.2C183.03 0.2 183.83 0.01 184.52 -0.38C185.21 -0.77 185.75 -1.3 186.13 -1.97C186.51 -2.64 186.7 -3.39 186.7 -4.22C186.7 -5.05 186.51 -5.79 186.13 -6.46C185.75 -7.13 185.22 -7.65 184.53 -8.04C183.84 -8.43 183.06 -8.62 182.18 -8.62C181.3 -8.62 180.51 -8.43 179.81 -8.04C179.11 -7.65 178.56 -7.12 178.17 -6.45ZM179.81 -2.76C179.58 -3.2 179.46 -3.68 179.46 -4.2C179.46 -4.72 179.58 -5.2 179.81 -5.64C180.04 -6.08 180.36 -6.43 180.76 -6.69C181.16 -6.95 181.61 -7.08 182.12 -7.08C182.89 -7.08 183.53 -6.8 184.04 -6.25C184.55 -5.7 184.8 -5.01 184.8 -4.2C184.8 -3.39 184.55 -2.71 184.04 -2.16C183.53 -1.61 182.89 -1.34 182.12 -1.34C181.63 -1.34 181.18 -1.47 180.77 -1.72C180.36 -1.97 180.04 -2.32 179.81 -2.76Z M196.9 -8.28L195.04 -8.28L195.04 -4.42C195.04 -3.83 194.93 -3.3 194.71 -2.82C194.49 -2.34 194.19 -1.96 193.82 -1.69C193.45 -1.42 193.03 -1.28 192.58 -1.28C192.09 -1.29 191.72 -1.44 191.47 -1.71C191.22 -1.98 191.09 -2.35 191.06 -2.82L191.06 -8.28L189.2 -8.28L189.2 -2.16C189.23 -1.43 189.48 -0.83 189.97 -0.37C190.46 0.09 191.08 0.32 191.84 0.32C192.56 0.32 193.21 0.14 193.8 -0.21C194.39 -0.56 194.82 -1.02 195.1 -1.58L195.22 0L196.9 0Z M207.2 -7.91C206.69 -8.37 206.05 -8.6 205.28 -8.6C204.52 -8.6 203.85 -8.43 203.26 -8.09C202.67 -7.75 202.23 -7.28 201.94 -6.68L201.82 -8.28L200.14 -8.28L200.14 0L202 0L202 -3.88C202 -4.79 202.24 -5.53 202.72 -6.12C203.2 -6.71 203.81 -7 204.54 -7C205.05 -6.99 205.43 -6.85 205.68 -6.58C205.93 -6.31 206.07 -5.95 206.1 -5.48L206.1 0L207.98 0L207.98 -6.12C207.97 -6.85 207.71 -7.45 207.2 -7.91Z M213.88 -11.92L212 -11.92L212 -8.26L210.48 -8.26L210.48 -6.78L212 -6.78L212 0L213.88 0L213.88 -6.78L216.14 -6.78L216.14 -8.26L213.88 -8.26Z M226.9 -8.28L225.18 -8.28L225.04 -6.96C224.72 -7.45 224.3 -7.85 223.78 -8.16C223.26 -8.47 222.65 -8.62 221.94 -8.62C221.15 -8.62 220.44 -8.44 219.79 -8.07C219.14 -7.7 218.63 -7.18 218.25 -6.51C217.87 -5.84 217.68 -5.05 217.68 -4.14C217.68 -3.23 217.86 -2.45 218.23 -1.8C218.6 -1.15 219.1 -0.65 219.73 -0.31C220.36 0.03 221.07 0.2 221.86 0.2C222.57 0.2 223.2 0.04 223.76 -0.29C224.32 -0.62 224.75 -0.97 225.04 -1.36L225.04 0L226.9 0ZM224.11 -1.91C223.62 -1.53 223.04 -1.34 222.36 -1.34C221.85 -1.34 221.39 -1.47 220.96 -1.73C220.53 -1.99 220.19 -2.34 219.94 -2.78C219.69 -3.22 219.56 -3.71 219.56 -4.24C219.56 -4.79 219.68 -5.28 219.93 -5.71C220.18 -6.14 220.51 -6.48 220.93 -6.72C221.35 -6.96 221.81 -7.08 222.3 -7.08C222.95 -7.08 223.53 -6.9 224.04 -6.53C224.55 -6.16 224.88 -5.69 225.04 -5.1L225.04 -3.46C224.91 -2.81 224.6 -2.29 224.11 -1.91Z M237.2 -7.91C236.69 -8.37 236.05 -8.6 235.28 -8.6C234.52 -8.6 233.85 -8.43 233.26 -8.09C232.67 -7.75 232.23 -7.28 231.94 -6.68L231.82 -8.28L230.14 -8.28L230.14 0L232 0L232 -3.88C232 -4.79 232.24 -5.53 232.72 -6.12C233.2 -6.71 233.81 -7 234.54 -7C235.05 -6.99 235.43 -6.85 235.68 -6.58C235.93 -6.31 236.07 -5.95 236.1 -5.48L236.1 0L237.98 0L237.98 -6.12C237.97 -6.85 237.71 -7.45 237.2 -7.91Z M243.88 -11.92L242 -11.92L242 -8.26L240.48 -8.26L240.48 -6.78L242 -6.78L242 0L243.88 0L243.88 -6.78L246.14 -6.78L246.14 -8.26L243.88 -8.26Z"/></g></g></svg>