<svg xmlns="http://www.w3.org/2000/svg" version="1.1" xlink="http://www.w3.org/1999/xlink" xmlns:svgjs="http://svgjs.com/svgjs" width="300" height="36.10736123243071"><defs id="SvgjsDefs1069"/><g id="SvgjsG1070" transform="scale(0.7940919558484872)" opacity="1"><g id="SvgjsG1071" class="text" transform="translate(0.28999999999999204, 22.85) scale(1)" light-content="false" fill="#0d0d0d"><path d="M30.3 -0.32C29.73 -0.32 29.22 -0.5 28.78 -0.86C28.35 -1.23 28.07 -1.72 27.97 -2.34L25.25 -22.85L24.96 -22.85L15.42 -6.53L5.5 -22.85L5.22 -22.85L2.56 -2.34C2.47 -1.72 2.21 -1.23 1.78 -0.86C1.34 -0.5 0.82 -0.32 0.22 -0.32L-0.29 -0.32L-0.29 0L6.4 0L6.4 -0.29L5.92 -0.29C5.56 -0.29 5.25 -0.43 4.99 -0.72C4.74 -1.01 4.63 -1.32 4.67 -1.66L5.92 -13.18L14.14 0.64L14.46 0.64C14.49 -0.41 14.89 -1.59 15.68 -2.91L21.7 -13.28L22.94 -1.66C22.99 -1.32 22.88 -1.01 22.62 -0.74C22.37 -0.46 22.06 -0.31 21.7 -0.29L21.22 -0.29L21.22 0L30.82 0L30.82 -0.32Z M54.98 -0.32C54.51 -0.32 54.04 -0.46 53.58 -0.75C53.13 -1.04 52.76 -1.49 52.48 -2.11L43.9 -20.1L43.62 -20.1C43.57 -19.61 43.08 -18.3 42.14 -16.19L35.52 -1.98C35.24 -1.43 34.88 -1.01 34.43 -0.74C33.98 -0.46 33.54 -0.32 33.09 -0.32L32.83 -0.32L32.83 0L39.23 0L39.23 -0.32L38.98 -0.32C38.55 -0.32 38.23 -0.44 38.03 -0.69C37.83 -0.93 37.73 -1.17 37.73 -1.39C37.73 -1.62 37.77 -1.83 37.86 -2.05L39.14 -5.02L45.92 -5.02L47.17 -2.08C47.25 -1.85 47.3 -1.62 47.3 -1.41C47.3 -1.19 47.2 -0.96 47.01 -0.7C46.82 -0.45 46.51 -0.32 46.08 -0.32L45.82 -0.32L45.82 0L55.23 0L55.23 -0.32ZM39.68 -6.27L42.56 -12.96L45.38 -6.27Z M66.56 -17.89C66.86 -17.89 67.13 -17.88 67.36 -17.86C68.06 -17.83 68.75 -17.62 69.41 -17.22C69.79 -16.98 70.11 -16.6 70.35 -16.08C70.6 -15.56 70.73 -15.09 70.75 -14.67C70.77 -14.26 70.78 -13.93 70.78 -13.7C70.78 -13.46 70.74 -13.18 70.66 -12.86C70.25 -10.75 69.14 -9.69 67.33 -9.66L66.53 -9.66L66.53 -9.41C66.85 -9.37 67.18 -9.18 67.54 -8.86C67.89 -8.54 68.19 -8.06 68.45 -7.42C68.73 -6.36 69.44 -4.91 70.59 -3.07C71.34 -1.88 72.19 -1.07 73.14 -0.64C74.09 -0.21 75.45 0 77.22 0L79.9 0L79.9 -0.32C79.24 -0.32 78.68 -0.47 78.22 -0.77C77.77 -1.07 77.16 -1.72 76.42 -2.74C75.67 -3.75 74.95 -4.86 74.27 -6.08C73.93 -6.63 73.48 -7.18 72.91 -7.71C72.35 -8.25 71.78 -8.61 71.2 -8.8C72.67 -9.01 73.78 -9.62 74.53 -10.61C75.27 -11.6 75.65 -12.71 75.65 -13.95C75.65 -15.87 74.92 -17.25 73.47 -18.08C72.17 -18.83 70.56 -19.2 68.64 -19.2L58.82 -19.2L58.82 -18.88L59.23 -18.88C59.68 -18.88 60.07 -18.72 60.4 -18.4C60.73 -18.08 60.9 -17.69 60.9 -17.22L60.9 -1.98C60.9 -1.51 60.73 -1.12 60.4 -0.8C60.07 -0.48 59.67 -0.32 59.2 -0.32L58.82 -0.32L58.82 0L67.62 0L67.62 -0.32L67.26 -0.32C66.82 -0.32 66.42 -0.47 66.06 -0.78C65.71 -1.09 65.54 -1.5 65.54 -2.02L65.54 -17.89Z M99.62 -14.66L99.94 -14.66L99.94 -19.71C99.85 -19.67 99.5 -19.58 98.9 -19.44C98.29 -19.3 97.51 -19.23 96.58 -19.23L84.77 -19.23C84.21 -19.23 83.59 -19.29 82.9 -19.39C82.2 -19.5 81.71 -19.6 81.41 -19.71L81.41 -14.66L81.73 -14.66L81.73 -14.94C81.73 -15.86 81.98 -16.59 82.5 -17.12C83.01 -17.65 83.73 -17.93 84.67 -17.95L88.35 -17.95L88.35 -2.02C88.35 -1.53 88.18 -1.12 87.84 -0.8C87.5 -0.48 87.08 -0.32 86.59 -0.32L86.27 -0.32L86.27 0L95.1 0L95.1 -0.32L94.75 -0.32C94.28 -0.32 93.88 -0.48 93.54 -0.8C93.19 -1.12 93.01 -1.51 92.99 -1.98L92.99 -17.95L96.7 -17.95C97.62 -17.93 98.34 -17.65 98.85 -17.12C99.36 -16.59 99.62 -15.86 99.62 -14.94Z M104.83 -0.32L104.83 0L113.92 0L113.92 -0.32L113.54 -0.32C113.05 -0.32 112.62 -0.48 112.26 -0.8C111.89 -1.12 111.7 -1.53 111.68 -2.02L111.68 -17.22C111.7 -17.69 111.89 -18.08 112.26 -18.4C112.62 -18.72 113.05 -18.88 113.54 -18.88L113.92 -18.88L113.92 -19.2L104.83 -19.2L104.83 -18.88L105.22 -18.88C105.73 -18.88 106.17 -18.71 106.53 -18.38C106.89 -18.05 107.07 -17.65 107.07 -17.18L107.07 -2.02C107.07 -1.55 106.89 -1.15 106.53 -0.82C106.17 -0.49 105.73 -0.32 105.22 -0.32Z M133.5 -19.2L133.5 -18.88L134.05 -18.88C134.54 -18.88 134.95 -18.73 135.28 -18.42C135.61 -18.11 135.78 -17.72 135.78 -17.25L135.78 -6.72L121.12 -19.62L120.83 -19.65L120.9 -19.2C121.07 -18.37 121.15 -17.31 121.15 -16.03L121.15 -1.95C121.15 -1.48 120.98 -1.09 120.64 -0.78C120.3 -0.47 119.88 -0.32 119.39 -0.32L118.88 -0.32L118.88 0L127.84 0L127.84 -0.32L127.3 -0.32C126.81 -0.32 126.39 -0.47 126.06 -0.78C125.73 -1.09 125.56 -1.48 125.54 -1.95L125.54 -12.54L140.22 0.42L140.51 0.42L140.45 -0.03C140.28 -0.89 140.19 -1.97 140.19 -3.3L140.19 -17.28C140.21 -17.75 140.39 -18.13 140.72 -18.43C141.05 -18.73 141.46 -18.88 141.95 -18.88L142.5 -18.88L142.5 -19.2Z M184.67 0L184.67 -0.35C183.9 -0.57 183.08 -0.99 182.21 -1.63C181.33 -2.27 180.21 -3.18 178.85 -4.35C179.77 -6.06 180.22 -8.13 180.22 -10.56L180.22 -11.1C180.22 -11.66 180.3 -12.07 180.45 -12.35C180.6 -12.63 180.89 -12.77 181.31 -12.77L181.34 -12.77L181.79 -12.77L181.79 -13.09L174.3 -13.09L174.3 -12.77L174.78 -12.77L174.82 -12.77C175.65 -12.77 176.28 -12.31 176.72 -11.39C177.16 -10.47 177.38 -9.57 177.38 -8.67C177.38 -7.78 177.24 -6.88 176.96 -5.98C176.45 -6.41 175.01 -7.65 172.66 -9.71C170.3 -11.77 168.71 -13.33 167.89 -14.4C167.07 -15.47 166.66 -16.57 166.66 -17.7C166.66 -18.83 166.99 -19.74 167.66 -20.45C168.34 -21.15 169.28 -21.5 170.5 -21.5C171.71 -21.5 172.65 -20.98 173.31 -19.94C173.97 -18.89 174.31 -17.58 174.34 -16L174.62 -16L175.78 -20.58C175.24 -21.3 174.39 -21.86 173.22 -22.26C172.04 -22.65 170.78 -22.85 169.44 -22.85C166.45 -22.85 164.25 -22.02 162.82 -20.35C162.07 -19.46 161.7 -18.33 161.7 -16.96C161.7 -15.59 162.17 -14.18 163.1 -12.7C161.91 -12.3 160.86 -11.67 159.97 -10.82C159.48 -10.37 159.09 -9.81 158.82 -9.14C158.54 -8.46 158.4 -7.66 158.4 -6.72C158.4 -5.78 158.63 -4.89 159.1 -4.03C159.57 -3.18 160.17 -2.49 160.9 -1.95C163.03 -0.44 165.92 0.32 169.57 0.32C172.09 0.32 174.18 -0.18 175.84 -1.18C176.84 -0.61 178.2 -0.17 179.9 0.13C180.63 0.23 182.22 0.19 184.67 0ZM170.75 -1.02C168.81 -1.02 167.11 -1.62 165.65 -2.82C164.19 -4.01 163.46 -5.73 163.46 -7.97C163.46 -9.16 163.74 -10.21 164.32 -11.1C165.22 -10.04 166.68 -8.62 168.72 -6.86C170.76 -5.1 172.65 -3.54 174.4 -2.18C173.35 -1.41 172.14 -1.02 170.75 -1.02Z M217.82 -16C217.82 -17.98 217.14 -19.56 215.78 -20.74C214.45 -21.85 212.49 -22.4 209.89 -22.4L199.2 -22.4L199.2 -22.08L199.62 -22.08C200.17 -22.08 200.65 -21.9 201.06 -21.55C201.46 -21.2 201.66 -20.76 201.66 -20.22L201.66 -2.34C201.64 -1.78 201.43 -1.31 201.04 -0.91C200.65 -0.52 200.17 -0.32 199.62 -0.32L199.2 -0.32L199.2 0L208.93 0L208.93 -0.32L208.51 -0.32C207.96 -0.32 207.48 -0.52 207.07 -0.91C206.67 -1.31 206.46 -1.78 206.46 -2.34L206.46 -21.06L208.61 -21.06C209.87 -21.06 210.86 -20.63 211.6 -19.79C212.34 -18.95 212.7 -17.76 212.7 -16.22C212.7 -14.71 212.28 -13.48 211.42 -12.54C210.44 -11.46 209.15 -10.93 207.55 -10.98L207.55 -10.66C208.75 -9.87 210.1 -9.47 211.62 -9.47C212.11 -9.47 212.64 -9.57 213.22 -9.76C215.18 -10.38 216.52 -11.53 217.25 -13.22C217.63 -14.09 217.82 -15.02 217.82 -16Z M240.51 -0.32C240.04 -0.32 239.58 -0.46 239.12 -0.75C238.66 -1.04 238.29 -1.49 238.02 -2.11L229.44 -20.1L229.15 -20.1C229.11 -19.61 228.62 -18.3 227.68 -16.19L221.06 -1.98C220.78 -1.43 220.42 -1.01 219.97 -0.74C219.52 -0.46 219.07 -0.32 218.62 -0.32L218.37 -0.32L218.37 0L224.77 0L224.77 -0.32L224.51 -0.32C224.09 -0.32 223.77 -0.44 223.57 -0.69C223.37 -0.93 223.26 -1.17 223.26 -1.39C223.26 -1.62 223.31 -1.83 223.39 -2.05L224.67 -5.02L231.46 -5.02L232.7 -2.08C232.79 -1.85 232.83 -1.62 232.83 -1.41C232.83 -1.19 232.74 -0.96 232.54 -0.7C232.35 -0.45 232.04 -0.32 231.62 -0.32L231.36 -0.32L231.36 0L240.77 0L240.77 -0.32ZM225.22 -6.27L228.1 -12.96L230.91 -6.27Z M252.1 -17.89C252.39 -17.89 252.66 -17.88 252.9 -17.86C253.6 -17.83 254.28 -17.62 254.94 -17.22C255.33 -16.98 255.64 -16.6 255.89 -16.08C256.13 -15.56 256.27 -15.09 256.29 -14.67C256.31 -14.26 256.32 -13.93 256.32 -13.7C256.32 -13.46 256.28 -13.18 256.19 -12.86C255.79 -10.75 254.68 -9.69 252.86 -9.66L252.06 -9.66L252.06 -9.41C252.38 -9.37 252.72 -9.18 253.07 -8.86C253.42 -8.54 253.73 -8.06 253.98 -7.42C254.26 -6.36 254.98 -4.91 256.13 -3.07C256.87 -1.88 257.72 -1.07 258.67 -0.64C259.62 -0.21 260.98 0 262.75 0L265.44 0L265.44 -0.32C264.78 -0.32 264.22 -0.47 263.76 -0.77C263.3 -1.07 262.7 -1.72 261.95 -2.74C261.21 -3.75 260.49 -4.86 259.81 -6.08C259.47 -6.63 259.01 -7.18 258.45 -7.71C257.88 -8.25 257.31 -8.61 256.74 -8.8C258.21 -9.01 259.32 -9.62 260.06 -10.61C260.81 -11.6 261.18 -12.71 261.18 -13.95C261.18 -15.87 260.46 -17.25 259.01 -18.08C257.71 -18.83 256.1 -19.2 254.18 -19.2L244.35 -19.2L244.35 -18.88L244.77 -18.88C245.22 -18.88 245.61 -18.72 245.94 -18.4C246.27 -18.08 246.43 -17.69 246.43 -17.22L246.43 -1.98C246.43 -1.51 246.27 -1.12 245.94 -0.8C245.61 -0.48 245.21 -0.32 244.74 -0.32L244.35 -0.32L244.35 0L253.15 0L253.15 -0.32L252.8 -0.32C252.35 -0.32 251.95 -0.47 251.6 -0.78C251.25 -1.09 251.07 -1.5 251.07 -2.02L251.07 -17.89Z M285.15 -14.66L285.47 -14.66L285.47 -19.71C285.39 -19.67 285.04 -19.58 284.43 -19.44C283.82 -19.3 283.05 -19.23 282.11 -19.23L270.3 -19.23C269.75 -19.23 269.13 -19.29 268.43 -19.39C267.74 -19.5 267.24 -19.6 266.94 -19.71L266.94 -14.66L267.26 -14.66L267.26 -14.94C267.26 -15.86 267.52 -16.59 268.03 -17.12C268.54 -17.65 269.27 -17.93 270.21 -17.95L273.89 -17.95L273.89 -2.02C273.89 -1.53 273.72 -1.12 273.38 -0.8C273.03 -0.48 272.62 -0.32 272.13 -0.32L271.81 -0.32L271.81 0L280.64 0L280.64 -0.32L280.29 -0.32C279.82 -0.32 279.41 -0.48 279.07 -0.8C278.73 -1.12 278.55 -1.51 278.53 -1.98L278.53 -17.95L282.24 -17.95C283.16 -17.93 283.87 -17.65 284.38 -17.12C284.9 -16.59 285.15 -15.86 285.15 -14.94Z M304.1 -19.2L304.1 -18.88L304.64 -18.88C305.13 -18.88 305.54 -18.73 305.87 -18.42C306.2 -18.11 306.37 -17.72 306.37 -17.25L306.37 -6.72L291.71 -19.62L291.42 -19.65L291.49 -19.2C291.66 -18.37 291.74 -17.31 291.74 -16.03L291.74 -1.95C291.74 -1.48 291.57 -1.09 291.23 -0.78C290.89 -0.47 290.47 -0.32 289.98 -0.32L289.47 -0.32L289.47 0L298.43 0L298.43 -0.32L297.89 -0.32C297.4 -0.32 296.99 -0.47 296.66 -0.78C296.33 -1.09 296.15 -1.48 296.13 -1.95L296.13 -12.54L310.82 0.42L311.1 0.42L311.04 -0.03C310.87 -0.89 310.78 -1.97 310.78 -3.3L310.78 -17.28C310.81 -17.75 310.98 -18.13 311.31 -18.43C311.64 -18.73 312.05 -18.88 312.54 -18.88L313.09 -18.88L313.09 -19.2Z M333.09 0L334.3 -5.89L334.02 -5.89C333.59 -4.44 332.91 -3.31 331.98 -2.51C331.06 -1.71 329.93 -1.3 328.61 -1.28L324.77 -1.28L324.77 -8.86L328.45 -8.86C328.92 -8.86 329.34 -8.75 329.73 -8.51C330.47 -8.06 330.85 -7.34 330.85 -6.34L330.85 -6.11L331.17 -6.11L331.17 -12.9L330.85 -12.9L330.85 -12.67C330.85 -11.95 330.62 -11.35 330.18 -10.88C329.73 -10.41 329.14 -10.17 328.42 -10.14L324.77 -10.14L324.77 -17.92L329.38 -17.92C330.29 -17.9 331.01 -17.62 331.52 -17.09C332.03 -16.55 332.29 -15.82 332.29 -14.88L332.29 -14.59L332.61 -14.59L332.61 -19.68C332.33 -19.57 331.85 -19.47 331.17 -19.36C330.49 -19.25 329.86 -19.2 329.28 -19.2L318.02 -19.2L318.02 -18.88L318.4 -18.88C318.89 -18.88 319.3 -18.72 319.63 -18.4C319.96 -18.08 320.14 -17.69 320.16 -17.22L320.16 -1.98C320.14 -1.51 319.96 -1.12 319.63 -0.8C319.3 -0.48 318.89 -0.32 318.4 -0.32L318.02 -0.32L318.02 0Z M347.07 -17.89C347.37 -17.89 347.64 -17.88 347.87 -17.86C348.58 -17.83 349.26 -17.62 349.92 -17.22C350.3 -16.98 350.62 -16.6 350.86 -16.08C351.11 -15.56 351.24 -15.09 351.26 -14.67C351.29 -14.26 351.3 -13.93 351.3 -13.7C351.3 -13.46 351.25 -13.18 351.17 -12.86C350.76 -10.75 349.65 -9.69 347.84 -9.66L347.04 -9.66L347.04 -9.41C347.36 -9.37 347.7 -9.18 348.05 -8.86C348.4 -8.54 348.7 -8.06 348.96 -7.42C349.24 -6.36 349.95 -4.91 351.1 -3.07C351.85 -1.88 352.7 -1.07 353.65 -0.64C354.6 -0.21 355.96 0 357.73 0L360.42 0L360.42 -0.32C359.75 -0.32 359.19 -0.47 358.74 -0.77C358.28 -1.07 357.67 -1.72 356.93 -2.74C356.18 -3.75 355.47 -4.86 354.78 -6.08C354.44 -6.63 353.99 -7.18 353.42 -7.71C352.86 -8.25 352.29 -8.61 351.71 -8.8C353.18 -9.01 354.29 -9.62 355.04 -10.61C355.79 -11.6 356.16 -12.71 356.16 -13.95C356.16 -15.87 355.43 -17.25 353.98 -18.08C352.68 -18.83 351.07 -19.2 349.15 -19.2L339.33 -19.2L339.33 -18.88L339.74 -18.88C340.19 -18.88 340.58 -18.72 340.91 -18.4C341.24 -18.08 341.41 -17.69 341.41 -17.22L341.41 -1.98C341.41 -1.51 341.24 -1.12 340.91 -0.8C340.58 -0.48 340.18 -0.32 339.71 -0.32L339.33 -0.32L339.33 0L348.13 0L348.13 -0.32L347.78 -0.32C347.33 -0.32 346.93 -0.47 346.58 -0.78C346.22 -1.09 346.05 -1.5 346.05 -2.02L346.05 -17.89Z M363.87 -2.62C363.87 -2.11 363.94 -1.66 364.06 -1.28C364.55 -0.79 365.32 -0.38 366.37 -0.06C367.41 0.26 368.62 0.42 369.98 0.42C372.2 0.42 374.01 -0.12 375.41 -1.18C376.81 -2.25 377.5 -3.78 377.5 -5.76C377.5 -7.64 376.63 -9.11 374.88 -10.18L369.79 -13.31C369.3 -13.61 368.93 -13.86 368.67 -14.05C368.03 -14.52 367.71 -15.07 367.71 -15.71C367.71 -16.5 368.04 -17.14 368.7 -17.62C369.37 -18.1 370.27 -18.34 371.41 -18.34C372.55 -18.34 373.47 -18.05 374.16 -17.47C374.85 -16.9 375.2 -16.11 375.2 -15.1L375.49 -15.1L375.94 -19.33L374.21 -19.33C372.63 -19.52 371.13 -19.62 369.71 -19.62C368.29 -19.62 367.06 -19.18 366.02 -18.32C364.97 -17.46 364.38 -16.27 364.26 -14.75C364.23 -14.54 364.22 -14.34 364.22 -14.14C364.22 -12.27 365.18 -10.73 367.1 -9.54L371.65 -6.66C372.5 -6.1 373.11 -5.62 373.49 -5.2C373.86 -4.78 374.05 -4.23 374.05 -3.55C374.05 -2.87 373.72 -2.25 373.07 -1.7C372.42 -1.14 371.5 -0.86 370.3 -0.86C368.64 -0.86 367.34 -1.35 366.42 -2.34C365.49 -3.32 365.02 -4.46 365.02 -5.76C365.02 -5.89 365.03 -6.03 365.06 -6.18L364.8 -6.18C364.18 -5.19 363.87 -4.01 363.87 -2.62Z"/></g><g id="SvgjsG1072" class="text" transform="translate(250.15000000000003, 45.2) scale(1)" light-content="false" fill="#0d0d0d"><path d="M0.96 -1.79C0.96 -1.44 1 -1.15 1.09 -0.9C1.44 -0.54 1.98 -0.26 2.72 -0.05C3.45 0.16 4.26 0.27 5.13 0.27C6.66 0.27 7.89 -0.09 8.82 -0.82C9.75 -1.54 10.21 -2.58 10.21 -3.94C10.21 -5.15 9.64 -6.14 8.49 -6.89L4.82 -9.27C4.22 -9.66 3.83 -10.02 3.65 -10.35C3.53 -10.55 3.48 -10.8 3.48 -11.1C3.48 -11.39 3.59 -11.69 3.82 -11.98C4.27 -12.6 4.99 -12.9 5.99 -12.9C6.81 -12.9 7.47 -12.7 7.96 -12.3C8.45 -11.89 8.7 -11.36 8.7 -10.69L8.89 -10.69L9.14 -13.52L7.93 -13.52C6.89 -13.64 6.02 -13.71 5.32 -13.71C4.13 -13.71 3.18 -13.4 2.47 -12.79C1.76 -12.17 1.36 -11.36 1.29 -10.35C1.26 -10.22 1.25 -10.09 1.25 -9.96C1.25 -8.75 1.87 -7.72 3.11 -6.89L6.45 -4.68C7 -4.33 7.4 -4 7.63 -3.71C7.87 -3.41 7.99 -3.08 7.99 -2.71C7.99 -2.08 7.75 -1.56 7.27 -1.15C6.79 -0.74 6.12 -0.54 5.26 -0.54C4.16 -0.54 3.29 -0.87 2.66 -1.53C2.03 -2.19 1.71 -2.96 1.71 -3.84C1.71 -3.94 1.72 -4.04 1.73 -4.15L1.56 -4.15C1.16 -3.49 0.96 -2.71 0.96 -1.79Z M15.54 -10.15C14.31 -9.07 13.69 -7.6 13.69 -5.76C13.69 -3.92 14.31 -2.45 15.55 -1.37C16.79 -0.29 18.44 0.25 20.49 0.25C22.53 0.25 24.18 -0.29 25.42 -1.37C26.66 -2.45 27.28 -3.92 27.28 -5.76C27.28 -7.6 26.66 -9.07 25.42 -10.15C24.18 -11.23 22.53 -11.77 20.48 -11.77C18.42 -11.77 16.78 -11.23 15.54 -10.15ZM17.67 -1.93C16.98 -2.87 16.63 -4.15 16.63 -5.76C16.63 -7.37 16.98 -8.65 17.67 -9.59C18.37 -10.53 19.31 -11 20.48 -11C21.65 -11 22.58 -10.53 23.28 -9.59C23.98 -8.65 24.33 -7.37 24.33 -5.76C24.33 -4.15 23.98 -2.87 23.28 -1.93C22.58 -0.99 21.65 -0.52 20.48 -0.52C19.31 -0.52 18.37 -0.99 17.67 -1.93Z M30.28 0L39.32 0L40.07 -3.53L39.86 -3.53C39.6 -2.66 39.2 -1.99 38.65 -1.51C38.1 -1.03 37.43 -0.78 36.63 -0.77L34.33 -0.77L34.33 -10.31C34.33 -10.6 34.43 -10.85 34.64 -11.04C34.84 -11.23 35.09 -11.33 35.39 -11.33L35.62 -11.33L35.62 -11.52L30.28 -11.52L30.28 -11.33L30.51 -11.33C30.79 -11.33 31.03 -11.23 31.24 -11.03C31.44 -10.83 31.55 -10.59 31.55 -10.31L31.55 -1.19C31.55 -0.91 31.45 -0.67 31.25 -0.48C31.05 -0.29 30.8 -0.19 30.51 -0.19L30.28 -0.19Z M42.55 -0.19L42.55 0L48 0L48 -0.19L47.77 -0.19C47.48 -0.19 47.22 -0.29 47 -0.48C46.78 -0.67 46.67 -0.92 46.66 -1.21L46.66 -10.33C46.67 -10.61 46.78 -10.85 47 -11.04C47.22 -11.23 47.48 -11.33 47.77 -11.33L48 -11.33L48 -11.52L42.55 -11.52L42.55 -11.33L42.78 -11.33C43.08 -11.33 43.35 -11.23 43.56 -11.03C43.78 -10.83 43.89 -10.59 43.89 -10.31L43.89 -1.21C43.89 -0.93 43.78 -0.69 43.56 -0.49C43.35 -0.29 43.08 -0.19 42.78 -0.19Z M52.9 -1.35C54.12 -0.3 55.81 0.24 57.96 0.25C59.16 0.25 60.16 0.05 60.97 -0.35C61.78 -0.74 62.39 -1.27 62.78 -1.92L62.55 -4.82L62.42 -4.82C62.25 -3.76 62 -2.92 61.65 -2.29C61.31 -1.67 60.84 -1.22 60.25 -0.94C59.66 -0.66 58.91 -0.52 58 -0.52C56.75 -0.52 55.76 -1 55.03 -1.98C54.32 -2.92 53.97 -4.2 53.97 -5.81C53.97 -7.41 54.33 -8.68 55.05 -9.61C55.76 -10.54 56.8 -11 58.16 -11C59.17 -11 60.01 -10.76 60.67 -10.27C61.34 -9.79 61.83 -8.97 62.15 -7.83L62.28 -7.83L62.28 -10.89C61.09 -11.48 59.65 -11.77 57.96 -11.77C55.8 -11.77 54.11 -11.24 52.89 -10.18C51.66 -9.11 51.05 -7.64 51.05 -5.76C51.05 -3.88 51.67 -2.41 52.9 -1.35Z M66.07 -0.19L66.07 0L71.52 0L71.52 -0.19L71.29 -0.19C71 -0.19 70.74 -0.29 70.52 -0.48C70.3 -0.67 70.19 -0.92 70.18 -1.21L70.18 -10.33C70.19 -10.61 70.3 -10.85 70.52 -11.04C70.74 -11.23 71 -11.33 71.29 -11.33L71.52 -11.33L71.52 -11.52L66.07 -11.52L66.07 -11.33L66.3 -11.33C66.6 -11.33 66.87 -11.23 67.08 -11.03C67.3 -10.83 67.41 -10.59 67.41 -10.31L67.41 -1.21C67.41 -0.93 67.3 -0.69 67.08 -0.49C66.87 -0.29 66.6 -0.19 66.3 -0.19Z M85.21 -8.79L85.4 -8.79L85.4 -11.83C85.35 -11.8 85.14 -11.75 84.78 -11.66C84.41 -11.58 83.95 -11.54 83.39 -11.54L76.3 -11.54C75.97 -11.54 75.59 -11.57 75.18 -11.64C74.76 -11.7 74.46 -11.76 74.28 -11.83L74.28 -8.79L74.48 -8.79L74.48 -8.97C74.48 -9.52 74.63 -9.95 74.94 -10.27C75.24 -10.59 75.68 -10.76 76.24 -10.77L78.45 -10.77L78.45 -1.21C78.45 -0.92 78.35 -0.67 78.14 -0.48C77.94 -0.29 77.69 -0.19 77.4 -0.19L77.2 -0.19L77.2 0L82.5 0L82.5 -0.19L82.29 -0.19C82.01 -0.19 81.77 -0.29 81.56 -0.48C81.36 -0.67 81.25 -0.91 81.24 -1.19L81.24 -10.77L83.46 -10.77C84.01 -10.76 84.44 -10.59 84.75 -10.27C85.06 -9.95 85.21 -9.52 85.21 -8.97Z M89.87 -10.15C88.63 -9.07 88.01 -7.6 88.01 -5.76C88.01 -3.92 88.63 -2.45 89.88 -1.37C91.12 -0.29 92.76 0.25 94.81 0.25C96.86 0.25 98.5 -0.29 99.74 -1.37C100.99 -2.45 101.61 -3.92 101.61 -5.76C101.61 -7.6 100.99 -9.07 99.74 -10.15C98.5 -11.23 96.85 -11.77 94.8 -11.77C92.75 -11.77 91.1 -11.23 89.87 -10.15ZM92 -1.93C91.3 -2.87 90.95 -4.15 90.95 -5.76C90.95 -7.37 91.3 -8.65 92 -9.59C92.69 -10.53 93.63 -11 94.8 -11C95.97 -11 96.91 -10.53 97.6 -9.59C98.3 -8.65 98.65 -7.37 98.65 -5.76C98.65 -4.15 98.3 -2.87 97.6 -1.93C96.91 -0.99 95.97 -0.52 94.8 -0.52C93.63 -0.52 92.69 -0.99 92 -1.93Z M109.38 -10.73C109.56 -10.73 109.72 -10.73 109.86 -10.71C110.28 -10.7 110.69 -10.57 111.09 -10.33C111.32 -10.19 111.51 -9.96 111.66 -9.65C111.8 -9.33 111.88 -9.05 111.9 -8.8C111.91 -8.55 111.92 -8.36 111.92 -8.22C111.92 -8.08 111.89 -7.91 111.84 -7.72C111.6 -6.45 110.93 -5.81 109.84 -5.8L109.36 -5.8L109.36 -5.64C109.56 -5.62 109.76 -5.51 109.97 -5.32C110.18 -5.13 110.36 -4.84 110.52 -4.45C110.68 -3.81 111.11 -2.94 111.8 -1.84C112.25 -1.13 112.76 -0.64 113.33 -0.38C113.9 -0.13 114.71 0 115.78 0L117.39 0L117.39 -0.19C116.99 -0.19 116.66 -0.28 116.38 -0.46C116.11 -0.64 115.74 -1.03 115.3 -1.64C114.85 -2.25 114.42 -2.92 114.01 -3.65C113.8 -3.98 113.53 -4.31 113.19 -4.63C112.85 -4.95 112.51 -5.16 112.17 -5.28C113.05 -5.41 113.72 -5.77 114.16 -6.36C114.61 -6.96 114.84 -7.63 114.84 -8.37C114.84 -9.52 114.4 -10.35 113.53 -10.85C112.75 -11.3 111.78 -11.52 110.63 -11.52L104.74 -11.52L104.74 -11.33L104.99 -11.33C105.25 -11.33 105.49 -11.23 105.69 -11.04C105.88 -10.85 105.98 -10.61 105.98 -10.33L105.98 -1.19C105.98 -0.91 105.88 -0.67 105.69 -0.48C105.49 -0.29 105.25 -0.19 104.97 -0.19L104.74 -0.19L104.74 0L110.02 0L110.02 -0.19L109.8 -0.19C109.54 -0.19 109.3 -0.28 109.08 -0.47C108.87 -0.66 108.77 -0.9 108.77 -1.21L108.77 -10.73Z M119.46 -1.57C119.46 -1.27 119.5 -1 119.58 -0.77C119.87 -0.47 120.33 -0.23 120.96 -0.04C121.59 0.15 122.31 0.25 123.13 0.25C124.46 0.25 125.55 -0.07 126.38 -0.71C127.22 -1.35 127.64 -2.27 127.64 -3.46C127.64 -4.58 127.12 -5.47 126.07 -6.11L123.01 -7.99C122.72 -8.17 122.5 -8.31 122.34 -8.43C121.96 -8.71 121.77 -9.04 121.77 -9.43C121.77 -9.9 121.96 -10.28 122.36 -10.57C122.76 -10.86 123.3 -11 123.98 -11C124.67 -11 125.22 -10.83 125.64 -10.48C126.05 -10.14 126.26 -9.66 126.26 -9.06L126.43 -9.06L126.7 -11.6L125.66 -11.6C124.72 -11.71 123.82 -11.77 122.97 -11.77C122.12 -11.77 121.38 -11.51 120.75 -10.99C120.12 -10.47 119.77 -9.76 119.69 -8.85C119.68 -8.72 119.67 -8.6 119.67 -8.49C119.67 -7.36 120.25 -6.44 121.4 -5.72L124.13 -3.99C124.64 -3.66 125.01 -3.37 125.23 -3.12C125.46 -2.87 125.57 -2.54 125.57 -2.13C125.57 -1.72 125.37 -1.35 124.98 -1.02C124.59 -0.68 124.04 -0.52 123.32 -0.52C122.32 -0.52 121.55 -0.81 120.99 -1.4C120.43 -1.99 120.15 -2.68 120.15 -3.46C120.15 -3.53 120.16 -3.62 120.17 -3.71L120.02 -3.71C119.65 -3.12 119.46 -2.41 119.46 -1.57Z"/></g></g></svg>