<svg xmlns="http://www.w3.org/2000/svg" version="1.1" xlink="http://www.w3.org/1999/xlink" xmlns:svgjs="http://svgjs.com/svgjs" width="300" height="42.612905022677005"><defs id="SvgjsDefs1289"/><g id="SvgjsG1290" transform="scale(0.6505365450537833)" opacity="1"><g id="SvgjsG1291" class="Me7yHHl7P" transform="translate(-22.296802055829673, -16.505006534392376) scale(1.0745446962495036)" light-content="false" fill="#424242"><path d="M45 15.36l-24.25 8.06L45 76.32l24.25-52.9zm-20.71 9.52L45 18l20.81 6.92L45 70.32V33z"/></g><rect id="SvgjsRect1292" width="1.0917374113894955" height="65.50424468336973" fill="#999999" transform="translate(68.24172730730291, 0)" light-content="false"/><g id="SvgjsG1293" class="text" transform="translate(83.87778847814533, 28.644209924740725) scale(1)" light-content="false" fill="#424242"><path d="M9.87 -25.61L10.36 -25.61L10.36 -25.98L2.23 -25.98L2.23 -25.61L2.71 -25.61C3.35 -25.61 3.9 -25.38 4.36 -24.93C4.82 -24.47 5.06 -23.92 5.09 -23.27L5.09 -0.11C5.09 1.47 4.66 2.96 3.82 4.36C2.98 5.76 1.95 6.67 0.74 7.09L0.74 7.42C2.65 7.42 4.25 6.71 5.55 5.27C6.85 3.84 7.5 2.08 7.5 0L7.5 -23.27C7.52 -23.72 7.63 -24.12 7.83 -24.46C8.3 -25.23 8.98 -25.61 9.87 -25.61Z M38.57 -0.37C37.92 -0.37 37.3 -0.57 36.71 -0.97C36.12 -1.36 35.65 -1.94 35.3 -2.71L25.35 -26.5L25.02 -26.5C25.02 -25.96 24.56 -24.68 23.64 -22.68L15.26 -2.71C14.88 -1.94 14.4 -1.36 13.81 -0.97C13.21 -0.57 12.61 -0.37 11.99 -0.37L11.66 -0.37L11.66 0L19.12 0L19.12 -0.37L18.78 -0.37C18.26 -0.37 17.87 -0.54 17.61 -0.87C17.35 -1.21 17.22 -1.52 17.22 -1.8C17.22 -2.08 17.27 -2.38 17.37 -2.67L19.86 -9.02L29.88 -9.02L32.26 -2.71C32.36 -2.41 32.4 -2.12 32.4 -1.82C32.4 -1.52 32.28 -1.21 32.02 -0.87C31.76 -0.54 31.37 -0.37 30.85 -0.37L30.51 -0.37L30.51 0L38.86 0L38.86 -0.37ZM20.3 -10.13L24.98 -22.05L29.44 -10.13Z M43.08 -3.23C45.54 -0.75 48.72 0.49 52.63 0.52C57.34 0.52 60.81 -1.32 63.07 -5.01L63.51 -10.84L63.21 -10.84C62.79 -7.15 61.58 -4.49 59.58 -2.86C57.72 -1.35 55.41 -0.59 52.63 -0.59C49.49 -0.67 46.96 -1.84 45.04 -4.1C43.13 -6.37 42.17 -9.35 42.17 -13.07C42.17 -16.78 43.14 -19.76 45.08 -22.01C47.02 -24.26 49.62 -25.39 52.86 -25.39C55.13 -25.39 57.1 -24.81 58.76 -23.66C60.42 -22.51 61.52 -20.87 62.06 -18.75L62.4 -18.75L61.65 -23.98C59.11 -25.66 56.17 -26.5 52.86 -26.5C48.8 -26.5 45.54 -25.27 43.08 -22.79C40.61 -20.32 39.38 -17.06 39.38 -13.01C39.38 -8.96 40.61 -5.7 43.08 -3.23Z M81.29 -26.5C77.33 -26.5 74.12 -25.26 71.66 -22.77C69.2 -20.29 67.97 -17.03 67.97 -12.99C67.97 -8.96 69.2 -5.7 71.66 -3.21C74.12 -0.72 77.33 0.52 81.29 0.52C85.25 0.52 88.47 -0.72 90.94 -3.21C93.42 -5.7 94.65 -8.96 94.65 -12.99C94.65 -17.03 93.42 -20.29 90.94 -22.77C88.47 -25.26 85.25 -26.5 81.29 -26.5ZM81.31 -0.59C78.15 -0.59 75.62 -1.73 73.7 -4.01C71.78 -6.29 70.82 -9.28 70.82 -12.99C70.82 -16.7 71.78 -19.7 73.7 -21.97C75.62 -24.25 78.15 -25.39 81.29 -25.39C83.37 -25.39 85.21 -24.88 86.8 -23.85C88.4 -22.82 89.63 -21.37 90.5 -19.49C91.36 -17.61 91.8 -15.44 91.8 -12.99C91.8 -9.28 90.84 -6.29 88.92 -4.01C87 -1.73 84.46 -0.59 81.31 -0.59Z M107.01 0C109.74 0 111.86 -0.63 113.38 -1.89C114.9 -3.16 115.66 -4.78 115.66 -6.77C115.66 -8.77 115.09 -10.42 113.96 -11.73C112.82 -13.04 111.27 -13.85 109.32 -14.14C110.45 -14.46 111.42 -15.11 112.21 -16.09C113 -17.07 113.4 -18.3 113.4 -19.78C113.4 -21.67 112.69 -23.17 111.28 -24.29C109.87 -25.42 107.89 -25.98 105.34 -25.98L97.96 -25.98L97.99 -25.61L98.44 -25.61C99.08 -25.61 99.64 -25.39 100.11 -24.94C100.58 -24.5 100.82 -23.95 100.82 -23.31L100.82 -2.67C100.79 -2.03 100.55 -1.48 100.09 -1.04C99.63 -0.59 99.08 -0.37 98.44 -0.37L97.99 -0.37L97.96 0ZM103.23 -1.34L103.23 -24.8L105.2 -24.8C106.95 -24.8 108.29 -24.34 109.22 -23.42C110.15 -22.51 110.61 -21.24 110.61 -19.62C110.61 -18 110.26 -16.78 109.54 -15.96C109.19 -15.59 108.82 -15.27 108.42 -15C108.03 -14.72 107.58 -14.53 107.09 -14.4C106.59 -14.28 106.15 -14.19 105.75 -14.14C105.36 -14.09 105.05 -14.07 104.84 -14.07L104.49 -14.07L104.49 -13.73L104.53 -13.73C107.4 -13.73 109.55 -13.14 110.99 -11.95C111.53 -11.48 111.98 -10.84 112.34 -10.04C112.7 -9.24 112.88 -8.3 112.88 -7.24C112.88 -5.36 112.36 -3.9 111.32 -2.88C110.28 -1.85 108.82 -1.34 106.94 -1.34L106.87 -1.34Z M150.04 -13.92L150.59 -13.92L150.59 -14.29L143.21 -14.29L143.21 -13.92L143.76 -13.92C144.8 -13.92 145.59 -13.38 146.12 -12.3C146.65 -11.23 146.92 -10.08 146.92 -8.87C146.92 -7.66 146.66 -6.48 146.14 -5.35C144.9 -6.38 142.95 -8.09 140.27 -10.47C137.6 -12.84 135.81 -14.69 134.89 -16C133.98 -17.31 133.52 -18.71 133.52 -20.19C133.52 -21.68 133.98 -22.91 134.91 -23.9C135.84 -24.89 137.05 -25.39 138.55 -25.39C140.04 -25.39 141.28 -24.88 142.24 -23.87C143.21 -22.85 143.69 -21.45 143.69 -19.67L144.06 -19.67L144.73 -23.87C144.06 -24.66 143.16 -25.3 142.02 -25.78C140.88 -26.26 139.68 -26.5 138.42 -26.5C136.17 -26.5 134.35 -25.9 132.96 -24.68C131.62 -23.5 130.96 -21.99 130.96 -20.16C130.96 -18.35 131.43 -16.69 132.37 -15.18C129.37 -13.67 127.88 -11.38 127.88 -8.31C127.88 -5.54 128.87 -3.4 130.84 -1.89C132.82 -0.38 135.62 0.37 139.23 0.37C142.05 0.37 144.34 -0.48 146.1 -2.19C146.77 -1.67 147.55 -1.21 148.44 -0.82C148.79 -0.64 149.18 -0.51 149.63 -0.41C150.07 -0.31 150.43 -0.23 150.7 -0.17C150.98 -0.11 151.33 -0.06 151.76 -0.04C152.19 -0.01 152.49 0 152.65 0L153.47 0L154.08 0L154.08 -0.37C153.36 -0.42 152.58 -0.66 151.74 -1.1C150.9 -1.53 150.22 -1.95 149.7 -2.36C149.18 -2.77 148.48 -3.35 147.59 -4.12C148.5 -5.73 148.96 -7.51 148.96 -9.47C148.96 -10.36 148.9 -11.07 148.79 -11.62C148.68 -12.16 148.62 -12.55 148.62 -12.79C148.62 -13.02 148.73 -13.27 148.94 -13.53C149.15 -13.79 149.52 -13.92 150.04 -13.92ZM144.84 -3.27C143.38 -1.58 141.51 -0.74 139.23 -0.74C136.51 -0.74 134.39 -1.44 132.87 -2.82C131.35 -4.21 130.58 -6.09 130.58 -8.48C130.58 -10.87 131.38 -12.81 132.96 -14.29C134.54 -12.16 138.5 -8.49 144.84 -3.27Z M186.56 -0.37C185.92 -0.37 185.3 -0.57 184.7 -0.97C184.11 -1.36 183.64 -1.94 183.29 -2.71L173.35 -26.5L173.01 -26.5C173.01 -25.96 172.55 -24.68 171.64 -22.68L163.25 -2.71C162.88 -1.94 162.4 -1.36 161.8 -0.97C161.21 -0.57 160.6 -0.37 159.98 -0.37L159.65 -0.37L159.65 0L167.11 0L167.11 -0.37L166.78 -0.37C166.26 -0.37 165.87 -0.54 165.61 -0.87C165.35 -1.21 165.22 -1.52 165.22 -1.8C165.22 -2.08 165.27 -2.38 165.37 -2.67L167.85 -9.02L177.87 -9.02L180.25 -2.71C180.35 -2.41 180.4 -2.12 180.4 -1.82C180.4 -1.52 180.27 -1.21 180.01 -0.87C179.75 -0.54 179.36 -0.37 178.84 -0.37L178.51 -0.37L178.51 0L186.86 0L186.86 -0.37ZM168.3 -10.13L172.97 -22.05L177.43 -10.13Z M188.71 -1.52C189.38 -0.83 190.33 -0.32 191.55 0.02C192.78 0.35 193.93 0.52 195.02 0.52C197.13 0.52 198.81 -0.12 200.07 -1.39C201.33 -2.67 201.96 -4.29 201.96 -6.27C201.96 -8.25 201.35 -9.81 200.11 -10.95L192.8 -17.71C191.81 -18.62 191.31 -19.71 191.31 -20.97C191.31 -22.23 191.74 -23.29 192.59 -24.13C193.45 -24.97 194.5 -25.39 195.77 -25.39C197.03 -25.39 198.06 -25.04 198.87 -24.35C199.67 -23.66 200.07 -22.73 200.07 -21.57L200.41 -21.57L200.41 -26.13L198.96 -26.13C197.77 -26.38 196.71 -26.5 195.77 -26.5C193.76 -26.5 192.17 -25.88 191 -24.63C189.82 -23.38 189.23 -21.88 189.23 -20.12C189.23 -18.36 189.9 -16.86 191.24 -15.63L198.36 -9.02C199.33 -8.13 199.81 -6.97 199.81 -5.55C199.81 -4.13 199.31 -2.94 198.31 -2C197.31 -1.06 196.03 -0.59 194.47 -0.59C192.96 -0.59 191.74 -1.1 190.83 -2.1C189.91 -3.1 189.46 -4.36 189.46 -5.86C189.46 -6.14 189.47 -6.41 189.49 -6.68L189.16 -6.68C188.79 -5.57 188.6 -4.52 188.6 -3.53C188.6 -2.54 188.64 -1.87 188.71 -1.52Z M206.34 -1.52C207.01 -0.83 207.96 -0.32 209.18 0.02C210.41 0.35 211.57 0.52 212.66 0.52C214.76 0.52 216.44 -0.12 217.7 -1.39C218.97 -2.67 219.6 -4.29 219.6 -6.27C219.6 -8.25 218.98 -9.81 217.74 -10.95L210.43 -17.71C209.44 -18.62 208.94 -19.71 208.94 -20.97C208.94 -22.23 209.37 -23.29 210.22 -24.13C211.08 -24.97 212.14 -25.39 213.4 -25.39C214.66 -25.39 215.69 -25.04 216.5 -24.35C217.3 -23.66 217.7 -22.73 217.7 -21.57L218.04 -21.57L218.04 -26.13L216.59 -26.13C215.4 -26.38 214.34 -26.5 213.4 -26.5C211.39 -26.5 209.8 -25.88 208.63 -24.63C207.45 -23.38 206.86 -21.88 206.86 -20.12C206.86 -18.36 207.53 -16.86 208.87 -15.63L216 -9.02C216.96 -8.13 217.44 -6.97 217.44 -5.55C217.44 -4.13 216.94 -2.94 215.94 -2C214.94 -1.06 213.66 -0.59 212.1 -0.59C210.59 -0.59 209.38 -1.1 208.46 -2.1C207.55 -3.1 207.09 -4.36 207.09 -5.86C207.09 -6.14 207.1 -6.41 207.12 -6.68L206.79 -6.68C206.42 -5.57 206.23 -4.52 206.23 -3.53C206.23 -2.54 206.27 -1.87 206.34 -1.52Z M237.64 -26.5C233.68 -26.5 230.47 -25.26 228 -22.77C225.54 -20.29 224.31 -17.03 224.31 -12.99C224.31 -8.96 225.54 -5.7 228 -3.21C230.47 -0.72 233.68 0.52 237.64 0.52C241.6 0.52 244.81 -0.72 247.29 -3.21C249.76 -5.7 251 -8.96 251 -12.99C251 -17.03 249.76 -20.29 247.29 -22.77C244.81 -25.26 241.6 -26.5 237.64 -26.5ZM237.65 -0.59C234.5 -0.59 231.96 -1.73 230.05 -4.01C228.13 -6.29 227.17 -9.28 227.17 -12.99C227.17 -16.7 228.13 -19.7 230.05 -21.97C231.96 -24.25 234.49 -25.39 237.64 -25.39C239.71 -25.39 241.55 -24.88 243.15 -23.85C244.74 -22.82 245.98 -21.37 246.84 -19.49C247.71 -17.61 248.14 -15.44 248.14 -12.99C248.14 -9.28 247.18 -6.29 245.26 -4.01C243.35 -1.73 240.81 -0.59 237.65 -0.59Z M258.74 -3.23C261.2 -0.75 264.39 0.49 268.3 0.52C273 0.52 276.48 -1.32 278.73 -5.01L279.17 -10.84L278.88 -10.84C278.45 -7.15 277.24 -4.49 275.24 -2.86C273.38 -1.35 271.07 -0.59 268.3 -0.59C265.15 -0.67 262.62 -1.84 260.71 -4.1C258.79 -6.37 257.83 -9.35 257.83 -13.07C257.83 -16.78 258.8 -19.76 260.74 -22.01C262.69 -24.26 265.28 -25.39 268.52 -25.39C270.8 -25.39 272.76 -24.81 274.42 -23.66C276.08 -22.51 277.18 -20.87 277.72 -18.75L278.06 -18.75L277.32 -23.98C274.77 -25.66 271.84 -26.5 268.52 -26.5C264.46 -26.5 261.2 -25.27 258.74 -22.79C256.28 -20.32 255.05 -17.06 255.05 -13.01C255.05 -8.96 256.28 -5.7 258.74 -3.23Z M283.74 -0.37L283.26 -0.37L283.26 0L291.38 0L291.38 -0.37L290.9 -0.37C290.26 -0.37 289.7 -0.6 289.23 -1.06C288.76 -1.52 288.53 -2.07 288.53 -2.71L288.53 -23.31C288.55 -23.95 288.79 -24.5 289.25 -24.94C289.71 -25.39 290.26 -25.61 290.9 -25.61L291.38 -25.61L291.38 -25.98L283.26 -25.98L283.26 -25.61L283.74 -25.61C284.38 -25.61 284.93 -25.39 285.39 -24.94C285.85 -24.5 286.09 -23.95 286.11 -23.31L286.11 -2.71C286.09 -2.07 285.85 -1.52 285.39 -1.06C284.93 -0.6 284.38 -0.37 283.74 -0.37Z M320.11 -0.37C319.47 -0.37 318.85 -0.57 318.26 -0.97C317.67 -1.36 317.19 -1.94 316.85 -2.71L306.9 -26.5L306.57 -26.5C306.57 -25.96 306.11 -24.68 305.19 -22.68L296.8 -2.71C296.43 -1.94 295.95 -1.36 295.36 -0.97C294.76 -0.57 294.16 -0.37 293.54 -0.37L293.2 -0.37L293.2 0L300.66 0L300.66 -0.37L300.33 -0.37C299.81 -0.37 299.42 -0.54 299.16 -0.87C298.9 -1.21 298.77 -1.52 298.77 -1.8C298.77 -2.08 298.82 -2.38 298.92 -2.67L301.41 -9.02L311.43 -9.02L313.8 -2.71C313.9 -2.41 313.95 -2.12 313.95 -1.82C313.95 -1.52 313.82 -1.21 313.56 -0.87C313.3 -0.54 312.91 -0.37 312.39 -0.37L312.06 -0.37L312.06 0L320.41 0L320.41 -0.37ZM301.85 -10.13L306.53 -22.05L310.98 -10.13Z M339.27 -22.68L339.27 -22.05L339.64 -22.01L339.64 -26.69C339.47 -26.61 338.98 -26.48 338.17 -26.3C337.37 -26.11 336.36 -26.02 335.15 -26.02L322.6 -26.02C321.83 -26.02 320.99 -26.09 320.08 -26.24C319.16 -26.39 318.52 -26.54 318.15 -26.69L318.15 -22.01L318.52 -22.05L318.52 -22.68C318.52 -23.27 318.72 -23.79 319.13 -24.22C319.54 -24.65 320.04 -24.88 320.63 -24.91L327.69 -24.91L327.69 -2.64C327.66 -2.02 327.42 -1.48 326.96 -1.04C326.51 -0.59 325.95 -0.37 325.31 -0.37L324.83 -0.37L324.83 0L332.96 0L332.96 -0.37L332.48 -0.37C331.83 -0.37 331.28 -0.59 330.82 -1.04C330.37 -1.48 330.12 -2.03 330.1 -2.67L330.1 -24.91L337.15 -24.91C337.72 -24.88 338.22 -24.65 338.64 -24.22C339.06 -23.79 339.27 -23.27 339.27 -22.68Z M343.05 -0.37L342.57 -0.37L342.57 0L357.98 0L360.13 -6.01L359.76 -6.01C359.11 -4.4 358.31 -3.19 357.35 -2.38C356.38 -1.56 354.98 -1.15 353.15 -1.15L347.84 -1.15L347.84 -12.25L354.15 -12.25C354.65 -12.22 355.06 -12.04 355.4 -11.69C355.73 -11.35 355.9 -10.93 355.9 -10.43L355.9 -9.87L356.27 -9.87L356.27 -15.74L355.9 -15.74L355.9 -15.22C355.9 -14.7 355.72 -14.27 355.38 -13.92C355.03 -13.57 354.61 -13.39 354.12 -13.36L347.84 -13.36L347.84 -24.83L355.42 -24.83C355.98 -24.81 356.47 -24.59 356.88 -24.16C357.29 -23.74 357.49 -23.24 357.49 -22.64L357.49 -21.97L357.86 -21.97L357.86 -26.65C357.49 -26.5 356.86 -26.35 355.95 -26.21C355.05 -26.06 354.21 -25.98 353.45 -25.98L342.57 -25.98L342.61 -25.61L343.05 -25.61C343.67 -25.61 344.21 -25.41 344.65 -25C345.1 -24.59 345.36 -24.09 345.43 -23.5L345.43 -2.71C345.41 -2.07 345.16 -1.52 344.71 -1.06C344.25 -0.6 343.7 -0.37 343.05 -0.37Z M364.03 -1.52C364.69 -0.83 365.64 -0.32 366.87 0.02C368.09 0.35 369.25 0.52 370.34 0.52C372.44 0.52 374.12 -0.12 375.39 -1.39C376.65 -2.67 377.28 -4.29 377.28 -6.27C377.28 -8.25 376.66 -9.81 375.42 -10.95L368.11 -17.71C367.12 -18.62 366.63 -19.71 366.63 -20.97C366.63 -22.23 367.05 -23.29 367.91 -24.13C368.76 -24.97 369.82 -25.39 371.08 -25.39C372.34 -25.39 373.37 -25.04 374.18 -24.35C374.98 -23.66 375.39 -22.73 375.39 -21.57L375.72 -21.57L375.72 -26.13L374.27 -26.13C373.08 -26.38 372.02 -26.5 371.08 -26.5C369.07 -26.5 367.48 -25.88 366.31 -24.63C365.13 -23.38 364.55 -21.88 364.55 -20.12C364.55 -18.36 365.21 -16.86 366.55 -15.63L373.68 -9.02C374.64 -8.13 375.13 -6.97 375.13 -5.55C375.13 -4.13 374.62 -2.94 373.62 -2C372.62 -1.06 371.34 -0.59 369.78 -0.59C368.27 -0.59 367.06 -1.1 366.14 -2.1C365.23 -3.1 364.77 -4.36 364.77 -5.86C364.77 -6.14 364.78 -6.41 364.81 -6.68L364.47 -6.68C364.1 -5.57 363.92 -4.52 363.92 -3.53C363.92 -2.54 363.95 -1.87 364.03 -1.52Z"/></g><g id="SvgjsG1294" class="text" transform="translate(83.43778847814534, 63.281852967336405) scale(1)" light-content="false" fill="#424242"><path d="M1.43 -0.2L1.18 -0.2L1.18 0L9.33 0L10.47 -3.18L10.28 -3.18C9.94 -2.33 9.51 -1.69 9 -1.26C8.49 -0.83 7.75 -0.61 6.78 -0.61L3.97 -0.61L3.97 -12.32C3.97 -12.54 4.03 -12.75 4.15 -12.95C4.4 -13.36 4.76 -13.56 5.23 -13.56L5.48 -13.56L5.48 -13.76L1.18 -13.76L1.18 -13.56L1.43 -13.56C1.78 -13.56 2.07 -13.44 2.31 -13.2C2.55 -12.95 2.68 -12.66 2.69 -12.32L2.69 -1.43C2.68 -1.09 2.55 -0.8 2.31 -0.56C2.07 -0.32 1.78 -0.2 1.43 -0.2Z M25.09 -0.2C24.75 -0.2 24.43 -0.3 24.11 -0.51C23.8 -0.72 23.55 -1.03 23.37 -1.43L18.1 -14.03L17.92 -14.03C17.92 -13.74 17.68 -13.07 17.19 -12.01L12.75 -1.43C12.56 -1.03 12.3 -0.72 11.99 -0.51C11.67 -0.3 11.35 -0.2 11.02 -0.2L10.85 -0.2L10.85 0L14.8 0L14.8 -0.2L14.62 -0.2C14.35 -0.2 14.14 -0.28 14 -0.46C13.86 -0.64 13.8 -0.8 13.8 -0.95C13.8 -1.1 13.82 -1.26 13.87 -1.41L15.19 -4.78L20.5 -4.78L21.75 -1.43C21.81 -1.28 21.83 -1.12 21.83 -0.96C21.83 -0.81 21.76 -0.64 21.63 -0.46C21.49 -0.28 21.28 -0.2 21.01 -0.2L20.83 -0.2L20.83 0L25.25 0L25.25 -0.2ZM15.43 -5.36L17.9 -11.67L20.26 -5.36Z M42.86 -13.56L42.86 -13.76L38.99 -13.76L38.99 -13.56L39.16 -13.56C39.44 -13.56 39.64 -13.47 39.77 -13.3C39.91 -13.13 39.97 -12.97 39.97 -12.82C39.97 -12.67 39.95 -12.52 39.91 -12.38L37.28 -3.18L33.41 -14.05L33.23 -14.07L29.58 -2.79L26.59 -12.36C26.55 -12.49 26.53 -12.64 26.53 -12.79C26.53 -12.95 26.6 -13.12 26.74 -13.29C26.87 -13.47 27.08 -13.56 27.35 -13.56L27.53 -13.56L27.53 -13.76L23.17 -13.76L23.17 -13.56L23.33 -13.56C23.67 -13.56 24 -13.46 24.33 -13.25C24.66 -13.05 24.9 -12.75 25.06 -12.36L29.52 0.24L29.69 0.24C29.72 -0.41 29.86 -1.13 30.11 -1.95L33.09 -11L37.1 0.24L37.28 0.24C37.3 -0.39 37.45 -1.12 37.71 -1.95L40.97 -12.34C41.06 -12.62 41.22 -12.85 41.42 -13.03C41.79 -13.38 42.22 -13.56 42.7 -13.56Z M56.01 -14.03C53.91 -14.03 52.21 -13.37 50.91 -12.06C49.6 -10.74 48.95 -9.01 48.95 -6.88C48.95 -4.74 49.6 -3.02 50.91 -1.7C52.21 -0.38 53.91 0.28 56.01 0.28C58.1 0.28 59.81 -0.38 61.12 -1.7C62.43 -3.02 63.08 -4.74 63.08 -6.88C63.08 -9.01 62.43 -10.74 61.12 -12.06C59.81 -13.37 58.1 -14.03 56.01 -14.03ZM56.02 -0.31C54.35 -0.31 53 -0.92 51.99 -2.12C50.97 -3.33 50.46 -4.91 50.46 -6.88C50.46 -8.84 50.97 -10.43 51.99 -11.63C53 -12.84 54.34 -13.44 56.01 -13.44C57.11 -13.44 58.08 -13.17 58.92 -12.63C59.77 -12.08 60.42 -11.31 60.88 -10.32C61.34 -9.32 61.57 -8.17 61.57 -6.88C61.57 -4.91 61.06 -3.33 60.04 -2.12C59.03 -0.92 57.69 -0.31 56.02 -0.31Z M72.93 -13.54L72.93 -14.11C72.73 -14.03 72.39 -13.95 71.91 -13.87C71.44 -13.8 70.99 -13.76 70.59 -13.76L64.83 -13.76L64.85 -13.56L65.09 -13.56C65.41 -13.56 65.7 -13.45 65.96 -13.24C66.21 -13.02 66.34 -12.75 66.34 -12.44L66.34 -1.43C66.33 -1.09 66.2 -0.8 65.96 -0.56C65.72 -0.32 65.43 -0.2 65.09 -0.2L64.83 -0.2L64.83 0L69.13 0L69.13 -0.2L68.88 -0.2C68.54 -0.2 68.24 -0.32 67.99 -0.56C67.74 -0.8 67.62 -1.09 67.62 -1.43L67.62 -6.48L70.96 -6.48C71.22 -6.47 71.44 -6.37 71.62 -6.19C71.8 -6.01 71.88 -5.78 71.88 -5.52L71.88 -5.23L72.08 -5.23L72.08 -8.33L71.88 -8.33L71.88 -8.04C71.88 -7.78 71.79 -7.55 71.61 -7.37C71.43 -7.19 71.2 -7.09 70.94 -7.07L67.62 -7.07L67.62 -13.15L71.77 -13.15C72.04 -13.15 72.27 -13.05 72.45 -12.86C72.64 -12.67 72.73 -12.45 72.73 -12.18L72.73 -11.89L72.93 -11.89Z M83.56 -13.54L83.56 -14.11C83.36 -14.03 83.02 -13.95 82.55 -13.87C82.07 -13.8 81.62 -13.76 81.22 -13.76L75.46 -13.76L75.48 -13.56L75.72 -13.56C76.04 -13.56 76.34 -13.45 76.59 -13.24C76.85 -13.02 76.97 -12.75 76.97 -12.44L76.97 -1.43C76.96 -1.09 76.83 -0.8 76.59 -0.56C76.35 -0.32 76.06 -0.2 75.72 -0.2L75.46 -0.2L75.46 0L79.76 0L79.76 -0.2L79.51 -0.2C79.17 -0.2 78.87 -0.32 78.62 -0.56C78.38 -0.8 78.25 -1.09 78.25 -1.43L78.25 -6.48L81.59 -6.48C81.85 -6.47 82.07 -6.37 82.25 -6.19C82.43 -6.01 82.52 -5.78 82.52 -5.52L82.52 -5.23L82.71 -5.23L82.71 -8.33L82.52 -8.33L82.52 -8.04C82.52 -7.78 82.42 -7.55 82.24 -7.37C82.06 -7.19 81.83 -7.09 81.57 -7.07L78.25 -7.07L78.25 -13.15L82.4 -13.15C82.67 -13.15 82.9 -13.05 83.09 -12.86C83.27 -12.67 83.36 -12.45 83.36 -12.18L83.36 -11.89L83.56 -11.89Z M86.35 -0.2L86.09 -0.2L86.09 0L90.4 0L90.4 -0.2L90.14 -0.2C89.8 -0.2 89.51 -0.32 89.26 -0.56C89.01 -0.8 88.88 -1.09 88.88 -1.43L88.88 -12.34C88.9 -12.68 89.02 -12.97 89.27 -13.21C89.51 -13.44 89.8 -13.56 90.14 -13.56L90.4 -13.56L90.4 -13.76L86.09 -13.76L86.09 -13.56L86.35 -13.56C86.69 -13.56 86.98 -13.44 87.22 -13.21C87.46 -12.97 87.59 -12.68 87.61 -12.34L87.61 -1.43C87.59 -1.09 87.46 -0.8 87.22 -0.56C86.98 -0.32 86.69 -0.2 86.35 -0.2Z M94.3 -1.71C95.6 -0.4 97.29 0.26 99.36 0.28C101.85 0.28 103.69 -0.7 104.88 -2.65L105.11 -5.74L104.96 -5.74C104.73 -3.79 104.09 -2.38 103.03 -1.51C102.05 -0.71 100.82 -0.31 99.36 -0.31C97.69 -0.35 96.35 -0.97 95.34 -2.17C94.32 -3.37 93.82 -4.95 93.82 -6.92C93.82 -8.88 94.33 -10.46 95.36 -11.65C96.39 -12.85 97.76 -13.44 99.47 -13.44C100.68 -13.44 101.72 -13.14 102.6 -12.53C103.48 -11.92 104.06 -11.05 104.35 -9.92L104.53 -9.92L104.13 -12.69C102.78 -13.59 101.23 -14.03 99.47 -14.03C97.33 -14.03 95.6 -13.38 94.3 -12.07C92.99 -10.76 92.34 -9.03 92.34 -6.89C92.34 -4.75 92.99 -3.02 94.3 -1.71Z M107.53 -0.2L107.28 -0.2L107.28 0L115.43 0L116.57 -3.18L116.37 -3.18C116.03 -2.33 115.61 -1.69 115.1 -1.26C114.59 -0.83 113.85 -0.61 112.88 -0.61L110.07 -0.61L110.07 -6.48L113.41 -6.48C113.67 -6.47 113.89 -6.37 114.07 -6.19C114.24 -6.01 114.33 -5.78 114.33 -5.52L114.33 -5.23L114.53 -5.23L114.53 -8.33L114.33 -8.33L114.33 -8.06C114.33 -7.78 114.24 -7.55 114.06 -7.37C113.87 -7.19 113.65 -7.09 113.39 -7.07L110.07 -7.07L110.07 -13.15L114.08 -13.15C114.38 -13.13 114.64 -13.02 114.85 -12.79C115.07 -12.57 115.18 -12.3 115.18 -11.99L115.18 -11.63L115.37 -11.63L115.37 -14.11C115.18 -14.03 114.84 -13.95 114.36 -13.87C113.88 -13.8 113.44 -13.76 113.03 -13.76L107.28 -13.76L107.3 -13.56L107.53 -13.56C107.86 -13.56 108.14 -13.45 108.38 -13.24C108.61 -13.02 108.75 -12.75 108.79 -12.44L108.79 -1.43C108.78 -1.09 108.65 -0.8 108.41 -0.56C108.16 -0.32 107.87 -0.2 107.53 -0.2Z"/></g></g></svg>