<svg xmlns="http://www.w3.org/2000/svg" version="1.1" xlink="http://www.w3.org/1999/xlink" xmlns:svgjs="http://svgjs.com/svgjs" width="300" height="72.85583344245123"><defs id="SvgjsDefs1283"/><g id="SvgjsG1284" transform="scale(1.3094146916328402)" opacity="1"><g id="SvgjsG1285" class="text" transform="translate(-1.1500000000000057, 30.46) scale(1)" light-content="false" fill="#2e2e2e"><path d="M29.42 -15.72C29.42 -15.87 29.38 -15.97 29.31 -16.02C29.23 -16.06 29.19 -16.17 29.19 -16.34C29.19 -16.51 29.18 -16.69 29.15 -16.87C29.12 -17.06 29.09 -17.26 29.05 -17.47C28.73 -19.34 28.11 -21.09 27.17 -22.72C27.09 -22.84 27.01 -22.97 26.93 -23.12C26.85 -23.27 26.76 -23.4 26.66 -23.51C26.59 -23.61 26.5 -23.69 26.4 -23.75C26.29 -23.82 26.19 -23.89 26.1 -23.96C25.59 -24.39 25.08 -24.81 24.57 -25.21C24.05 -25.62 23.51 -25.99 22.95 -26.32L22.87 -26.32C22.77 -26.32 22.73 -26.29 22.73 -26.21C22.73 -26.14 22.68 -26.1 22.58 -26.1C22.53 -26.1 22.48 -26.11 22.44 -26.13C22.01 -26.52 21.51 -26.76 20.93 -26.85C20.34 -26.93 19.77 -26.99 19.21 -27.03C19 -27.31 18.85 -27.65 18.76 -28.04C18.67 -28.43 18.55 -28.81 18.41 -29.17C18.27 -29.52 18.08 -29.83 17.85 -30.08C17.61 -30.33 17.27 -30.46 16.82 -30.46C16.46 -30.46 16.12 -30.39 15.81 -30.25C15.49 -30.11 15.17 -29.99 14.85 -29.9C14.77 -29.86 14.7 -29.84 14.61 -29.83C14.53 -29.82 14.45 -29.79 14.37 -29.76C14.22 -29.68 14.1 -29.55 14.01 -29.36C13.91 -29.18 13.76 -29.03 13.56 -28.94C13.11 -28.7 12.74 -28.43 12.45 -28.14C12.15 -27.85 11.89 -27.54 11.66 -27.21C11.42 -26.88 11.19 -26.55 10.97 -26.21C10.74 -25.87 10.46 -25.54 10.13 -25.2C10.03 -25.16 9.97 -25.09 9.94 -24.99C9.91 -24.89 9.91 -24.79 9.93 -24.69L9.93 -24.5C9.55 -24.22 9.24 -23.88 9 -23.48C8.76 -23.09 8.53 -22.69 8.31 -22.27C8.1 -21.86 7.88 -21.45 7.68 -21.02C7.47 -20.6 7.22 -20.22 6.92 -19.88C6.96 -19.72 6.94 -19.59 6.88 -19.52C6.81 -19.44 6.79 -19.35 6.81 -19.24L6.81 -19.15C6.71 -19.15 6.65 -19.13 6.62 -19.1C6.6 -19.06 6.56 -19.01 6.53 -18.96L6.44 -18.82C6.42 -18.78 6.38 -18.76 6.3 -18.76C5.89 -17.73 5.45 -16.72 4.98 -15.72C4.51 -14.73 4.05 -13.72 3.61 -12.71C3.17 -11.7 2.77 -10.68 2.39 -9.66C2.02 -8.64 1.72 -7.58 1.49 -6.5C1.43 -6.2 1.36 -5.85 1.28 -5.46C1.2 -5.06 1.15 -4.73 1.15 -4.44C1.15 -4.28 1.18 -4.08 1.22 -3.87C1.27 -3.65 1.31 -3.47 1.35 -3.32C1.44 -2.83 1.52 -2.34 1.58 -1.86C1.63 -1.37 1.73 -0.88 1.88 -0.39C2.07 -0.36 2.2 -0.26 2.28 -0.1C2.35 0.06 2.41 0.23 2.45 0.39C2.47 0.39 2.49 0.38 2.52 0.37C2.55 0.35 2.57 0.34 2.59 0.34C2.68 0.34 2.77 0.42 2.84 0.59C2.92 0.76 3 0.87 3.09 0.93C3.13 0.97 3.18 1 3.25 1.03C3.31 1.05 3.38 1.09 3.43 1.13C3.68 1.29 3.89 1.48 4.08 1.69C4.27 1.89 4.41 2.14 4.5 2.42C4.73 2.36 4.95 2.41 5.19 2.57C5.42 2.73 5.63 2.89 5.79 3.04C6.02 3.06 6.22 3.09 6.41 3.15L7 3.35C7.21 3.42 7.41 3.49 7.61 3.54C7.8 3.6 8.01 3.63 8.21 3.63C8.33 3.63 8.5 3.58 8.73 3.49C8.97 3.39 9.13 3.31 9.23 3.23C9.34 3.29 9.43 3.36 9.51 3.43C9.58 3.51 9.69 3.54 9.84 3.54C10.11 3.54 10.35 3.51 10.59 3.43C10.82 3.36 11.06 3.28 11.31 3.19C11.55 3.11 11.79 3.02 12.02 2.94C12.26 2.85 12.51 2.81 12.77 2.81C12.86 2.68 13 2.56 13.19 2.46C13.38 2.36 13.56 2.31 13.73 2.31C13.88 2.31 13.99 2.34 14.06 2.42C14.19 2.16 14.4 1.97 14.7 1.86C14.99 1.74 15.24 1.63 15.47 1.52C15.62 1.37 15.8 1.22 16.02 1.08C16.23 0.94 16.45 0.87 16.68 0.87C16.81 0.87 16.91 0.89 16.99 0.93C16.97 0.68 17.06 0.51 17.27 0.39C17.36 0.41 17.42 0.44 17.45 0.46C17.48 0.49 17.53 0.51 17.61 0.51C17.63 0.37 17.69 0.27 17.79 0.18C17.89 0.1 18 0.03 18.13 -0.03C18.25 -0.08 18.37 -0.14 18.49 -0.18C18.61 -0.23 18.72 -0.3 18.82 -0.39C19.53 -0.73 20.19 -1.13 20.8 -1.59C21.41 -2.05 22.06 -2.46 22.75 -2.81C22.88 -3.15 23.11 -3.39 23.43 -3.53C23.75 -3.67 24.06 -3.8 24.36 -3.91C24.6 -4.53 25 -4.93 25.57 -5.12C25.72 -5.38 25.9 -5.64 26.13 -5.91C26.35 -6.17 26.58 -6.43 26.8 -6.68C27.03 -6.93 27.23 -7.18 27.42 -7.41C27.61 -7.65 27.76 -7.87 27.87 -8.07C28 -8.32 28.1 -8.58 28.15 -8.86C28.21 -9.14 28.36 -9.38 28.6 -9.56C28.87 -10.59 29.07 -11.61 29.21 -12.61C29.35 -13.62 29.42 -14.65 29.42 -15.72ZM27.25 -14.29C27.25 -13.72 27.18 -13.17 27.04 -12.63C26.9 -12.08 26.68 -11.57 26.38 -11.08L26.38 -10.29C26.31 -10.14 26.23 -10.02 26.14 -9.93C26.06 -9.83 25.97 -9.74 25.89 -9.63C25.8 -9.53 25.73 -9.42 25.66 -9.3C25.6 -9.17 25.57 -9.03 25.57 -8.86C25.43 -8.86 25.34 -8.83 25.27 -8.77C25.2 -8.72 25.15 -8.65 25.1 -8.58C25.05 -8.5 25 -8.43 24.93 -8.37C24.87 -8.3 24.78 -8.27 24.67 -8.27C24.44 -7.84 24.16 -7.45 23.84 -7.1C23.51 -6.75 23.16 -6.43 22.8 -6.13C22.43 -5.83 22.05 -5.55 21.66 -5.29C21.26 -5.03 20.88 -4.75 20.5 -4.47C20.28 -4.3 20.06 -4.13 19.84 -3.94C19.63 -3.75 19.42 -3.58 19.21 -3.43C19.15 -3.39 19.08 -3.36 18.98 -3.32C18.89 -3.28 18.82 -3.24 18.76 -3.21C18.44 -3.06 18.13 -2.89 17.83 -2.71C17.53 -2.54 17.28 -2.31 17.07 -2.02L16.48 -2.02C15.69 -1.54 14.83 -1.09 13.88 -0.67C12.93 -0.26 11.98 -0.04 11.03 0C10.82 0.23 10.56 0.37 10.25 0.45C9.94 0.53 9.64 0.56 9.34 0.56C8.91 0.56 8.48 0.52 8.04 0.44C7.61 0.35 7.2 0.24 6.81 0.11C6.77 0.02 6.72 -0.06 6.67 -0.11C6.61 -0.17 6.58 -0.26 6.58 -0.39C6.3 -0.43 6.08 -0.52 5.91 -0.66C5.74 -0.8 5.58 -0.97 5.44 -1.15C5.3 -1.34 5.17 -1.54 5.03 -1.74C4.9 -1.95 4.75 -2.14 4.58 -2.31C4.43 -3.02 4.36 -3.72 4.36 -4.42C4.36 -5.02 4.4 -5.62 4.47 -6.24C4.55 -6.86 4.62 -7.47 4.7 -8.07C4.81 -8.2 4.9 -8.36 4.96 -8.54C5.03 -8.71 5.17 -8.82 5.37 -8.86C5.3 -9.01 5.26 -9.16 5.26 -9.31C5.26 -9.44 5.29 -9.56 5.34 -9.66C5.4 -9.76 5.46 -9.87 5.53 -9.98C5.59 -10.1 5.65 -10.21 5.71 -10.34C5.77 -10.46 5.79 -10.59 5.79 -10.74L5.79 -10.88C5.89 -10.94 5.95 -11.02 5.99 -11.11L6.27 -11.67C6.33 -11.77 6.4 -11.84 6.5 -11.9C6.53 -12.55 6.67 -13.15 6.92 -13.7C7.16 -14.24 7.5 -14.76 7.93 -15.24C8.19 -16.14 8.58 -17.07 9.08 -18.01C9.59 -18.96 10.14 -19.81 10.74 -20.56C10.86 -21.07 11.04 -21.49 11.29 -21.84C11.55 -22.19 11.82 -22.52 12.12 -22.84C12.42 -23.16 12.71 -23.48 12.99 -23.82C13.28 -24.16 13.49 -24.55 13.64 -25C13.81 -25.04 13.96 -25.11 14.09 -25.21C14.22 -25.32 14.36 -25.37 14.51 -25.37C14.57 -25.37 14.65 -25.35 14.77 -25.31C14.75 -25.26 14.74 -25.16 14.74 -25.03C14.74 -24.83 14.79 -24.64 14.89 -24.48C15 -24.32 15.11 -24.17 15.23 -24.03C15.35 -23.89 15.47 -23.75 15.6 -23.6C15.72 -23.45 15.81 -23.28 15.86 -23.09C16.24 -22.85 16.57 -22.57 16.88 -22.26C17.18 -21.95 17.48 -21.66 17.8 -21.37C18.1 -21.43 18.32 -21.41 18.46 -21.32C18.6 -21.23 18.81 -21.18 19.07 -21.18C19.2 -21.18 19.31 -21.21 19.41 -21.26C19.5 -21.32 19.58 -21.38 19.65 -21.45C19.71 -21.51 19.78 -21.59 19.86 -21.67C19.93 -21.75 20.02 -21.82 20.11 -21.88C19.98 -22.46 19.61 -22.83 19.01 -22.98C18.98 -23.15 18.96 -23.32 18.96 -23.5C18.96 -23.68 18.91 -23.84 18.82 -23.99C19.1 -24.1 19.39 -24.16 19.69 -24.16C20.12 -24.16 20.55 -24.09 20.97 -23.95C21.39 -23.81 21.82 -23.69 22.25 -23.6C22.51 -23.37 22.78 -23.17 23.05 -22.99C23.32 -22.81 23.63 -22.68 23.96 -22.58C23.93 -22.4 23.96 -22.29 24.08 -22.27C24.19 -22.26 24.31 -22.22 24.44 -22.16C24.63 -21.84 24.84 -21.54 25.07 -21.25C25.31 -20.96 25.57 -20.7 25.88 -20.48C25.91 -20.21 25.98 -19.97 26.09 -19.74C26.19 -19.52 26.3 -19.29 26.41 -19.07C26.52 -18.84 26.62 -18.62 26.7 -18.39C26.79 -18.17 26.84 -17.92 26.86 -17.66L27.2 -17.04L27.2 -16.9C27.2 -16.81 27.18 -16.72 27.15 -16.64C27.13 -16.55 27.07 -16.49 26.97 -16.45C27.16 -15.76 27.25 -15.04 27.25 -14.29Z M46.69 -7.23C46.69 -7.28 46.67 -7.37 46.63 -7.48L46.43 -7.48C46.25 -7.48 46.06 -7.46 45.87 -7.42C45.68 -7.39 45.5 -7.37 45.31 -7.37C45.14 -7.37 44.98 -7.41 44.83 -7.48C43.8 -6.94 42.75 -6.46 41.68 -6.05C40.61 -5.63 39.54 -5.2 38.48 -4.75C38.38 -4.81 38.32 -4.88 38.28 -4.98C38.24 -5.07 38.17 -5.13 38.05 -5.15C37.96 -4.98 37.8 -4.86 37.59 -4.8C37.37 -4.73 37.16 -4.7 36.96 -4.7C36.79 -4.7 36.57 -4.73 36.3 -4.81C36.02 -4.88 35.84 -5 35.75 -5.15C35.54 -5.52 35.41 -5.99 35.37 -6.55C35.32 -7.12 35.3 -7.6 35.3 -8.02C35.3 -8.28 35.3 -8.55 35.31 -8.85C35.32 -9.14 35.33 -9.42 35.35 -9.7C35.5 -9.89 35.62 -10.13 35.69 -10.43C35.77 -10.73 35.82 -11.04 35.85 -11.36C35.87 -11.68 35.89 -12 35.9 -12.3C35.91 -12.61 35.92 -12.89 35.94 -13.13C36.11 -13.3 36.22 -13.5 36.27 -13.72C36.31 -13.95 36.34 -14.17 36.34 -14.4C36.34 -14.61 36.33 -14.82 36.31 -15.05C36.29 -15.27 36.28 -15.5 36.28 -15.72C36.28 -15.87 36.29 -16.03 36.31 -16.2C36.33 -16.37 36.37 -16.53 36.45 -16.68C36.17 -17.2 36.03 -17.76 36.03 -18.34L36.03 -18.7C35.88 -18.78 35.69 -18.84 35.45 -18.89C35.22 -18.93 35.07 -19.07 35.02 -19.29C34.87 -19.24 34.7 -19.21 34.51 -19.21C34.4 -19.21 34.28 -19.23 34.17 -19.27C34.06 -19.3 33.94 -19.34 33.81 -19.38C33.82 -19.3 33.8 -19.21 33.72 -19.1C33.18 -18.85 32.74 -18.57 32.41 -18.24C32.09 -17.91 31.92 -17.42 31.92 -16.76C32.18 -16.54 32.32 -16.23 32.32 -15.83L32.32 -15.75C32.6 -15.69 32.74 -15.5 32.74 -15.16C32.74 -14.86 32.66 -14.59 32.51 -14.34C32.61 -14.1 32.65 -13.8 32.65 -13.44L32.65 -12.82C32.65 -12.64 32.67 -12.44 32.71 -12.23C32.45 -11.56 32.29 -10.86 32.25 -10.14C32.2 -9.42 32.12 -8.7 32.01 -7.99C31.97 -7.76 31.94 -7.54 31.91 -7.33C31.88 -7.11 31.87 -6.89 31.87 -6.67C31.87 -6.59 31.88 -6.45 31.91 -6.24C31.94 -6.04 31.97 -5.82 32.01 -5.6C32.04 -5.37 32.08 -5.16 32.12 -4.96C32.16 -4.77 32.18 -4.63 32.2 -4.56C32.28 -4.33 32.4 -4.13 32.55 -3.94C32.71 -3.75 32.84 -3.55 32.93 -3.35C33.14 -2.9 33.37 -2.56 33.61 -2.33C33.85 -2.11 34.19 -1.87 34.62 -1.63C34.85 -1.67 35.06 -1.66 35.27 -1.6C35.47 -1.55 35.68 -1.52 35.89 -1.52C36 -1.52 36.07 -1.54 36.1 -1.57C36.13 -1.61 36.15 -1.65 36.17 -1.69L36.23 -1.8C36.24 -1.84 36.28 -1.86 36.34 -1.86C36.53 -1.86 36.7 -1.84 36.87 -1.81C37.04 -1.79 37.22 -1.77 37.41 -1.77C38.1 -1.77 38.73 -1.96 39.29 -2.33C39.31 -2.35 39.35 -2.36 39.4 -2.36C39.5 -2.36 39.58 -2.34 39.64 -2.29C39.71 -2.25 39.79 -2.23 39.88 -2.25L39.97 -2.25C40.28 -2.42 40.53 -2.64 40.7 -2.92C41.03 -3.04 41.36 -3.18 41.68 -3.36C42 -3.54 42.31 -3.72 42.62 -3.9C42.93 -4.07 43.25 -4.24 43.58 -4.4C43.91 -4.56 44.25 -4.68 44.61 -4.75C44.68 -4.88 44.74 -4.98 44.79 -5.05C44.84 -5.11 44.89 -5.17 44.94 -5.2C45 -5.24 45.07 -5.26 45.17 -5.26L45.53 -5.26C45.63 -5.47 45.72 -5.65 45.82 -5.82C45.91 -5.99 46.09 -6.07 46.35 -6.07C46.27 -6.19 46.24 -6.28 46.24 -6.36C46.24 -6.52 46.31 -6.66 46.46 -6.76C46.61 -6.87 46.69 -7.02 46.69 -7.23Z M52.57 -3.85C52.36 -4.19 52.17 -4.53 52 -4.87C51.83 -5.2 51.71 -5.56 51.64 -5.93C51.62 -5.93 51.57 -5.95 51.5 -5.99C51.4 -6.01 51.33 -5.98 51.27 -5.89C51.22 -5.81 51.14 -5.77 51.05 -5.79L50.99 -5.82C50.65 -6.65 50.5 -7.54 50.54 -8.51C50.58 -9.47 50.66 -10.46 50.79 -11.47C50.93 -12.49 51.02 -13.5 51.08 -14.5C51.13 -15.5 51.01 -16.45 50.71 -17.35C50.54 -17.5 50.36 -17.64 50.18 -17.76C49.99 -17.88 49.77 -17.96 49.53 -18C49.38 -18.04 49.22 -18.03 49.06 -17.99C48.9 -17.94 48.75 -17.89 48.6 -17.83C48.62 -17.76 48.62 -17.68 48.6 -17.61C48.58 -17.44 48.51 -17.33 48.38 -17.28C48.24 -17.24 48.15 -17.14 48.09 -16.99C48.22 -16.89 48.27 -16.74 48.23 -16.54C48.22 -16.41 48.18 -16.29 48.14 -16.19C48.09 -16.08 48.05 -15.96 48.01 -15.81L48.04 -15.67C48.21 -15.2 48.29 -14.7 48.29 -14.16C48.29 -13.63 48.25 -13.12 48.18 -12.63C48.1 -12.08 48.02 -11.55 47.93 -11.02C47.83 -10.5 47.75 -9.97 47.67 -9.42C47.65 -9.27 47.63 -9.11 47.6 -8.93C47.57 -8.75 47.56 -8.57 47.56 -8.38C47.58 -8.23 47.61 -8.07 47.64 -7.9C47.68 -7.73 47.71 -7.57 47.73 -7.4C47.82 -6.68 47.88 -5.98 47.9 -5.29C48.1 -4.97 48.32 -4.63 48.56 -4.28C48.79 -3.92 49.05 -3.58 49.33 -3.26C49.41 -3.28 49.48 -3.28 49.56 -3.26C49.74 -3.24 49.87 -3.18 49.95 -3.08C50.03 -2.98 50.14 -2.91 50.29 -2.87C50.36 -2.94 50.46 -2.99 50.58 -3C50.7 -3 50.84 -3 50.98 -3C51.12 -2.99 51.27 -2.98 51.43 -2.98C51.59 -2.98 51.73 -3.01 51.86 -3.07C51.98 -3.2 52.1 -3.32 52.23 -3.45C52.36 -3.57 52.47 -3.7 52.57 -3.85Z M70.68 -20.03C70.68 -20.46 70.65 -20.93 70.58 -21.45C70.51 -21.96 70.41 -22.42 70.26 -22.84C70.03 -22.93 69.83 -22.98 69.64 -22.98C69.32 -22.98 69.16 -22.8 69.16 -22.44L68.15 -22.44C67.87 -21.88 67.65 -21.3 67.5 -20.69C67.35 -20.08 67.23 -19.45 67.13 -18.82C66.85 -18.5 66.67 -18.12 66.57 -17.69C66.48 -17.26 66.43 -16.83 66.43 -16.4C66.34 -16.28 66.23 -16.17 66.12 -16.06C66.01 -15.95 65.95 -15.82 65.95 -15.67C65.95 -15.59 65.97 -15.52 66 -15.45C66.02 -15.39 66.04 -15.32 66.04 -15.24C66.04 -15.09 65.99 -14.93 65.9 -14.75C65.8 -14.57 65.73 -14.42 65.67 -14.29C65.48 -13.86 65.32 -13.42 65.18 -12.98C65.04 -12.54 64.95 -12.1 64.91 -11.67C64.63 -11.24 64.41 -10.79 64.25 -10.31C64.09 -9.83 64.01 -9.34 64.01 -8.83C63.86 -8.87 63.78 -8.86 63.76 -8.82C63.74 -8.77 63.68 -8.71 63.59 -8.63C63.55 -8.24 63.46 -7.9 63.31 -7.62C63.16 -7.34 62.99 -7.04 62.8 -6.72C62.8 -6.52 62.77 -6.31 62.7 -6.12C62.64 -5.92 62.6 -5.72 62.58 -5.51C62.41 -5.36 62.26 -5.16 62.14 -4.91C62.02 -4.65 61.89 -4.4 61.75 -4.15C61.61 -3.9 61.45 -3.68 61.28 -3.49C61.12 -3.3 60.92 -3.2 60.69 -3.18C60.62 -3.29 60.56 -3.42 60.53 -3.56C60.49 -3.7 60.45 -3.84 60.4 -3.98C60.35 -4.12 60.3 -4.26 60.23 -4.39C60.16 -4.52 60.08 -4.62 59.96 -4.7C60.02 -4.81 60.05 -4.92 60.05 -5.03C60.05 -5.17 60.01 -5.3 59.93 -5.43C59.86 -5.56 59.8 -5.68 59.77 -5.79C59.65 -6.32 59.55 -6.83 59.47 -7.34C59.39 -7.85 59.3 -8.35 59.2 -8.86C58.87 -10.62 58.48 -12.37 58.04 -14.1C57.6 -15.84 56.96 -17.51 56.14 -19.12L55.24 -19.12C55.18 -18.94 55.09 -18.79 54.96 -18.67C54.82 -18.56 54.75 -18.4 54.73 -18.2C54.94 -17.78 55.13 -17.37 55.29 -16.96C55.46 -16.55 55.68 -16.15 55.94 -15.78C55.87 -15.72 55.83 -15.65 55.83 -15.55C55.83 -15.52 55.87 -15.46 55.95 -15.4C56.04 -15.33 56.1 -15.23 56.14 -15.1C56.17 -14.92 56.2 -14.74 56.21 -14.57C56.22 -14.4 56.23 -14.24 56.25 -14.08C56.27 -13.92 56.3 -13.76 56.35 -13.6C56.4 -13.44 56.49 -13.27 56.64 -13.08C56.59 -12.98 56.56 -12.9 56.56 -12.82C56.56 -12.73 56.57 -12.64 56.6 -12.54C56.63 -12.45 56.64 -12.36 56.64 -12.26C56.64 -12.13 56.61 -12.03 56.53 -11.95C56.7 -11.73 56.82 -11.46 56.88 -11.14C56.95 -10.82 57 -10.5 57.04 -10.17C57.08 -9.84 57.12 -9.52 57.18 -9.21C57.23 -8.9 57.36 -8.64 57.54 -8.44C57.53 -8.34 57.51 -8.25 57.5 -8.14C57.49 -8.04 57.49 -7.94 57.49 -7.85C57.49 -7.4 57.57 -6.96 57.73 -6.52C57.89 -6.09 58 -5.64 58.08 -5.17C58.19 -4.37 58.26 -3.56 58.29 -2.74C58.32 -1.93 58.41 -1.1 58.56 -0.25C58.86 -0.1 59.12 0.09 59.34 0.32C59.57 0.56 59.81 0.77 60.08 0.96C60.45 0.88 60.8 0.73 61.12 0.51C61.43 0.28 61.73 0.02 62.02 -0.28C62.3 -0.58 62.57 -0.88 62.85 -1.18C63.12 -1.48 63.4 -1.74 63.7 -1.97C63.7 -2.18 63.76 -2.38 63.87 -2.57C63.98 -2.77 64.04 -2.98 64.04 -3.21C64.04 -3.28 64.03 -3.34 64.01 -3.37C64.37 -3.71 64.62 -4.14 64.77 -4.65C64.92 -5.17 65.07 -5.65 65.22 -6.1C65.52 -6.46 65.76 -6.86 65.93 -7.31C66.09 -7.76 66.25 -8.24 66.39 -8.73C66.53 -9.23 66.67 -9.72 66.8 -10.21C66.93 -10.7 67.11 -11.15 67.33 -11.56C67.46 -12.38 67.66 -13.18 67.94 -13.94C68.21 -14.7 68.44 -15.49 68.63 -16.31C68.85 -16.41 69.04 -16.53 69.19 -16.69C69.34 -16.85 69.48 -17.02 69.61 -17.18L70 -17.72C70.13 -17.91 70.28 -18.07 70.45 -18.2C70.55 -18.52 70.61 -18.82 70.64 -19.11C70.66 -19.4 70.68 -19.71 70.68 -20.03Z M88.43 -17.89C88.43 -18.08 88.38 -18.24 88.3 -18.38C88.21 -18.52 88.16 -18.69 88.14 -18.9C87.92 -18.86 87.69 -18.87 87.45 -18.91C87.22 -18.96 86.99 -18.98 86.77 -18.98C86.56 -18.98 86.37 -18.96 86.2 -18.9C85.73 -18.99 85.26 -19.06 84.77 -19.1C84.28 -19.13 83.79 -19.15 83.31 -19.15C82.74 -19.15 82.19 -19.14 81.63 -19.12C81.08 -19.11 80.52 -19.1 79.96 -19.1C79.57 -18.93 79.14 -18.84 78.69 -18.84C78.47 -18.84 78.24 -18.86 78.02 -18.89C77.79 -18.91 77.57 -18.95 77.34 -18.98C77.25 -18.91 77.18 -18.84 77.13 -18.79C77.09 -18.73 76.99 -18.7 76.84 -18.7C76.52 -18.67 76.24 -18.62 75.99 -18.56C75.75 -18.51 75.52 -18.44 75.3 -18.35C75.09 -18.27 74.87 -18.16 74.66 -18.04C74.44 -17.92 74.2 -17.78 73.94 -17.63C73.77 -17.52 73.59 -17.41 73.39 -17.31C73.2 -17.21 72.99 -17.13 72.79 -17.07C72.77 -16.96 72.73 -16.86 72.68 -16.76L72.51 -16.48L71.58 -16.48C71.43 -16.41 71.32 -16.3 71.24 -16.17C71.17 -16.04 71.05 -15.94 70.9 -15.86C70.88 -15.69 70.88 -15.52 70.88 -15.33L70.88 -14.79C70.88 -14.25 70.89 -13.71 70.93 -13.16C70.97 -12.62 70.99 -12.08 70.99 -11.53L70.99 -11.45C70.84 -11.09 70.7 -10.74 70.57 -10.41C70.43 -10.07 70.28 -9.74 70.09 -9.42L70.09 -9.22C70.09 -9 70.12 -8.81 70.17 -8.65C70.23 -8.49 70.29 -8.31 70.37 -8.1C70.33 -7.97 70.31 -7.82 70.3 -7.65C70.29 -7.48 70.28 -7.31 70.26 -7.14C70.24 -6.97 70.2 -6.81 70.16 -6.65C70.11 -6.49 70.05 -6.37 69.98 -6.27C70.05 -6.05 70.09 -5.78 70.09 -5.48C70.09 -5.18 70.07 -4.89 70.03 -4.6C69.99 -4.31 69.98 -4.01 69.98 -3.71C69.98 -3.51 69.99 -3.33 70.03 -3.18C70.07 -3.03 70.12 -2.85 70.17 -2.64C70.19 -2.63 70.2 -2.6 70.2 -2.56C70.2 -2.47 70.16 -2.41 70.09 -2.39C70.01 -2.37 69.98 -2.32 69.98 -2.22L69.98 -2.14C70.16 -1.65 70.34 -1.14 70.51 -0.62C70.68 -0.09 70.9 0.39 71.17 0.84C71.44 1.29 71.78 1.67 72.17 1.98C72.56 2.29 73.08 2.47 73.72 2.5C73.68 2.67 73.73 2.77 73.87 2.8C74.01 2.83 74.12 2.89 74.19 2.98C74.46 2.98 74.7 2.97 74.93 2.94C75.15 2.91 75.38 2.9 75.6 2.9C75.86 2.9 76.11 2.93 76.33 2.98C76.82 2.72 77.31 2.45 77.81 2.17C78.3 1.88 78.82 1.66 79.37 1.49C79.52 1.3 79.68 1.14 79.85 1C80.02 0.86 80.2 0.71 80.41 0.56C80.6 0.49 80.72 0.42 80.78 0.37C81.06 0.14 81.34 -0.18 81.63 -0.6C81.92 -1.03 82.2 -1.47 82.46 -1.94C82.73 -2.41 82.97 -2.88 83.19 -3.35C83.42 -3.82 83.62 -4.22 83.78 -4.56C83.65 -4.78 83.55 -5.02 83.46 -5.27C83.38 -5.53 83.26 -5.76 83.11 -5.96C83.02 -5.93 82.92 -5.9 82.81 -5.88C82.71 -5.86 82.61 -5.85 82.52 -5.85C82.42 -5.85 82.34 -5.86 82.25 -5.88C82.17 -5.9 82.08 -5.93 81.98 -5.96C81.87 -5.7 81.71 -5.48 81.49 -5.32C81.28 -5.15 81.07 -4.96 80.89 -4.75L80.89 -3.94C80.64 -3.79 80.46 -3.58 80.34 -3.32C80.22 -3.06 80.09 -2.79 79.96 -2.53C79.75 -2.46 79.54 -2.33 79.31 -2.15C79.09 -1.97 78.87 -1.79 78.65 -1.6C78.44 -1.42 78.24 -1.25 78.06 -1.11C77.88 -0.97 77.74 -0.9 77.63 -0.9C77.55 -0.9 77.48 -0.91 77.41 -0.93C77.35 -0.95 77.28 -0.96 77.2 -0.96L77.06 -0.93C76.89 -0.67 76.68 -0.48 76.42 -0.37C76.15 -0.25 75.87 -0.2 75.57 -0.2C75.12 -0.2 74.75 -0.31 74.45 -0.55C74.15 -0.78 73.91 -1.08 73.73 -1.43C73.55 -1.79 73.42 -2.18 73.34 -2.6C73.25 -3.02 73.21 -3.41 73.21 -3.77C73.21 -3.96 73.23 -4.14 73.27 -4.33C73.3 -4.52 73.32 -4.7 73.32 -4.87C73.32 -5.02 73.26 -5.08 73.13 -5.05C72.99 -5.02 72.92 -5.05 72.9 -5.15C73.01 -5.28 73.09 -5.46 73.13 -5.68C73.16 -5.91 73.19 -6.15 73.2 -6.4C73.2 -6.65 73.21 -6.9 73.22 -7.14C73.23 -7.39 73.27 -7.59 73.32 -7.76C73.45 -7.87 73.59 -7.95 73.74 -8C73.89 -8.05 74.02 -8.15 74.11 -8.3C74.22 -8.28 74.33 -8.26 74.45 -8.25C74.56 -8.25 74.67 -8.24 74.78 -8.24C75.2 -8.24 75.6 -8.29 75.99 -8.38C76.39 -8.48 76.8 -8.52 77.23 -8.52C77.42 -8.52 77.56 -8.51 77.65 -8.49C77.69 -8.53 77.71 -8.59 77.72 -8.68C77.73 -8.76 77.78 -8.8 77.85 -8.8C78.3 -8.8 78.74 -8.86 79.16 -8.99C79.58 -9.11 80 -9.25 80.42 -9.41C80.85 -9.57 81.27 -9.71 81.69 -9.83C82.11 -9.95 82.55 -10.01 83 -10.01L83.31 -10.01C83.42 -10.24 83.57 -10.48 83.76 -10.74C83.94 -11.01 84.04 -11.27 84.04 -11.53C84.04 -11.68 84 -11.81 83.91 -11.92C83.83 -12.04 83.72 -12.14 83.59 -12.23C83.34 -12.27 83.1 -12.29 82.84 -12.29C82.59 -12.29 82.34 -12.34 82.1 -12.43C81.78 -12.28 81.47 -12.18 81.17 -12.14C80.87 -12.09 80.58 -12.06 80.3 -12.04C80.02 -12.02 79.73 -12 79.44 -11.98C79.15 -11.96 78.85 -11.92 78.55 -11.84C78.29 -11.77 78.02 -11.72 77.75 -11.7C77.48 -11.68 77.2 -11.67 76.92 -11.67C76.64 -11.67 76.36 -11.68 76.08 -11.69C75.8 -11.7 75.52 -11.68 75.23 -11.64C75.2 -11.55 75.13 -11.49 75.04 -11.46C74.94 -11.43 74.85 -11.42 74.76 -11.42C74.66 -11.42 74.55 -11.43 74.43 -11.45C74.31 -11.47 74.2 -11.49 74.11 -11.53C74.02 -11.76 73.95 -11.98 73.93 -12.21C73.9 -12.43 73.88 -12.67 73.88 -12.94C73.88 -13.18 73.89 -13.43 73.91 -13.68C73.93 -13.94 73.96 -14.19 74 -14.46C74.37 -14.77 74.81 -15.02 75.3 -15.2C75.8 -15.38 76.32 -15.54 76.87 -15.68C77.41 -15.82 77.95 -15.97 78.48 -16.12C79.02 -16.27 79.51 -16.45 79.96 -16.68C80.13 -16.62 80.33 -16.59 80.55 -16.59C80.83 -16.59 81.13 -16.64 81.44 -16.72C81.75 -16.8 82.03 -16.92 82.29 -17.07C82.86 -17.03 83.42 -17.03 83.98 -17.07C84.54 -17.11 85.11 -17.13 85.67 -17.13C85.87 -17.13 86.09 -17.12 86.3 -17.11C86.52 -17.1 86.73 -17.09 86.93 -17.07C87.14 -17.17 87.36 -17.24 87.58 -17.28C87.81 -17.33 88.02 -17.4 88.23 -17.49C88.23 -17.64 88.29 -17.74 88.43 -17.78Z M123.05 -4.89C122.99 -5.06 122.88 -5.17 122.72 -5.23C122.56 -5.29 122.39 -5.34 122.2 -5.39C122.02 -5.43 121.84 -5.48 121.67 -5.53C121.5 -5.57 121.37 -5.66 121.28 -5.79C120.21 -5.55 119.14 -5.41 118.07 -5.39C117 -5.36 115.92 -5.3 114.83 -5.2C114.55 -5.17 114.27 -5.14 113.98 -5.12C113.69 -5.1 113.41 -5.05 113.15 -4.98C113.03 -4.96 112.93 -4.93 112.82 -4.89C112.72 -4.86 112.62 -4.84 112.53 -4.84C112.4 -4.86 112.3 -4.9 112.23 -4.98C112.17 -5.05 112.07 -5.09 111.94 -5.09L111.85 -5.09C111.7 -4.98 111.53 -4.9 111.35 -4.87C111.16 -4.83 110.98 -4.78 110.81 -4.73C110.1 -4.71 109.39 -4.65 108.68 -4.57C107.96 -4.49 107.25 -4.4 106.52 -4.3C105.8 -4.21 105.08 -4.13 104.37 -4.05C103.66 -3.98 102.95 -3.96 102.23 -3.99L101.78 -4.02C101.78 -4.1 101.74 -4.13 101.64 -4.13L101.39 -4.13C101.43 -4.3 101.4 -4.44 101.29 -4.54C101.19 -4.65 101.07 -4.72 100.94 -4.75C100.92 -4.81 100.91 -4.88 100.91 -4.98C100.93 -5.15 100.97 -5.31 101.04 -5.46C101.1 -5.61 101.16 -5.77 101.19 -5.96C102.49 -6.97 103.74 -8.02 104.96 -9.11C106.18 -10.2 107.4 -11.3 108.62 -12.4C108.81 -12.78 109 -13.16 109.21 -13.54C109.42 -13.93 109.61 -14.32 109.79 -14.72C109.96 -15.13 110.12 -15.53 110.25 -15.95C110.38 -16.36 110.46 -16.78 110.48 -17.21L110.48 -17.69C109.99 -18.37 109.44 -18.96 108.84 -19.46C108.54 -19.43 108.3 -19.45 108.1 -19.53C107.9 -19.62 107.68 -19.72 107.44 -19.83C107.01 -19.81 106.58 -19.82 106.16 -19.87C105.74 -19.92 105.31 -19.95 104.88 -19.97C104.26 -20.01 103.65 -19.96 103.05 -19.83C102.45 -19.7 101.84 -19.64 101.22 -19.66C100.85 -19.68 100.48 -19.65 100.11 -19.59C99.75 -19.52 99.38 -19.45 99.01 -19.38C98.65 -19.3 98.28 -19.23 97.92 -19.17C97.55 -19.1 97.18 -19.08 96.81 -19.1C96.54 -18.95 96.27 -18.82 95.99 -18.72C95.71 -18.61 95.43 -18.57 95.15 -18.59C95.05 -18.59 94.97 -18.6 94.91 -18.6C94.84 -18.61 94.76 -18.64 94.67 -18.67C94.52 -18.47 94.31 -18.33 94.05 -18.25C93.79 -18.18 93.53 -18.14 93.29 -18.14C93.05 -18.16 92.81 -18.2 92.59 -18.27C92.36 -18.33 92.15 -18.41 91.94 -18.51C91.66 -18.39 91.4 -18.23 91.17 -18.03C90.93 -17.82 90.7 -17.62 90.48 -17.42C90.25 -17.23 90.01 -17.05 89.76 -16.9C89.51 -16.75 89.21 -16.69 88.88 -16.71L88.62 -16.71C88.42 -16.54 88.19 -16.4 87.95 -16.28L87.22 -15.95C86.97 -15.83 86.74 -15.7 86.53 -15.54C86.31 -15.38 86.14 -15.18 86.01 -14.93L86.01 -14.48C85.99 -14.35 85.98 -14.22 85.99 -14.09C86 -13.96 86.03 -13.84 86.09 -13.72C86.26 -13.74 86.4 -13.71 86.51 -13.63C86.63 -13.54 86.73 -13.45 86.84 -13.35C86.94 -13.24 87.05 -13.14 87.17 -13.04C87.3 -12.93 87.46 -12.86 87.67 -12.82C87.74 -12.84 87.84 -12.9 87.98 -12.98C88.11 -13.06 88.24 -13.15 88.38 -13.23C88.52 -13.32 88.65 -13.4 88.75 -13.47C88.85 -13.55 88.92 -13.58 88.96 -13.58C89 -13.58 89.04 -13.58 89.09 -13.57C89.13 -13.56 89.17 -13.56 89.21 -13.56C89.27 -13.56 89.33 -13.58 89.38 -13.63C89.44 -13.67 89.5 -13.73 89.58 -13.81C89.65 -13.88 89.74 -13.95 89.85 -14.01C89.95 -14.06 90.06 -14.09 90.17 -14.09L90.42 -14.01C90.46 -13.88 90.49 -13.74 90.51 -13.6C90.53 -13.46 90.53 -13.31 90.53 -13.16C90.52 -12.88 90.48 -12.6 90.42 -12.32C90.37 -12.04 90.33 -11.74 90.31 -11.42C90.27 -11.21 90.3 -11 90.39 -10.77C90.3 -10.66 90.23 -10.53 90.18 -10.39C90.14 -10.25 90.1 -10.11 90.08 -9.96C90.07 -9.64 90.1 -9.33 90.18 -9.03C90.27 -8.73 90.3 -8.42 90.28 -8.1C90.26 -7.89 90.23 -7.69 90.18 -7.48C90.14 -7.27 90.11 -7.07 90.11 -6.86C90.07 -6.49 90.1 -6.12 90.18 -5.75C90.27 -5.39 90.3 -5.02 90.28 -4.64C90.28 -4.4 90.24 -4.19 90.17 -4.02C90.45 -3.57 90.65 -3.03 90.77 -2.39C90.9 -1.75 91.02 -1.17 91.15 -0.65C91.38 -0.48 91.58 -0.28 91.77 -0.04C91.96 0.19 92.16 0.42 92.36 0.65C92.57 0.87 92.79 1.06 93.04 1.22C93.28 1.38 93.56 1.47 93.88 1.49C94.07 1.49 94.28 1.46 94.5 1.41C94.54 1.03 94.64 0.68 94.81 0.37C94.98 0.05 95.07 -0.3 95.09 -0.67C95.13 -0.77 95.13 -0.84 95.09 -0.9C95.03 -0.94 95 -0.98 94.98 -1.03C94.96 -1.07 94.93 -1.12 94.89 -1.18C94.91 -1.26 94.88 -1.29 94.78 -1.29L94.56 -1.29C94.52 -1.29 94.48 -1.3 94.44 -1.32C94.41 -1.34 94.4 -1.37 94.42 -1.41C94.15 -1.82 93.94 -2.25 93.78 -2.71C93.62 -3.17 93.49 -3.65 93.38 -4.13C93.26 -4.62 93.17 -5.11 93.09 -5.61C93.02 -6.11 92.93 -6.58 92.84 -7.03C92.99 -7.56 93.08 -8.12 93.12 -8.72C93.14 -9.21 93.14 -9.68 93.12 -10.15C93.1 -10.62 93.1 -11.1 93.12 -11.59C93.14 -12.17 93.25 -12.76 93.46 -13.36C93.5 -13.45 93.53 -13.54 93.56 -13.61C93.59 -13.69 93.61 -13.77 93.63 -13.87C93.65 -13.88 93.66 -13.9 93.66 -13.92C93.66 -13.94 93.67 -13.96 93.68 -13.98C93.68 -14.09 93.66 -14.2 93.61 -14.3C93.57 -14.4 93.54 -14.51 93.54 -14.62C93.54 -14.66 93.56 -14.72 93.6 -14.79C94.11 -15.04 94.62 -15.29 95.15 -15.54C95.67 -15.79 96.23 -15.91 96.83 -15.89C96.91 -15.89 96.98 -15.88 97.05 -15.86C97.11 -15.84 97.18 -15.83 97.26 -15.83C97.65 -16.06 98.06 -16.21 98.48 -16.3C98.9 -16.38 99.33 -16.44 99.76 -16.47C100.19 -16.5 100.63 -16.53 101.07 -16.57C101.51 -16.6 101.93 -16.69 102.35 -16.82C102.76 -16.78 103.17 -16.77 103.57 -16.79C103.97 -16.81 104.36 -16.81 104.74 -16.79C105.17 -16.75 105.59 -16.69 105.99 -16.61C106.39 -16.52 106.75 -16.35 107.07 -16.09C106.92 -15.34 106.6 -14.66 106.12 -14.06C105.63 -13.46 105.06 -12.97 104.4 -12.57C104.36 -12.42 104.3 -12.3 104.2 -12.19C104.11 -12.09 104.01 -12 103.89 -11.91C103.78 -11.83 103.67 -11.74 103.57 -11.66C103.47 -11.57 103.39 -11.47 103.33 -11.33C102.97 -11.15 102.64 -10.93 102.33 -10.69C102.02 -10.44 101.71 -10.2 101.4 -9.94C101.1 -9.69 100.79 -9.44 100.48 -9.2C100.17 -8.95 99.83 -8.75 99.48 -8.58C99.18 -8.18 98.86 -7.81 98.52 -7.45C98.18 -7.1 97.83 -6.76 97.45 -6.44C97.38 -6.01 97.3 -5.59 97.23 -5.17C97.15 -4.76 97.09 -4.34 97.03 -3.91C97.24 -3.8 97.37 -3.63 97.43 -3.4C97.48 -3.18 97.58 -2.97 97.71 -2.78C97.89 -2.5 98.17 -2.26 98.52 -2.07C98.88 -1.87 99.26 -1.7 99.68 -1.56C100.09 -1.42 100.5 -1.31 100.91 -1.24C101.33 -1.16 101.69 -1.12 102.01 -1.1C102.5 -1.08 102.98 -1.1 103.46 -1.15C103.94 -1.21 104.39 -1.34 104.82 -1.55C104.9 -1.42 105.04 -1.35 105.26 -1.34C105.47 -1.33 105.66 -1.28 105.81 -1.21C105.99 -1.36 106.19 -1.46 106.4 -1.52C106.6 -1.57 106.81 -1.62 107.03 -1.65C107.25 -1.67 107.46 -1.71 107.68 -1.76C107.89 -1.8 108.09 -1.88 108.28 -2C108.45 -1.98 108.62 -2 108.79 -2.05C108.96 -2.11 109.13 -2.14 109.32 -2.14C109.4 -2.14 109.46 -2.11 109.52 -2.07C109.58 -2.02 109.63 -1.98 109.69 -1.94C110.25 -2.17 110.85 -2.34 111.5 -2.46C112.15 -2.58 112.81 -2.69 113.48 -2.77C114.16 -2.85 114.83 -2.92 115.51 -2.98C116.18 -3.04 116.82 -3.11 117.42 -3.21C117.59 -3.24 117.75 -3.26 117.91 -3.25C118.07 -3.24 118.25 -3.25 118.43 -3.29C118.98 -3.37 119.51 -3.49 120.02 -3.66C120.54 -3.82 121.09 -3.9 121.67 -3.88C121.76 -3.88 121.85 -3.88 121.94 -3.87C122.02 -3.86 122.11 -3.84 122.2 -3.82C122.41 -3.96 122.59 -4.1 122.75 -4.25C122.91 -4.4 123.01 -4.61 123.05 -4.89Z M149.6 -1.04C149.6 -1.42 149.54 -1.77 149.41 -2.1C149.29 -2.42 149.21 -2.77 149.18 -3.12C148.87 -3.5 148.53 -3.82 148.13 -4.09C147.74 -4.36 147.33 -4.62 146.9 -4.85C146.47 -5.09 146.03 -5.32 145.6 -5.54C145.17 -5.77 144.78 -6.03 144.42 -6.33C143.52 -6.53 142.67 -6.83 141.86 -7.21C141.06 -7.6 140.23 -7.95 139.39 -8.27C139.37 -8.19 139.3 -8.16 139.19 -8.16C139.1 -8.16 139.01 -8.17 138.94 -8.2C138.86 -8.23 138.78 -8.25 138.68 -8.27C138.5 -8.48 138.26 -8.64 137.98 -8.76C137.7 -8.88 137.41 -8.99 137.11 -9.08L136.21 -9.37C135.91 -9.46 135.65 -9.59 135.42 -9.76C135.22 -9.78 135.02 -9.82 134.83 -9.89C134.64 -9.95 134.44 -9.97 134.21 -9.96C133.59 -10.33 132.97 -10.72 132.34 -11.11C131.71 -11.5 131.11 -11.92 130.53 -12.37C129.95 -12.82 129.4 -13.32 128.9 -13.85C128.39 -14.39 127.95 -14.98 127.58 -15.64C127.56 -15.9 127.51 -16.17 127.45 -16.44C127.38 -16.71 127.35 -16.98 127.35 -17.24C127.35 -17.3 127.35 -17.36 127.36 -17.44C127.37 -17.51 127.38 -17.59 127.38 -17.66C127.53 -17.78 127.64 -17.91 127.72 -18.07C127.79 -18.23 127.86 -18.39 127.91 -18.56C127.97 -18.73 128.02 -18.9 128.07 -19.08C128.11 -19.26 128.18 -19.42 128.28 -19.55C128.39 -19.7 128.53 -19.8 128.69 -19.87C128.85 -19.94 128.98 -20.03 129.09 -20.17C129.22 -20.32 129.3 -20.47 129.33 -20.62C129.36 -20.77 129.49 -20.88 129.71 -20.95C130.07 -21.08 130.36 -21.23 130.58 -21.4C130.81 -21.57 131.05 -21.8 131.32 -22.08C131.67 -22.21 131.99 -22.37 132.27 -22.56L133.14 -23.15C133.44 -23.35 133.75 -23.54 134.07 -23.72C134.39 -23.9 134.75 -24.03 135.14 -24.1C135.25 -24.25 135.4 -24.36 135.59 -24.41C135.78 -24.47 135.93 -24.57 136.04 -24.72C136.34 -24.74 136.64 -24.79 136.93 -24.88C137.22 -24.96 137.51 -25.05 137.81 -25.13C138.11 -25.21 138.41 -25.29 138.7 -25.35C138.99 -25.42 139.28 -25.45 139.58 -25.45L139.84 -25.45C139.91 -25.45 140 -25.43 140.09 -25.4C140.18 -25.19 140.34 -25.04 140.57 -24.93C140.79 -24.83 141.03 -24.78 141.27 -24.78C141.5 -24.78 141.72 -24.82 141.95 -24.9C142.17 -24.99 142.36 -25.12 142.51 -25.31C142.9 -25.28 143.31 -25.27 143.72 -25.3C144.13 -25.33 144.53 -25.34 144.9 -25.34C145.18 -25.34 145.47 -25.32 145.76 -25.28C146.05 -25.25 146.32 -25.15 146.56 -25C146.56 -25.28 146.71 -25.42 147.01 -25.42L147.15 -25.4L147.15 -25.73C147.15 -25.85 147.14 -25.97 147.12 -26.1C147.1 -26.23 147.05 -26.33 146.95 -26.41C147.18 -26.5 147.38 -26.62 147.57 -26.75C147.76 -26.88 147.89 -27.08 147.97 -27.34C147.89 -27.43 147.85 -27.55 147.85 -27.7L147.85 -27.82C147.67 -27.89 147.49 -27.98 147.33 -28.07C147.17 -28.16 147.07 -28.32 147.04 -28.55C146.49 -28.64 145.95 -28.74 145.39 -28.86C144.84 -28.97 144.28 -29.02 143.72 -29.02C143.59 -29.02 143.46 -29.01 143.33 -28.97C143.19 -28.93 143.06 -28.91 142.93 -28.91C142.84 -28.91 142.78 -28.95 142.76 -29.02C142.74 -29.1 142.68 -29.14 142.57 -29.14L142.51 -29.14C142.45 -29.04 142.36 -28.99 142.23 -28.97C142.1 -28.95 141.98 -28.94 141.89 -28.94C141.74 -28.94 141.59 -28.95 141.44 -28.97C141.29 -28.99 141.14 -28.98 140.99 -28.94C140.62 -28.88 140.26 -28.79 139.94 -28.65C139.61 -28.5 139.26 -28.43 138.88 -28.43L138.68 -28.43C138.38 -28.3 138.08 -28.19 137.78 -28.08C137.48 -27.98 137.18 -27.93 136.86 -27.93L136.66 -27.93C136.62 -27.82 136.55 -27.73 136.43 -27.67C136.32 -27.62 136.2 -27.58 136.08 -27.55C135.96 -27.52 135.84 -27.49 135.72 -27.45C135.6 -27.41 135.5 -27.34 135.42 -27.22C135.22 -27.26 135.06 -27.24 134.96 -27.15C134.85 -27.07 134.71 -27.03 134.52 -27.03L134.35 -27.03C134.24 -26.82 134.1 -26.68 133.93 -26.61C133.09 -26.19 132.26 -25.8 131.46 -25.41C130.65 -25.03 129.89 -24.52 129.18 -23.91C129.03 -23.89 128.91 -23.84 128.81 -23.77C128.72 -23.69 128.63 -23.61 128.55 -23.53C128.46 -23.44 128.37 -23.36 128.28 -23.29C128.18 -23.21 128.05 -23.17 127.88 -23.17C127.87 -23.03 127.81 -22.89 127.73 -22.78C127.65 -22.67 127.59 -22.54 127.58 -22.39C126.51 -21.9 125.72 -21.17 125.23 -20.21C124.73 -19.24 124.48 -18.2 124.48 -17.07C124.48 -16.27 124.61 -15.44 124.88 -14.6C124.99 -14.5 125.09 -14.39 125.18 -14.25C125.28 -14.1 125.33 -13.94 125.33 -13.75C125.33 -13.7 125.31 -13.61 125.27 -13.5C125.64 -13.18 125.99 -12.83 126.31 -12.46C126.63 -12.08 126.88 -11.65 127.07 -11.17C127.35 -11.05 127.61 -10.93 127.86 -10.79C128.1 -10.65 128.24 -10.41 128.28 -10.07C128.43 -10.11 128.53 -10.12 128.59 -10.12C128.83 -10.12 129.03 -10.04 129.19 -9.86C129.35 -9.68 129.52 -9.52 129.71 -9.37C130.01 -9.29 130.28 -9.19 130.53 -9.06C130.77 -8.93 131.01 -8.79 131.25 -8.65C131.48 -8.51 131.73 -8.38 132 -8.27C132.28 -8.16 132.58 -8.09 132.92 -8.07C132.94 -7.92 133 -7.82 133.12 -7.78C133.23 -7.73 133.3 -7.65 133.34 -7.54L133.45 -7.54C133.55 -7.54 133.61 -7.57 133.65 -7.62C133.69 -7.68 133.74 -7.72 133.82 -7.73C133.89 -7.6 134 -7.5 134.14 -7.44C134.28 -7.37 134.43 -7.31 134.59 -7.26C134.75 -7.2 134.9 -7.13 135.03 -7.06C135.16 -6.98 135.26 -6.88 135.34 -6.75C135.64 -6.75 135.93 -6.71 136.21 -6.62C136.49 -6.54 136.76 -6.45 137.03 -6.34C137.29 -6.24 137.55 -6.14 137.83 -6.03C138.1 -5.93 138.38 -5.87 138.68 -5.85C139.06 -5.48 139.51 -5.22 140.05 -5.08C140.58 -4.94 141.1 -4.82 141.61 -4.73C141.68 -4.52 141.81 -4.37 141.98 -4.29C142.14 -4.2 142.32 -4.13 142.51 -4.05C142.7 -3.97 142.88 -3.9 143.04 -3.81C143.21 -3.73 143.33 -3.6 143.41 -3.43C144.05 -3.32 144.57 -3.08 144.97 -2.73C145.37 -2.37 145.76 -1.96 146.14 -1.49C146.14 -1.45 146.14 -1.41 146.15 -1.36C146.16 -1.32 146.17 -1.27 146.17 -1.24C146.17 -0.99 146.1 -0.81 145.98 -0.69C145.86 -0.57 145.78 -0.4 145.74 -0.2C144.86 0.31 144.03 0.75 143.24 1.13C142.45 1.5 141.54 1.73 140.51 1.83C140.31 1.98 140.06 2.1 139.77 2.19C139.48 2.29 139.18 2.37 138.87 2.43C138.56 2.5 138.25 2.55 137.95 2.57C137.65 2.6 137.38 2.62 137.14 2.62C136.89 2.62 136.65 2.61 136.42 2.59C136.19 2.57 135.97 2.51 135.76 2.42C135.76 2.29 135.75 2.11 135.73 1.9C135.71 1.68 135.67 1.47 135.6 1.27C135.54 1.06 135.45 0.88 135.32 0.73C135.2 0.58 135.05 0.51 134.86 0.51C134.69 0.51 134.52 0.54 134.34 0.62C134.16 0.69 133.99 0.73 133.82 0.73L133.73 0.73C133.49 0.98 133.29 1.25 133.14 1.56C132.99 1.87 132.92 2.2 132.92 2.56C132.92 3.03 133.03 3.47 133.26 3.9C133.48 4.32 133.77 4.67 134.13 4.95C134.69 5.01 135.25 5.07 135.82 5.15C136.38 5.22 136.94 5.26 137.5 5.26C137.82 5.26 138.12 5.24 138.4 5.2C138.68 5.17 138.98 5.11 139.3 5.03L139.5 5.03C139.74 5.03 139.97 5.07 140.18 5.15C140.23 5.07 140.32 5.02 140.43 4.98C140.54 4.94 140.65 4.91 140.77 4.89C140.88 4.87 140.99 4.85 141.1 4.82C141.22 4.8 141.31 4.74 141.38 4.67L141.58 4.67C142.2 4.67 142.8 4.54 143.37 4.28C143.94 4.01 144.5 3.76 145.04 3.52C145.21 3.44 145.38 3.38 145.55 3.33C145.72 3.29 145.88 3.22 146.03 3.15C146.23 3.06 146.47 2.88 146.74 2.63C147.01 2.38 147.29 2.18 147.57 2.03C147.61 1.74 147.7 1.51 147.85 1.34C148 1.16 148.16 0.99 148.32 0.83C148.48 0.67 148.63 0.5 148.78 0.31C148.93 0.12 149.02 -0.11 149.06 -0.39C149.19 -0.37 149.29 -0.4 149.34 -0.46C149.4 -0.53 149.48 -0.58 149.57 -0.62C149.59 -0.71 149.6 -0.85 149.6 -1.04Z M175.33 -18.08L175.25 -18.08C175.13 -18.08 175.01 -18.08 174.87 -18.07C174.73 -18.06 174.62 -18.09 174.54 -18.17C174.53 -18.49 174.44 -18.78 174.28 -19.05C174.12 -19.33 173.87 -19.47 173.53 -19.49L173.33 -19.18C173.22 -19.09 173.05 -19.02 172.81 -18.97C172.58 -18.92 172.33 -18.89 172.05 -18.86C171.78 -18.83 171.53 -18.81 171.28 -18.79C171.04 -18.77 170.85 -18.74 170.72 -18.7C170.55 -18.67 170.46 -18.59 170.45 -18.46C170.44 -18.34 170.37 -18.28 170.24 -18.28C170.18 -18.28 170.13 -18.29 170.07 -18.3C170.02 -18.3 169.95 -18.31 169.88 -18.31C169.56 -18.31 169.25 -18.25 168.95 -18.14C168.65 -18.03 168.34 -17.97 168.02 -17.97C167.81 -17.97 167.63 -18.01 167.46 -18.08C167.46 -17.93 167.42 -17.84 167.36 -17.79C167.29 -17.74 167.19 -17.71 167.06 -17.69C166.69 -17.63 166.32 -17.59 165.95 -17.56C165.59 -17.54 165.22 -17.5 164.84 -17.47C164.05 -17.37 163.29 -17.26 162.55 -17.13C161.81 -17 161.06 -16.87 160.31 -16.76C160.16 -16.8 160.01 -16.83 159.86 -16.85C159.71 -16.87 159.56 -16.87 159.41 -16.87C158.83 -16.87 158.26 -16.81 157.71 -16.69C157.16 -16.57 156.6 -16.51 156.04 -16.51C155.91 -16.51 155.78 -16.51 155.66 -16.52C155.54 -16.53 155.41 -16.55 155.28 -16.57C154.83 -16.4 154.37 -16.28 153.91 -16.2C153.45 -16.12 152.99 -16.06 152.52 -16C152.05 -15.95 151.59 -15.87 151.14 -15.78C150.69 -15.68 150.25 -15.54 149.82 -15.36C149.8 -15.11 149.71 -14.93 149.55 -14.82C149.4 -14.71 149.32 -14.55 149.32 -14.34C149.32 -14.25 149.37 -14.14 149.48 -14.02C149.6 -13.9 149.65 -13.74 149.65 -13.56C149.65 -13.52 149.63 -13.44 149.6 -13.33C149.82 -13.18 150.01 -13.05 150.17 -12.92C150.33 -12.8 150.56 -12.74 150.86 -12.74C150.94 -12.74 151.09 -12.75 151.33 -12.77C151.56 -12.79 151.8 -12.81 152.06 -12.84C152.31 -12.87 152.54 -12.9 152.75 -12.94C152.95 -12.98 153.08 -13.01 153.14 -13.05C153.22 -13.09 153.26 -13.13 153.27 -13.18C153.28 -13.22 153.34 -13.25 153.45 -13.25C153.58 -13.25 153.71 -13.23 153.84 -13.19C153.97 -13.15 154.12 -13.13 154.27 -13.13C154.42 -13.13 154.58 -13.2 154.76 -13.32C154.94 -13.44 155.16 -13.5 155.42 -13.5C155.49 -13.5 155.61 -13.48 155.76 -13.44C155.78 -13.35 155.82 -13.27 155.88 -13.22C155.95 -13.16 156.01 -13.11 156.07 -13.05C156.08 -12.84 156.11 -12.63 156.14 -12.42C156.16 -12.2 156.24 -12.01 156.38 -11.84C156.39 -11.3 156.42 -10.77 156.45 -10.25C156.47 -9.74 156.49 -9.22 156.49 -8.69C156.49 -8.43 156.48 -8.16 156.46 -7.89C156.44 -7.62 156.41 -7.35 156.38 -7.09C156.56 -6.6 156.65 -6.09 156.63 -5.57C156.61 -5.04 156.66 -4.54 156.77 -4.05C156.82 -3.82 156.91 -3.6 157.04 -3.39C157.16 -3.17 157.28 -2.96 157.4 -2.76C157.52 -2.55 157.64 -2.34 157.75 -2.12C157.87 -1.91 157.94 -1.68 157.98 -1.43C158.13 -1.45 158.23 -1.43 158.27 -1.35C158.32 -1.27 158.37 -1.19 158.43 -1.1C158.48 -1 158.57 -0.91 158.68 -0.83C158.79 -0.75 158.99 -0.7 159.27 -0.7C159.5 -0.7 159.7 -0.76 159.89 -0.89C160.08 -1.01 160.27 -1.14 160.45 -1.28C160.64 -1.42 160.84 -1.55 161.06 -1.67C161.27 -1.8 161.52 -1.86 161.8 -1.86C161.88 -2.18 162.01 -2.44 162.21 -2.64C162.41 -2.85 162.58 -3.08 162.73 -3.35C162.71 -3.55 162.7 -3.75 162.69 -3.92C162.68 -4.1 162.68 -4.29 162.68 -4.5C162.68 -4.61 162.68 -4.73 162.69 -4.84C162.7 -4.95 162.71 -5.05 162.73 -5.15C162.62 -5.24 162.49 -5.32 162.35 -5.37C162.21 -5.43 162.07 -5.46 161.92 -5.46C161.65 -5.46 161.4 -5.4 161.16 -5.3C160.91 -5.2 160.66 -5.12 160.4 -5.06C160.43 -5.14 160.45 -5.21 160.45 -5.29C160.45 -5.49 160.38 -5.66 160.23 -5.78C160.08 -5.9 160 -6.07 160 -6.27C160 -6.52 160.02 -6.75 160.05 -6.96C160.07 -7.18 160.09 -7.4 160.09 -7.62C160.09 -8.26 159.99 -8.86 159.81 -9.42C159.9 -9.63 159.95 -9.91 159.95 -10.27C159.95 -10.58 159.92 -10.9 159.88 -11.22C159.83 -11.54 159.81 -11.86 159.81 -12.18C159.81 -12.42 159.84 -12.65 159.92 -12.85C159.75 -12.95 159.63 -13.07 159.57 -13.23C159.5 -13.39 159.48 -13.56 159.5 -13.72C159.53 -13.72 159.56 -13.73 159.58 -13.74C159.6 -13.75 159.63 -13.75 159.67 -13.75C159.8 -13.75 159.91 -13.74 160.02 -13.72C160.12 -13.71 160.22 -13.68 160.31 -13.64C160.72 -13.88 161.2 -14.05 161.73 -14.13C162.27 -14.22 162.76 -14.26 163.21 -14.26C163.42 -14.26 163.62 -14.25 163.83 -14.23C164.03 -14.21 164.23 -14.18 164.42 -14.15C164.83 -14.39 165.3 -14.54 165.83 -14.58C166.35 -14.63 166.84 -14.66 167.29 -14.68C167.42 -14.7 167.55 -14.7 167.68 -14.7C167.81 -14.69 167.93 -14.7 168.05 -14.74C168.27 -14.79 168.49 -14.85 168.69 -14.92C168.9 -14.99 169.11 -15.04 169.31 -15.07C169.76 -15.15 170.21 -15.21 170.66 -15.26C171.11 -15.3 171.56 -15.38 172.01 -15.47C172.13 -15.43 172.21 -15.36 172.27 -15.26C172.32 -15.15 172.37 -15.05 172.41 -14.93C172.67 -15.03 172.88 -15.15 173.04 -15.29C173.2 -15.43 173.43 -15.5 173.73 -15.5C173.77 -15.5 173.81 -15.49 173.87 -15.48C173.93 -15.47 173.97 -15.47 174.01 -15.47C173.97 -15.75 174 -16 174.11 -16.21C174.21 -16.43 174.34 -16.63 174.49 -16.82L174.97 -17.41C175.13 -17.62 175.26 -17.84 175.33 -18.08Z M189.2 -16.28C189.16 -16.6 189.07 -16.88 188.93 -17.11C188.79 -17.35 188.63 -17.56 188.47 -17.76C188.3 -17.96 188.13 -18.16 187.97 -18.37C187.81 -18.57 187.68 -18.82 187.57 -19.1C187.08 -19.3 186.67 -19.6 186.36 -20C186.28 -19.98 186.21 -19.96 186.15 -19.95C186.08 -19.95 186 -19.94 185.91 -19.94C185.57 -19.94 185.24 -20 184.92 -20.12C184.6 -20.25 184.28 -20.31 183.94 -20.31C183.83 -20.31 183.72 -20.3 183.63 -20.28C183.53 -20.26 183.43 -20.23 183.32 -20.19C183 -20.12 182.7 -20.05 182.43 -19.98C182.16 -19.92 181.87 -19.8 181.58 -19.63C181.03 -19.37 180.52 -19.07 180.03 -18.73C179.54 -18.39 179 -18.14 178.4 -17.97C178.32 -17.82 178.22 -17.69 178.09 -17.58C177.96 -17.47 177.86 -17.32 177.81 -17.16C177.09 -16.78 176.46 -16.31 175.91 -15.75C175.35 -15.19 174.74 -14.69 174.07 -14.26C174.08 -14.15 174.08 -14.05 174.04 -13.96C174 -13.88 173.91 -13.84 173.76 -13.84C173.7 -13.84 173.66 -13.85 173.64 -13.87C173.68 -13.72 173.68 -13.6 173.63 -13.53C173.58 -13.45 173.56 -13.36 173.56 -13.25C172.85 -12.52 172.21 -11.75 171.66 -10.95C171.11 -10.16 170.66 -9.27 170.33 -8.3C170.34 -8 170.31 -7.72 170.21 -7.47C170.12 -7.21 170.05 -6.96 170.02 -6.69C170.28 -5.81 170.53 -5.02 170.78 -4.32C171.02 -3.61 171.41 -2.89 171.96 -2.14C172.22 -2.01 172.52 -1.87 172.86 -1.73C173.19 -1.59 173.46 -1.39 173.64 -1.12C173.98 -1.07 174.31 -1.02 174.64 -0.97C174.97 -0.92 175.3 -0.9 175.64 -0.9C175.9 -0.9 176.17 -0.92 176.43 -0.97C176.69 -1.02 176.94 -1.11 177.19 -1.24C177.26 -1.16 177.38 -1.12 177.55 -1.12L177.89 -1.12C178.23 -1.27 178.57 -1.39 178.93 -1.46C179.29 -1.54 179.64 -1.59 180 -1.63C180.45 -2.04 180.96 -2.37 181.52 -2.62C182.08 -2.86 182.65 -3.07 183.23 -3.26C183.53 -3.56 183.85 -3.83 184.18 -4.08C184.5 -4.32 184.87 -4.52 185.26 -4.67C185.67 -5.23 186.09 -5.78 186.53 -6.31C186.96 -6.85 187.3 -7.44 187.57 -8.1C187.55 -8.36 187.56 -8.59 187.59 -8.79C187.63 -8.99 187.69 -9.17 187.76 -9.35C187.84 -9.53 187.92 -9.71 188 -9.9C188.09 -10.09 188.18 -10.29 188.27 -10.52L188.27 -10.57C188.27 -11.27 188.4 -11.96 188.66 -12.66C188.7 -12.79 188.76 -12.92 188.83 -13.05C188.91 -13.18 188.96 -13.31 189 -13.44L189 -13.87C189 -14.07 189 -14.28 188.99 -14.5C188.98 -14.71 188.97 -14.93 188.97 -15.16C188.97 -15.33 188.98 -15.52 189 -15.72C189.02 -15.93 189.08 -16.12 189.2 -16.28ZM186.38 -14.82C186.38 -14.58 186.31 -14.35 186.16 -14.15C186.18 -14.05 186.19 -13.95 186.2 -13.84C186.21 -13.72 186.22 -13.62 186.22 -13.53C186.22 -13.1 186.16 -12.68 186.06 -12.29C185.96 -11.9 185.83 -11.51 185.68 -11.14C185.53 -10.76 185.38 -10.38 185.23 -10C185.08 -9.61 184.96 -9.22 184.87 -8.8C184.66 -8.6 184.46 -8.37 184.28 -8.13C184.09 -7.88 183.92 -7.64 183.77 -7.4C183.69 -7.3 183.62 -7.2 183.56 -7.09C183.49 -6.97 183.41 -6.87 183.32 -6.78C183.23 -6.67 183.1 -6.56 182.95 -6.45C182.8 -6.35 182.67 -6.25 182.56 -6.16C181.81 -5.62 181.02 -5.15 180.18 -4.77C179.35 -4.38 178.48 -4.11 177.58 -3.94C177.19 -4.05 176.78 -4.1 176.36 -4.08C175.94 -4.06 175.54 -4.12 175.16 -4.28C174.79 -4.41 174.52 -4.62 174.36 -4.92C174.2 -5.22 174 -5.5 173.76 -5.77C173.74 -5.86 173.73 -5.95 173.73 -6.05L173.73 -6.33C173.73 -7 173.82 -7.57 174 -8.03C174.17 -8.49 174.39 -8.92 174.64 -9.31C174.9 -9.7 175.17 -10.09 175.46 -10.48C175.75 -10.86 176.02 -11.32 176.26 -11.84C176.52 -12.05 176.77 -12.27 177 -12.52C177.24 -12.76 177.48 -13 177.72 -13.23C177.97 -13.47 178.21 -13.69 178.47 -13.91C178.72 -14.12 179 -14.31 179.3 -14.46C179.45 -14.64 179.62 -14.79 179.83 -14.89C180.04 -15 180.2 -15.15 180.31 -15.36L180.82 -15.36C180.97 -15.54 181.15 -15.7 181.36 -15.83C181.58 -15.97 181.8 -16.08 182.04 -16.17C182.27 -16.27 182.5 -16.36 182.73 -16.47C182.95 -16.57 183.15 -16.71 183.32 -16.87C183.49 -16.8 183.6 -16.68 183.67 -16.52C183.74 -16.36 183.8 -16.21 183.85 -16.06C183.93 -15.98 184.02 -15.93 184.12 -15.9C184.22 -15.88 184.33 -15.84 184.43 -15.79C184.53 -15.75 184.63 -15.69 184.71 -15.64C184.8 -15.58 184.85 -15.49 184.87 -15.36C185 -15.41 185.13 -15.44 185.26 -15.44C185.47 -15.44 185.65 -15.39 185.82 -15.3C185.99 -15.21 186.17 -15.13 186.36 -15.07C186.38 -15 186.38 -14.92 186.38 -14.82Z M209.64 -18.48C209.55 -18.65 209.42 -18.78 209.26 -18.87C209.1 -18.97 208.94 -19.05 208.77 -19.14C208.6 -19.22 208.44 -19.31 208.29 -19.41C208.14 -19.5 208.01 -19.62 207.9 -19.77C207.51 -19.77 207.11 -19.8 206.7 -19.87C206.3 -19.94 205.89 -19.98 205.48 -20C205.37 -19.73 205.31 -19.47 205.31 -19.21C205.31 -18.83 205.37 -18.48 205.48 -18.14C205.59 -17.8 205.65 -17.45 205.65 -17.07C205.65 -16.85 205.59 -16.65 205.48 -16.48C205.69 -16.28 205.83 -16 205.9 -15.67C205.98 -15.33 206.03 -14.96 206.07 -14.57L206.18 -13.42C206.22 -13.04 206.3 -12.71 206.41 -12.43C206.35 -12.17 206.33 -11.92 206.33 -11.67C206.33 -11.24 206.37 -10.82 206.45 -10.41C206.54 -9.99 206.65 -9.6 206.8 -9.22C206.71 -9.09 206.65 -8.96 206.63 -8.82C206.62 -8.68 206.61 -8.54 206.61 -8.41C206.76 -8.18 206.83 -7.89 206.83 -7.54C206.83 -7.37 206.82 -7.2 206.79 -7.03C206.76 -6.86 206.75 -6.68 206.75 -6.5C206.75 -6.25 206.79 -6.05 206.89 -5.88C206.7 -5.39 206.58 -4.87 206.54 -4.33C206.49 -3.79 206.45 -3.25 206.41 -2.73C206.28 -2.67 206.18 -2.59 206.11 -2.49C206.05 -2.39 205.99 -2.27 205.93 -2.14L205.79 -1.74C205.75 -1.61 205.69 -1.51 205.59 -1.43C204.88 -1.51 204.3 -1.71 203.86 -2.02C203.42 -2.34 203.03 -2.71 202.68 -3.14C202.34 -3.56 201.99 -4 201.66 -4.46C201.32 -4.92 200.92 -5.32 200.45 -5.68C200.15 -6.19 199.86 -6.67 199.58 -7.13C199.29 -7.59 199.03 -8.05 198.79 -8.52C198.54 -8.99 198.33 -9.48 198.14 -9.98C197.95 -10.49 197.81 -11.04 197.72 -11.64C197.53 -11.68 197.41 -11.78 197.35 -11.95C197.3 -12.12 197.25 -12.28 197.21 -12.43L197.21 -12.91C197.21 -12.98 197.22 -13.06 197.23 -13.13C197.24 -13.21 197.26 -13.27 197.3 -13.33C197.24 -13.41 197.16 -13.44 197.06 -13.43C196.95 -13.42 196.9 -13.46 196.9 -13.56L196.9 -13.64C196.7 -14.45 196.55 -15.25 196.47 -16.06C196.38 -16.87 196.23 -17.67 196 -18.48C195.67 -18.68 195.31 -18.83 194.93 -18.93C194.56 -19.02 194.18 -19.08 193.81 -19.1C193.6 -18.97 193.43 -18.82 193.3 -18.65C193.17 -18.48 193.03 -18.32 192.88 -18.17C192.79 -17.63 192.73 -17.08 192.7 -16.52C192.67 -15.97 192.65 -15.42 192.64 -14.88C192.63 -14.33 192.6 -13.79 192.56 -13.23C192.51 -12.68 192.43 -12.14 192.32 -11.62C192.28 -11.41 192.23 -11.22 192.16 -11.05C192.1 -10.88 192.04 -10.71 191.98 -10.52C191.96 -10.52 191.95 -10.5 191.95 -10.46C191.95 -10.39 191.98 -10.33 192.02 -10.29C192.07 -10.26 192.09 -10.19 192.09 -10.1L192.07 -10.01C191.86 -9.22 191.64 -8.44 191.4 -7.66C191.17 -6.89 190.95 -6.1 190.76 -5.32C190.56 -4.53 190.39 -3.73 190.25 -2.92C190.11 -2.12 190.04 -1.31 190.04 -0.51C190.04 0.15 190.11 0.84 190.24 1.56C190.37 2.28 190.61 2.93 190.97 3.52C191.19 3.52 191.36 3.58 191.48 3.71C191.59 3.84 191.76 3.91 191.98 3.91L192.07 3.91C192.27 3.74 192.53 3.62 192.84 3.56C193.15 3.49 193.45 3.42 193.74 3.35C194.03 3.27 194.28 3.17 194.48 3.04C194.69 2.91 194.79 2.68 194.79 2.36C194.79 2.17 194.75 2 194.65 1.84C194.56 1.68 194.44 1.53 194.3 1.39C194.16 1.25 194.01 1.13 193.84 1.01C193.67 0.9 193.52 0.8 193.39 0.7C193.5 0.59 193.56 0.47 193.56 0.34C193.56 0.24 193.52 0.14 193.44 0.03C193.37 -0.08 193.31 -0.2 193.28 -0.31C193.26 -0.42 193.25 -0.54 193.25 -0.67L193.25 -1.04C193.25 -1.6 193.31 -2.16 193.43 -2.7C193.55 -3.24 193.61 -3.79 193.61 -4.33L193.61 -4.58C193.61 -4.68 193.6 -4.77 193.58 -4.87C193.73 -4.88 193.83 -4.95 193.88 -5.06C193.93 -5.17 194 -5.27 194.09 -5.34C194.09 -5.36 194.1 -5.38 194.1 -5.4C194.11 -5.42 194.12 -5.44 194.12 -5.46C194.12 -5.55 194.08 -5.61 194.01 -5.62C193.93 -5.64 193.89 -5.7 193.89 -5.79L193.89 -5.88C194.02 -6.07 194.13 -6.28 194.22 -6.51C194.3 -6.75 194.37 -6.98 194.43 -7.21C194.48 -7.45 194.55 -7.68 194.61 -7.92C194.68 -8.15 194.77 -8.37 194.88 -8.58C195.25 -8.13 195.58 -7.66 195.86 -7.17C196.14 -6.68 196.36 -6.15 196.51 -5.57C196.6 -5.49 196.71 -5.43 196.83 -5.37C196.95 -5.32 197.04 -5.21 197.1 -5.06C197.18 -4.91 197.24 -4.78 197.28 -4.67C197.33 -4.56 197.4 -4.43 197.49 -4.3C197.7 -3.98 197.91 -3.7 198.13 -3.46C198.34 -3.22 198.52 -2.91 198.65 -2.53C199.19 -2.12 199.68 -1.65 200.11 -1.14C200.54 -0.62 201.02 -0.15 201.54 0.28C201.94 0.39 202.28 0.54 202.58 0.73C202.88 0.92 203.18 1.1 203.47 1.27C203.76 1.43 204.08 1.58 204.41 1.72C204.75 1.85 205.15 1.91 205.62 1.91L205.68 1.91C205.79 1.74 205.93 1.61 206.09 1.52C206.25 1.43 206.35 1.28 206.41 1.1C206.75 1.04 207.03 0.93 207.25 0.77C207.48 0.61 207.68 0.43 207.84 0.23C208.01 0.02 208.18 -0.21 208.34 -0.45C208.5 -0.69 208.69 -0.92 208.91 -1.12C208.99 -1.67 209.1 -2.21 209.24 -2.76C209.38 -3.3 209.45 -3.84 209.45 -4.39C209.45 -4.54 209.44 -4.69 209.43 -4.85C209.42 -5.01 209.42 -5.17 209.42 -5.32C209.42 -5.56 209.42 -5.79 209.43 -6.02C209.44 -6.24 209.45 -6.49 209.45 -6.75C209.45 -7.61 209.35 -8.46 209.15 -9.3C208.95 -10.13 208.81 -10.98 208.72 -11.84C208.64 -12.52 208.59 -13.2 208.58 -13.89C208.56 -14.59 208.47 -15.27 208.32 -15.95C208.42 -16.06 208.49 -16.19 208.56 -16.33C208.63 -16.47 208.69 -16.6 208.76 -16.73C208.82 -16.87 208.91 -16.98 209.01 -17.09C209.11 -17.19 209.26 -17.25 209.45 -17.27C209.41 -17.53 209.42 -17.74 209.49 -17.9C209.55 -18.06 209.61 -18.25 209.64 -18.48Z M230.26 -17.89C230.26 -18.08 230.22 -18.24 230.13 -18.38C230.05 -18.52 230 -18.69 229.98 -18.9C229.75 -18.86 229.52 -18.87 229.29 -18.91C229.05 -18.96 228.83 -18.98 228.6 -18.98C228.39 -18.98 228.21 -18.96 228.04 -18.9C227.57 -18.99 227.09 -19.06 226.6 -19.1C226.12 -19.13 225.63 -19.15 225.14 -19.15C224.58 -19.15 224.02 -19.14 223.47 -19.12C222.91 -19.11 222.36 -19.1 221.79 -19.1C221.4 -18.93 220.98 -18.84 220.53 -18.84C220.3 -18.84 220.08 -18.86 219.85 -18.89C219.63 -18.91 219.4 -18.95 219.18 -18.98C219.08 -18.91 219.01 -18.84 218.97 -18.79C218.92 -18.73 218.82 -18.7 218.67 -18.7C218.35 -18.67 218.07 -18.62 217.83 -18.56C217.58 -18.51 217.35 -18.44 217.14 -18.35C216.92 -18.27 216.71 -18.16 216.49 -18.04C216.28 -17.92 216.04 -17.78 215.78 -17.63C215.61 -17.52 215.42 -17.41 215.23 -17.31C215.03 -17.21 214.83 -17.13 214.62 -17.07C214.6 -16.96 214.57 -16.86 214.51 -16.76L214.34 -16.48L213.41 -16.48C213.26 -16.41 213.15 -16.3 213.08 -16.17C213 -16.04 212.89 -15.94 212.74 -15.86C212.72 -15.69 212.71 -15.52 212.71 -15.33L212.71 -14.79C212.71 -14.25 212.73 -13.71 212.77 -13.16C212.8 -12.62 212.82 -12.08 212.82 -11.53L212.82 -11.45C212.67 -11.09 212.53 -10.74 212.4 -10.41C212.27 -10.07 212.11 -9.74 211.92 -9.42L211.92 -9.22C211.92 -9 211.95 -8.81 212.01 -8.65C212.06 -8.49 212.13 -8.31 212.2 -8.1C212.17 -7.97 212.14 -7.82 212.13 -7.65C212.12 -7.48 212.11 -7.31 212.09 -7.14C212.07 -6.97 212.04 -6.81 211.99 -6.65C211.95 -6.49 211.88 -6.37 211.81 -6.27C211.88 -6.05 211.92 -5.78 211.92 -5.48C211.92 -5.18 211.9 -4.89 211.87 -4.6C211.83 -4.31 211.81 -4.01 211.81 -3.71C211.81 -3.51 211.83 -3.33 211.87 -3.18C211.9 -3.03 211.95 -2.85 212.01 -2.64C212.03 -2.63 212.03 -2.6 212.03 -2.56C212.03 -2.47 212 -2.41 211.92 -2.39C211.85 -2.37 211.81 -2.32 211.81 -2.22L211.81 -2.14C212 -1.65 212.18 -1.14 212.34 -0.62C212.51 -0.09 212.73 0.39 213 0.84C213.28 1.29 213.61 1.67 214 1.98C214.4 2.29 214.91 2.47 215.55 2.5C215.51 2.67 215.56 2.77 215.7 2.8C215.85 2.83 215.95 2.89 216.03 2.98C216.29 2.98 216.53 2.97 216.76 2.94C216.98 2.91 217.21 2.9 217.43 2.9C217.7 2.9 217.94 2.93 218.17 2.98C218.65 2.72 219.15 2.45 219.64 2.17C220.14 1.88 220.66 1.66 221.2 1.49C221.35 1.3 221.51 1.14 221.68 1C221.85 0.86 222.04 0.71 222.24 0.56C222.43 0.49 222.55 0.42 222.61 0.37C222.89 0.14 223.18 -0.18 223.47 -0.6C223.76 -1.03 224.03 -1.47 224.3 -1.94C224.56 -2.41 224.8 -2.88 225.03 -3.35C225.25 -3.82 225.45 -4.22 225.62 -4.56C225.49 -4.78 225.38 -5.02 225.3 -5.27C225.21 -5.53 225.09 -5.76 224.94 -5.96C224.85 -5.93 224.75 -5.9 224.65 -5.88C224.55 -5.86 224.45 -5.85 224.35 -5.85C224.26 -5.85 224.17 -5.86 224.09 -5.88C224 -5.9 223.91 -5.93 223.82 -5.96C223.71 -5.7 223.54 -5.48 223.33 -5.32C223.11 -5.15 222.91 -4.96 222.72 -4.75L222.72 -3.94C222.48 -3.79 222.3 -3.58 222.17 -3.32C222.05 -3.06 221.92 -2.79 221.79 -2.53C221.59 -2.46 221.37 -2.33 221.15 -2.15C220.92 -1.97 220.7 -1.79 220.49 -1.6C220.27 -1.42 220.07 -1.25 219.9 -1.11C219.72 -0.97 219.57 -0.9 219.46 -0.9C219.38 -0.9 219.31 -0.91 219.25 -0.93C219.18 -0.95 219.11 -0.96 219.04 -0.96L218.9 -0.93C218.73 -0.67 218.51 -0.48 218.25 -0.37C217.99 -0.25 217.71 -0.2 217.41 -0.2C216.96 -0.2 216.58 -0.31 216.28 -0.55C215.98 -0.78 215.74 -1.08 215.56 -1.43C215.39 -1.79 215.25 -2.18 215.17 -2.6C215.09 -3.02 215.04 -3.41 215.04 -3.77C215.04 -3.96 215.06 -4.14 215.1 -4.33C215.14 -4.52 215.16 -4.7 215.16 -4.87C215.16 -5.02 215.09 -5.08 214.96 -5.05C214.83 -5.02 214.75 -5.05 214.73 -5.15C214.85 -5.28 214.92 -5.46 214.96 -5.68C215 -5.91 215.02 -6.15 215.03 -6.4C215.04 -6.65 215.05 -6.9 215.06 -7.14C215.07 -7.39 215.1 -7.59 215.16 -7.76C215.29 -7.87 215.43 -7.95 215.58 -8C215.73 -8.05 215.85 -8.15 215.94 -8.3C216.06 -8.28 216.17 -8.26 216.28 -8.25C216.39 -8.25 216.51 -8.24 216.62 -8.24C217.03 -8.24 217.43 -8.29 217.83 -8.38C218.22 -8.48 218.63 -8.52 219.07 -8.52C219.25 -8.52 219.39 -8.51 219.49 -8.49C219.53 -8.53 219.55 -8.59 219.56 -8.68C219.57 -8.76 219.61 -8.8 219.68 -8.8C220.13 -8.8 220.57 -8.86 220.99 -8.99C221.41 -9.11 221.84 -9.25 222.26 -9.41C222.68 -9.57 223.1 -9.71 223.52 -9.83C223.95 -9.95 224.38 -10.01 224.83 -10.01L225.14 -10.01C225.25 -10.24 225.4 -10.48 225.59 -10.74C225.78 -11.01 225.87 -11.27 225.87 -11.53C225.87 -11.68 225.83 -11.81 225.75 -11.92C225.66 -12.04 225.55 -12.14 225.42 -12.23C225.18 -12.27 224.93 -12.29 224.68 -12.29C224.42 -12.29 224.17 -12.34 223.93 -12.43C223.61 -12.28 223.3 -12.18 223 -12.14C222.7 -12.09 222.41 -12.06 222.13 -12.04C221.85 -12.02 221.56 -12 221.27 -11.98C220.98 -11.96 220.69 -11.92 220.39 -11.84C220.12 -11.77 219.86 -11.72 219.59 -11.7C219.31 -11.68 219.04 -11.67 218.76 -11.67C218.48 -11.67 218.19 -11.68 217.91 -11.69C217.63 -11.7 217.35 -11.68 217.07 -11.64C217.03 -11.55 216.97 -11.49 216.87 -11.46C216.78 -11.43 216.68 -11.42 216.59 -11.42C216.5 -11.42 216.39 -11.43 216.27 -11.45C216.15 -11.47 216.04 -11.49 215.94 -11.53C215.85 -11.76 215.79 -11.98 215.76 -12.21C215.73 -12.43 215.72 -12.67 215.72 -12.94C215.72 -13.18 215.73 -13.43 215.75 -13.68C215.77 -13.94 215.79 -14.19 215.83 -14.46C216.21 -14.77 216.64 -15.02 217.14 -15.2C217.64 -15.38 218.16 -15.54 218.7 -15.68C219.24 -15.82 219.78 -15.97 220.32 -16.12C220.85 -16.27 221.34 -16.45 221.79 -16.68C221.96 -16.62 222.16 -16.59 222.38 -16.59C222.67 -16.59 222.96 -16.64 223.27 -16.72C223.58 -16.8 223.87 -16.92 224.13 -17.07C224.69 -17.03 225.25 -17.03 225.82 -17.07C226.38 -17.11 226.94 -17.13 227.5 -17.13C227.71 -17.13 227.92 -17.12 228.14 -17.11C228.35 -17.1 228.56 -17.09 228.77 -17.07C228.97 -17.17 229.19 -17.24 229.42 -17.28C229.64 -17.33 229.86 -17.4 230.06 -17.49C230.06 -17.64 230.13 -17.74 230.26 -17.78Z"/></g><g id="SvgjsG1286" class="text" transform="translate(68.99499999999999, 55.51) scale(1)" light-content="false" fill="#2e2e2e"><path d="M4.36 -8.66C3.34 -4.08 2.76 -1.43 2.61 -0.69C2.49 -1.28 1.91 -3.93 0.87 -8.66L0.2 -8.66L2.15 0L3.08 0L5.03 -8.66Z M8.8 -8.66L8.8 0L9.45 0L9.45 -8.66Z M13.42 -6.98L13.42 -6.23C13.42 -5.44 13.78 -4.84 14.51 -4.45L16.03 -3.61C16.32 -3.46 16.51 -3.29 16.62 -3.11C16.73 -2.92 16.78 -2.68 16.78 -2.38L16.78 -1.74C16.78 -0.94 16.24 -0.53 15.15 -0.53C14.54 -0.53 13.98 -0.62 13.47 -0.81L13.47 -0.18C13.93 -0.02 14.51 0.07 15.23 0.07C15.94 0.07 16.49 -0.09 16.87 -0.41C17.24 -0.73 17.43 -1.17 17.43 -1.74L17.43 -2.42C17.43 -3.18 17.08 -3.75 16.38 -4.13L14.86 -4.98C14.33 -5.26 14.07 -5.69 14.07 -6.27L14.07 -7.01C14.07 -7.75 14.55 -8.12 15.52 -8.12C16.18 -8.12 16.72 -8.05 17.13 -7.9L17.13 -8.53C16.68 -8.66 16.13 -8.72 15.48 -8.72C14.82 -8.72 14.32 -8.57 13.96 -8.26C13.6 -7.95 13.42 -7.53 13.42 -6.98Z M24.88 -8.66L24.88 -1.86C24.88 -0.92 24.41 -0.45 23.47 -0.45C22.52 -0.45 22.05 -0.92 22.05 -1.86L22.05 -8.66L21.4 -8.66L21.4 -1.86C21.4 -1.27 21.57 -0.79 21.92 -0.42C22.26 -0.05 22.78 0.13 23.47 0.13C24.15 0.13 24.67 -0.05 25.01 -0.42C25.36 -0.79 25.53 -1.27 25.53 -1.86L25.53 -8.66Z M33.62 0L34.29 0L32.27 -8.66L31.33 -8.66L29.3 0L29.98 0L30.56 -2.53L33.03 -2.53ZM30.69 -3.12L31.8 -7.92L32.9 -3.12Z M38.13 -8.66L38.13 0L41.5 0L41.5 -0.59L38.78 -0.59L38.78 -8.66Z M49.62 -6.98L49.62 -6.23C49.62 -5.44 49.99 -4.84 50.71 -4.45L52.23 -3.61C52.52 -3.46 52.72 -3.29 52.83 -3.11C52.93 -2.92 52.99 -2.68 52.99 -2.38L52.99 -1.74C52.99 -0.94 52.44 -0.53 51.35 -0.53C50.74 -0.53 50.18 -0.62 49.67 -0.81L49.67 -0.18C50.13 -0.02 50.72 0.07 51.43 0.07C52.15 0.07 52.7 -0.09 53.07 -0.41C53.45 -0.73 53.64 -1.17 53.64 -1.74L53.64 -2.42C53.64 -3.18 53.29 -3.75 52.59 -4.13L51.06 -4.98C50.54 -5.26 50.27 -5.69 50.27 -6.27L50.27 -7.01C50.27 -7.75 50.76 -8.12 51.73 -8.12C52.39 -8.12 52.92 -8.05 53.34 -7.9L53.34 -8.53C52.89 -8.66 52.34 -8.72 51.68 -8.72C51.03 -8.72 50.52 -8.57 50.16 -8.26C49.8 -7.95 49.62 -7.53 49.62 -6.98Z M60.91 -8.66L56.82 -8.66L56.82 -8.07L58.54 -8.07L58.54 0L59.19 0L59.19 -8.07L60.91 -8.07Z M68.03 -8.66L68.03 -1.86C68.03 -0.92 67.56 -0.45 66.61 -0.45C65.67 -0.45 65.2 -0.92 65.2 -1.86L65.2 -8.66L64.55 -8.66L64.55 -1.86C64.55 -1.27 64.72 -0.79 65.07 -0.42C65.41 -0.05 65.93 0.13 66.61 0.13C67.3 0.13 67.81 -0.05 68.16 -0.42C68.51 -0.79 68.68 -1.27 68.68 -1.86L68.68 -8.66Z M76.65 -6.71L76.65 -1.95C76.65 -1.04 76.18 -0.59 75.23 -0.59L73.81 -0.59L73.81 -8.07L75.23 -8.07C76.18 -8.07 76.65 -7.62 76.65 -6.71ZM73.16 -8.66L73.16 0L75.23 0C75.92 0 76.43 -0.18 76.78 -0.53C77.12 -0.89 77.3 -1.36 77.3 -1.95L77.3 -6.71C77.3 -7.3 77.12 -7.77 76.78 -8.12C76.43 -8.48 75.92 -8.66 75.23 -8.66Z M81.72 -8.66L81.72 0L82.37 0L82.37 -8.66Z M90.27 -6.8L90.27 -1.86C90.27 -0.92 89.8 -0.45 88.86 -0.45C87.91 -0.45 87.44 -0.92 87.44 -1.86L87.44 -6.8C87.44 -7.73 87.91 -8.2 88.86 -8.2C89.8 -8.2 90.27 -7.73 90.27 -6.8ZM86.79 -6.8L86.79 -1.86C86.79 -1.27 86.96 -0.79 87.31 -0.42C87.65 -0.05 88.17 0.13 88.86 0.13C89.54 0.13 90.06 -0.05 90.4 -0.42C90.75 -0.79 90.92 -1.27 90.92 -1.86L90.92 -6.8C90.92 -7.39 90.75 -7.87 90.4 -8.24C90.06 -8.6 89.54 -8.79 88.86 -8.79C88.17 -8.79 87.65 -8.6 87.31 -8.24C86.96 -7.87 86.79 -7.39 86.79 -6.8Z"/></g></g></svg>