<svg xmlns="http://www.w3.org/2000/svg" version="1.1" xlink="http://www.w3.org/1999/xlink" xmlns:svgjs="http://svgjs.com/svgjs" width="300" height="45.332252238971"><defs id="SvgjsDefs1366"/><g id="SvgjsG1367" transform="scale(1.1056646887553903)" opacity="1"><g id="SvgjsG1368" class="V8Gk1UkBEL" transform="translate(0, 0) scale(0.15315651849084796)" light-content="false" fill="#030303"><circle cx="133.8" cy="133.8" r="133.8"/></g><g id="SvgjsG1369" class="text" transform="translate(8.595, 29.09) scale(1)" light-content="true" fill="#ffffff"><path d="M8.68 -8.24C9.2 -6.54 9.68 -5.06 10.1 -3.78C10.53 -2.51 10.93 -1.44 11.32 -0.59C11.71 0.27 12.1 0.91 12.48 1.34C12.86 1.76 13.28 1.98 13.73 1.98C13.95 1.98 14.2 1.93 14.47 1.85C14.74 1.76 14.99 1.64 15.24 1.5C15.48 1.35 15.7 1.19 15.91 1.01C16.12 0.84 16.27 0.66 16.35 0.47C15.78 0.09 15.22 -0.42 14.66 -1.07C14.11 -1.71 13.59 -2.41 13.1 -3.16C12.62 -3.91 12.17 -4.69 11.77 -5.5C11.36 -6.31 11.02 -7.06 10.74 -7.77C11.43 -8.8 12.21 -9.76 13.07 -10.66C13.92 -11.56 14.82 -12.38 15.77 -13.12C16.71 -13.85 17.7 -14.5 18.73 -15.07C19.76 -15.63 20.82 -16.09 21.89 -16.43C21.89 -16.73 21.81 -17.03 21.66 -17.35C21.5 -17.68 21.31 -17.97 21.07 -18.25C20.84 -18.53 20.59 -18.75 20.32 -18.93C20.05 -19.1 19.8 -19.19 19.58 -19.19C18.99 -19.19 18.3 -18.92 17.5 -18.38C16.7 -17.84 15.83 -17.09 14.87 -16.12C13.92 -15.15 12.92 -13.99 11.87 -12.65C10.82 -11.31 9.76 -9.84 8.68 -8.24ZM4.76 2.11C5.05 0.49 5.47 -1.17 6.01 -2.9C6.54 -4.62 7.28 -6.53 8.22 -8.61C8.63 -9.56 9.03 -10.46 9.41 -11.31C9.79 -12.16 10.14 -12.93 10.45 -13.62C10.76 -14.32 11.05 -14.91 11.3 -15.4C11.55 -15.9 11.77 -16.27 11.96 -16.51C11.53 -17.22 11.01 -17.83 10.41 -18.33C9.82 -18.83 9.15 -19.15 8.42 -19.29C8.22 -18.15 8.03 -17.2 7.88 -16.46C7.72 -15.71 7.56 -15.03 7.4 -14.42C7.23 -13.8 7.03 -13.17 6.8 -12.53C6.57 -11.89 6.27 -11.1 5.9 -10.17C5.33 -8.69 4.83 -7.41 4.39 -6.31C3.96 -5.2 3.59 -4.26 3.28 -3.47C2.96 -2.68 2.7 -2.02 2.48 -1.48C2.27 -0.94 2.08 -0.51 1.92 -0.18C2.29 0.41 2.69 0.9 3.12 1.29C3.55 1.68 4.1 1.95 4.76 2.11Z"/></g><g id="SvgjsG1370" class="text" transform="translate(55.91, 31.555) scale(1)" light-content="false" fill="#030303"><path d="M22.92 -0.21C22.92 -0.35 22.88 -0.42 22.81 -0.42C21.94 -0.42 21.27 -0.52 20.79 -0.7C20.3 -0.89 19.64 -1.44 18.78 -2.34C17.92 -3.24 16.66 -4.8 15 -7L9.89 -13.66L14.96 -18.69C15.92 -19.65 16.98 -20.37 18.13 -20.86C19.28 -21.34 20.36 -21.58 21.37 -21.58C21.44 -21.58 21.47 -21.65 21.47 -21.79C21.47 -21.93 21.44 -22 21.37 -22L19.96 -21.96C19.07 -21.92 18.2 -21.89 17.35 -21.89C16.51 -21.89 15.62 -21.92 14.68 -21.96L13.13 -22C13.06 -22 13.02 -21.93 13.02 -21.79C13.02 -21.65 13.06 -21.58 13.13 -21.58C14.51 -21.58 15.21 -21.27 15.21 -20.66C15.21 -20.24 14.83 -19.65 14.08 -18.9L6.86 -11.62L6.86 -19.08C6.86 -19.78 6.93 -20.3 7.08 -20.64C7.22 -20.99 7.49 -21.23 7.88 -21.37C8.28 -21.51 8.89 -21.58 9.72 -21.58C9.76 -21.58 9.79 -21.65 9.79 -21.79C9.79 -21.93 9.76 -22 9.72 -22L7.99 -21.96C6.96 -21.92 6.11 -21.89 5.46 -21.89C4.85 -21.89 4.02 -21.92 2.99 -21.96L1.23 -22C1.16 -22 1.13 -21.93 1.13 -21.79C1.13 -21.65 1.16 -21.58 1.23 -21.58C2.05 -21.58 2.66 -21.51 3.04 -21.38C3.43 -21.25 3.7 -21.03 3.84 -20.7C3.98 -20.37 4.05 -19.85 4.05 -19.15L4.05 -2.85C4.05 -2.15 3.98 -1.63 3.84 -1.28C3.7 -0.94 3.43 -0.72 3.03 -0.6C2.63 -0.48 2.01 -0.42 1.16 -0.42C1.11 -0.42 1.09 -0.35 1.09 -0.21C1.09 -0.07 1.11 0 1.16 0C1.94 0 2.55 -0.01 2.99 -0.04L5.46 -0.07L7.96 -0.04C8.38 -0.01 8.96 0 9.72 0C9.79 0 9.82 -0.07 9.82 -0.21C9.82 -0.35 9.79 -0.42 9.72 -0.42C8.87 -0.42 8.25 -0.48 7.87 -0.6C7.48 -0.72 7.22 -0.94 7.08 -1.28C6.93 -1.63 6.86 -2.15 6.86 -2.85L6.86 -10.7L7.92 -11.72L13.02 -5.1C13.63 -4.31 14.12 -3.67 14.47 -3.19C14.82 -2.7 15.1 -2.33 15.31 -2.08C15.83 -1.37 16.2 -0.89 16.42 -0.63C16.64 -0.38 16.84 -0.2 17.02 -0.11C17.2 -0.01 17.45 0.04 17.78 0.04L18.87 0L22.81 0C22.88 0 22.92 -0.07 22.92 -0.21Z M33.19 -1.28C33.08 -1.63 33.02 -2.15 33.02 -2.85L33.02 -13.55C33.02 -14.26 33.08 -14.78 33.21 -15.12C33.34 -15.46 33.57 -15.7 33.92 -15.84C34.26 -15.98 34.79 -16.05 35.52 -16.05C35.59 -16.05 35.62 -16.12 35.62 -16.26C35.62 -16.4 35.59 -16.47 35.52 -16.47L33.97 -16.44C33.03 -16.39 32.27 -16.37 31.68 -16.37C31.12 -16.37 30.39 -16.39 29.5 -16.44L27.84 -16.47C27.8 -16.47 27.77 -16.4 27.77 -16.26C27.77 -16.12 27.8 -16.05 27.84 -16.05C28.59 -16.05 29.15 -15.99 29.5 -15.86C29.85 -15.73 30.09 -15.5 30.22 -15.17C30.35 -14.84 30.41 -14.33 30.41 -13.62L30.41 -2.85C30.41 -2.15 30.35 -1.63 30.22 -1.28C30.09 -0.94 29.85 -0.72 29.5 -0.6C29.15 -0.48 28.59 -0.42 27.84 -0.42C27.8 -0.42 27.77 -0.35 27.77 -0.21C27.77 -0.07 27.8 0 27.84 0C28.55 0 29.1 -0.01 29.5 -0.04L31.68 -0.07L33.93 -0.04C34.31 -0.01 34.84 0 35.52 0C35.59 0 35.62 -0.07 35.62 -0.21C35.62 -0.35 35.59 -0.42 35.52 -0.42C34.77 -0.42 34.22 -0.48 33.88 -0.6C33.54 -0.72 33.31 -0.94 33.19 -1.28Z M63.64 -0.21C63.64 -0.35 63.62 -0.42 63.57 -0.42C62.89 -0.42 62.4 -0.48 62.09 -0.6C61.79 -0.72 61.58 -0.94 61.48 -1.27C61.37 -1.6 61.29 -2.12 61.25 -2.85L60.76 -13.69C60.68 -14.63 60.86 -15.26 61.28 -15.58C61.71 -15.89 62.41 -16.05 63.4 -16.05C63.44 -16.05 63.47 -16.12 63.47 -16.26C63.47 -16.4 63.44 -16.47 63.4 -16.47L60.93 -16.44L58.96 -16.47C58.75 -16.47 58.54 -16.39 58.34 -16.23C58.14 -16.06 58 -15.85 57.9 -15.59L52.98 -3.66L47.41 -14.64C47.02 -15.42 46.72 -15.92 46.52 -16.14C46.32 -16.36 46.07 -16.47 45.76 -16.47L43.93 -16.44L41.68 -16.47C41.61 -16.47 41.57 -16.4 41.57 -16.26C41.57 -16.12 41.61 -16.05 41.68 -16.05C42.71 -16.05 43.58 -15.57 44.28 -14.61L44 -4.05C43.95 -2.73 43.74 -1.8 43.35 -1.25C42.96 -0.7 42.33 -0.42 41.47 -0.42C41.42 -0.42 41.4 -0.35 41.4 -0.21C41.4 -0.07 41.42 0 41.47 0C42.03 0 42.46 -0.01 42.77 -0.04L44.32 -0.07L45.9 -0.04C46.18 -0.01 46.58 0 47.1 0C47.17 0 47.2 -0.07 47.2 -0.21C47.2 -0.35 47.17 -0.42 47.1 -0.42C46.21 -0.42 45.58 -0.7 45.21 -1.27C44.85 -1.83 44.68 -2.76 44.7 -4.05L44.95 -13.45L51.71 -0.25C51.76 -0.15 51.85 -0.11 51.99 -0.11C52.11 -0.11 52.19 -0.15 52.24 -0.25L58.12 -14.43L58.57 -2.85C58.62 -2.15 58.58 -1.63 58.45 -1.3C58.32 -0.97 58.06 -0.75 57.68 -0.62C57.29 -0.49 56.7 -0.42 55.9 -0.42C55.85 -0.42 55.83 -0.35 55.83 -0.21C55.83 -0.07 55.85 0 55.9 0C56.6 0 57.15 -0.01 57.55 -0.04L59.95 -0.07L62.02 -0.04C62.4 -0.01 62.91 0 63.57 0C63.62 0 63.64 -0.07 63.64 -0.21Z M83.18 -7.92C82.24 -8.6 80.89 -9 79.13 -9.12C80.28 -9.49 81.17 -10.03 81.8 -10.72C82.44 -11.41 82.76 -12.2 82.76 -13.09C82.76 -14.2 82.27 -15.05 81.31 -15.66C80.35 -16.27 79.02 -16.58 77.33 -16.58C76.82 -16.58 76.37 -16.57 76 -16.54C75.62 -16.52 75.32 -16.5 75.08 -16.47C74.38 -16.4 73.71 -16.37 73.08 -16.37C72.54 -16.37 71.82 -16.39 70.93 -16.44L69.34 -16.47C69.27 -16.47 69.24 -16.4 69.24 -16.26C69.24 -16.12 69.27 -16.05 69.34 -16.05C70.07 -16.05 70.61 -15.99 70.96 -15.86C71.32 -15.73 71.55 -15.5 71.67 -15.17C71.78 -14.84 71.84 -14.33 71.84 -13.62L71.84 -2.85C71.84 -2.15 71.78 -1.63 71.67 -1.28C71.55 -0.94 71.32 -0.72 70.96 -0.6C70.61 -0.48 70.05 -0.42 69.27 -0.42C69.23 -0.42 69.2 -0.35 69.2 -0.21C69.2 -0.07 69.23 0 69.27 0C69.98 0 70.53 -0.01 70.93 -0.04L73.08 -0.07C73.59 -0.07 74.08 -0.06 74.54 -0.04C74.99 -0.01 75.39 0.01 75.72 0.04C76.51 0.11 77.24 0.14 77.9 0.14C79.19 0.14 80.34 -0.08 81.35 -0.51C82.36 -0.94 83.15 -1.55 83.72 -2.32C84.3 -3.1 84.59 -3.99 84.59 -5C84.59 -6.27 84.12 -7.24 83.18 -7.92ZM75.19 -15.93C75.47 -16.06 75.89 -16.12 76.45 -16.12C78.89 -16.12 80.12 -14.87 80.12 -12.36C80.12 -11.46 79.96 -10.78 79.66 -10.31C79.35 -9.84 78.92 -9.53 78.36 -9.36C77.79 -9.2 77.02 -9.12 76.03 -9.12L74.41 -9.12L74.41 -13.55C74.41 -14.28 74.47 -14.83 74.59 -15.19C74.71 -15.55 74.91 -15.8 75.19 -15.93ZM81.8 -4.19C81.8 -1.68 80.3 -0.42 77.3 -0.42C76.15 -0.42 75.38 -0.6 74.99 -0.97C74.61 -1.33 74.41 -1.96 74.41 -2.85L74.41 -8.45C74.76 -8.47 75.3 -8.48 76.03 -8.48C78 -8.48 79.46 -8.1 80.4 -7.34C81.34 -6.58 81.8 -5.53 81.8 -4.19Z M104.24 -4.79C104.12 -4.79 104.04 -4.75 104.02 -4.68C103.69 -3.48 103.1 -2.5 102.26 -1.72C101.41 -0.95 100.48 -0.56 99.48 -0.56L98.17 -0.56C97.47 -0.56 96.95 -0.63 96.61 -0.76C96.27 -0.89 96.04 -1.12 95.92 -1.46C95.8 -1.8 95.74 -2.31 95.74 -2.99L95.74 -7.99C97.86 -7.94 99.33 -7.86 100.18 -7.74C101.02 -7.63 101.49 -7.57 101.59 -7.57C101.73 -7.57 101.8 -7.84 101.8 -8.38C101.8 -8.89 101.73 -9.15 101.59 -9.15C101.47 -9.15 100.99 -9.1 100.16 -8.99C99.33 -8.89 97.86 -8.82 95.74 -8.8L95.74 -13.59C95.74 -14.29 95.8 -14.81 95.92 -15.14C96.04 -15.46 96.27 -15.69 96.61 -15.82C96.95 -15.95 97.47 -16.02 98.17 -16.02L98.95 -16.02C99.93 -16.02 100.81 -15.67 101.57 -14.98C102.33 -14.29 102.82 -13.4 103.03 -12.32C103.03 -12.25 103.1 -12.21 103.24 -12.21C103.38 -12.21 103.45 -12.25 103.45 -12.32C103.45 -13 103.44 -13.56 103.42 -14.01L103.38 -16.19C103.38 -16.38 103.27 -16.47 103.03 -16.47L90.64 -16.47C90.59 -16.47 90.57 -16.4 90.57 -16.26C90.57 -16.12 90.59 -16.05 90.64 -16.05C91.37 -16.05 91.91 -15.99 92.26 -15.86C92.61 -15.73 92.85 -15.5 92.98 -15.17C93.11 -14.84 93.17 -14.33 93.17 -13.62L93.17 -2.85C93.17 -2.15 93.11 -1.63 92.98 -1.28C92.85 -0.94 92.62 -0.72 92.28 -0.6C91.94 -0.48 91.39 -0.42 90.64 -0.42C90.59 -0.42 90.57 -0.35 90.57 -0.21C90.57 -0.07 90.59 0 90.64 0L103.66 0C103.88 0 104.02 -0.04 104.09 -0.12C104.16 -0.21 104.19 -0.34 104.19 -0.53C104.19 -1.61 104.27 -2.99 104.44 -4.68C104.44 -4.75 104.37 -4.79 104.24 -4.79Z M128.8 -0.21C128.8 -0.35 128.76 -0.42 128.69 -0.42C127.85 -0.42 127.04 -0.67 126.26 -1.18C125.49 -1.68 124.65 -2.52 123.75 -3.7C122.84 -4.87 121.75 -6.52 120.45 -8.66C121.42 -9.15 122.17 -9.79 122.72 -10.58C123.28 -11.36 123.55 -12.23 123.55 -13.16C123.55 -14.27 123.12 -15.11 122.27 -15.7C121.41 -16.29 120.17 -16.58 118.55 -16.58C117.9 -16.58 117.2 -16.54 116.48 -16.47C116.22 -16.45 115.91 -16.43 115.54 -16.4C115.18 -16.38 114.78 -16.37 114.33 -16.37C113.79 -16.37 113.07 -16.39 112.18 -16.44L110.56 -16.47C110.49 -16.47 110.46 -16.4 110.46 -16.26C110.46 -16.12 110.49 -16.05 110.56 -16.05C111.27 -16.05 111.79 -15.99 112.13 -15.86C112.47 -15.73 112.7 -15.5 112.83 -15.17C112.96 -14.84 113.03 -14.33 113.03 -13.62L113.03 -2.85C113.03 -2.15 112.96 -1.63 112.83 -1.28C112.7 -0.94 112.47 -0.72 112.13 -0.6C111.79 -0.48 111.24 -0.42 110.49 -0.42C110.45 -0.42 110.42 -0.35 110.42 -0.21C110.42 -0.07 110.45 0 110.49 0C111.2 0 111.75 -0.01 112.15 -0.04L114.33 -0.07L116.58 -0.04C116.96 -0.01 117.47 0 118.13 0C118.2 0 118.24 -0.07 118.24 -0.21C118.24 -0.35 118.2 -0.42 118.13 -0.42C117.38 -0.42 116.84 -0.48 116.51 -0.6C116.18 -0.72 115.96 -0.94 115.84 -1.27C115.73 -1.6 115.67 -2.12 115.67 -2.85L115.67 -7.85C115.93 -7.83 116.3 -7.81 116.79 -7.81C117.29 -7.81 117.78 -7.85 118.27 -7.92C119.68 -5.46 120.9 -3.52 121.93 -2.11C122.97 -0.7 123.67 0 124.04 0L128.69 0C128.76 0 128.8 -0.07 128.8 -0.21ZM117.04 -8.45C116.64 -8.45 116.18 -8.47 115.67 -8.52L115.67 -13.55C115.67 -14.49 115.8 -15.14 116.05 -15.49C116.31 -15.84 116.85 -16.02 117.67 -16.02C119.76 -16.02 120.81 -14.75 120.81 -12.21C120.81 -10.97 120.53 -10.03 119.98 -9.4C119.43 -8.76 118.45 -8.45 117.04 -8.45Z M137.98 -2.99L137.98 -13.59C137.98 -14.29 138.05 -14.81 138.18 -15.15C138.31 -15.49 138.55 -15.73 138.9 -15.86C139.25 -15.99 139.8 -16.05 140.55 -16.05C140.6 -16.05 140.62 -16.12 140.62 -16.26C140.62 -16.4 140.6 -16.47 140.55 -16.47L139 -16.44C138.07 -16.39 137.32 -16.37 136.75 -16.37C136.24 -16.37 135.51 -16.39 134.57 -16.44L132.95 -16.47C132.9 -16.47 132.88 -16.4 132.88 -16.26C132.88 -16.12 132.9 -16.05 132.95 -16.05C133.65 -16.05 134.18 -15.99 134.52 -15.86C134.86 -15.73 135.09 -15.5 135.2 -15.17C135.32 -14.84 135.38 -14.33 135.38 -13.62L135.38 -2.85C135.38 -2.15 135.32 -1.63 135.2 -1.28C135.09 -0.94 134.86 -0.72 134.53 -0.6C134.21 -0.48 133.68 -0.42 132.95 -0.42C132.9 -0.42 132.88 -0.35 132.88 -0.21C132.88 -0.07 132.9 0 132.95 0L146.82 0C147.03 0 147.18 -0.04 147.26 -0.12C147.34 -0.21 147.38 -0.34 147.38 -0.53C147.38 -2.43 147.46 -3.94 147.63 -5.07C147.63 -5.12 147.6 -5.15 147.54 -5.17C147.48 -5.2 147.42 -5.21 147.35 -5.21C147.25 -5.21 147.21 -5.19 147.21 -5.14C146.85 -3.75 146.25 -2.66 145.39 -1.85C144.54 -1.04 143.48 -0.63 142.21 -0.63L140.52 -0.63C139.79 -0.63 139.25 -0.7 138.9 -0.83C138.55 -0.96 138.31 -1.19 138.18 -1.51C138.05 -1.84 137.98 -2.33 137.98 -2.99Z M166.44 -4.79C166.31 -4.79 166.24 -4.75 166.21 -4.68C165.89 -3.48 165.3 -2.5 164.45 -1.72C163.61 -0.95 162.68 -0.56 161.67 -0.56L160.37 -0.56C159.67 -0.56 159.15 -0.63 158.8 -0.76C158.46 -0.89 158.24 -1.12 158.12 -1.46C158 -1.8 157.94 -2.31 157.94 -2.99L157.94 -7.99C160.05 -7.94 161.53 -7.86 162.38 -7.74C163.22 -7.63 163.69 -7.57 163.79 -7.57C163.93 -7.57 164 -7.84 164 -8.38C164 -8.89 163.93 -9.15 163.79 -9.15C163.67 -9.15 163.19 -9.1 162.36 -8.99C161.53 -8.89 160.05 -8.82 157.94 -8.8L157.94 -13.59C157.94 -14.29 158 -14.81 158.12 -15.14C158.24 -15.46 158.46 -15.69 158.8 -15.82C159.15 -15.95 159.67 -16.02 160.37 -16.02L161.15 -16.02C162.13 -16.02 163.01 -15.67 163.77 -14.98C164.53 -14.29 165.02 -13.4 165.23 -12.32C165.23 -12.25 165.3 -12.21 165.44 -12.21C165.58 -12.21 165.65 -12.25 165.65 -12.32C165.65 -13 165.64 -13.56 165.62 -14.01L165.58 -16.19C165.58 -16.38 165.46 -16.47 165.23 -16.47L152.84 -16.47C152.79 -16.47 152.77 -16.4 152.77 -16.26C152.77 -16.12 152.79 -16.05 152.84 -16.05C153.57 -16.05 154.11 -15.99 154.46 -15.86C154.81 -15.73 155.05 -15.5 155.18 -15.17C155.31 -14.84 155.37 -14.33 155.37 -13.62L155.37 -2.85C155.37 -2.15 155.31 -1.63 155.18 -1.28C155.05 -0.94 154.82 -0.72 154.48 -0.6C154.13 -0.48 153.59 -0.42 152.84 -0.42C152.79 -0.42 152.77 -0.35 152.77 -0.21C152.77 -0.07 152.79 0 152.84 0L165.86 0C166.07 0 166.21 -0.04 166.28 -0.12C166.36 -0.21 166.39 -0.34 166.39 -0.53C166.39 -1.61 166.47 -2.99 166.64 -4.68C166.64 -4.75 166.57 -4.79 166.44 -4.79Z M188.74 -16.26C188.74 -16.4 188.71 -16.47 188.64 -16.47L187.69 -16.44C187.22 -16.39 186.83 -16.37 186.52 -16.37C185.84 -16.37 185.08 -16.39 184.24 -16.44L182.69 -16.47C182.64 -16.47 182.62 -16.4 182.62 -16.26C182.62 -16.12 182.64 -16.05 182.69 -16.05C183.2 -16.05 183.6 -15.93 183.87 -15.68C184.14 -15.44 184.27 -15.1 184.27 -14.68C184.27 -14.16 184.08 -13.58 183.71 -12.92L181.35 -8.73L177.69 -14.36C177.45 -14.69 177.34 -14.98 177.34 -15.24C177.34 -15.78 177.88 -16.05 178.96 -16.05C179.03 -16.05 179.06 -16.12 179.06 -16.26C179.06 -16.4 179.03 -16.47 178.96 -16.47L177.09 -16.44C175.87 -16.39 174.9 -16.37 174.17 -16.37C173.96 -16.37 173.55 -16.39 172.94 -16.44L171.78 -16.47C171.71 -16.47 171.67 -16.4 171.67 -16.26C171.67 -16.12 171.71 -16.05 171.78 -16.05C172.43 -16.05 173.01 -15.86 173.52 -15.49C174.02 -15.11 174.57 -14.47 175.16 -13.55L179.06 -7.53L179.06 -2.85C179.06 -2.15 178.99 -1.63 178.83 -1.28C178.68 -0.94 178.41 -0.72 178.01 -0.6C177.61 -0.48 176.99 -0.42 176.14 -0.42C176.07 -0.42 176.04 -0.35 176.04 -0.21C176.04 -0.07 176.07 0 176.14 0C176.92 0 177.53 -0.01 177.97 -0.04L180.36 -0.07L182.86 -0.04C183.29 -0.01 183.86 0 184.59 0C184.66 0 184.69 -0.07 184.69 -0.21C184.69 -0.35 184.66 -0.42 184.59 -0.42C183.72 -0.42 183.09 -0.48 182.69 -0.6C182.29 -0.72 182.03 -0.94 181.9 -1.27C181.77 -1.6 181.7 -2.12 181.7 -2.85L181.7 -8.06L184.52 -12.88C185.13 -13.92 185.79 -14.7 186.49 -15.24C187.19 -15.78 187.91 -16.05 188.64 -16.05C188.71 -16.05 188.74 -16.12 188.74 -16.26Z M195.25 -21.4L195.89 -12.85C195.89 -12.78 195.95 -12.75 196.08 -12.78C196.21 -12.8 196.3 -12.84 196.35 -12.88L198.32 -22.35C198.34 -22.47 198.2 -22.53 197.89 -22.53C197.43 -22.53 196.86 -22.4 196.2 -22.16C195.55 -21.91 195.23 -21.66 195.25 -21.4Z M207.45 -11.9C207.09 -12.41 206.91 -13.01 206.91 -13.69C206.91 -14.47 207.12 -15.09 207.56 -15.56C207.99 -16.03 208.63 -16.26 209.48 -16.26C210.3 -16.26 211.04 -16.03 211.71 -15.58C212.38 -15.12 212.92 -14.57 213.33 -13.94C213.74 -13.31 214 -12.73 214.12 -12.21C214.17 -12.14 214.25 -12.12 214.37 -12.14C214.49 -12.17 214.54 -12.23 214.54 -12.32L214.4 -15.45C214.38 -15.62 214.34 -15.74 214.28 -15.82C214.22 -15.9 214.09 -15.99 213.88 -16.09C212.68 -16.63 211.42 -16.9 210.11 -16.9C208.56 -16.9 207.24 -16.51 206.15 -15.73C205.06 -14.96 204.51 -13.9 204.51 -12.57C204.51 -11.79 204.71 -11.12 205.09 -10.54C205.48 -9.97 205.96 -9.49 206.52 -9.1C207.08 -8.71 207.82 -8.27 208.74 -7.78C209.63 -7.29 210.36 -6.85 210.92 -6.46C211.48 -6.07 211.95 -5.59 212.33 -5.02C212.7 -4.44 212.89 -3.78 212.89 -3.03C212.89 -2.07 212.61 -1.36 212.04 -0.9C211.48 -0.44 210.81 -0.21 210.04 -0.21C208.84 -0.21 207.76 -0.71 206.78 -1.71C205.81 -2.7 205.09 -3.88 204.62 -5.24C204.57 -5.34 204.49 -5.37 204.37 -5.35C204.25 -5.33 204.2 -5.27 204.2 -5.17L204.51 -1.51C204.51 -1.16 204.61 -0.93 204.79 -0.81C205.33 -0.43 206.01 -0.13 206.82 0.09C207.63 0.31 208.48 0.42 209.37 0.42C210.57 0.42 211.62 0.21 212.54 -0.21C213.45 -0.63 214.16 -1.21 214.67 -1.95C215.17 -2.69 215.42 -3.51 215.42 -4.4C215.42 -5.22 215.22 -5.93 214.81 -6.53C214.4 -7.13 213.89 -7.63 213.29 -8.03C212.7 -8.42 211.92 -8.87 210.95 -9.36C210.01 -9.86 209.29 -10.27 208.77 -10.61C208.25 -10.95 207.81 -11.38 207.45 -11.9Z"/></g></g></svg>