<svg xmlns="http://www.w3.org/2000/svg" version="1.1" xlink="http://www.w3.org/1999/xlink" xmlns:svgjs="http://svgjs.com/svgjs" width="152.14030903212964" height="147"><defs id="SvgjsDefs1075"/><g id="SvgjsG1076" transform="scale(0.5340129800611859)" opacity="1"><g id="SvgjsG1077" class="XKpY3_vCX" transform="translate(0.00016490878937247544, 0.015400373976895417) scale(3.0954078375780165)" light-content="false" fill="#75a8c7"><path d="M4.897 49.104c-.222-1.85-.223-3.7-.346-5.535a7.23 7.23 0 0 0-.853-3.315 13.773 13.773 0 0 0-1.409-2.02 3.103 3.103 0 0 1-.811-2.36c.033-.391.097-.765.532-.904a1.067 1.067 0 0 1 1.043.248 4.347 4.347 0 0 1 1.359 2.578 1.992 1.992 0 0 0 .316.938 14.124 14.124 0 0 0 .396-2.288c.324-1.614.853-3.167 1.309-4.738a5.84 5.84 0 0 0-.396-5.028 3.969 3.969 0 0 1-.618-2.936c.106-.523.16-1.123.8-1.322a1.437 1.437 0 0 1 1.5.85 2.8 2.8 0 0 1 .39 1.472c-.008.707-.002 1.413-.002 2.285a2.508 2.508 0 0 0 .8-.984 18.055 18.055 0 0 1 3.064-4.583 4.366 4.366 0 0 0 1.292-3.817 11.55 11.55 0 0 1-.229-2.347 4.814 4.814 0 0 1 .91-2.577.824.824 0 0 1 .956-.415c.432.117.872.192 1.025.72a2.48 2.48 0 0 1 .054 1.506c-.264.838-.45 1.7-.681 2.597 1.322-.707 1.947-1.995 2.948-2.909a35.887 35.887 0 0 1 3.65-3.15 5.908 5.908 0 0 0 2.165-3.392 11.522 11.522 0 0 1 1.569-2.86c.41-.644 1.03-.593 1.64-.57.348.012.398.31.423.599a3.145 3.145 0 0 1-.574 2.136c-.352.499-.731.978-1.203 1.604 1.408-.626 2.673-1.178 3.93-1.75a32.126 32.126 0 0 1 6.852-2.089 2.31 2.31 0 0 0 1.393-.767 18.681 18.681 0 0 1 3.397-2.954 8.858 8.858 0 0 1 1.943-.923 1.076 1.076 0 0 1 1.37.375 1.276 1.276 0 0 1-.012 1.532 3.066 3.066 0 0 1-1.295.98 3.375 3.375 0 0 0-1.387.89c.653 0 1.182.03 1.707-.005a25.756 25.756 0 0 1 6.129.423 3.237 3.237 0 0 0 2.28-.35c.676-.402 1.41-.707 2.082-1.112a5.65 5.65 0 0 1 2.649-.706 1.363 1.363 0 0 1 1.373.856 1.26 1.26 0 0 1-.783 1.31 4.137 4.137 0 0 1-1.56.48 2.473 2.473 0 0 0-1.203.328 42.14 42.14 0 0 1 4.987 1.266 43.688 43.688 0 0 1 4.12 1.58 2.945 2.945 0 0 0 1.587.228c.752-.09 1.47-.327 2.21-.45a7.753 7.753 0 0 1 4.347.237c.703.291 1.27.896 1.231 1.36-.04.48-.81 1.072-1.53 1.195a6.929 6.929 0 0 1-2.13-.223c-.357-.048-.693-.289-1.133-.116.671.47 1.31.913 1.946 1.36a66.757 66.757 0 0 1 6.151 4.943 1.797 1.797 0 0 0 1.026.395c1.317.197 2.65.293 3.947.62a4.832 4.832 0 0 1 1.946.887c.533.438.679.835.451 1.333a1.063 1.063 0 0 1-1.19.617 5.395 5.395 0 0 1-2.257-.619 5.914 5.914 0 0 0-1.541-.724c.423.5.745.903 1.09 1.286a23.528 23.528 0 0 1 3.93 6.217 2.357 2.357 0 0 0 1.718 1.457 9.612 9.612 0 0 1 2.406.82 4.935 4.935 0 0 1 1.672 1.467c.29.39.584.86.195 1.3a1.415 1.415 0 0 1-1.55.556 3.912 3.912 0 0 1-1.66-.985 6.165 6.165 0 0 0-1.273-1.092c.217.653.398 1.319.655 1.955a24.72 24.72 0 0 1 1.556 8.426c.018.481.122.95.116 1.429a1.274 1.274 0 0 0 .435.977 21.07 21.07 0 0 1 3.389 4.365 2.693 2.693 0 0 1 .39 1.77c-.086.558-.336.785-.898.754a2.032 2.032 0 0 1-1.868-1.048 20.991 20.991 0 0 1-.832-1.761 1.33 1.33 0 0 0-.494-.768 25.445 25.445 0 0 1-.453 3.398c-.203 1.563-.723 3.052-.989 4.6a11.851 11.851 0 0 1-.603 2.385 1.106 1.106 0 0 0 .124.882c.5 1.203 1.125 2.342 1.731 3.492a5.397 5.397 0 0 1 .723 3.049c-.042.462-.088.88-.65 1.026a1.468 1.468 0 0 1-1.667-.41 4.804 4.804 0 0 1-1.003-2.958c.018-.922.11-1.838.196-2.843-.454.203-.53.582-.657.9a42.066 42.066 0 0 1-2.228 4.72 17.546 17.546 0 0 1-2.27 3.274 2.084 2.084 0 0 0-.633 1.908 18.752 18.752 0 0 1 .37 3.67 2.506 2.506 0 0 1-.35 1.468 1.195 1.195 0 0 1-1.98.16 1.95 1.95 0 0 1-.563-1.79 7.132 7.132 0 0 1 .502-1.666c.122-.265.358-.514.257-.861-.293-.089-.423.114-.564.304a10.92 10.92 0 0 1-1.954 1.946c-.716.579-1.341 1.267-2.03 1.881a14.516 14.516 0 0 1-2.68 2.041 2.777 2.777 0 0 0-1.445 1.997 12.12 12.12 0 0 1-1.585 4.202 2.696 2.696 0 0 1-1.084 1.064c-.635.295-1.064.154-1.291-.505a2.485 2.485 0 0 1 .496-2.498 24.14 24.14 0 0 0 1.66-2.191c-.84.437-1.699.84-2.515 1.318a27 27 0 0 1-5.611 2.197c-1.368.433-2.767.77-4.16 1.117a2.71 2.71 0 0 0-1.55 1.254 20.971 20.971 0 0 1-2.71 3.208 3.664 3.664 0 0 1-1.642 1.012c-.773.184-1.166-.092-1.317-.867a1.984 1.984 0 0 1 .941-2.023 12.393 12.393 0 0 1 2.154-1.58c-1.565.212-3.114.317-4.671.392a23.108 23.108 0 0 1-3.99-.208 2.402 2.402 0 0 0-1.902.506 21.4 21.4 0 0 1-3.596 2.164 3.554 3.554 0 0 1-2.497.272c-1.008-.244-1.25-1.071-.498-1.802a4.207 4.207 0 0 1 2.466-1.157 18.907 18.907 0 0 0 2.218-.302c-3.108-1.044-6.234-1.99-9.246-3.27-.5-.212-1.025-.364-1.507-.627a2.254 2.254 0 0 0-1.801-.037 15.258 15.258 0 0 1-4.136.642 4.49 4.49 0 0 1-2.431-.677c-.421-.251-.813-.566-.66-1.146a1.278 1.278 0 0 1 1.156-1.014 6.344 6.344 0 0 1 2.346.098c.56.138 1.129.24 1.761.373-.037-.355-.27-.428-.452-.532a30.392 30.392 0 0 1-8.31-6.772 2.623 2.623 0 0 0-1.274-.796c-1.438-.48-2.952-.58-4.412-.942a6.104 6.104 0 0 1-1.161-.399 1.605 1.605 0 0 1-1.015-1.407 1.93 1.93 0 0 1 1.453-1.144 2.88 2.88 0 0 1 1.596.282c.283.12.558.26.834.398.237.119.428.34.733.326.166-.186 0-.32-.091-.433a25.132 25.132 0 0 1-3.717-6.45 2.6 2.6 0 0 0-1.423-1.515 22.203 22.203 0 0 1-3.038-1.708 3.844 3.844 0 0 1-1.4-1.723c-.408-.896.02-1.492 1.012-1.434a2.6 2.6 0 0 1 1.816.84c.347.372.574.859 1.08 1.148.162-.249-.013-.439-.093-.629a15.702 15.702 0 0 1-.61-3.395 1.907 1.907 0 0 0-1.048-1.517A9.753 9.753 0 0 1 .42 46.627a2.724 2.724 0 0 1-.42-1.36c.006-.669.32-.952.973-.839a2.595 2.595 0 0 1 1.66 1.116 20.44 20.44 0 0 1 2.264 3.56zm81.296 2.785a2.6 2.6 0 0 0-.817 1.003 7.414 7.414 0 0 1-3.08 2.934 1.319 1.319 0 0 1-1.688-2 10.283 10.283 0 0 1 2.538-2.518c1.064-.762 2.49-1.006 3.222-2.242a.147.147 0 0 1 .084-.055c.448-.116.511-.5.621-.861a11.939 11.939 0 0 0 .178-2.86c.074-1.233-.195-2.46-.188-3.678.008-1.302-.2-2.588-.143-3.886a.506.506 0 0 0-.273-.472c-.154.464-.293.918-.455 1.363a4.557 4.557 0 0 1-1.797 2.423 1.237 1.237 0 0 1-1.429.118 1.79 1.79 0 0 1-.542-2.213 5.036 5.036 0 0 1 1.55-2.14 20.587 20.587 0 0 0 1.575-1.607 1.82 1.82 0 0 0 .332-2.161c-.768-2.006-1.522-4.02-2.361-5.997a19.3 19.3 0 0 0-2.438-4.357c.051.423.074.645.106.867a15.736 15.736 0 0 1 .136 3.585 2.796 2.796 0 0 1-.475 1.446 1.37 1.37 0 0 1-1.315.647c-.528-.072-.66-.53-.804-.958a5.745 5.745 0 0 1 .037-2.736c.186-1.267.887-2.36 1.14-3.611a1.22 1.22 0 0 0-.372-1.263 21.16 21.16 0 0 0-3.229-3.124.684.684 0 0 1-.23-.324c-.637-1.273-1.923-1.826-2.95-2.691.028.551.378.967.418 1.486a5.785 5.785 0 0 0 .227 1.518 2.193 2.193 0 0 1-.655 2.493.961.961 0 0 1-1.518.01 2.547 2.547 0 0 1-.724-2.154 8.939 8.939 0 0 1 .524-2.997 2.154 2.154 0 0 0 .119-.706 1.635 1.635 0 0 0-.767-1.632 36.923 36.923 0 0 0-5.376-3.177A28.144 28.144 0 0 0 59.56 7a.804.804 0 0 0 .348.544c.536.476 1.082.942 1.613 1.423a2.754 2.754 0 0 1 .909 1.998 1.124 1.124 0 0 1-.552 1.14 1.363 1.363 0 0 1-1.371-.1 2.878 2.878 0 0 1-.388-.334 8.606 8.606 0 0 1-2.44-4.639.97.97 0 0 0-.926-.875c-2.962-.531-5.92-1.093-8.882-1.624a2.16 2.16 0 0 0-1.173.042c.035.272.218.31.356.391a30.505 30.505 0 0 1 3.175 2.079 1.815 1.815 0 0 1 .25 2.31c-.305.39-1.133.34-1.794-.11a1.44 1.44 0 0 1-.239-.194 11.888 11.888 0 0 1-1.476-1.697c-.513-.801-1.11-1.549-1.67-2.32a1.508 1.508 0 0 0-1.506-.647c-1.091.112-2.171.311-3.259.421a31.852 31.852 0 0 0-6.442 1.174 9.011 9.011 0 0 0-2.007.686c.357.279.667.122.956.123a6.292 6.292 0 0 1 3.623.906c.693.463.974.86.837 1.477-.124.554-.512.719-1.379.78-1.18.083-2.161-.605-3.276-.754a.51.51 0 0 1-.326-.233c-.499-.908-1.614-.827-2.294-1.444-.14-.128-.33-.02-.48.058-1.484.772-3.11 1.239-4.532 2.155a16.007 16.007 0 0 1-1.902 1.178c-1.602.734-2.628 2.128-4.144 3.207a1.628 1.628 0 0 0 1.116-.34 4.728 4.728 0 0 1 3.388-.377.998.998 0 0 1 .49 1.749 1.837 1.837 0 0 1-.974.534 9.237 9.237 0 0 1-2.93.423c-.712-.06-1.436.03-2.154.033a.991.991 0 0 0-.675.153 17.553 17.553 0 0 0-2.814 2.822 39.312 39.312 0 0 1-2.909 3.577 1.161 1.161 0 0 0-.423.706 1.676 1.676 0 0 0 .922-.394 8.924 8.924 0 0 1 1.96-.882 2.152 2.152 0 0 1 2.022.382.797.797 0 0 1 .282 1.141 3.212 3.212 0 0 1-2.623 1.71 53.07 53.07 0 0 1-2.763-.18c-1.017-.088-1.096-.043-1.563.914-.628 1.288-1.333 2.535-1.944 3.836-.446.95-.563 1.945-.996 3.087a3.722 3.722 0 0 0 .96-1.058 4.358 4.358 0 0 1 2.3-1.642.995.995 0 0 1 1.244 1.312 3.06 3.06 0 0 1-1.082 1.59 24.626 24.626 0 0 1-2.815 1.873 3.242 3.242 0 0 0-1.766 2.792c-.169 1.808-.158 3.62-.33 5.424-.017.184-.109.42.249.479a9.904 9.904 0 0 1 1.284-2.882 3.372 3.372 0 0 1 2.243-1.46c.97-.234 1.454.241 1.262 1.213a2.687 2.687 0 0 1-.706 1.34c-1.238 1.322-2.439 2.679-3.691 3.987a1.16 1.16 0 0 0-.342 1.009c.107 1.123.146 2.258.332 3.368a5.589 5.589 0 0 0 .57 2.375c.5-1.003.98-1.865 1.365-2.768a4.457 4.457 0 0 1 1.876-1.975.703.703 0 0 1 .932.124 1.533 1.533 0 0 1 .275 2.048 13.389 13.389 0 0 1-3.255 3.656c-1.208 1.086-1.083 1.147-.65 2.315.035.096.048.2.082.296a41.443 41.443 0 0 0 3.645 7.813c.057-1.416.112-2.644.153-3.872a2.993 2.993 0 0 1 .963-2.085.842.842 0 0 1 1.2-.097 1.587 1.587 0 0 1 .654 1.712 10.686 10.686 0 0 1-.736 2.451c-.381.802-.714 1.628-1.07 2.441a1.422 1.422 0 0 0 .142 1.535 45.422 45.422 0 0 0 6.69 7.61c.16.14.3.357.64.282-.109-.34-.192-.63-.294-.914a10.198 10.198 0 0 1-.553-4.246 1.211 1.211 0 0 1 1.776-1.178 1.491 1.491 0 0 1 .921 1.16 8.184 8.184 0 0 1-.333 5.112c-.441 1.045-.449 1.134.457 1.763a39.362 39.362 0 0 0 9.327 4.91c.404.142.765.45 1.248.402-.008-.372-.302-.476-.474-.664a16.179 16.179 0 0 1-1.804-1.962 2.568 2.568 0 0 1-.462-2.027c.142-.665.458-.97 1.111-.865a2.263 2.263 0 0 1 1.5.823 9.842 9.842 0 0 1 1.42 2.702c.289.876.626 1.736.93 2.607a.6.6 0 0 0 .408.412c.97.33 1.92.737 2.91.994a22.53 22.53 0 0 0 4.433.768 28.796 28.796 0 0 0 4.096.26 1.736 1.736 0 0 0 1.04-.229 3.184 3.184 0 0 0-.778-.401 8.643 8.643 0 0 1-2.433-1.497c-.705-.772-.835-1.575-.374-2.107a1.556 1.556 0 0 1 2.148-.004 8.87 8.87 0 0 1 2.603 2.709 1.945 1.945 0 0 0 2.3 1.052c2.934-.526 5.8-1.334 8.678-2.082.24-.063.55-.074.696-.431a2.623 2.623 0 0 0-.512-.069 7.127 7.127 0 0 1-4.033-1.323 1.117 1.117 0 0 1-.536-1.496 1.074 1.074 0 0 1 1.183-.917 3.062 3.062 0 0 1 1.104.19 37.358 37.358 0 0 1 4.704 2.465 1.556 1.556 0 0 0 1.525.106c1.768-.828 3.446-1.818 5.13-2.792a33.009 33.009 0 0 0 3.754-2.485 1.494 1.494 0 0 0 .735-.947 12.515 12.515 0 0 1-3.29.937 3.94 3.94 0 0 1-2.965-.471c-.876-.485-.896-1.193-.07-1.74.14-.093.306-.148.457-.227 1.53-.808 3.134-.442 4.71-.253.886.106 1.77.104 2.654.144a1.578 1.578 0 0 0 1.248-.594c.963-1.009 1.94-2.001 2.876-3.038a30.827 30.827 0 0 0 2.968-3.763 5.57 5.57 0 0 0 .952-1.889c-.273.158-.417.237-.558.323a28.005 28.005 0 0 1-3.026 1.728 3.905 3.905 0 0 1-1.679.424c-.718-.011-1.078-.235-1.205-.731a1.173 1.173 0 0 1 .637-1.363 6.901 6.901 0 0 1 1.207-.56 32.497 32.497 0 0 1 4.743-1.289 1.318 1.318 0 0 0 1.102-.882c.648-1.433 1.209-2.901 1.741-4.38a20.264 20.264 0 0 0 .941-4.507zm-.211-1.192a6.114 6.114 0 0 0-2.78 1.323 8.402 8.402 0 0 0-1.963 1.938c-.244.328-.48.702-.19 1.12.243.352.786.373 1.312.082.118-.066.223-.158.336-.233 1.567-1.043 2.333-2.706 3.285-4.23zM19.892 74.35a2.891 2.891 0 0 0 .733-1.663 12.316 12.316 0 0 1 .136-2.03 3.351 3.351 0 0 0-.422-1.865c-.182-.423-.581-.395-.97-.345-.422.053-.446.378-.462.677-.025.474 0 .95-.01 1.425a9.828 9.828 0 0 0 .995 3.8zm41.445 6.409a3.503 3.503 0 0 0-1.293-.836 4.026 4.026 0 0 1-1.323-.768 6.113 6.113 0 0 0-2.625-1.078.59.59 0 0 0-.789.441c-.196.533-.111.68.46 1.066 1.622 1.098 3.462 1.134 5.57 1.175zM66.48 8.72a14.099 14.099 0 0 0 4.24 1.208 2.068 2.068 0 0 0 1.008-.06c.337-.137.807-.26.802-.68-.004-.333-.397-.53-.718-.655a7.561 7.561 0 0 0-5.332.187zM25.39 79.733a25.452 25.452 0 0 0-4.033-1.086 3.979 3.979 0 0 0-1.224.042c-.394.05-.801.18-.839.608-.032.372.342.552.663.691.062.028.132.036.195.061 1.8.743 3.519.272 5.238-.316zm46.76-65.472a3.27 3.27 0 0 1-.237.928c-.634.997-.331 2.13-.507 3.19a1.47 1.47 0 0 0 .446 1.113c.198.248.48.345.71.121.432-.424.915-.86.712-1.579-.346-1.228-.218-2.588-1.123-3.773zM6.573 53.707a15.531 15.531 0 0 0 3.667-3.744 1.26 1.26 0 0 0 .158-.684c-.01-.634-.48-.87-1.03-.53a2.758 2.758 0 0 0-1.103 1.173c-.215.463-.486.902-.676 1.374a13.695 13.695 0 0 0-1.016 2.41zM4.45 50.1a12.433 12.433 0 0 0-2.426-4.45 2.732 2.732 0 0 0-.742-.536.527.527 0 0 0-.582-.045c-.217.156-.091.374-.033.56a7.943 7.943 0 0 0 3.783 4.47zm83.897-6.218a9.837 9.837 0 0 0 1.604 4.667.714.714 0 0 0 .278.29 1.245 1.245 0 0 0 1.074.115c.381-.216.102-.612.07-.93a.868.868 0 0 0-.09-.292 15.152 15.152 0 0 0-2.936-3.85zm-77.495-19.55c.238.397.535.321.795.333a13.454 13.454 0 0 1 1.944.081 2.344 2.344 0 0 0 1.95-.7c.266-.201.59-.541.422-.86a1.164 1.164 0 0 0-1.015-.604 2.983 2.983 0 0 0-.703.13c-1.246.309-2.194 1.196-3.393 1.62zm69.594-1.489a7.485 7.485 0 0 0-1.125 2.922 3.9 3.9 0 0 0-.016 2.403c.215.47.44.518.875.225a1.02 1.02 0 0 0 .47-.64 10.318 10.318 0 0 0-.204-4.91zM39.595 84.78c-1.203.233-2.44.175-3.64.41a3.904 3.904 0 0 0-1.549.767c-.215.16-.437.36-.37.68.072.345.38.358.643.392a2.902 2.902 0 0 0 1.61-.17 12.743 12.743 0 0 0 3.305-2.08zM11.21 64.123l.181.053c.455-1.086.92-2.168 1.357-3.261a6.204 6.204 0 0 0 .256-.987 1.273 1.273 0 0 0-.176-.98c-.274-.437-.523-.48-.892-.13a2.145 2.145 0 0 0-.718 1.534c-.024 1.257-.008 2.514-.008 3.77zM31.712 7.52a4.548 4.548 0 0 1 1.12.914 1.348 1.348 0 0 0 .696.405c.557.153 1.112.311 1.668.469a1.956 1.956 0 0 0 1.007.08c.254-.063.566-.064.65-.4a.59.59 0 0 0-.363-.666 4.897 4.897 0 0 0-2.434-.94 13.349 13.349 0 0 0-2.344.138zm-17.77 10.646c.122-.053.212-.063.235-.107a15.579 15.579 0 0 0 1.277-3.88 1.191 1.191 0 0 0-.1-.8c-.264-.535-.65-.59-1.011-.115a3.388 3.388 0 0 0-.699 1.79 12.493 12.493 0 0 0 .298 3.112zm33.963 65.575a9.122 9.122 0 0 0-2.746-3.21 1.69 1.69 0 0 0-.651-.28.753.753 0 0 0-.75.23c-.219.245-.115.507.013.762a2.793 2.793 0 0 0 1.056 1.088 15.474 15.474 0 0 0 3.078 1.41zm34.359-21.4a3.206 3.206 0 0 0-.535.004c-1.315.352-2.632.695-3.938 1.075a5.097 5.097 0 0 0-1.01.49.655.655 0 0 0-.36.773c.097.369.444.405.745.411a2.71 2.71 0 0 0 1.081-.277 25.725 25.725 0 0 0 4.017-2.475zM6.605 34.679a18.04 18.04 0 0 0 3.202-1.991 2.313 2.313 0 0 0 .706-.984.57.57 0 0 0-.058-.664.504.504 0 0 0-.645-.11 4.142 4.142 0 0 0-1.386.834 8.3 8.3 0 0 0-1.819 2.915zm72.346 35.23a9.846 9.846 0 0 0-1.315 3.185 1.381 1.381 0 0 0 .228 1.07.87.87 0 0 0 .852.455c.307-.036.43-.319.506-.581a3.752 3.752 0 0 0 .21-.992 11.035 11.035 0 0 0-.481-3.138zm6.309-41.476a10.205 10.205 0 0 0 1.367 1.648 4.786 4.786 0 0 0 1.613 1.239c.42.171.841.253 1.132-.104.332-.408-.124-.702-.341-.949a6.043 6.043 0 0 0-3.771-1.834zM24.15 9.194a8.077 8.077 0 0 0 2.648-2.72 2.098 2.098 0 0 0 .318-1.166c-.023-.436-.268-.6-.68-.462a.993.993 0 0 0-.477.369 11.098 11.098 0 0 0-1.808 3.98zm41.798 74.253a2.652 2.652 0 0 0 1.477-1.48 17.066 17.066 0 0 0 1.057-2.96c.008-.034-.056-.087-.154-.229a21.875 21.875 0 0 0-2.408 2.912 1.562 1.562 0 0 0 .028 1.757zM46.64 5.511a8.882 8.882 0 0 0 1.69 2.608 4.108 4.108 0 0 0 .806.629c.258.147.642.316.832-.003a.894.894 0 0 0 .042-1.058 1.372 1.372 0 0 0-.214-.22A11.482 11.482 0 0 0 46.64 5.51zm6.32-1.316a6.935 6.935 0 0 0 4.08-.36 1.673 1.673 0 0 0 .274-.138c.213-.135.38-.303.313-.584a.516.516 0 0 0-.519-.41 3.944 3.944 0 0 0-2.099.35c-.698.35-1.367.76-2.049 1.142zM3.958 39.544A4.87 4.87 0 0 0 2.99 36.1c-.187-.226-.375-.608-.71-.458-.372.166-.255.593-.187.912a7.784 7.784 0 0 0 1.864 2.99z"/><path d="M13.721 72.536a.927.927 0 0 1-.86-.84.828.828 0 0 1 .866-.68.93.93 0 0 1 .787.91.71.71 0 0 1-.793.61zM3.165 41.935c.367-.031.518.21.536.55a1.07 1.07 0 0 1-1.028.925.55.55 0 0 1-.618-.626c.003-.437.516-.836 1.11-.85zM86.719 26.35a.704.704 0 0 1-.723.794c-.477-.043-.6-.388-.614-.794-.018-.516.257-.867.66-.865.393.003.668.354.677.865zM22.666 8.896a.835.835 0 0 1-.776.779.855.855 0 0 1-.746-.706.999.999 0 0 1 .858-.848.821.821 0 0 1 .664.775zm42.969-1.444c-.55.007-.796-.2-.808-.68a.688.688 0 0 1 .638-.764c.42-.01.973.528.919.925-.057.424-.376.523-.749.519zm21.683 50.175c-.409.032-.58-.222-.598-.616a.8.8 0 0 1 .728-.92.755.755 0 0 1 .729.816.778.778 0 0 1-.859.72zM12.016 19.705a1.01 1.01 0 0 1-1.063.784.572.572 0 0 1-.573-.587c-.015-.4.533-.805 1.02-.785.409.016.615.224.616.588zM4.719 31.128c-.352.007-.594-.114-.591-.513a.885.885 0 0 1 .978-.808c.318.004.63.066.654.469a.92.92 0 0 1-1.041.852zm2.044 30.508a.937.937 0 0 1-.945-.752c-.031-.435.248-.59.626-.621a.74.74 0 0 1 .855.66.592.592 0 0 1-.536.713zM90.165 41.81a.75.75 0 0 1-.806.72.798.798 0 0 1-.646-.785.73.73 0 0 1 .763-.646.69.69 0 0 1 .689.712zM42.217 86.335a.727.727 0 0 1-.768.664c-.375-.002-.617-.374-.599-.912a.453.453 0 0 1 .514-.5.934.934 0 0 1 .853.748zm12.875-2.265a.658.658 0 0 1 .678.714c-.027.398-.312.604-.793.563-.363-.03-.67-.16-.71-.572a.75.75 0 0 1 .825-.704zM36.761 2.18c.36.047.688.131.68.593a.841.841 0 0 1-.899.786.522.522 0 0 1-.549-.595.772.772 0 0 1 .768-.784zm44.788 66.912a.69.69 0 0 1-.733.75.662.662 0 0 1-.621-.683.744.744 0 0 1 .755-.685.592.592 0 0 1 .599.618zM27.616 81.821c0 .351-.22.45-.524.463a.723.723 0 0 1-.848-.76.49.49 0 0 1 .502-.516.928.928 0 0 1 .87.813zm49.546-67.073a.794.794 0 0 1 .768.657.836.836 0 0 1-.732.703.572.572 0 0 1-.654-.597.658.658 0 0 1 .618-.763zM52.04 2.656c.008.448-.258.743-.61.71a.802.802 0 0 1-.746-.717c-.06-.316.267-.553.697-.552a.589.589 0 0 1 .659.56zM3.124 51.617c.002-.383.233-.539.577-.552a.687.687 0 0 1 .694.706.666.666 0 0 1-.654.633.724.724 0 0 1-.617-.787zm68.347 26.689a.704.704 0 0 1-.841.708.473.473 0 0 1-.489-.53.834.834 0 0 1 .814-.76.511.511 0 0 1 .516.582zm-21.034 4.183a.724.724 0 0 1-.782.621.981.981 0 0 1-.867-.962c.053-.418.355-.547.726-.552a.955.955 0 0 1 .923.893zm28.75-60.785a.627.627 0 0 1-.699.568.844.844 0 0 1-.815-.86c-.003-.363.085-.682.545-.692a1.049 1.049 0 0 1 .97.984zM30.735 9.111a.794.794 0 0 1-.822.733.852.852 0 0 1-.793-.886.633.633 0 0 1 .75-.53c.498.027.872.317.865.683zM84.637 32.99a.836.836 0 0 1 .712.867.82.82 0 0 1-.805.667c-.4.024-.64-.313-.596-.778a.747.747 0 0 1 .69-.756zm.029 15.544a.523.523 0 0 1-.526-.56c-.02-.483.315-.737.902-.712.427.018.739.18.794.632.046.376-.42.667-1.17.64zM56.814 7.796c-.012.407-.3.538-.665.568a.82.82 0 0 1-.893-.629c-.018-.338.43-.703.853-.694a.798.798 0 0 1 .705.755zm5.713 70.36c.562 0 .822.12.858.495a1.007 1.007 0 0 1-.752.945.944.944 0 0 1-.77-.8.732.732 0 0 1 .664-.64zM9.182 55a.857.857 0 0 1-.848.702.853.853 0 0 1-.692-.864c.039-.422.328-.551.707-.538.487.018.841.32.833.7zm72.788 5.881c-.354-.001-.715-.01-.753-.486a.801.801 0 0 1 .886-.787.623.623 0 0 1 .661.725c-.007.566-.415.531-.793.548zM44.727 6.17c.042.38-.19.547-.543.562a.91.91 0 0 1-.844-.763.583.583 0 0 1 .644-.624c.44.002.721.306.743.825zM18.595 17.866a.718.718 0 0 1-.805.714.617.617 0 0 1-.682-.69c.016-.422.273-.65.735-.65.464 0 .755.242.752.626zm51.202-3.739c-.429-.022-.697-.184-.703-.674-.006-.474.27-.577.648-.575a.79.79 0 0 1 .864.684c.006.353-.327.585-.81.565zM35.466 80.255a.924.924 0 0 1 .838.867.505.505 0 0 1-.537.496.95.95 0 0 1-.955-.73.647.647 0 0 1 .654-.633zM12.92 64.8c.43-.028.767.336.796.862.017.293-.033.544-.39.59a1.093 1.093 0 0 1-.975-.856.606.606 0 0 1 .569-.595zm60.346 6.372a.738.738 0 0 1 .75-.712c.43-.03.696.178.69.538a.708.708 0 0 1-.723.694.662.662 0 0 1-.717-.52zM7.373 37.109a.692.692 0 0 1-.661.739c-.359.005-.677-.112-.756-.51-.063-.315.383-.702.813-.737a.501.501 0 0 1 .604.508zM22.416 75.28c-.346.02-.89-.468-.846-.759a.618.618 0 0 1 .647-.522c.447-.034.782.22.759.602a.634.634 0 0 1-.56.68zM11.215 27.175a.584.584 0 0 1-.657.541c-.355-.01-.688-.127-.751-.54-.05-.323.37-.687.742-.68a.634.634 0 0 1 .666.68zM7.068 46.643c.371-.027.579.138.571.518a.775.775 0 0 1-.721.714.642.642 0 0 1-.639-.636c.053-.462.381-.588.79-.596z"/></g><g id="SvgjsG1078" class="text" transform="translate(40.139306133265535, 134.88270367636812) scale(1)" light-content="false" fill="#424242"><path d="M2.31 1.94C2.31 0.11 3.12 -1.7 4.72 -3.49C6.83 -5.88 9.36 -7.08 12.32 -7.08C12.22 -7.65 12.03 -8.06 11.73 -8.33C11.43 -8.6 10.89 -8.73 10.1 -8.73C9.31 -8.73 8.42 -8.57 7.41 -8.26C4.67 -7.38 2.58 -5.68 1.13 -3.16C-0.31 -0.65 -0.63 1.65 0.19 3.73C1.23 6.25 3.7 7.5 7.6 7.5C12.22 7.5 16.11 6.03 19.26 3.07C22.4 0.11 23.98 -3.27 23.98 -7.08C23.98 -8.46 23.7 -9.78 23.15 -11.02C22.6 -12.26 21.92 -13.32 21.1 -14.18C20.28 -15.05 19.4 -15.93 18.45 -16.83C17.51 -17.72 16.63 -18.53 15.81 -19.26C14.99 -19.98 14.31 -20.82 13.76 -21.78C13.21 -22.74 12.93 -23.72 12.93 -24.73C12.93 -27.22 13.88 -29.4 15.76 -31.29C17.65 -33.18 19.6 -34.12 21.62 -34.12C22.5 -34.12 23.05 -34.06 23.27 -33.94L23.32 -34.55C23.32 -34.99 23.17 -35.43 22.89 -35.87C22.61 -36.31 22.17 -36.53 21.57 -36.53C18.58 -36.53 15.79 -35.31 13.19 -32.87C10.6 -30.43 9.3 -27.77 9.3 -24.87C9.3 -23.77 9.57 -22.73 10.12 -21.76C10.67 -20.78 11.36 -19.95 12.18 -19.26C13 -18.56 13.88 -17.79 14.84 -16.94C15.8 -16.09 16.69 -15.25 17.51 -14.42C18.33 -13.59 19.01 -12.53 19.56 -11.26C20.11 -9.98 20.39 -8.59 20.39 -7.08C20.39 -3.24 19.24 -0.06 16.94 2.48C14.65 5.01 11.53 6.28 7.6 6.28C7 6.28 6.47 6.23 5.99 6.14C3.54 5.66 2.31 4.26 2.31 1.94ZM24.21 -24.17C24.21 -25.42 24.34 -26.62 24.59 -27.75C25.22 -30.58 26.24 -32.71 27.66 -34.12C27.66 -34.47 27.55 -34.75 27.33 -34.97C27.11 -35.19 26.84 -35.3 26.53 -35.3C25.33 -35.3 24.37 -34.33 23.65 -32.38C22.92 -30.43 22.56 -27.85 22.56 -24.64C22.56 -24.42 22.69 -24.24 22.94 -24.12C23.19 -23.99 23.47 -23.93 23.76 -23.93C24.06 -23.93 24.21 -24.01 24.21 -24.17Z M40.78 -22.89C39.24 -22.89 37.73 -22.45 36.25 -21.57C33.54 -19.9 31.42 -17.18 29.88 -13.4C28.9 -10.92 28.41 -8.62 28.41 -6.51C28.41 -5.38 28.55 -4.28 28.84 -3.21C29.75 -0.06 31.87 1.51 35.21 1.51C36.06 1.51 36.9 1.31 37.73 0.92C38.57 0.53 39.24 0.09 39.76 -0.4C40.28 -0.89 40.85 -1.54 41.46 -2.36C42.08 -3.18 42.43 -3.76 42.53 -4.11C42.56 -4.29 42.29 -4.39 41.72 -4.39C41.38 -4.39 41.14 -4.26 41.01 -4.01C40.48 -3.1 39.8 -2.27 38.99 -1.51C38.58 -1.13 38.07 -0.81 37.47 -0.54C36.88 -0.28 36.31 -0.14 35.78 -0.14C35.24 -0.14 34.8 -0.2 34.45 -0.33C32.66 -0.96 31.76 -2.85 31.76 -5.99C31.76 -9.71 32.72 -13.33 34.64 -16.85C36.44 -20.09 38.37 -21.71 40.45 -21.71C41.49 -21.71 42.01 -21.07 42.01 -19.78C42.01 -18.05 41.25 -16.14 39.74 -14.06C37.88 -11.48 35.84 -10.19 33.6 -10.19C33.76 -9.88 34 -9.64 34.31 -9.49C34.63 -9.33 35.02 -9.25 35.49 -9.25C38.51 -9.25 40.94 -10.71 42.76 -13.64C43.83 -15.4 44.37 -17.09 44.37 -18.69C44.37 -21.49 43.17 -22.89 40.78 -22.89Z M53.76 6.89C55.05 6.89 56.17 6.15 57.11 4.67C57.55 4.01 57.86 3.52 58.03 3.21C58.2 2.89 58.33 2.64 58.41 2.43C58.49 2.23 58.45 2.09 58.29 2.03C57.88 1.87 57.6 1.97 57.44 2.31C57.16 2.97 56.68 3.64 56.02 4.32C55.36 5 54.67 5.33 53.95 5.33C53.1 5.33 52.43 4.66 51.94 3.33C51.45 1.99 51.21 0.09 51.21 -2.38C51.21 -4.85 51.48 -7.82 52.04 -11.28C52.59 -14.74 53.2 -17.76 53.88 -20.34C54.55 -22.92 55.39 -25.73 56.4 -28.77C57.41 -31.8 58.24 -34.08 58.9 -35.59C58.9 -36.22 58.64 -36.53 58.1 -36.53C56.97 -36.53 55.64 -34.8 54.11 -31.34C52.59 -27.88 51.26 -23.52 50.12 -18.27C48.99 -13.01 48.42 -8.46 48.42 -4.63C48.42 -0.79 48.86 2.09 49.72 4.01C50.59 5.93 51.93 6.89 53.76 6.89Z M60.46 -4.01C60.46 -1.37 60.88 -0.05 61.73 -0.05C62.21 -0.05 62.44 -0.27 62.44 -0.71C62.44 -3.48 62.83 -6.63 63.6 -10.17C64.37 -13.71 64.99 -16.16 65.46 -17.51C65.94 -18.86 66.33 -19.95 66.64 -20.77C66.64 -21.55 66.28 -21.95 65.56 -21.95C64.08 -21.95 62.86 -20.12 61.9 -16.47C60.94 -12.82 60.46 -8.67 60.46 -4.01ZM66.78 -26.38L67.35 -27.19C68.52 -28.88 69.1 -30.1 69.1 -30.82C69.1 -31.54 68.78 -31.91 68.15 -31.91C67.4 -31.91 66.82 -31.49 66.41 -30.65C66 -29.82 65.79 -29.03 65.79 -28.27C65.79 -27.01 66.12 -26.38 66.78 -26.38Z M73.16 -7.65L72.73 -7.65C73.36 -12.49 74.4 -17.26 75.85 -21.95C75.85 -22.64 75.56 -22.99 75 -22.99C73.64 -22.99 72.49 -21.08 71.53 -17.27C70.57 -13.47 70.09 -9.22 70.09 -4.53C70.09 -2.05 70.59 -0.8 71.6 -0.8C72.04 -0.8 72.26 -1 72.26 -1.39C72.26 -1.79 72.73 -3.19 73.68 -5.59C74.62 -8 75.93 -10.73 77.59 -13.78C79.26 -16.83 80.85 -19.02 82.36 -20.34C82.67 -20.59 82.96 -20.72 83.21 -20.72C83.59 -20.72 83.71 -20.52 83.59 -20.11C82.23 -14.91 81.56 -10.15 81.56 -5.81C81.56 -3.07 81.9 -0.84 82.57 0.87C83.25 2.59 84.18 3.45 85.38 3.45C85.82 3.45 86.25 3.26 86.68 2.88C87.1 2.5 87.39 2.2 87.55 1.98C87.99 1.29 87.99 0.94 87.55 0.94C87.43 0.94 87.19 1.09 86.84 1.39C86.5 1.69 86.14 1.84 85.76 1.84C84.78 1.84 84.29 0.17 84.29 -3.16C84.29 -5.46 84.59 -8.13 85.17 -11.19C85.75 -14.24 86.21 -16.35 86.56 -17.53C86.91 -18.71 87.19 -19.67 87.41 -20.39C87.41 -21.93 86.61 -22.7 85 -22.7C81.16 -22.7 77.22 -17.68 73.16 -7.65Z M94.63 0C96.65 0 99.65 -3.41 103.65 -10.24L104.12 -10.24C103.77 -8.07 103.6 -5.81 103.6 -3.45C103.6 -1.09 103.95 0.96 104.66 2.69C105.37 4.42 106.38 5.29 107.71 5.29C108.27 5.29 108.81 4.96 109.33 4.29C109.85 3.63 110.19 3.11 110.35 2.71C110.51 2.32 110.62 2.01 110.68 1.79C110.74 1.57 110.74 1.42 110.68 1.32C110.62 1.23 110.52 1.18 110.4 1.18C110.05 1.18 109.83 1.35 109.73 1.7C109.48 2.36 109.2 2.86 108.88 3.19C108.57 3.52 108.22 3.68 107.85 3.68C106.87 3.68 106.38 2.06 106.38 -1.18C106.38 -4.42 106.75 -7.68 107.47 -10.95C108.19 -14.22 108.77 -16.41 109.22 -17.51C109.66 -18.61 110.02 -19.46 110.3 -20.06C110.3 -20.78 110 -21.14 109.4 -21.14C108.27 -21.14 107.17 -20.01 106.1 -17.75C104.81 -15.2 103.13 -12.19 101.05 -8.73C99.85 -6.72 98.71 -5.04 97.63 -3.71C96.54 -2.37 95.7 -1.7 95.1 -1.7C94.35 -1.7 93.97 -2.64 93.97 -4.53C93.97 -8.28 94.91 -12.27 96.8 -16.52C98.47 -20.2 100.33 -22.04 102.37 -22.04C102.81 -22.04 103.21 -21.89 103.55 -21.59C103.9 -21.29 104.12 -21.06 104.21 -20.88C104.31 -20.71 104.39 -20.51 104.47 -20.27C104.55 -20.04 104.84 -19.92 105.35 -19.92C105.79 -19.92 106.05 -20.18 106.15 -20.72L105.86 -21.33C105.71 -21.77 105.34 -22.21 104.76 -22.65C104.17 -23.1 103.38 -23.32 102.37 -23.32C101.36 -23.32 100.28 -23 99.12 -22.37C96.41 -20.89 94.22 -18.12 92.55 -14.06C91.36 -11.17 90.76 -8.51 90.76 -6.09C90.76 -2.03 92.05 0 94.63 0Z M133.71 -24.12C133.71 -25.82 134.29 -27.48 135.46 -29.12C138.01 -32.74 142.51 -34.55 148.96 -34.55L149.9 -34.55C148.86 -33.57 147.94 -31.88 147.14 -29.47C146.34 -27.07 145.7 -24.48 145.23 -21.71C144.76 -18.94 144.17 -16.02 143.46 -12.96C142.75 -9.89 142.01 -7.13 141.24 -4.67C140.47 -2.22 139.35 -0.19 137.89 1.42C136.42 3.02 134.72 3.82 132.77 3.82C132.11 3.82 131.49 3.73 130.93 3.54C128.44 2.75 127.2 0.55 127.2 -3.07C127.2 -5.27 127.81 -7.39 129.04 -9.44C130.71 -12.21 132.88 -13.59 135.55 -13.59C135.46 -13.97 135.28 -14.25 135.01 -14.44C134.74 -14.63 134.4 -14.73 133.99 -14.73C132.29 -14.73 130.75 -14.03 129.37 -12.65C127.07 -10.35 125.92 -7.05 125.92 -2.74C125.92 -0.16 126.65 1.89 128.09 3.4C129.42 4.78 131.14 5.47 133.26 5.47C135.39 5.47 137.24 4.95 138.83 3.89C140.42 2.84 141.7 1.44 142.68 -0.31C143.65 -2.05 144.53 -4.07 145.3 -6.35C146.07 -8.63 146.74 -11.37 147.3 -14.58C147.87 -17.79 148.58 -21.93 149.43 -27C150.18 -31.4 151.24 -33.97 152.59 -34.69C155.86 -35 158.52 -35.7 160.57 -36.77C162.61 -37.84 163.63 -38.89 163.63 -39.93C163.63 -40.37 163.39 -40.59 162.9 -40.59C162.41 -40.59 161.8 -40.34 161.06 -39.83C160.32 -39.33 159.54 -38.76 158.7 -38.14C157.87 -37.51 156.58 -36.94 154.83 -36.44C153.09 -35.93 151.14 -35.68 149 -35.68C146.86 -35.68 144.9 -35.51 143.1 -35.16C138.07 -34.16 134.61 -31.94 132.72 -28.51C131.9 -27.03 131.49 -25.77 131.49 -24.73C131.49 -23.69 131.62 -22.81 131.87 -22.09C132.41 -20.55 133.32 -19.78 134.61 -19.78C135.24 -19.78 135.6 -20 135.69 -20.44C134.37 -20.66 133.71 -21.88 133.71 -24.12Z M157.69 0C159.7 0 162.71 -3.41 166.7 -10.24L167.17 -10.24C166.83 -8.07 166.65 -5.81 166.65 -3.45C166.65 -1.09 167.01 0.96 167.72 2.69C168.42 4.42 169.44 5.29 170.76 5.29C171.33 5.29 171.87 4.96 172.39 4.29C172.91 3.63 173.25 3.11 173.4 2.71C173.56 2.32 173.67 2.01 173.73 1.79C173.8 1.57 173.8 1.42 173.73 1.32C173.67 1.23 173.58 1.18 173.45 1.18C173.11 1.18 172.88 1.35 172.79 1.7C172.54 2.36 172.26 2.86 171.94 3.19C171.63 3.52 171.28 3.68 170.9 3.68C169.93 3.68 169.44 2.06 169.44 -1.18C169.44 -4.42 169.8 -7.68 170.53 -10.95C171.25 -14.22 171.83 -16.41 172.27 -17.51C172.71 -18.61 173.07 -19.46 173.36 -20.06C173.36 -20.78 173.06 -21.14 172.46 -21.14C171.33 -21.14 170.23 -20.01 169.16 -17.75C167.87 -15.2 166.18 -12.19 164.11 -8.73C162.91 -6.72 161.77 -5.04 160.68 -3.71C159.6 -2.37 158.76 -1.7 158.16 -1.7C157.4 -1.7 157.03 -2.64 157.03 -4.53C157.03 -8.28 157.97 -12.27 159.86 -16.52C161.53 -20.2 163.38 -22.04 165.43 -22.04C165.87 -22.04 166.26 -21.89 166.61 -21.59C166.95 -21.29 167.17 -21.06 167.27 -20.88C167.36 -20.71 167.45 -20.51 167.53 -20.27C167.61 -20.04 167.9 -19.92 168.4 -19.92C168.84 -19.92 169.11 -20.18 169.2 -20.72L168.92 -21.33C168.76 -21.77 168.39 -22.21 167.81 -22.65C167.23 -23.1 166.43 -23.32 165.43 -23.32C164.42 -23.32 163.34 -23 162.17 -22.37C159.47 -20.89 157.28 -18.12 155.61 -14.06C154.41 -11.17 153.82 -8.51 153.82 -6.09C153.82 -2.03 155.11 0 157.69 0Z M187.85 -5.76C187.85 -3.27 188.3 -2.03 189.22 -2.03C189.72 -2.03 189.97 -2.22 189.97 -2.6C189.97 -3.35 191.07 -5.81 193.27 -9.98C195.48 -14.15 197.47 -17.01 199.27 -18.55C199.46 -18.71 199.65 -18.8 199.83 -18.83C200.05 -18.83 200.13 -18.72 200.07 -18.5C199.06 -14.85 198.56 -10.62 198.56 -5.81C198.56 -3.07 198.9 -0.84 199.58 0.87C200.25 2.59 201.2 3.45 202.43 3.45C202.84 3.45 203.26 3.26 203.68 2.88C204.11 2.5 204.38 2.2 204.51 1.98C204.98 1.29 205 0.94 204.55 0.94C204.43 0.94 204.19 1.09 203.85 1.39C203.5 1.69 203.15 1.84 202.81 1.84C201.8 1.84 201.3 0.17 201.3 -3.16C201.3 -8.32 202.12 -13.62 203.75 -19.07C203.75 -20.52 203 -21.24 201.49 -21.24C200.35 -21.24 199.08 -20.46 197.66 -18.9C196.25 -17.35 195.01 -15.66 193.96 -13.85C192.9 -12.04 191.86 -10.04 190.82 -7.83L190.44 -7.83C191.1 -12.11 192.17 -16.46 193.65 -20.86C193.65 -22.34 192.9 -23.08 191.39 -23.08C187.89 -23.08 184.07 -17.89 179.92 -7.5L179.49 -7.5C180.12 -12.32 181.16 -17.01 182.61 -21.57C182.61 -22.23 182.31 -22.56 181.71 -22.56C180.36 -22.56 179.21 -20.66 178.27 -16.87C177.32 -13.08 176.85 -8.83 176.85 -4.11C176.85 -1.62 177.32 -0.38 178.27 -0.38C178.74 -0.38 178.97 -0.57 178.97 -0.94C178.97 -1.38 179.48 -2.9 180.48 -5.5C181.49 -8.09 182.83 -10.97 184.5 -14.11C186.16 -17.26 187.69 -19.41 189.07 -20.58C189.26 -20.74 189.47 -20.83 189.69 -20.86C189.97 -20.89 190.06 -20.75 189.97 -20.44C188.55 -14.52 187.85 -9.63 187.85 -5.76Z"/></g><g id="SvgjsG1079" class="text" transform="translate(74.58169536454399, 175.81596628640753) scale(1)" light-content="false" fill="#424242"><path d="M0.71 -17.21L0.71 -16.22L2.48 -16.18L2.48 0L3.59 0L3.59 -17.21Z M10.96 -11.5C11.24 -11.5 11.52 -11.49 11.8 -11.46C12.52 -11.37 13.13 -11.07 13.63 -10.56C14.13 -10.04 14.38 -9.34 14.38 -8.46L14.38 0L15.46 0L15.46 -8.51C15.46 -10.23 14.77 -11.41 13.37 -12.05C12.73 -12.36 11.95 -12.51 11.01 -12.51C9.59 -12.51 8.42 -12.23 7.5 -11.65L7.5 -12.32L6.39 -12.32L6.39 0L7.5 0L7.5 -10.67C8.53 -11.23 9.69 -11.5 10.96 -11.5Z M18.19 -17.21L18.19 -3.24C18.19 -2.28 18.4 -1.51 18.81 -0.93C19.22 -0.36 19.88 0.06 20.8 0.32L21.12 -0.57C19.9 -0.96 19.3 -1.85 19.3 -3.24L19.3 -11.26L22.03 -11.26L22.52 -12.32L19.3 -12.32L19.3 -17.21Z M32.18 -0.86L31.74 -1.72C30.44 -1.02 29.2 -0.66 28.02 -0.66C27.25 -0.66 26.57 -0.86 25.96 -1.27C25.35 -1.67 25.05 -2.34 25.05 -3.27L25.05 -5.04L32.79 -5.46L32.79 -8.41C32.79 -9.7 32.41 -10.71 31.65 -11.44C30.89 -12.17 29.83 -12.54 28.47 -12.54C27.11 -12.54 26.01 -12.17 25.18 -11.43C24.36 -10.69 23.94 -9.66 23.94 -8.33L23.94 -3.29C23.94 -0.9 25.37 0.29 28.22 0.29C29.6 0.29 30.92 -0.09 32.18 -0.86ZM25.05 -8.33C25.05 -9.45 25.37 -10.27 26.02 -10.79C26.67 -11.32 27.44 -11.58 28.33 -11.58C29.22 -11.58 30.01 -11.34 30.68 -10.88C31.35 -10.41 31.69 -9.63 31.69 -8.53L31.69 -6.47L25.05 -6.12Z M35.25 -12.32L35.25 0L36.36 0L36.36 -9.69C36.36 -10.46 36.91 -11 38 -11.31C38.53 -11.47 39.05 -11.55 39.56 -11.55C40.08 -11.55 40.59 -11.46 41.1 -11.28L41.4 -12.32C40.72 -12.46 40.11 -12.54 39.55 -12.54C38.19 -12.54 37.11 -12.14 36.31 -11.33L36.36 -12.32Z M43.31 -12.32L43.31 0L44.42 0L44.42 -12.32ZM43.19 -16.79C43.19 -16.61 43.26 -16.45 43.4 -16.31C43.54 -16.17 43.7 -16.1 43.88 -16.1C44.06 -16.1 44.22 -16.17 44.35 -16.31C44.48 -16.45 44.54 -16.61 44.54 -16.79C44.54 -16.97 44.48 -17.13 44.35 -17.26C44.22 -17.39 44.06 -17.45 43.88 -17.45C43.7 -17.45 43.54 -17.39 43.4 -17.26C43.26 -17.13 43.19 -16.97 43.19 -16.79Z M47.66 -4.52C47.66 -3.16 48.05 -2.03 48.83 -1.12C49.61 -0.21 50.76 0.25 52.29 0.25C53.81 0.25 54.95 -0.2 55.7 -1.11C56.46 -2.01 56.83 -3.15 56.83 -4.52L56.83 -7.77C56.83 -9.26 56.43 -10.44 55.63 -11.3C54.83 -12.16 53.7 -12.59 52.24 -12.59C50.78 -12.59 49.65 -12.17 48.86 -11.34C48.06 -10.52 47.66 -9.32 47.66 -7.77ZM48.77 -7.79C48.77 -9.09 49.09 -10.04 49.73 -10.66C50.37 -11.27 51.21 -11.58 52.26 -11.58C53.31 -11.58 54.15 -11.27 54.78 -10.64C55.41 -10.02 55.73 -9.07 55.73 -7.79L55.73 -4.35C55.73 -3.29 55.43 -2.42 54.84 -1.75C54.25 -1.07 53.4 -0.74 52.29 -0.74C51.17 -0.74 50.31 -1.08 49.69 -1.76C49.08 -2.44 48.77 -3.3 48.77 -4.35Z M59.19 -12.32L59.19 0L60.3 0L60.3 -9.69C60.3 -10.46 60.85 -11 61.95 -11.31C62.47 -11.47 62.99 -11.55 63.51 -11.55C64.02 -11.55 64.54 -11.46 65.04 -11.28L65.34 -12.32C64.67 -12.46 64.05 -12.54 63.5 -12.54C62.14 -12.54 61.05 -12.14 60.25 -11.33L60.3 -12.32Z M74.63 -17.23L74.63 0L79.74 0C83.22 0 84.96 -1.64 84.96 -4.92L84.96 -11.65C84.96 -13.34 84.47 -14.69 83.49 -15.71C82.52 -16.72 81.1 -17.23 79.25 -17.23ZM75.74 -16.2L79.5 -16.2C80.68 -16.2 81.7 -15.83 82.56 -15.11C83.42 -14.38 83.85 -13.27 83.85 -11.77L83.85 -4.84C83.85 -3.17 83.33 -2.09 82.28 -1.6C81.44 -1.2 80.48 -1.01 79.4 -1.01L75.74 -1.01Z M95.97 -0.86L95.53 -1.72C94.23 -1.02 92.99 -0.66 91.81 -0.66C91.04 -0.66 90.36 -0.86 89.75 -1.27C89.14 -1.67 88.84 -2.34 88.84 -3.27L88.84 -5.04L96.58 -5.46L96.58 -8.41C96.58 -9.7 96.2 -10.71 95.44 -11.44C94.68 -12.17 93.62 -12.54 92.26 -12.54C90.9 -12.54 89.8 -12.17 88.97 -11.43C88.15 -10.69 87.73 -9.66 87.73 -8.33L87.73 -3.29C87.73 -0.9 89.16 0.29 92.01 0.29C93.39 0.29 94.71 -0.09 95.97 -0.86ZM88.84 -8.33C88.84 -9.45 89.16 -10.27 89.81 -10.79C90.46 -11.32 91.23 -11.58 92.12 -11.58C93.01 -11.58 93.8 -11.34 94.47 -10.88C95.14 -10.41 95.48 -9.63 95.48 -8.53L95.48 -6.47L88.84 -6.12Z M105.68 -11.9L105.36 -12.07C105.16 -12.18 104.83 -12.3 104.38 -12.43C103.92 -12.55 103.43 -12.61 102.93 -12.61C101.43 -12.61 100.36 -12.26 99.72 -11.55C99.07 -10.85 98.75 -10.09 98.75 -9.28C98.75 -8.47 99.07 -7.79 99.71 -7.25C100.25 -6.79 100.87 -6.45 101.57 -6.22C102.28 -5.99 102.98 -5.76 103.69 -5.54C104.39 -5.32 104.98 -5.01 105.46 -4.6C105.93 -4.19 106.17 -3.63 106.17 -2.94C106.17 -2.24 105.85 -1.69 105.21 -1.28C104.57 -0.87 103.81 -0.66 102.91 -0.66C102.02 -0.66 101.25 -0.88 100.6 -1.32C99.95 -1.75 99.58 -2.35 99.48 -3.12L98.43 -3.12C98.46 -2.14 98.88 -1.31 99.68 -0.64C100.48 0.03 101.59 0.37 102.99 0.37C104.39 0.37 105.45 0.04 106.18 -0.61C106.91 -1.27 107.28 -2.05 107.28 -2.95C107.28 -3.85 107.03 -4.57 106.54 -5.1C106.05 -5.63 105.44 -6.03 104.73 -6.28C104.02 -6.53 103.31 -6.77 102.59 -6.98C101.88 -7.19 101.24 -7.48 100.68 -7.83C100.11 -8.18 99.83 -8.69 99.83 -9.37C99.83 -10.05 100.12 -10.6 100.71 -11.01C101.3 -11.42 102.06 -11.62 102.97 -11.62C103.89 -11.61 104.66 -11.39 105.29 -10.96Z M110.18 -12.32L110.18 0L111.28 0L111.28 -12.32ZM110.05 -16.79C110.05 -16.61 110.12 -16.45 110.26 -16.31C110.4 -16.17 110.56 -16.1 110.74 -16.1C110.92 -16.1 111.08 -16.17 111.21 -16.31C111.34 -16.45 111.41 -16.61 111.41 -16.79C111.41 -16.97 111.34 -17.13 111.21 -17.26C111.08 -17.39 110.92 -17.45 110.74 -17.45C110.56 -17.45 110.4 -17.39 110.26 -17.26C110.12 -17.13 110.05 -16.97 110.05 -16.79Z M122.52 -10.84C121.76 -11.97 120.63 -12.54 119.11 -12.54C117.6 -12.54 116.41 -12.14 115.56 -11.34C114.71 -10.55 114.28 -9.43 114.28 -7.99L114.28 -4.33C114.28 -2.82 114.68 -1.67 115.49 -0.88C116.29 -0.1 117.46 0.29 118.99 0.29C120.52 0.29 121.67 -0.34 122.44 -1.6L122.44 1.55C122.44 2.93 121.84 3.84 120.62 4.3L120.92 5.16C121.85 4.87 122.53 4.44 122.94 3.88C123.34 3.33 123.55 2.56 123.55 1.57L123.55 -12.32L122.44 -12.32ZM115.39 -7.87C115.39 -9.18 115.74 -10.12 116.46 -10.68C117.17 -11.25 117.99 -11.53 118.9 -11.53C119.82 -11.53 120.62 -11.3 121.29 -10.84C121.96 -10.38 122.35 -9.67 122.44 -8.7L122.44 -4.15C122.44 -3.04 122.08 -2.19 121.36 -1.61C120.64 -1.03 119.77 -0.74 118.76 -0.74C117.74 -0.74 116.92 -1.03 116.31 -1.61C115.7 -2.19 115.39 -3.02 115.39 -4.11Z M130.53 -11.5C130.81 -11.5 131.09 -11.49 131.37 -11.46C132.09 -11.37 132.7 -11.07 133.2 -10.56C133.7 -10.04 133.95 -9.34 133.95 -8.46L133.95 0L135.03 0L135.03 -8.51C135.03 -10.23 134.33 -11.41 132.94 -12.05C132.3 -12.36 131.51 -12.51 130.58 -12.51C129.15 -12.51 127.98 -12.23 127.06 -11.65L127.06 -12.32L125.96 -12.32L125.96 0L127.06 0L127.06 -10.67C128.1 -11.23 129.25 -11.5 130.53 -11.5Z"/></g></g></svg>