<svg xmlns="http://www.w3.org/2000/svg" version="1.1" xlink="http://www.w3.org/1999/xlink" xmlns:svgjs="http://svgjs.com/svgjs" width="300" height="46.022200075603976"><defs id="SvgjsDefs1458"/><g id="SvgjsG1459" transform="scale(0.736402330958845)" opacity="1"><g id="SvgjsG1460" class="y3HzOxxlIC" transform="translate(-3.552713678800501e-15, -3.552713678800501e-15) scale(0.6249600000000001)" light-content="false" fill="#1c1c1c"><path d="M24 0h76v76c0 13.255-10.745 24-24 24H0V24C0 10.745 10.745 0 24 0z"/></g><g id="SvgjsG1461" class="bs43v6OjLW" transform="translate(9.365198451908507, 10.213852739902508) scale(0.4376734276638609)" light-content="true" fill="#ffffff"><path d="M99.975 59.486a3.195 3.195 0 0 1-3.196 3.198h-38a3.174 3.174 0 0 1-2.296-.975l-25.08-25.901-25.925 25.94a3.195 3.195 0 1 1-4.521-4.52L29.18 28.989a3.197 3.197 0 0 1 4.556.036l7.348 7.592h19.7v-8.896h8.479v8.896H79.55c.957 0 1.818.423 2.405 1.089l17.229 19.673c.493.564.791 1.304.791 2.107zm-77.386-1.111h6.974v-6.978h-6.974v6.978zm10.515 0h6.973v-6.978h-6.973v6.978zm-10.515 9.986h6.974v-6.978h-6.974v6.978zm10.515.036h6.973v-6.979h-6.973v6.979z"/></g><g id="SvgjsG1462" class="text" transform="translate(77.05600000000001, 32.133) scale(1)" light-content="false" fill="#1c1c1c"><path d="M7.69 -23.99L2.44 0L6.77 0L10.2 -18.12L10.49 -19.67L10.69 -18.12L13.79 -0.33L18.65 -0.33L26.04 -18.08L26.63 -19.67L26.53 -18.08L25.61 0L29.93 0L30.62 -23.99L24.62 -23.99L17.13 -5.48L16.7 -4.29L16.63 -5.48L13.66 -23.99Z M39.73 0L42.67 -23.99L38.08 -23.99L35.14 0Z M59.63 -21.02C60.4 -21.02 61.23 -20.94 62.11 -20.77C62.99 -20.61 64.02 -20.28 65.21 -19.8L66.83 -22.97C65.64 -23.5 64.44 -23.87 63.23 -24.09C62.02 -24.31 60.95 -24.42 60.03 -24.42C58 -24.42 56.14 -24.1 54.45 -23.45C52.76 -22.8 51.27 -21.91 50 -20.79C48.72 -19.67 47.68 -18.35 46.88 -16.85C46.07 -15.34 45.56 -13.72 45.34 -11.98C45.12 -10.26 45.22 -8.65 45.64 -7.14C46.06 -5.64 46.76 -4.32 47.75 -3.2C48.74 -2.08 50 -1.2 51.53 -0.56C53.06 0.08 54.85 0.4 56.89 0.4C57.35 0.4 57.89 0.36 58.49 0.3C59.1 0.23 59.74 0.13 60.42 0C61.11 -0.13 61.79 -0.3 62.49 -0.51C63.18 -0.72 63.84 -0.96 64.48 -1.22L65.7 -11.12L61.48 -11.12L60.52 -3.37C59.82 -3.19 59.23 -3.09 58.76 -3.05C58.28 -3.02 57.8 -3 57.32 -3C56 -3 54.87 -3.26 53.94 -3.76C53 -4.27 52.24 -4.94 51.66 -5.77C51.08 -6.61 50.68 -7.57 50.47 -8.65C50.26 -9.72 50.23 -10.83 50.36 -11.98C50.51 -13.17 50.84 -14.31 51.33 -15.41C51.83 -16.51 52.47 -17.47 53.26 -18.3C54.05 -19.12 54.98 -19.78 56.05 -20.28C57.12 -20.77 58.31 -21.02 59.63 -21.02Z M78.67 0.46C80.15 0.46 81.5 0.24 82.75 -0.21C83.99 -0.67 85.07 -1.31 86 -2.16C86.92 -3.01 87.68 -4.03 88.28 -5.21C88.87 -6.4 89.25 -7.72 89.43 -9.17L91.25 -23.99L86.63 -23.99L84.74 -8.68C84.63 -7.78 84.41 -6.97 84.07 -6.27C83.73 -5.57 83.3 -4.97 82.8 -4.47C82.29 -3.98 81.72 -3.6 81.08 -3.33C80.44 -3.07 79.77 -2.94 79.07 -2.94C78.36 -2.94 77.73 -3.07 77.15 -3.33C76.58 -3.6 76.1 -3.98 75.72 -4.47C75.33 -4.97 75.06 -5.57 74.91 -6.27C74.76 -6.97 74.73 -7.78 74.84 -8.68L76.72 -23.99L72.07 -23.99L70.26 -9.17C70.06 -7.61 70.11 -6.23 70.41 -5.03C70.7 -3.83 71.22 -2.83 71.96 -2.01C72.69 -1.2 73.63 -0.58 74.76 -0.16C75.89 0.25 77.2 0.46 78.67 0.46Z M96.06 -23.99L93.13 0L108.04 0L108.44 -3.4L98.24 -3.4L100.35 -20.59L110.02 -20.59L110.45 -23.99ZM100.42 -10.92L107.71 -10.92L108.14 -14.26L104.15 -14.26C103.66 -14.26 103.23 -14.15 102.84 -13.94C102.46 -13.73 102.11 -13.46 101.81 -13.13C101.5 -12.8 101.23 -12.44 101 -12.04C100.77 -11.65 100.57 -11.27 100.42 -10.92Z M115.43 -23.99L112.5 0L125.9 0L126.29 -3.43L117.65 -3.43L120.19 -23.99Z M157.58 -17.09C157.71 -18.26 157.58 -19.3 157.2 -20.21C156.81 -21.13 156.23 -21.9 155.45 -22.52C154.67 -23.15 153.72 -23.63 152.63 -23.96C151.53 -24.29 150.33 -24.45 149.03 -24.45C148.43 -24.45 147.87 -24.44 147.35 -24.42C146.82 -24.4 146.27 -24.36 145.7 -24.3C145.12 -24.25 144.5 -24.17 143.81 -24.07C143.13 -23.97 142.34 -23.85 141.44 -23.69L138.53 0L143.29 0L145.83 -20.86C146.14 -20.88 146.4 -20.91 146.62 -20.94C146.84 -20.97 147.05 -20.99 147.25 -21C147.44 -21.01 147.65 -21.03 147.86 -21.04C148.07 -21.05 148.32 -21.05 148.63 -21.05C149.27 -21.05 149.86 -20.95 150.4 -20.76C150.94 -20.56 151.39 -20.28 151.75 -19.93C152.11 -19.58 152.38 -19.16 152.56 -18.68C152.73 -18.19 152.79 -17.67 152.72 -17.09C152.66 -16.57 152.51 -16.07 152.28 -15.61C152.05 -15.15 151.76 -14.75 151.42 -14.4C151.08 -14.06 150.7 -13.79 150.28 -13.58C149.86 -13.37 149.42 -13.24 148.96 -13.2C148.59 -13.16 148.24 -13.03 147.91 -12.84C147.58 -12.64 147.28 -12.39 147.02 -12.09C146.75 -11.8 146.51 -11.48 146.29 -11.14C146.07 -10.8 145.88 -10.47 145.73 -10.16C146.28 -9.99 146.81 -9.88 147.33 -9.85C147.85 -9.82 148.34 -9.82 148.8 -9.87C149.35 -9.38 149.75 -8.76 150.02 -7.99C150.28 -7.22 150.49 -6.38 150.65 -5.48C150.8 -4.58 150.94 -3.65 151.06 -2.69C151.18 -1.73 151.38 -0.84 151.67 0L156.52 0C156.15 -1.06 155.88 -2.1 155.73 -3.12C155.57 -4.14 155.42 -5.11 155.27 -6.02C155.11 -6.94 154.9 -7.78 154.62 -8.56C154.35 -9.34 153.91 -10.02 153.32 -10.59C153.23 -10.66 153.11 -10.72 152.97 -10.79C152.83 -10.86 152.71 -10.91 152.63 -10.96L153.62 -11.32C154.67 -11.91 155.55 -12.69 156.26 -13.66C156.96 -14.63 157.4 -15.77 157.58 -17.09Z M174.31 -21.09C175.38 -21.09 176.32 -20.86 177.13 -20.39C177.93 -19.93 178.58 -19.3 179.07 -18.5C179.57 -17.69 179.91 -16.74 180.08 -15.63C180.26 -14.51 180.27 -13.31 180.11 -12.01C179.94 -10.56 179.59 -9.27 179.07 -8.15C178.56 -7.03 177.93 -6.08 177.19 -5.31C176.46 -4.54 175.64 -3.95 174.75 -3.55C173.86 -3.14 172.96 -2.94 172.06 -2.94C170.92 -2.94 169.95 -3.2 169.16 -3.71C168.37 -4.23 167.73 -4.91 167.24 -5.76C166.76 -6.61 166.44 -7.57 166.29 -8.66C166.13 -9.75 166.12 -10.87 166.25 -12.01C166.41 -13.22 166.7 -14.38 167.13 -15.48C167.56 -16.58 168.11 -17.55 168.8 -18.38C169.48 -19.22 170.28 -19.88 171.2 -20.36C172.13 -20.85 173.16 -21.09 174.31 -21.09ZM171.67 0.46C173.58 0.46 175.32 0.12 176.88 -0.58C178.44 -1.27 179.8 -2.19 180.96 -3.35C182.11 -4.5 183.04 -5.83 183.74 -7.33C184.45 -8.82 184.9 -10.38 185.1 -12.01C185.27 -13.46 185.24 -14.93 185 -16.42C184.76 -17.9 184.23 -19.24 183.43 -20.44C182.63 -21.64 181.52 -22.62 180.1 -23.36C178.68 -24.11 176.89 -24.49 174.74 -24.49C172.84 -24.49 171.12 -24.16 169.55 -23.51C167.99 -22.86 166.63 -21.97 165.48 -20.84C164.32 -19.71 163.38 -18.38 162.66 -16.86C161.93 -15.34 161.46 -13.73 161.24 -12.01C161.02 -10.23 161.08 -8.58 161.44 -7.06C161.79 -5.54 162.4 -4.23 163.28 -3.12C164.16 -2.01 165.3 -1.13 166.7 -0.49C168.1 0.14 169.75 0.46 171.67 0.46Z M196.75 -3C196.28 -3 195.87 -2.91 195.49 -2.72C195.12 -2.54 194.78 -2.3 194.47 -2.01C194.16 -1.73 193.89 -1.42 193.64 -1.09C193.4 -0.76 193.2 -0.45 193.05 -0.16C193.51 -0.03 193.91 0.07 194.24 0.13C194.57 0.2 194.88 0.25 195.16 0.3C195.45 0.34 195.72 0.37 195.97 0.38C196.22 0.39 196.5 0.4 196.81 0.4C198.48 0.4 200.08 0.08 201.6 -0.56C203.12 -1.2 204.46 -2.08 205.64 -3.2C206.82 -4.32 207.79 -5.64 208.56 -7.16C209.33 -8.68 209.82 -10.31 210.05 -12.04C210.29 -14 210.19 -15.75 209.75 -17.28C209.31 -18.8 208.55 -20.1 207.49 -21.15C206.42 -22.21 205.06 -23.02 203.4 -23.58C201.73 -24.14 199.8 -24.42 197.6 -24.42C196.64 -24.42 195.51 -24.35 194.22 -24.22C192.93 -24.09 191.53 -23.87 190.01 -23.56L187.14 0L191.8 0L194.34 -20.76C194.84 -20.85 195.34 -20.91 195.82 -20.95C196.31 -21 196.77 -21.02 197.21 -21.02C198.79 -21.02 200.12 -20.8 201.2 -20.34C202.28 -19.89 203.13 -19.27 203.76 -18.48C204.39 -17.69 204.8 -16.74 205 -15.64C205.19 -14.54 205.22 -13.34 205.06 -12.04C204.93 -10.94 204.66 -9.86 204.25 -8.78C203.85 -7.7 203.3 -6.73 202.6 -5.87C201.91 -5.02 201.07 -4.32 200.1 -3.8C199.12 -3.27 198 -3 196.75 -3Z M230.84 -17.09C230.97 -18.26 230.84 -19.3 230.46 -20.21C230.07 -21.13 229.49 -21.9 228.71 -22.52C227.93 -23.15 226.98 -23.63 225.89 -23.96C224.79 -24.29 223.59 -24.45 222.29 -24.45C221.69 -24.45 221.13 -24.44 220.61 -24.42C220.08 -24.4 219.53 -24.36 218.96 -24.3C218.38 -24.25 217.76 -24.17 217.07 -24.07C216.39 -23.97 215.6 -23.85 214.7 -23.69L211.79 0L216.55 0L219.09 -20.86C219.4 -20.88 219.66 -20.91 219.88 -20.94C220.1 -20.97 220.31 -20.99 220.51 -21C220.7 -21.01 220.91 -21.03 221.12 -21.04C221.33 -21.05 221.58 -21.05 221.89 -21.05C222.53 -21.05 223.12 -20.95 223.66 -20.76C224.2 -20.56 224.65 -20.28 225.01 -19.93C225.37 -19.58 225.64 -19.16 225.82 -18.68C225.99 -18.19 226.05 -17.67 225.98 -17.09C225.92 -16.57 225.77 -16.07 225.54 -15.61C225.31 -15.15 225.02 -14.75 224.68 -14.4C224.34 -14.06 223.96 -13.79 223.54 -13.58C223.12 -13.37 222.68 -13.24 222.22 -13.2C221.85 -13.16 221.5 -13.03 221.17 -12.84C220.84 -12.64 220.54 -12.39 220.28 -12.09C220.01 -11.8 219.77 -11.48 219.55 -11.14C219.33 -10.8 219.14 -10.47 218.99 -10.16C219.54 -9.99 220.07 -9.88 220.59 -9.85C221.11 -9.82 221.6 -9.82 222.06 -9.87C222.61 -9.38 223.01 -8.76 223.28 -7.99C223.54 -7.22 223.75 -6.38 223.91 -5.48C224.06 -4.58 224.2 -3.65 224.32 -2.69C224.44 -1.73 224.64 -0.84 224.93 0L229.78 0C229.41 -1.06 229.14 -2.1 228.99 -3.12C228.83 -4.14 228.68 -5.11 228.53 -6.02C228.37 -6.94 228.16 -7.78 227.88 -8.56C227.61 -9.34 227.17 -10.02 226.58 -10.59C226.49 -10.66 226.37 -10.72 226.23 -10.79C226.09 -10.86 225.97 -10.91 225.89 -10.96L226.88 -11.32C227.93 -11.91 228.81 -12.69 229.52 -13.66C230.22 -14.63 230.66 -15.77 230.84 -17.09Z M238.62 0L241.56 -23.99L236.97 -23.99L234.04 0ZM235.42 -29.37L237.11 -26.66C237.33 -26.29 237.64 -25.99 238.05 -25.76C238.45 -25.53 238.88 -25.36 239.33 -25.26C239.78 -25.16 240.22 -25.12 240.65 -25.13C241.08 -25.14 241.44 -25.18 241.73 -25.24L239.81 -29.37Z M257.96 -21.02C258.73 -21.02 259.56 -20.94 260.44 -20.77C261.32 -20.61 262.35 -20.28 263.54 -19.8L265.16 -22.97C263.97 -23.5 262.77 -23.87 261.56 -24.09C260.35 -24.31 259.28 -24.42 258.36 -24.42C256.33 -24.42 254.47 -24.1 252.78 -23.45C251.09 -22.8 249.6 -21.91 248.33 -20.79C247.05 -19.67 246.01 -18.35 245.21 -16.85C244.4 -15.34 243.89 -13.72 243.67 -11.98C243.45 -10.26 243.55 -8.65 243.97 -7.14C244.39 -5.64 245.09 -4.32 246.08 -3.2C247.07 -2.08 248.33 -1.2 249.86 -0.56C251.39 0.08 253.18 0.4 255.22 0.4C255.68 0.4 256.22 0.36 256.82 0.3C257.43 0.23 258.07 0.13 258.75 0C259.44 -0.13 260.12 -0.3 260.82 -0.51C261.51 -0.72 262.17 -0.96 262.81 -1.22L264.03 -11.12L259.81 -11.12L258.85 -3.37C258.15 -3.19 257.56 -3.09 257.09 -3.05C256.61 -3.02 256.13 -3 255.65 -3C254.33 -3 253.2 -3.26 252.27 -3.76C251.33 -4.27 250.57 -4.94 249.99 -5.77C249.41 -6.61 249.01 -7.57 248.8 -8.65C248.59 -9.72 248.56 -10.83 248.69 -11.98C248.84 -13.17 249.17 -14.31 249.66 -15.41C250.16 -16.51 250.8 -17.47 251.59 -18.3C252.38 -19.12 253.31 -19.78 254.38 -20.28C255.45 -20.77 256.64 -21.02 257.96 -21.02Z M277 0.46C278.48 0.46 279.83 0.24 281.08 -0.21C282.32 -0.67 283.4 -1.31 284.33 -2.16C285.25 -3.01 286.01 -4.03 286.61 -5.21C287.2 -6.4 287.58 -7.72 287.76 -9.17L289.58 -23.99L284.96 -23.99L283.07 -8.68C282.96 -7.78 282.74 -6.97 282.4 -6.27C282.06 -5.57 281.63 -4.97 281.13 -4.47C280.62 -3.98 280.05 -3.6 279.41 -3.33C278.77 -3.07 278.1 -2.94 277.4 -2.94C276.69 -2.94 276.06 -3.07 275.48 -3.33C274.91 -3.6 274.43 -3.98 274.05 -4.47C273.66 -4.97 273.39 -5.57 273.24 -6.27C273.09 -6.97 273.06 -7.78 273.17 -8.68L275.06 -23.99L270.4 -23.99L268.59 -9.17C268.39 -7.61 268.44 -6.23 268.74 -5.03C269.03 -3.83 269.55 -2.83 270.29 -2.01C271.02 -1.2 271.96 -0.58 273.09 -0.16C274.22 0.25 275.53 0.46 277 0.46Z M294.39 -23.99L291.46 0L306.37 0L306.77 -3.4L296.57 -3.4L298.68 -20.59L308.35 -20.59L308.78 -23.99ZM298.75 -10.92L306.04 -10.92L306.47 -14.26L302.48 -14.26C301.99 -14.26 301.56 -14.15 301.17 -13.94C300.79 -13.73 300.44 -13.46 300.14 -13.13C299.83 -12.8 299.56 -12.44 299.33 -12.04C299.1 -11.65 298.9 -11.27 298.75 -10.92Z M313.63 -23.99L313.2 -20.66L323.63 -20.66L324.46 -20.76L323.86 -20.2L309.9 -1.95L309.67 0L327.69 0L328.09 -3.4L316.27 -3.4L315.51 -3.3L316.11 -3.8L330.1 -22.04L330.33 -23.99Z"/></g><g id="SvgjsG1463" class="text" transform="translate(78.66600000000001, 55.233000000000004) scale(1)" light-content="false" fill="#1c1c1c"><path d="M8.15 -3.08L8.15 -5.65C8.15 -6.88 7.84 -7.82 7.21 -8.49C6.58 -9.15 5.68 -9.49 4.52 -9.49C4.12 -9.49 3.7 -9.45 3.25 -9.37C2.8 -9.29 2.28 -9.13 1.69 -8.87L2.11 -7.76C2.54 -7.91 2.91 -8.02 3.23 -8.09C3.55 -8.16 3.87 -8.19 4.19 -8.19C5.01 -8.19 5.59 -7.97 5.94 -7.51C6.29 -7.06 6.46 -6.49 6.46 -5.78L6.46 -2.41C6.11 -1.96 5.73 -1.63 5.32 -1.42C4.91 -1.22 4.49 -1.12 4.09 -1.12C3.63 -1.12 3.27 -1.25 3.01 -1.52C2.74 -1.79 2.61 -2.11 2.61 -2.48C2.61 -2.65 2.63 -2.82 2.68 -2.98C2.73 -3.14 2.83 -3.29 2.97 -3.43C3.11 -3.57 3.31 -3.69 3.56 -3.8C3.8 -3.91 4.12 -3.99 4.52 -4.05C4.76 -4.09 4.96 -4.16 5.11 -4.27C5.27 -4.37 5.4 -4.5 5.5 -4.64C5.6 -4.77 5.67 -4.91 5.72 -5.06C5.76 -5.2 5.79 -5.33 5.81 -5.44C4.89 -5.33 4.11 -5.19 3.47 -5.03C2.84 -4.87 2.33 -4.67 1.94 -4.43C1.55 -4.19 1.26 -3.9 1.09 -3.56C0.91 -3.23 0.83 -2.83 0.83 -2.38C0.83 -2.02 0.9 -1.68 1.04 -1.37C1.17 -1.06 1.37 -0.79 1.64 -0.56C1.9 -0.33 2.22 -0.15 2.59 -0.02C2.96 0.11 3.38 0.18 3.85 0.18C4.28 0.18 4.69 0.11 5.09 -0.03C5.47 -0.17 5.9 -0.46 6.35 -0.92L6.55 -1.24L6.57 -0.92C6.64 -0.73 6.73 -0.55 6.82 -0.39C6.92 -0.23 7.05 -0.1 7.22 0L8.44 0C8.36 -0.31 8.29 -0.72 8.24 -1.23C8.18 -1.74 8.15 -2.36 8.15 -3.08Z M10.46 -4.61C10.46 -3.88 10.56 -3.21 10.76 -2.61C10.97 -2.01 11.25 -1.5 11.6 -1.08C11.96 -0.66 12.37 -0.34 12.84 -0.13C13.32 0.08 13.82 0.16 14.36 0.11C14.64 0.08 14.93 0.02 15.25 -0.09C15.56 -0.2 15.86 -0.35 16.16 -0.56C15.95 -0.83 15.72 -1.02 15.47 -1.12C15.23 -1.21 14.97 -1.25 14.71 -1.22C14.29 -1.18 13.92 -1.23 13.62 -1.39C13.31 -1.54 13.05 -1.77 12.84 -2.08C12.63 -2.39 12.48 -2.76 12.38 -3.19C12.27 -3.63 12.22 -4.1 12.22 -4.61C12.22 -5.77 12.5 -6.66 13.05 -7.27C13.6 -7.88 14.33 -8.19 15.23 -8.19C15.5 -8.19 15.76 -8.17 16 -8.15C16.24 -8.12 16.5 -8.06 16.78 -7.99L16.78 0.2C16.78 0.71 16.7 1.16 16.55 1.54C16.4 1.92 16.2 2.23 15.95 2.48C15.7 2.72 15.4 2.9 15.07 3.02C14.73 3.14 14.38 3.2 14 3.2C13.62 3.2 13.21 3.15 12.78 3.05C12.35 2.95 11.87 2.77 11.36 2.52L10.89 3.74C11.49 4.06 12.07 4.26 12.62 4.36C13.17 4.45 13.68 4.5 14.15 4.5C14.81 4.5 15.4 4.39 15.92 4.18C16.44 3.96 16.89 3.65 17.26 3.26C17.63 2.86 17.92 2.39 18.12 1.84C18.32 1.28 18.41 0.67 18.41 0L18.41 -8.91C17.79 -9.11 17.23 -9.26 16.73 -9.35C16.23 -9.44 15.73 -9.49 15.23 -9.49C14.53 -9.49 13.89 -9.37 13.31 -9.14C12.73 -8.9 12.23 -8.57 11.8 -8.15C11.37 -7.72 11.04 -7.21 10.81 -6.61C10.58 -6.01 10.46 -5.34 10.46 -4.61Z M26.91 -5.71L24.62 -5.71C24.19 -5.71 23.86 -5.59 23.63 -5.36C23.41 -5.14 23.23 -4.85 23.09 -4.5L28.31 -4.5C28.51 -5.15 28.57 -5.77 28.5 -6.37C28.44 -6.97 28.26 -7.5 27.97 -7.97C27.68 -8.43 27.3 -8.8 26.82 -9.07C26.34 -9.35 25.79 -9.49 25.18 -9.49C24.5 -9.49 23.89 -9.37 23.35 -9.15C22.81 -8.93 22.34 -8.61 21.96 -8.2C21.58 -7.79 21.28 -7.29 21.08 -6.71C20.87 -6.12 20.77 -5.47 20.77 -4.73C20.77 -4.03 20.87 -3.37 21.08 -2.77C21.28 -2.17 21.57 -1.65 21.95 -1.22C22.33 -0.78 22.79 -0.43 23.33 -0.19C23.87 0.06 24.47 0.18 25.13 0.18C25.56 0.18 26.05 0.13 26.59 0.03C27.13 -0.08 27.68 -0.28 28.26 -0.58L27.81 -1.76C27.29 -1.5 26.85 -1.33 26.49 -1.24C26.12 -1.16 25.73 -1.12 25.31 -1.12C24.9 -1.12 24.52 -1.2 24.17 -1.38C23.83 -1.55 23.52 -1.8 23.27 -2.12C23.01 -2.43 22.81 -2.81 22.66 -3.25C22.52 -3.69 22.45 -4.18 22.45 -4.72C22.45 -5.83 22.68 -6.69 23.16 -7.29C23.63 -7.89 24.25 -8.19 25 -8.19C25.29 -8.19 25.56 -8.13 25.81 -8C26.06 -7.88 26.28 -7.7 26.45 -7.47C26.62 -7.24 26.75 -6.98 26.84 -6.68C26.92 -6.38 26.95 -6.05 26.91 -5.71Z M32.11 -9.31L30.82 -9.31C30.91 -8.89 30.98 -8.49 31.02 -8.11C31.07 -7.73 31.09 -7.37 31.09 -7.04L31.09 0L32.81 0L32.81 -7.33C32.81 -7.69 32.77 -8.03 32.68 -8.34C32.59 -8.66 32.4 -8.98 32.11 -9.31ZM36.99 -6.77L36.99 0L38.72 0L38.72 -6.59C38.72 -7.14 38.65 -7.6 38.5 -7.97C38.36 -8.35 38.16 -8.65 37.92 -8.87C37.67 -9.1 37.39 -9.26 37.06 -9.35C36.74 -9.44 36.4 -9.49 36.04 -9.49C35.71 -9.49 35.33 -9.42 34.9 -9.29C34.47 -9.16 33.94 -8.9 33.3 -8.53C33.55 -8.27 33.83 -8.1 34.13 -8.03C34.43 -7.96 34.75 -7.96 35.1 -8.05C35.26 -8.08 35.39 -8.12 35.5 -8.15C35.6 -8.17 35.73 -8.19 35.87 -8.19C36.25 -8.19 36.52 -8.06 36.71 -7.79C36.9 -7.53 36.99 -7.19 36.99 -6.77Z M42.12 -8.06L42.12 -3.44C42.12 -2.29 42.38 -1.39 42.9 -0.76C43.43 -0.12 44.18 0.2 45.16 0.2C45.45 0.2 45.72 0.17 45.97 0.12C46.22 0.06 46.58 -0.04 47.03 -0.2L46.64 -1.33C46.33 -1.24 46.06 -1.17 45.85 -1.13C45.63 -1.08 45.4 -1.06 45.16 -1.06C44.72 -1.06 44.36 -1.27 44.1 -1.68C43.84 -2.1 43.7 -2.62 43.7 -3.24L43.7 -12.19L42.12 -11.68L42.12 -9.31L40.46 -8.87L40.46 -8.06ZM45.86 -8.06L46.89 -8.06L46.89 -9.31L44.35 -9.31C44.47 -8.96 44.65 -8.66 44.88 -8.42C45.12 -8.18 45.44 -8.06 45.86 -8.06Z M55.1 -5.71L52.81 -5.71C52.38 -5.71 52.05 -5.59 51.82 -5.36C51.59 -5.14 51.41 -4.85 51.28 -4.5L56.5 -4.5C56.69 -5.15 56.76 -5.77 56.69 -6.37C56.63 -6.97 56.45 -7.5 56.16 -7.97C55.87 -8.43 55.49 -8.8 55.01 -9.07C54.53 -9.35 53.98 -9.49 53.37 -9.49C52.69 -9.49 52.07 -9.37 51.53 -9.15C50.99 -8.93 50.53 -8.61 50.15 -8.2C49.76 -7.79 49.47 -7.29 49.27 -6.71C49.06 -6.12 48.96 -5.47 48.96 -4.73C48.96 -4.03 49.06 -3.37 49.27 -2.77C49.47 -2.17 49.76 -1.65 50.14 -1.22C50.52 -0.78 50.98 -0.43 51.52 -0.19C52.06 0.06 52.66 0.18 53.32 0.18C53.75 0.18 54.23 0.13 54.77 0.03C55.31 -0.08 55.87 -0.28 56.45 -0.58L56 -1.76C55.48 -1.5 55.04 -1.33 54.68 -1.24C54.31 -1.16 53.92 -1.12 53.5 -1.12C53.09 -1.12 52.71 -1.2 52.36 -1.38C52.01 -1.55 51.71 -1.8 51.45 -2.12C51.2 -2.43 50.99 -2.81 50.85 -3.25C50.71 -3.69 50.63 -4.18 50.63 -4.72C50.63 -5.83 50.87 -6.69 51.35 -7.29C51.82 -7.89 52.43 -8.19 53.19 -8.19C53.48 -8.19 53.75 -8.13 54 -8C54.25 -7.88 54.47 -7.7 54.64 -7.47C54.81 -7.24 54.94 -6.98 55.03 -6.68C55.11 -6.38 55.13 -6.05 55.1 -5.71Z M63.29 -4.7C63.29 -4.01 63.37 -3.38 63.55 -2.78C63.72 -2.19 63.98 -1.67 64.32 -1.23C64.67 -0.79 65.08 -0.45 65.57 -0.2C66.05 0.05 66.61 0.18 67.25 0.18C67.62 0.18 68.05 0.1 68.53 -0.07C69.01 -0.24 69.43 -0.53 69.8 -0.95L69.95 -1.26L69.98 -0.97C70.08 -0.73 70.17 -0.54 70.26 -0.4C70.35 -0.27 70.47 -0.13 70.61 0L71.82 0C71.75 -0.31 71.69 -0.72 71.63 -1.23C71.58 -1.74 71.55 -2.36 71.55 -3.08L71.55 -13.64L69.88 -13.64L69.88 -2.43C69.16 -1.55 68.37 -1.12 67.52 -1.12C67.12 -1.12 66.77 -1.21 66.47 -1.39C66.16 -1.57 65.9 -1.81 65.7 -2.12C65.5 -2.44 65.34 -2.81 65.23 -3.25C65.12 -3.69 65.07 -4.17 65.07 -4.7C65.07 -5.31 65.14 -5.83 65.29 -6.27C65.43 -6.71 65.62 -7.07 65.85 -7.34C66.09 -7.62 66.35 -7.82 66.65 -7.95C66.95 -8.07 67.26 -8.13 67.57 -8.12C67.99 -8.11 68.34 -8.19 68.61 -8.38C68.88 -8.57 69.1 -8.81 69.26 -9.11C68.94 -9.23 68.63 -9.31 68.33 -9.35C68.03 -9.39 67.74 -9.41 67.46 -9.41C66.92 -9.41 66.41 -9.3 65.91 -9.08C65.41 -8.86 64.97 -8.54 64.58 -8.14C64.19 -7.73 63.87 -7.23 63.64 -6.65C63.41 -6.07 63.29 -5.42 63.29 -4.7Z M80.28 -5.71L77.99 -5.71C77.56 -5.71 77.23 -5.59 77 -5.36C76.78 -5.14 76.6 -4.85 76.46 -4.5L81.68 -4.5C81.88 -5.15 81.94 -5.77 81.87 -6.37C81.81 -6.97 81.63 -7.5 81.34 -7.97C81.05 -8.43 80.67 -8.8 80.19 -9.07C79.71 -9.35 79.16 -9.49 78.55 -9.49C77.87 -9.49 77.26 -9.37 76.72 -9.15C76.18 -8.93 75.71 -8.61 75.33 -8.2C74.95 -7.79 74.65 -7.29 74.45 -6.71C74.24 -6.12 74.14 -5.47 74.14 -4.73C74.14 -4.03 74.24 -3.37 74.45 -2.77C74.65 -2.17 74.94 -1.65 75.32 -1.22C75.7 -0.78 76.16 -0.43 76.7 -0.19C77.24 0.06 77.84 0.18 78.5 0.18C78.93 0.18 79.42 0.13 79.96 0.03C80.5 -0.08 81.05 -0.28 81.63 -0.58L81.18 -1.76C80.66 -1.5 80.22 -1.33 79.86 -1.24C79.49 -1.16 79.1 -1.12 78.68 -1.12C78.27 -1.12 77.89 -1.2 77.54 -1.38C77.2 -1.55 76.89 -1.8 76.64 -2.12C76.38 -2.43 76.18 -2.81 76.03 -3.25C75.89 -3.69 75.82 -4.18 75.82 -4.72C75.82 -5.83 76.05 -6.69 76.53 -7.29C77 -7.89 77.62 -8.19 78.37 -8.19C78.66 -8.19 78.93 -8.13 79.18 -8C79.43 -7.88 79.65 -7.7 79.82 -7.47C79.99 -7.24 80.12 -6.98 80.21 -6.68C80.29 -6.38 80.32 -6.05 80.28 -5.71Z M91.33 -8.93C91.72 -8.35 92.18 -8.08 92.72 -8.12C93.5 -8.17 94.12 -7.91 94.6 -7.34C95.07 -6.78 95.31 -5.9 95.31 -4.7C95.31 -4.17 95.25 -3.68 95.12 -3.24C95 -2.8 94.81 -2.42 94.57 -2.11C94.33 -1.79 94.04 -1.55 93.7 -1.38C93.36 -1.2 92.97 -1.12 92.54 -1.12C92.26 -1.12 91.96 -1.14 91.64 -1.18C91.31 -1.22 91.01 -1.3 90.72 -1.4L90.72 -13.64L89.05 -13.64L89.05 -0.72C90.08 -0.12 91.24 0.18 92.54 0.18C93.21 0.18 93.83 0.06 94.38 -0.18C94.94 -0.42 95.42 -0.76 95.81 -1.19C96.21 -1.62 96.52 -2.13 96.74 -2.73C96.96 -3.32 97.07 -3.98 97.07 -4.7C97.07 -5.48 96.97 -6.16 96.76 -6.75C96.55 -7.34 96.27 -7.83 95.91 -8.23C95.56 -8.62 95.15 -8.92 94.7 -9.12C94.24 -9.32 93.77 -9.41 93.28 -9.41C93 -9.41 92.68 -9.37 92.33 -9.29C91.98 -9.2 91.64 -9.08 91.33 -8.93Z M99.47 0L101.2 0L101.2 -9.31L99.47 -9.31ZM99.25 -12.01C99.25 -11.69 99.35 -11.44 99.56 -11.23C99.76 -11.03 100.02 -10.93 100.33 -10.93C100.64 -10.93 100.9 -11.03 101.11 -11.23C101.31 -11.44 101.41 -11.69 101.41 -12.01C101.41 -12.32 101.31 -12.58 101.11 -12.79C100.9 -13 100.64 -13.1 100.33 -13.1C100.02 -13.1 99.76 -13 99.56 -12.79C99.35 -12.58 99.25 -12.32 99.25 -12.01Z M109.78 -5.71L107.5 -5.71C107.06 -5.71 106.73 -5.59 106.51 -5.36C106.28 -5.14 106.1 -4.85 105.97 -4.5L111.19 -4.5C111.38 -5.15 111.44 -5.77 111.38 -6.37C111.31 -6.97 111.13 -7.5 110.84 -7.97C110.56 -8.43 110.17 -8.8 109.69 -9.07C109.21 -9.35 108.67 -9.49 108.05 -9.49C107.37 -9.49 106.76 -9.37 106.22 -9.15C105.68 -8.93 105.22 -8.61 104.83 -8.2C104.45 -7.79 104.15 -7.29 103.95 -6.71C103.75 -6.12 103.64 -5.47 103.64 -4.73C103.64 -4.03 103.75 -3.37 103.95 -2.77C104.15 -2.17 104.45 -1.65 104.82 -1.22C105.2 -0.78 105.66 -0.43 106.2 -0.19C106.74 0.06 107.34 0.18 108 0.18C108.43 0.18 108.92 0.13 109.46 0.03C110 -0.08 110.56 -0.28 111.13 -0.58L110.68 -1.76C110.17 -1.5 109.73 -1.33 109.36 -1.24C108.99 -1.16 108.6 -1.12 108.18 -1.12C107.77 -1.12 107.39 -1.2 107.05 -1.38C106.7 -1.55 106.39 -1.8 106.14 -2.12C105.88 -2.43 105.68 -2.81 105.53 -3.25C105.39 -3.69 105.32 -4.18 105.32 -4.72C105.32 -5.83 105.56 -6.69 106.03 -7.29C106.5 -7.89 107.12 -8.19 107.87 -8.19C108.16 -8.19 108.43 -8.13 108.68 -8C108.94 -7.88 109.15 -7.7 109.32 -7.47C109.5 -7.24 109.63 -6.98 109.71 -6.68C109.79 -6.38 109.82 -6.05 109.78 -5.71Z M114.98 -9.31L113.69 -9.31C113.78 -8.89 113.85 -8.49 113.9 -8.11C113.94 -7.73 113.96 -7.37 113.96 -7.04L113.96 0L115.69 0L115.69 -7.33C115.69 -7.69 115.64 -8.03 115.55 -8.34C115.46 -8.66 115.27 -8.98 114.98 -9.31ZM119.86 -6.77L119.86 0L121.59 0L121.59 -6.59C121.59 -7.14 121.52 -7.6 121.37 -7.97C121.23 -8.35 121.03 -8.65 120.79 -8.87C120.54 -9.1 120.26 -9.26 119.93 -9.35C119.61 -9.44 119.27 -9.49 118.91 -9.49C118.58 -9.49 118.21 -9.42 117.77 -9.29C117.34 -9.16 116.81 -8.9 116.17 -8.53C116.42 -8.27 116.7 -8.1 117 -8.03C117.3 -7.96 117.62 -7.96 117.97 -8.05C118.13 -8.08 118.26 -8.12 118.37 -8.15C118.48 -8.17 118.6 -8.19 118.75 -8.19C119.12 -8.19 119.4 -8.06 119.58 -7.79C119.77 -7.53 119.86 -7.19 119.86 -6.77Z M130.3 -5.71L128.02 -5.71C127.58 -5.71 127.25 -5.59 127.03 -5.36C126.8 -5.14 126.62 -4.85 126.49 -4.5L131.71 -4.5C131.9 -5.15 131.96 -5.77 131.9 -6.37C131.83 -6.97 131.65 -7.5 131.36 -7.97C131.08 -8.43 130.69 -8.8 130.21 -9.07C129.73 -9.35 129.19 -9.49 128.57 -9.49C127.89 -9.49 127.28 -9.37 126.74 -9.15C126.2 -8.93 125.74 -8.61 125.35 -8.2C124.97 -7.79 124.67 -7.29 124.47 -6.71C124.27 -6.12 124.16 -5.47 124.16 -4.73C124.16 -4.03 124.27 -3.37 124.47 -2.77C124.67 -2.17 124.97 -1.65 125.34 -1.22C125.72 -0.78 126.18 -0.43 126.72 -0.19C127.26 0.06 127.86 0.18 128.52 0.18C128.95 0.18 129.44 0.13 129.98 0.03C130.52 -0.08 131.08 -0.28 131.65 -0.58L131.2 -1.76C130.69 -1.5 130.25 -1.33 129.88 -1.24C129.51 -1.16 129.12 -1.12 128.7 -1.12C128.29 -1.12 127.91 -1.2 127.57 -1.38C127.22 -1.55 126.91 -1.8 126.66 -2.12C126.4 -2.43 126.2 -2.81 126.05 -3.25C125.91 -3.69 125.84 -4.18 125.84 -4.72C125.84 -5.83 126.08 -6.69 126.55 -7.29C127.02 -7.89 127.64 -8.19 128.39 -8.19C128.68 -8.19 128.95 -8.13 129.2 -8C129.46 -7.88 129.67 -7.7 129.84 -7.47C130.02 -7.24 130.15 -6.98 130.23 -6.68C130.31 -6.38 130.34 -6.05 130.3 -5.71Z M134.03 -1.76L133.6 -0.58C134.29 -0.23 134.9 -0.01 135.42 0.06C135.95 0.14 136.43 0.18 136.89 0.18C137.29 0.18 137.66 0.11 138.02 -0.03C138.38 -0.17 138.71 -0.35 138.99 -0.59C139.27 -0.82 139.49 -1.09 139.65 -1.4C139.82 -1.7 139.9 -2.03 139.9 -2.38C139.9 -2.89 139.79 -3.32 139.57 -3.67C139.36 -4.02 139.09 -4.31 138.76 -4.55C138.44 -4.78 138.09 -4.98 137.72 -5.16C137.35 -5.33 137 -5.5 136.67 -5.68C136.35 -5.85 136.08 -6.04 135.86 -6.26C135.65 -6.46 135.54 -6.73 135.54 -7.06C135.54 -7.43 135.68 -7.71 135.95 -7.9C136.22 -8.09 136.56 -8.19 136.98 -8.19C137.23 -8.19 137.52 -8.16 137.84 -8.11C138.15 -8.06 138.5 -7.96 138.89 -7.83L139.3 -9C138.8 -9.18 138.34 -9.3 137.93 -9.37C137.53 -9.44 137.15 -9.47 136.8 -9.47C136.33 -9.47 135.92 -9.4 135.56 -9.25C135.2 -9.11 134.9 -8.92 134.66 -8.69C134.42 -8.47 134.24 -8.21 134.11 -7.92C133.98 -7.63 133.92 -7.34 133.92 -7.06C133.92 -6.55 134.03 -6.14 134.24 -5.81C134.46 -5.47 134.73 -5.2 135.05 -4.97C135.38 -4.74 135.73 -4.54 136.1 -4.37C136.47 -4.21 136.82 -4.04 137.14 -3.86C137.47 -3.69 137.74 -3.49 137.95 -3.28C138.17 -3.06 138.28 -2.79 138.28 -2.47C138.28 -2.07 138.14 -1.75 137.88 -1.49C137.62 -1.24 137.21 -1.12 136.67 -1.12C136.29 -1.12 135.87 -1.17 135.41 -1.27C134.94 -1.37 134.48 -1.54 134.03 -1.76Z M147.58 -9.31L146.34 -9.31C146.44 -8.89 146.51 -8.39 146.56 -7.83C146.6 -7.27 146.63 -6.71 146.63 -6.16L146.63 0L148.23 0L148.23 -4.97C148.23 -5.51 148.3 -5.97 148.44 -6.35C148.58 -6.74 148.75 -7.05 148.97 -7.29C149.18 -7.53 149.43 -7.71 149.71 -7.82C149.98 -7.94 150.26 -7.99 150.53 -7.99C150.64 -7.99 150.77 -7.99 150.9 -7.97C151.04 -7.96 151.21 -7.93 151.4 -7.88L151.61 -9.29C151.27 -9.38 150.97 -9.43 150.73 -9.43C150.24 -9.43 149.78 -9.28 149.35 -8.99C148.91 -8.7 148.58 -8.32 148.34 -7.87L148.19 -7.54L148.19 -7.87C148.13 -8.15 148.06 -8.42 147.99 -8.65C147.91 -8.88 147.77 -9.1 147.58 -9.31Z M160.25 -3.08L160.25 -5.65C160.25 -6.88 159.94 -7.82 159.31 -8.49C158.68 -9.15 157.78 -9.49 156.62 -9.49C156.22 -9.49 155.8 -9.45 155.35 -9.37C154.9 -9.29 154.38 -9.13 153.79 -8.87L154.21 -7.76C154.64 -7.91 155.01 -8.02 155.33 -8.09C155.65 -8.16 155.97 -8.19 156.29 -8.19C157.11 -8.19 157.69 -7.97 158.04 -7.51C158.39 -7.06 158.56 -6.49 158.56 -5.78L158.56 -2.41C158.21 -1.96 157.83 -1.63 157.42 -1.42C157.01 -1.22 156.59 -1.12 156.19 -1.12C155.73 -1.12 155.37 -1.25 155.11 -1.52C154.84 -1.79 154.71 -2.11 154.71 -2.48C154.71 -2.65 154.73 -2.82 154.78 -2.98C154.83 -3.14 154.93 -3.29 155.07 -3.43C155.21 -3.57 155.41 -3.69 155.66 -3.8C155.9 -3.91 156.22 -3.99 156.62 -4.05C156.86 -4.09 157.06 -4.16 157.21 -4.27C157.37 -4.37 157.5 -4.5 157.6 -4.64C157.7 -4.77 157.77 -4.91 157.82 -5.06C157.86 -5.2 157.89 -5.33 157.91 -5.44C156.99 -5.33 156.21 -5.19 155.57 -5.03C154.94 -4.87 154.43 -4.67 154.04 -4.43C153.65 -4.19 153.36 -3.9 153.19 -3.56C153.01 -3.23 152.93 -2.83 152.93 -2.38C152.93 -2.02 153 -1.68 153.14 -1.37C153.27 -1.06 153.47 -0.79 153.74 -0.56C154 -0.33 154.32 -0.15 154.69 -0.02C155.06 0.11 155.48 0.18 155.95 0.18C156.38 0.18 156.79 0.11 157.19 -0.03C157.57 -0.17 158 -0.46 158.45 -0.92L158.65 -1.24L158.67 -0.92C158.74 -0.73 158.83 -0.55 158.92 -0.39C159.02 -0.23 159.15 -0.1 159.32 0L160.54 0C160.46 -0.31 160.39 -0.72 160.34 -1.23C160.28 -1.74 160.25 -2.36 160.25 -3.08Z M162.85 0L164.57 0L164.57 -9.31L162.85 -9.31ZM164.65 -11.36L166.23 -13.32L164.48 -13.32L162.88 -10.84C163.19 -10.75 163.51 -10.75 163.82 -10.82C164.13 -10.89 164.41 -11.07 164.65 -11.36Z M171.59 0.18C171.87 0.18 172.22 0.14 172.65 0.05C173.07 -0.05 173.53 -0.21 174.02 -0.45L173.57 -1.64C173.15 -1.45 172.78 -1.31 172.47 -1.23C172.15 -1.16 171.86 -1.12 171.59 -1.12C171.25 -1.12 170.92 -1.19 170.61 -1.33C170.31 -1.48 170.04 -1.69 169.8 -1.98C169.57 -2.27 169.38 -2.63 169.25 -3.08C169.11 -3.52 169.04 -4.05 169.04 -4.66C169.04 -5.26 169.11 -5.78 169.25 -6.23C169.38 -6.67 169.57 -7.04 169.8 -7.33C170.04 -7.61 170.31 -7.83 170.61 -7.97C170.92 -8.12 171.25 -8.19 171.59 -8.19C171.87 -8.19 172.15 -8.17 172.43 -8.14C172.71 -8.1 173.03 -8.03 173.38 -7.94L173.79 -9.11C173.43 -9.24 173.05 -9.34 172.67 -9.4C172.28 -9.46 171.92 -9.49 171.59 -9.49C171.02 -9.49 170.47 -9.38 169.94 -9.17C169.41 -8.96 168.95 -8.65 168.55 -8.24C168.16 -7.84 167.84 -7.33 167.61 -6.73C167.37 -6.13 167.26 -5.44 167.26 -4.66C167.26 -3.88 167.37 -3.19 167.6 -2.58C167.83 -1.98 168.13 -1.47 168.53 -1.06C168.92 -0.65 169.37 -0.35 169.9 -0.13C170.43 0.08 170.99 0.18 171.59 0.18Z M181.33 -5.71L179.05 -5.71C178.61 -5.71 178.28 -5.59 178.06 -5.36C177.83 -5.14 177.65 -4.85 177.52 -4.5L182.74 -4.5C182.93 -5.15 182.99 -5.77 182.93 -6.37C182.86 -6.97 182.68 -7.5 182.39 -7.97C182.11 -8.43 181.72 -8.8 181.24 -9.07C180.76 -9.35 180.22 -9.49 179.6 -9.49C178.92 -9.49 178.31 -9.37 177.77 -9.15C177.23 -8.93 176.77 -8.61 176.38 -8.2C176 -7.79 175.7 -7.29 175.5 -6.71C175.3 -6.12 175.19 -5.47 175.19 -4.73C175.19 -4.03 175.3 -3.37 175.5 -2.77C175.7 -2.17 176 -1.65 176.37 -1.22C176.75 -0.78 177.21 -0.43 177.75 -0.19C178.29 0.06 178.89 0.18 179.55 0.18C179.98 0.18 180.47 0.13 181.01 0.03C181.55 -0.08 182.11 -0.28 182.68 -0.58L182.23 -1.76C181.72 -1.5 181.28 -1.33 180.91 -1.24C180.54 -1.16 180.15 -1.12 179.73 -1.12C179.32 -1.12 178.94 -1.2 178.6 -1.38C178.25 -1.55 177.94 -1.8 177.69 -2.12C177.43 -2.43 177.23 -2.81 177.08 -3.25C176.94 -3.69 176.87 -4.18 176.87 -4.72C176.87 -5.83 177.11 -6.69 177.58 -7.29C178.05 -7.89 178.67 -8.19 179.42 -8.19C179.71 -8.19 179.98 -8.13 180.23 -8C180.49 -7.88 180.7 -7.7 180.87 -7.47C181.05 -7.24 181.18 -6.98 181.26 -6.68C181.34 -6.38 181.37 -6.05 181.33 -5.71Z M185.06 -1.76L184.63 -0.58C185.32 -0.23 185.93 -0.01 186.45 0.06C186.98 0.14 187.46 0.18 187.92 0.18C188.32 0.18 188.69 0.11 189.05 -0.03C189.41 -0.17 189.74 -0.35 190.02 -0.59C190.3 -0.82 190.52 -1.09 190.68 -1.4C190.85 -1.7 190.93 -2.03 190.93 -2.38C190.93 -2.89 190.82 -3.32 190.6 -3.67C190.39 -4.02 190.12 -4.31 189.79 -4.55C189.47 -4.78 189.12 -4.98 188.75 -5.16C188.38 -5.33 188.03 -5.5 187.7 -5.68C187.38 -5.85 187.11 -6.04 186.89 -6.26C186.68 -6.46 186.57 -6.73 186.57 -7.06C186.57 -7.43 186.71 -7.71 186.98 -7.9C187.25 -8.09 187.59 -8.19 188.01 -8.19C188.26 -8.19 188.55 -8.16 188.87 -8.11C189.18 -8.06 189.53 -7.96 189.92 -7.83L190.33 -9C189.83 -9.18 189.37 -9.3 188.96 -9.37C188.56 -9.44 188.18 -9.47 187.83 -9.47C187.36 -9.47 186.95 -9.4 186.59 -9.25C186.23 -9.11 185.93 -8.92 185.69 -8.69C185.45 -8.47 185.27 -8.21 185.14 -7.92C185.01 -7.63 184.95 -7.34 184.95 -7.06C184.95 -6.55 185.06 -6.14 185.27 -5.81C185.49 -5.47 185.76 -5.2 186.08 -4.97C186.41 -4.74 186.76 -4.54 187.13 -4.37C187.5 -4.21 187.85 -4.04 188.17 -3.86C188.5 -3.69 188.77 -3.49 188.98 -3.28C189.2 -3.06 189.31 -2.79 189.31 -2.47C189.31 -2.07 189.17 -1.75 188.91 -1.49C188.65 -1.24 188.24 -1.12 187.7 -1.12C187.32 -1.12 186.9 -1.17 186.44 -1.27C185.97 -1.37 185.51 -1.54 185.06 -1.76Z"/></g></g></svg>